<?xml version="1.0" encoding="UTF-8"?>
<svg id="_レイヤー_1" data-name="レイヤー 1" xmlns="http://www.w3.org/2000/svg" viewBox="0 0 561.26 113.39">
  <defs>
    <style>
      .cls-1 {
        fill: #dfdb4b;
      }
    </style>
  </defs>
  <path class="cls-1" d="m61.28,89.97H.05V8.48h59.61v13.05H15.54v20.64h39.14v12.82H15.54v21.92h45.74v13.05Zm-60.79-.43h60.36v-12.19H15.11v-22.78h39.14v-11.96H15.11v-21.51h44.12v-12.19H.48v80.63Z"/>
  <path class="cls-1" d="m134.12,89.97h-14.91v-33.8c0-10.54-5.01-16.11-14.49-16.11-10.83,0-17.04,6.72-17.04,18.43v31.48h-14.91V27.7h14.21v7.62c4.75-5.37,12.21-8.32,21.09-8.32,7.7,0,14.14,2.29,18.62,6.62,4.92,4.75,7.42,11.72,7.42,20.7v35.65Zm-14.47-.43h14.04v-35.22c0-17.08-9.33-26.88-25.61-26.88-8.99,0-16.5,3.06-21.14,8.61l-.38.46v-8.37h-13.35v61.4h14.04v-31.05c0-11.81,6.53-18.86,17.47-18.86,9.76,0,14.92,5.72,14.92,16.54v33.37Z"/>
  <path class="cls-1" d="m176.87,113.25c-12.18,0-23.48-3.31-30.24-8.85l-.14-.12,6.71-11.26.19.16c5.47,4.54,14.16,7.36,22.67,7.36,13.28,0,19.47-5.89,19.47-18.54v-2.7c-4.96,5.16-12.04,7.89-20.51,7.89-18.24,0-31.48-12.7-31.48-30.21,0-8.74,3.13-16.27,9.06-21.77,5.71-5.29,13.67-8.21,22.42-8.21s16.32,2.95,21.21,8.55v-7.85h14.21v52.67c0,11.09-2.9,19.47-8.62,24.91-5.55,5.28-13.95,7.96-24.94,7.96Zm-29.83-9.07c6.7,5.41,17.83,8.63,29.83,8.63,10.88,0,19.17-2.64,24.65-7.84,5.63-5.36,8.49-13.63,8.49-24.6V28.13h-13.35v8.6l-.38-.46c-4.8-5.78-12.15-8.84-21.26-8.84s-16.5,2.87-22.13,8.09c-5.84,5.41-8.92,12.83-8.92,21.45s3.17,16.17,8.92,21.57c5.64,5.29,13.5,8.21,22.13,8.21s15.68-2.82,20.57-8.15l.38-.41v3.8c0,12.95-6.32,18.98-19.9,18.98-8.51,0-17.2-2.79-22.76-7.3l-6.26,10.51Zm30.17-29.26c-11.24,0-19.09-7.37-19.09-17.93s7.85-17.7,19.09-17.7,18.98,7.28,18.98,17.7-7.8,17.93-18.98,17.93Zm0-35.2c-10.99,0-18.66,7.1-18.66,17.27s7.67,17.5,18.66,17.5,18.54-7.2,18.54-17.5-7.63-17.27-18.54-17.27Z"/>
  <path class="cls-1" d="m240.43,89.97h-14.91V27.7h14.91v62.27Zm-14.47-.43h14.04V28.13h-14.04v61.4Zm7.08-71.59c-5.4,0-9.48-3.83-9.48-8.9S227.63.14,233.04.14s9.48,3.68,9.48,8.55c0,5.36-3.99,9.25-9.48,9.25Zm0-17.37c-5.16,0-9.05,3.64-9.05,8.47s3.89,8.47,9.05,8.47,9.05-3.71,9.05-8.82c0-4.63-3.89-8.12-9.05-8.12Z"/>
  <path class="cls-1" d="m316.86,89.97h-14.91v-33.8c0-10.54-5.01-16.11-14.49-16.11-10.83,0-17.04,6.72-17.04,18.43v31.48h-14.91V27.7h14.21v7.62c4.75-5.37,12.21-8.32,21.09-8.32,7.7,0,14.14,2.29,18.62,6.62,4.92,4.75,7.42,11.72,7.42,20.7v35.65Zm-14.47-.43h14.04v-35.22c0-17.08-9.33-26.88-25.61-26.88-8.99,0-16.5,3.06-21.14,8.61l-.38.46v-8.37h-13.35v61.4h14.04v-31.05c0-11.81,6.53-18.86,17.47-18.86,9.76,0,14.92,5.72,14.92,16.54v33.37Z"/>
  <path class="cls-1" d="m360.65,90.78c-10.12,0-18.77-3.12-25-9.02-6.05-5.72-9.38-13.86-9.38-22.93,0-18.44,13.53-31.83,32.18-31.83s31.48,13.23,31.48,32.18c0,1.31-.15,3.26-.23,4.3l-.02.2h-48.46c1.83,8.88,9.38,14.39,19.77,14.39,6.83,0,12.28-2.18,16.64-6.65l.16-.17,8.03,9.23-.12.14c-5.59,6.64-14.26,10.15-25.06,10.15Zm-2.2-63.34c-18.39,0-31.74,13.2-31.74,31.4,0,8.94,3.28,16.97,9.24,22.61,6.15,5.82,14.7,8.9,24.7,8.9,10.59,0,19.1-3.41,24.61-9.86l-7.48-8.6c-4.42,4.45-9.91,6.61-16.78,6.61-10.71,0-18.47-5.75-20.25-15l-.05-.26h48.58c.09-1.07.21-2.85.21-4.07,0-18.69-12.77-31.74-31.05-31.74Zm17.73,26.63h-35.58l.04-.25c1.42-9.26,8.42-15.24,17.81-15.24s16.52,6.13,17.7,15.24l.03.24Zm-35.08-.43h34.59c-1.25-8.76-8.15-14.62-17.24-14.62s-15.87,5.73-17.35,14.62Z"/>
  <path class="cls-1" d="m429.21,90.78c-10.12,0-18.77-3.12-25-9.02-6.05-5.72-9.38-13.86-9.38-22.93,0-18.44,13.53-31.83,32.18-31.83s31.48,13.23,31.48,32.18c0,1.32-.15,3.26-.23,4.3l-.02.2h-48.46c1.83,8.88,9.38,14.39,19.77,14.39,6.83,0,12.28-2.18,16.64-6.65l.16-.17,8.03,9.23-.12.14c-5.59,6.64-14.26,10.15-25.06,10.15Zm-2.2-63.34c-18.39,0-31.74,13.2-31.74,31.4,0,8.94,3.28,16.97,9.24,22.61,6.15,5.82,14.7,8.9,24.7,8.9,10.59,0,19.1-3.41,24.61-9.86l-7.48-8.6c-4.42,4.45-9.91,6.61-16.78,6.61-10.71,0-18.47-5.75-20.25-15l-.05-.26h48.58c.09-1.07.21-2.85.21-4.07,0-18.69-12.77-31.74-31.05-31.74Zm17.73,26.63h-35.58l.04-.25c1.42-9.26,8.42-15.24,17.81-15.24s16.52,6.13,17.7,15.24l.03.24Zm-35.08-.43h34.59c-1.25-8.76-8.15-14.62-17.24-14.62s-15.87,5.73-17.35,14.62Z"/>
  <path class="cls-1" d="m483.39,89.97h-14.91V27.7h14.21v8.54c4.26-6.13,11.58-9.23,21.79-9.23h.22v14.25l-.25-.05c-1.31-.24-2.33-.34-3.32-.34-11.27,0-17.73,6.89-17.73,18.89v30.21Zm-14.47-.43h14.04v-29.78c0-12.28,6.62-19.32,18.16-19.32.95,0,1.93.09,3.14.31v-13.31c-10.26.04-17.53,3.28-21.6,9.63l-.4.62v-9.55h-13.35v61.4Z"/>
  <path class="cls-1" d="m532.97,90.78c-9.83,0-20.4-2.81-26.3-6.99l-.15-.11,5.75-11.38.2.13c5.62,3.71,14.03,6.1,21.42,6.1,8.46,0,12.75-2.23,12.75-6.62,0-4.65-6.38-5.64-13.76-6.79-10.89-1.7-24.45-3.81-24.45-18.57,0-11.88,10.77-19.55,27.43-19.55,8.61,0,17.97,2.15,23.27,5.36l.17.1-5.75,11.39-.2-.12c-5.26-3.1-11.02-4.6-17.61-4.6-11.51,0-12.75,4.71-12.75,6.73,0,5.05,6.62,6.13,14.28,7.39,10.66,1.75,23.93,3.93,23.93,18.2,0,11.92-10.82,19.32-28.24,19.32Zm-25.89-7.23c5.86,4.07,16.23,6.8,25.89,6.8,17.15,0,27.81-7.24,27.81-18.89,0-13.9-12.52-15.96-23.57-17.77-7.86-1.29-14.64-2.41-14.64-7.82,0-2.15,1.28-7.16,13.19-7.16,6.58,0,12.35,1.49,17.63,4.55l5.36-10.62c-5.27-3.11-14.43-5.19-22.88-5.19-16.4,0-27,7.51-27,19.12,0,14.39,13.35,16.47,24.08,18.14,7.58,1.18,14.13,2.2,14.13,7.22,0,4.68-4.44,7.05-13.19,7.05-7.38,0-15.77-2.37-21.45-6.04l-5.36,10.62Z"/>
</svg>