<?xml version="1.0" encoding="UTF-8"?>
<svg id="_レイヤー_1" data-name="レイヤー 1" xmlns="http://www.w3.org/2000/svg" viewBox="0 0 541.42 110.55">
  <defs>
    <style>
      .cls-1 {
        fill: #fff;
      }
    </style>
  </defs>
  <path class="cls-1" d="m54.37,85.01L.55,64.11v-12.8l.14-.05,53.68-20.84v12.51l-39.5,14.79,39.5,14.79v12.51ZM.98,63.81l52.95,20.56v-11.58l-40.3-15.09,40.3-15.09v-11.58L.98,51.6v12.21Z"/>
  <path class="cls-1" d="m67.74,110.04h-13.43l.1-.29L92.68.52h13.43l-.1.29-38.27,109.23Zm-12.82-.43h12.51L105.5.95h-12.51l-38.06,108.66Z"/>
  <path class="cls-1" d="m207.17,98.46h-16.29l-19.9-59.48-20.21,59.48h-16.41l-27.01-81.5h16.09l.05.15,19.96,61.05,20.79-61.2h14.21l.05.15,20.26,61.37,20.6-61.52h14.81l-.09.28-26.92,81.21Zm-15.98-.43h15.67l26.72-80.63h-13.91l-20.92,62.46-20.62-62.46h-13.59l-21.1,62.13-20.32-62.13h-15.18l26.72,80.63h15.79l20.52-60.4,20.2,60.4Z"/>
  <path class="cls-1" d="m270.82,99.27c-6.34,0-12.06-1.39-17.01-4.14-4.95-2.75-8.92-6.57-11.78-11.37-2.86-4.8-4.32-10.33-4.32-16.44s1.45-11.74,4.32-16.5c2.86-4.76,6.82-8.54,11.78-11.25,4.95-2.71,10.67-4.08,17.01-4.08s12.19,1.37,17.18,4.08h0c4.99,2.71,8.95,6.48,11.78,11.2,2.83,4.72,4.26,10.29,4.26,16.56s-1.43,11.64-4.26,16.44c-2.83,4.8-6.79,8.63-11.78,11.37-4.99,2.75-10.77,4.14-17.19,4.14Zm0-63.35c-6.26,0-11.92,1.35-16.8,4.03-4.89,2.67-8.79,6.41-11.62,11.1-2.82,4.69-4.25,10.17-4.25,16.28s1.43,11.49,4.25,16.22c2.82,4.73,6.73,8.5,11.62,11.21,4.88,2.71,10.54,4.08,16.8,4.08s12.05-1.37,16.98-4.08c4.92-2.71,8.83-6.48,11.61-11.21,2.78-4.73,4.2-10.19,4.2-16.22s-1.41-11.68-4.2-16.33c-2.79-4.65-6.69-8.37-11.61-11.04h0c-4.93-2.67-10.64-4.03-16.98-4.03Zm0,50.95c-3.5,0-6.67-.79-9.43-2.34-2.76-1.56-4.99-3.84-6.63-6.8-1.63-2.95-2.46-6.45-2.46-10.41s.83-7.56,2.46-10.47c1.63-2.92,3.86-5.18,6.63-6.74,2.76-1.56,5.97-2.34,9.54-2.34s6.69.79,9.49,2.34c2.8,1.56,5.03,3.83,6.63,6.74,1.59,2.92,2.4,6.44,2.4,10.47s-.81,7.46-2.4,10.41h0c-1.6,2.96-3.83,5.25-6.63,6.8-2.8,1.55-6.03,2.34-9.6,2.34Zm.12-38.68c-3.5,0-6.64.77-9.33,2.29-2.69,1.52-4.87,3.73-6.46,6.58-1.6,2.85-2.4,6.3-2.4,10.26s.81,7.32,2.4,10.2c1.59,2.89,3.77,5.12,6.46,6.63,2.69,1.52,5.79,2.29,9.22,2.29s6.66-.77,9.39-2.29c2.73-1.52,4.9-3.75,6.46-6.63h0c1.56-2.89,2.35-6.32,2.35-10.2s-.79-7.41-2.35-10.26c-1.56-2.84-3.73-5.06-6.46-6.57-2.73-1.52-5.86-2.29-9.28-2.29Z"/>
  <path class="cls-1" d="m328.94,98.46h-14.91v-62.27h14.21v8.57c1.75-2.48,4.04-4.5,6.8-6,3.99-2.17,9.03-3.27,14.98-3.27h.22v14.27l-.27-.07c-.6-.15-1.17-.24-1.7-.28-.54-.04-1.08-.06-1.61-.06-5.4,0-9.75,1.6-12.93,4.74-3.19,3.15-4.8,7.91-4.8,14.15v30.21Zm-14.48-.43h14.04v-29.78c0-6.36,1.66-11.22,4.93-14.46,3.27-3.23,7.72-4.87,13.24-4.87.54,0,1.09.02,1.64.06.47.03.98.11,1.51.23v-13.29c-5.78.03-10.68,1.11-14.56,3.22-2.92,1.59-5.29,3.75-7.04,6.44l-.4.61v-9.57h-13.35v61.41Z"/>
  <path class="cls-1" d="m424.13,98.46h-18.15l-.06-.08-21.28-26.3-10.53,9.96v16.42h-14.91V12.1h14.91v51.55l29.69-27.46h17.98l-26.04,26.15,28.39,36.13Zm-17.94-.43h17.05l-28.08-35.73,25.57-25.68h-16.77l-30.29,28.01V12.53h-14.04v85.5h14.04v-16.18l11-10.41,21.51,26.58Z"/>
  <path class="cls-1" d="m448.7,99.27c-5.16,0-10.19-.68-14.94-2.03-4.75-1.35-8.57-3.02-11.36-4.95l-.15-.11,5.75-11.38.2.13c2.75,1.76,6.08,3.23,9.91,4.38,3.82,1.15,7.7,1.73,11.52,1.73,4.49,0,7.79-.61,9.79-1.82,1.97-1.19,2.96-2.8,2.96-4.79,0-1.63-.65-2.84-1.98-3.7-1.36-.87-3.17-1.54-5.37-2-2.21-.46-4.72-.88-7.46-1.27-2.74-.38-5.51-.91-8.24-1.57-2.74-.66-5.28-1.64-7.53-2.92-2.26-1.28-4.12-3.04-5.52-5.22-1.41-2.19-2.12-5.11-2.12-8.69,0-3.97,1.15-7.46,3.4-10.38,2.25-2.91,5.46-5.19,9.53-6.79,4.06-1.59,8.94-2.39,14.5-2.39,4.16,0,8.43.47,12.67,1.4,4.25.93,7.82,2.26,10.6,3.96l.17.1-5.75,11.39-.2-.12c-2.9-1.75-5.86-2.97-8.79-3.62-2.95-.65-5.91-.98-8.81-.98-4.34,0-7.59.65-9.67,1.94-2.05,1.26-3.08,2.88-3.08,4.8,0,1.79.65,3.1,1.99,3.99,1.37.91,3.17,1.64,5.37,2.17,2.22.54,4.72.98,7.45,1.33,2.74.35,5.49.87,8.19,1.57,2.7.7,5.23,1.66,7.52,2.86h0c2.3,1.21,4.18,2.93,5.58,5.11,1.41,2.19,2.12,5.07,2.12,8.57,0,3.89-1.17,7.33-3.46,10.21-2.29,2.88-5.58,5.14-9.76,6.73-4.18,1.58-9.23,2.39-15.02,2.39Zm-25.89-7.24c2.73,1.86,6.46,3.47,11.07,4.78,4.71,1.34,9.7,2.02,14.82,2.02,5.73,0,10.73-.79,14.86-2.36,4.11-1.56,7.33-3.78,9.58-6.59,2.24-2.8,3.37-6.15,3.37-9.94,0-3.42-.69-6.22-2.05-8.34-1.36-2.12-3.19-3.79-5.42-4.96h0c-2.26-1.18-4.75-2.13-7.42-2.82-2.68-.69-5.42-1.21-8.14-1.56-2.74-.35-5.26-.8-7.49-1.34-2.25-.54-4.1-1.29-5.51-2.23-1.45-.96-2.18-2.43-2.18-4.35,0-2.08,1.11-3.81,3.29-5.16,2.15-1.33,5.48-2,9.9-2,2.93,0,5.93.33,8.91.99,2.91.64,5.85,1.84,8.72,3.55l5.36-10.62c-2.72-1.63-6.19-2.91-10.3-3.81-4.21-.92-8.44-1.38-12.58-1.38-5.5,0-10.33.79-14.34,2.36-4,1.56-7.14,3.8-9.35,6.65-2.2,2.84-3.31,6.25-3.31,10.12,0,3.49.69,6.34,2.05,8.45,1.36,2.12,3.17,3.83,5.37,5.08,2.21,1.26,4.71,2.23,7.41,2.87,2.72.65,5.48,1.18,8.2,1.56,2.75.39,5.27.82,7.48,1.28,2.25.47,4.11,1.16,5.52,2.06,1.45.93,2.18,2.29,2.18,4.06,0,2.16-1.07,3.89-3.17,5.16-2.07,1.25-5.44,1.88-10.01,1.88-3.86,0-7.78-.59-11.64-1.75-3.77-1.13-7.07-2.58-9.81-4.3l-5.37,10.62Z"/>
  <path class="cls-1" d="m487.05,85.01v-12.51l39.5-14.79-39.5-14.79v-12.51l53.82,20.9v12.8l-.14.05-53.68,20.84Zm.43-12.21v11.58l52.95-20.56v-12.21l-52.95-20.56v11.58l40.3,15.09-40.3,15.09Z"/>
</svg>