<?xml version="1.0" encoding="UTF-8"?>
<svg id="_レイヤー_1" data-name="レイヤー 1" xmlns="http://www.w3.org/2000/svg" viewBox="0 0 818 655">
  <defs>
    <style>
      .cls-1 {
        fill: #fff;
      }
    </style>
  </defs>
  <path class="cls-1" d="m58.24,557.49l-1.28-1.28,116.59-116.59c4.78-4.77,12.54-4.77,17.32,0l68.19,68.19c4.07,4.07,10.69,4.07,14.75,0l42.66-42.66c1.96-1.96,3.04-4.58,3.04-7.38s-1.08-5.41-3.04-7.38l-116.53-116.53c-4.77-4.77-4.77-12.54,0-17.32L485.54,30.94l1.28,1.28L201.22,317.83c-4.07,4.07-4.07,10.69,0,14.75l116.53,116.53c4.77,4.77,4.77,12.54,0,17.32l-42.66,42.66c-2.3,2.3-5.38,3.57-8.66,3.57s-6.35-1.27-8.66-3.57l-68.19-68.19c-4.07-4.07-10.69-4.07-14.75,0l-116.59,116.59Z"/>
  <path class="cls-1" d="m227.29,585.15c-2.99,0-5.98-1.14-8.26-3.42l-129.71-129.71c-4.29-4.29-11.27-4.29-15.55,0L5.73,520.05l-.48-.48,68.03-68.03c4.55-4.55,11.96-4.55,16.52,0l129.71,129.71c4.29,4.29,11.27,4.29,15.55,0l62.09-62.09c4.29-4.29,4.29-11.27,0-15.55L28.65,235.1l.48-.48,268.5,268.5c4.55,4.55,4.55,11.96,0,16.52l-62.09,62.09c-2.28,2.28-5.27,3.42-8.26,3.42Z"/>
  <path class="cls-1" d="m638.38,268.22c-2.99,0-5.98-1.14-8.26-3.42l-121.49-121.49c-2.07-2.07-4.83-3.21-7.78-3.21s-5.71,1.14-7.78,3.21l-79.24,79.24-.48-.48,79.24-79.24c4.55-4.55,11.96-4.55,16.52,0l121.49,121.49c4.29,4.29,11.27,4.29,15.55,0l42.66-42.66c4.29-4.29,4.29-11.27,0-15.55L483.29.58l.48-.48,205.53,205.53c4.55,4.55,4.55,11.96,0,16.52l-42.66,42.66c-2.28,2.28-5.27,3.42-8.26,3.42Z"/>
  <path class="cls-1" d="m466.04,515.85l-101.84-101.84c-4.77-4.77-4.77-12.54,0-17.32l213.1-213.09c4.07-4.07,4.07-10.69,0-14.75L435.35,26.89c-4.07-4.07-10.69-4.07-14.75,0l-44.54,44.54c-1.96,1.96-3.04,4.58-3.04,7.38s1.08,5.41,3.04,7.38l42.66,42.66c4.77,4.77,4.77,12.54,0,17.32l-42.66,42.66c-4.78,4.77-12.54,4.77-17.32,0l-98.3-98.3,1.28-1.28,98.3,98.3c1.96,1.96,4.58,3.04,7.38,3.04s5.41-1.08,7.38-3.04l42.66-42.66c4.07-4.07,4.07-10.69,0-14.75l-42.66-42.66c-4.77-4.77-4.77-12.54,0-17.32l44.54-44.54c2.3-2.3,5.38-3.57,8.66-3.57s6.35,1.27,8.66,3.57l141.95,141.95c4.77,4.77,4.77,12.54,0,17.32l-213.1,213.09c-4.07,4.07-4.07,10.69,0,14.75l101.84,101.84-1.28,1.28Z"/>
  <path class="cls-1" d="m118.87,593.98l-.48-.48,72.65-72.65c4.29-4.29,4.29-11.27,0-15.55l-52.38-52.38c-4.29-4.29-11.27-4.29-15.55,0l-42.66,42.66c-4.55,4.55-11.96,4.55-16.52,0L3.45,435.1c-2.2-2.2-3.41-5.13-3.41-8.26s1.21-6.06,3.41-8.26l151.57-151.58c4.55-4.55,11.96-4.55,16.52,0l179.54,179.54c4.29,4.29,11.27,4.29,15.55,0l249.85-249.85.48.48-249.85,249.85c-4.55,4.55-11.96,4.55-16.52,0l-179.54-179.54c-2.07-2.07-4.83-3.21-7.78-3.21s-5.71,1.14-7.78,3.21L3.93,419.06c-4.29,4.29-4.29,11.27,0,15.55l60.48,60.48c4.29,4.29,11.27,4.29,15.55,0l42.66-42.66c2.2-2.2,5.13-3.41,8.26-3.41s6.06,1.21,8.26,3.41l52.38,52.38c4.55,4.55,4.55,11.96,0,16.52l-72.65,72.65Z"/>
  <path class="cls-1" d="m130.85,621.31l-1.28-1.28,91.17-91.17c4.07-4.07,4.07-10.69,0-14.75L52.5,345.87c-2.3-2.3-3.57-5.38-3.57-8.66s1.27-6.35,3.57-8.66l42.66-42.66c4.78-4.77,12.54-4.77,17.32,0l85.27,85.27c4.07,4.07,10.69,4.07,14.75,0l101.04-101.04c4.78-4.78,12.54-4.77,17.32,0l194.23,194.23-1.28,1.28-194.23-194.23c-4.07-4.07-10.68-4.07-14.75,0l-101.04,101.04c-4.78,4.77-12.54,4.77-17.32,0l-85.27-85.27c-1.96-1.96-4.58-3.04-7.38-3.04s-5.42,1.08-7.38,3.04l-42.66,42.66c-1.96,1.96-3.04,4.58-3.04,7.38s1.08,5.41,3.04,7.38l168.24,168.24c2.3,2.3,3.57,5.38,3.57,8.66s-1.27,6.35-3.57,8.66l-91.17,91.17Z"/>
  <path class="cls-1" d="m263.62,654.9l-1.28-1.28,314.96-314.96c4.07-4.07,4.07-10.69,0-14.75l-108.37-108.37c-1.96-1.96-4.58-3.04-7.38-3.04s-5.41,1.08-7.38,3.04L109.28,560.43l-1.28-1.28L452.9,214.25c4.78-4.77,12.54-4.77,17.32,0l108.37,108.37c4.77,4.77,4.77,12.54,0,17.32l-314.96,314.96Z"/>
  <path class="cls-1" d="m296.09,574.13l-.48-.48,244.34-244.34c2.07-2.07,3.21-4.83,3.21-7.78s-1.14-5.71-3.21-7.78l-220.76-220.76c-2.2-2.2-3.41-5.13-3.41-8.26s1.21-6.06,3.41-8.26l32.2-32.2c2.2-2.2,5.13-3.41,8.26-3.41s6.06,1.21,8.26,3.41l212.81,212.81c4.29,4.29,11.27,4.29,15.55,0l221.22-221.22.48.48-221.22,221.22c-4.55,4.55-11.96,4.55-16.52,0L367.42,44.76c-2.07-2.07-4.83-3.21-7.78-3.21s-5.71,1.14-7.78,3.21l-32.2,32.2c-2.07,2.07-3.21,4.83-3.21,7.78s1.14,5.71,3.21,7.78l220.76,220.76c4.55,4.55,4.55,11.96,0,16.52l-244.34,244.34Z"/>
</svg>