<?xml version="1.0" encoding="UTF-8"?>
<svg id="_レイヤー_1" data-name="レイヤー 1" xmlns="http://www.w3.org/2000/svg" viewBox="0 0 744 162">
  <defs>
    <style>
      .cls-1 {
        fill: #3886c7;
      }
    </style>
  </defs>
  <path class="cls-1" d="m8.43,115.57H.43v-35.4h7.27c5.07,15.49,13.43,29.79,33.58,29.79,10.54,0,20.7-6.46,20.7-17.03,0-15.84-17.42-20.1-30.12-25.21C15.5,61.12,2.26,52.59,2.26,33.86,2.26,12.92,19.3,1.66,40.38,1.66c9.8,0,19.96,2.08,27.23,8.34l2.34-6.61h7.83l1.08,30.62h-7.8c-3.27-13.1-13.61-24.52-29.4-24.52-8.9,0-17.97,4.77-17.97,14,0,12.74,13.78,16.32,24.12,20.74,19.42,7.84,37.77,15.84,37.77,38.66s-20.7,34.89-43.02,34.89c-11.6,0-23.42-3.76-31.59-11.56l-2.53,9.34Z"/>
  <path class="cls-1" d="m129.33,94.63c0,2.92,0,10.57,1.81,12.79,1.99,2.54,6.7,3.07,9.6,3.07v5.42c-7.24-.15-14.7-.51-22.33-.69-8.16.19-16.14.54-24.31.69v-5.42c2.9,0,7.62-.54,9.62-3.07,1.79-2.23,1.79-9.87,1.79-12.79v-29.45c0-10.22-1.97-13.95-11.59-13.8v-5.61c11.78-.85,23.41-2.38,35.4-5.11v53.97M101.54,13.42c0-7.15,6.17-12.95,13.8-12.95s13.41,5.8,13.41,12.95-6.34,12.61-13.95,12.61c-6.9,0-13.26-6.11-13.26-12.61Z"/>
  <path class="cls-1" d="m153.46,102.81c0-7.65,6.53-13.63,14.72-13.63s14.68,5.8,14.68,13.48-6.34,14.11-14.68,14.11-14.72-6.26-14.72-13.95Z"/>
  <path class="cls-1" d="m208.09,115.57h-7.97v-35.4h7.26c5.07,15.49,13.43,29.79,33.57,29.79,10.54,0,20.7-6.46,20.7-17.03,0-15.84-17.43-20.1-30.13-25.21-16.35-6.61-29.59-15.14-29.59-33.87,0-20.94,17.06-32.2,38.15-32.2,9.77,0,19.93,2.08,27.2,8.34l2.35-6.61h7.81l1.1,30.62h-7.8c-3.28-13.1-13.6-24.52-29.42-24.52-8.89,0-17.96,4.77-17.96,14,0,12.74,13.8,16.32,24.13,20.74,19.43,7.84,37.76,15.84,37.76,38.66s-20.69,34.89-43.02,34.89c-11.61,0-23.39-3.76-31.57-11.56l-2.56,9.34Z"/>
  <path class="cls-1" d="m352.59,63.15c1.27-3.07,2.18-6.14,2.18-8.18,0-7.15-5.46-6.96-9.97-7.49v-5.46c5.63.19,11.07.5,16.7.69,4.89-.19,9.61-.5,14.5-.69v5.46c-3.07.34-5.99,1.38-8.53,4.42-4.17,4.96-12.89,25.9-14.87,30.16l-29.03,58.92c-4.73,9.19-9.28,20.56-21.98,20.56-5.8,0-9.96-3.23-9.96-8.64,0-8.03,7.97-9.38,14.33-10.76,7.8-1.69,11.8-6.26,14.9-12.41l6.16-12.26-27.59-59.26c-1.63-3.58-3.44-6.3-4.34-7.31-2.36-2.73-5.27-3.07-8-3.42v-5.46c7.79.19,15.41.5,23.23.69,7.8-.19,15.62-.5,23.4-.69v5.46c-4.9.53-9.8-.35-9.8,5.8,0,3.23,4.01,12.26,5.46,15.65l10.34,23.36,12.88-29.14Z"/>
  <path class="cls-1" d="m382.72,115.57h-7.27l-.88-23.13h7.24c4.91,9.53,12.35,18.56,24.68,18.56,6.9,0,14.16-3.23,14.16-10.57s-10.7-9.72-16.69-11.41c-14.52-4.08-27.59-9.19-27.59-25.72,0-15.64,13.81-22.64,28.69-22.64,8.33,0,14.16,1.85,21.23,5.96l3.09-5.96h7.25v22.33h-7.25c-4-8.22-10.89-15.52-21.07-15.52-5.45,0-12.69,2.57-12.69,8.87,0,7.46,8.71,8.84,14.87,10.54,14.73,4.42,30.32,9.03,30.32,26.4s-15.05,24.51-31.4,24.51c-7.82,0-17.81-2.23-23.79-7.49l-2.9,5.27Z"/>
  <path class="cls-1" d="m481.46,50.39v42.89c0,6.6,0,14.29,6.54,14.29,4.55,0,8.19-3.38,10.7-6.65l6.19,3.91c-5.82,8.69-14.9,12.95-25.61,12.95-17.78,0-21.59-9.72-21.59-24.51v-42.89h-9.78v-5.15c13.24-3.55,22.11-12.42,25.75-24.83h7.81v23.13h18.33v6.84h-18.33Z"/>
  <path class="cls-1" d="m534.29,76.26c-.38,14.99,4.53,32.01,23.77,32.01,10.34,0,15.26-4.77,22.16-11.42l5.63,4.27c-7.81,11.22-20.5,16.68-34.68,16.68-23.79,0-42.1-14.14-43.19-37.27-1.09-23.67,18.15-39.86,42.83-39.86,19.45,0,36.86,12.42,36.86,31.52,0,4.76-2.9,4.08-7.24,4.08h-46.12m24.31-6.84c3.82,0,5.27-1.16,5.27-4.73,0-7.84-5.06-17.21-14.51-17.21-11.09,0-14.53,12.95-14.89,21.94h24.13Z"/>
  <path class="cls-1" d="m630.14,94.63c0,8.53-1.29,15.87,10.14,15.87v5.42c-7.42-.15-14.68-.51-22.13-.69-7.8.19-15.43.54-23.23.69v-5.42c2.9,0,7.64-.54,9.63-3.07,1.83-2.23,1.83-9.87,1.83-12.79v-22.79c0-8.54.34-19.25-12-18.76v-5.61c11.25-1.19,22.69-2.73,33.6-6.81l.88,15.68h.39c5.07-9.57,15.77-15.68,27.02-15.68s21.23,4.58,23.4,15.68c5.99-9.72,15.43-15.68,27.61-15.68,9.08,0,18.14,3.07,22.49,11.23,3.12,5.8,2.38,18.91,2.38,25.71v17.03c0,2.92,0,10.57,1.81,12.79,2,2.54,6.72,3.07,9.61,3.07v5.42c-7.8-.15-15.61-.51-23.4-.69-7.25.19-14.71.54-21.97.69v-5.42c11.61-.54,10.17-6.84,10.17-15.87v-21.6c0-7.65.73-21.45-10.89-21.45-6.34,0-11.07,4.58-13.8,9.69-2.54,4.95-2.54,12.6-2.54,18.22v15.14c0,8.53-1.09,16.02,10.16,15.87v5.42c-7.44-.15-14.68-.51-22.15-.69-7.24.19-14.7.54-21.93.69v-5.42c11.41,0,10.14-7.34,10.14-15.87v-21.6c0-7.65.73-21.29-10.9-21.29-6.18,0-10.54,4.42-13.42,9.53-2.9,5.1-2.9,13.26-2.9,19.06v14.3Z"/>
</svg>