<?xml version="1.0" encoding="UTF-8"?>
<svg id="_レイヤー_1" data-name="レイヤー 1" xmlns="http://www.w3.org/2000/svg" viewBox="0 0 666.14 246.61">
  <defs>
    <style>
      .cls-1 {
        fill: #d67d1a;
      }

      .cls-2 {
        opacity: 0;
      }
    </style>
  </defs>
  <g class="cls-2">
    <path class="cls-1" d="m77.6,80.63c.47-.28.45-1.19.91-1.83,0,.18.33.48.47-.09.49.82-.58,2.13-.72,2.89,1.38-1.56,1.95-4.41,3.17-6.12-.45,1,.04,1.82.5,1.18.05,2.18-2.22,6.48-.77,8.02-.43,2.1-1.5,3.59-1.92,5.69,1.41-.28,2.57,2.23,3.23,3.38-2.62,9.85-12.35,40.32-15.14,49.65.47-.28.61-.85.76-1.43.65.79-.76,1.43-.58,2.49-.31.06-.17-.33-.17-.7-4.75,13.2-9.31,27.82-11.56,40.52-.15.4-.16.03-.31.06-.52,4.86-3.99,11.77-5.46,16.63-.74,1.98-1.51,3.23-2.58,4.54-.12,1.85-1.02,3.68-2.25,5.2-1.93,5.5-8.86,20.05-11.76,24.29-2.03.77-3.57,2.54-5.27,3.97,0-.18-.17-.33-.01-.55-4.03,3.18-7.71,7.57-11.65,7.8-1.89.19-3.49-.95-5.24-1.7-.16-.15-.31.43-.31.43-.63-.24-.97-1.09-1.91-.72.15-.21.31-.24.62-.31-.8-.39-1.44-.81-1.93-1.63-.6,1.58-.36-1.76-2.38-.81.62-.67.46-.64.13-1.12-.16.03,0,.36-.15.58-1.14-1.42-3.39-3.71-3.64-7.87.94-.19-.13,1.31.81,1.12.3-.79-.52-1.91-.54-2.82-.3.61.34,1.03-.43,1.73-.5-1.18-1.17-2.88-.73-4.61.15-.4-.17-.33-.32-.3-.01-.55.13-1.31.12-1.49-.58-11.96,5.06-35.03,8.82-50.04.14-.58-.32-.3-.33-.67,1.58-6.9,3.65-13.34,4.64-18.11.14-.76.45-.82.6-1.22-.37-2.49,8.99-28.12,8.93-31.04,1.81-3.65,2.91-11,5.98-14.72,1.44-6.32,5.08-12.53,7.96-18.04,2.34-1.01,2.71,1.29,4.62,2.01,2.7.74,4.41.04,5.26,2.8.34,8.35-4.11,13.62-4,18.72-.91,1.64-1.21,2.43-1.79,4.56-.8-.39-.59,1.76-1.08.95-.3.79.65.79.64.42-.77.7-7.01,25.17-8.41,25.82.79.21-.28,1.52-.9,2.01,0,.36.63-.12.48.45-.61.85-.31.06-.44,1.55-.32-.3-.93.55-1.24.98,0,.36.46-.64.94-.19-.15.4-.31.43-.46.46.01.55.94,0,.78-.34.33.48-.14.76-.11,2.03-1.1.22-1.38,1.74-1.67,2.89.63.06.29-1.16,1.07-1.49-1.33,3.92-3.01,6.63-3.84,11.74-.78.52-1.39,1.19-1.88.74-.14.94.48.27.8.39.21,2.52-1.33,4.11-1.75,6.57-.16-.15-.32-.12-.47-.09.66,1.33-1.65,3.62-1.46,5.41-.78.34-2.33,1.56-2.76,3.66-1.43-.45-1.65,3.98-1.94,4.96.01.55.77-.7,1.08-1.13-1.17,4.07-5.3,17.15-6.94,21.13-.29,1.16.34,1.21.05,2.37.15-.21.46-.64.6-1.4.17.51-.43,1.73.05,2.37-.14.76-.78.34-.76,1.25,1.3,1.93-.5,5.95.31,7.07.01.55-.15.58-.62.31.81,1.12.73,4.61,1.7,5.7-.92,1.1.19,1.61-.57,2.86.62-.49.96.72,1.09-.58.1,4.37,2.67,6.6,5.38,7.89,3.59-1.81,4.9-6.28,7.17-10.75,2.7-6.21,6.33-13.15,8.52-20.9-.92,1.1,2.06-6.63,1.63-4.89,1.25-7.57,6.52-18.85,8.24-26.69.63.06.47.09.78-.34-.22-2.88,1.35-3.19,1.28-6.11.14-.94.47-.09.77-.89-.65-.78.88-2.92,1.33-4.1.15-.58-.01-.55-.33-.48,7.27-20.65,19.83-65.58,29.52-83.6.32.3-.45,1-.28,1.7ZM2.38,235.86c1.27.3.58-2.31-.02-1.09.31-.06.17.7.02,1.09Zm12.51-40.35c-.31.06.45-1-.33-.85.33.85-.46.64-.6,1.58.48.09.79-.16.93-.73Zm1.67-3.07c1.26-.07,1.07-1.68,1.68-2.35-.64-.6-1.07,1.67-1.68,2.35Zm3.71-10.25c.29-1.34-.03-1.27-.19-1.43.46-.64.15-.58-.03-1.46.31-.06.32.3.79.03-.01-.55.13-1.31.6-1.4.14-.94-.03-1.28-.35-1.76-.13,1.49-.91,1.64-1.51,3.23,1.11.33-.92,1.28-.12,1.85.15-.4.14-.76.29-.97-.28,1.7-1.36,2.47-.86,3.83.27-2.06,1.1-.22.74-1.98.32.12.32.3.63.06Zm6.59-15.58s-.49-.64-.78.16c.79.03-.28,1.52.19,1.43-.02-.73.61-.67.59-1.58Zm18.72,26.64c-.76,1.25-1.65,3.99-1.61,5.44.43-1.73,1.64-4.17,1.61-5.44Zm3.01-20.53c-1.25.61-1.49,3.77-2.72,5.11-.39,3.92-1.13,6.08-1.07,8.44-.16-.15-.33-.48-.63-.06.01.54.51,1.55-.1,2.4,1.53-1.95,1.31-5.02,2.68-7.12,0,.18-.3.79.02.73.58-2.13.26-2.61.69-4.34.78-.34,1.19-3.35,1.16-4.62-.44,1.55-.72,3.25-1.65,3.99.13-1.31,1.35-3.2,1.63-4.53Zm-.79,14.06c-.31.43-.77.7-.76,1.43.48.27.91-1.46.76-1.43Zm.77-15.15q.15-.21.31-.24c.02,1.09.29-1.16.12-1.67.16-.03.32.12.48.27,0-.36.3-.79.45-1.19-.63-.06-.77.89-1.08.95.18,1.24-.61,1.03-.27,1.88Zm4.33,3.53c0,.18,0,.36.17.33-.02-.91-.49-1-.81-.75.33.48-1.07,1.49-.28,1.7-1.08,1.13-1.06,2.22-.88,2.92-1.23,1.34-1.04,2.77-1.81,3.47.47-.09.77-.7,1.08-.95.02,1.09-.93.55-.75,1.8,1.84-2.2,1.93-5.5,3.28-8.52Zm2.86-13.01c.16-.03.32.3.48.45-.33-.67-1.09.4-.62.67.46-.64.94-.37.94-.19-.46.64-.3.61-.47.09-1.35,3.19-1.45,5.77-3.14,7.76.63.06-.46.46.49.82-1.08.95-.62.31-.45,1-.31.06-.31.25-.62.49-.14.94.5,1.18.97,1.27-.2-2.15,1.51-2.86,1.01-4.22,1.24-1.16,1.5-3.41,1.63-4.71-.15.4.17.7.32.12.29-1.34,1.03-3.13,1.32-4.65-.15.58-.75,1.61-.76,1.25-.17-.33,0-.36.15-.4.11-2.22,1.22-2.07,1.49-3.95-.31.06-.46.46-.63.13.95,0,.89-2.56.59-1.95-.74,1.98-1.78,5.11-2.08,5.9-.31.06-.33-.48-.63.12Zm5.89-11.78c-.47.09-.94.19-1.41.28.65.97-.14.76-.59,1.58.16.33.79.03.65.79-.81-.94-1.37,2.1-1.37,2.28.45-1.19.78-.34,1.22-1.71-.32-.12-.46.46-.63.13.29-1.16.78-.16,1.24-.8-.32-.12.15-.4.16-.03.13-1.12.76-1.25.73-2.52Z"/>
    <path class="cls-1" d="m45.62,237.17c-.13-1.21.71-1.75.36-2.92.21-.17.75.1.74-.39,0-.12-.32-.06-.32.06.7-7.08,3.11-13.76,4.99-20.82-.11-.1-.22-.33-.33-.31-.43.08.33.43-.31.43-.11-.35-.02-.74.09-.89.21.08.22.2.33.43.96-5.02,2.01-10.69,2.76-15.3,0-.25.21-.41.42-.46-.34-.8.08-1.38.6-1.85-.55-.63.48-2.33,1.11-2.95-.33-.43.51-1.22-.14-1.34.41-.58.61-1.49.7-2.25,1.27-.38.75-4.61,2.44-5.44.15-2.88,1.31-3.48,1.87-7.19.32-.06.31-.31.64-.25,4.7-14.44,10.59-28.26,16.39-41.43.93-1.3,1.43-3.13,2.36-4.44,0-.25-.22-.2-.22-.45-.01-.62.52-.85.61-1.36,0-.37-.12-.47-.33-.43,1.38-.52,1.01-2.56,2.28-3.18,1.28,0,1.97,1.96,1.88,2.85.12.47,1.08.53.77,1.21.53-.23.2-.78-.23-.82.31-.43,1.41,1.08.88,1.31,1.3.86.18,3.19.33,5.27-.21.04-.42.21-.53.35.32-.06.33.68-.21.41.56,1-.69,2.37-.35,3.66-.21.04-.43.08-.64.13,0,.37.12.6.34.68-.1.39-1.15,1.09-.72,1.5-1.39-.1-.27,2.16-1.65,2.44,0,.37.53.02.75.1.11.23-.1.39-.09.76-.53.11-.33-.55-.97-.18v.37c.12.1.22-.04.22-.04.64,0-.73.64.12.47-.21.29-1.28,0-1.48.66,0,.25.63-.37.65.37.1-.14.42-.21.42-.45.44.41-.84.54-.61,1.36-.54-.26-.31.43-.73.89.22.45.63-.5.96-.07-.11-.1-1.26.99-.51.97-.1.39-.31.56-.74.52.36,1.79-1.13,1.84-1.86,2.73.21-.17.86.08,1.06-.33.12.35-.18,1.65-.81,1.9.14,1.46-1.25,1.61-1.32,3.11-.74.15.3-.93-.44-.78-.42.33.23.58-.3.93.11.23.43.04.64,0,.01.49-.63.62.12.6-.21.29-.52.48-.73,1.01-.32.06-.22-.21-.33-.55-.42.33-.4,1.07-.71,1.63.23.58.42-.45.74-.39.43.16-.53.35-.41.82-.44-.41-.53-.02-.84.42.12.47.42-.21.74-.15-.51,1.09-1.57,1.43-2.08,2.52.53-.23.73-.64,1.37-.65-.73.64-1.25,1.49-1.98,2.01,0,.37.66.74.75.35-.81,2.02-2.02,5.11-3.47,7.14.32.06-.6,1.73-1.23,2.48,0-.25-.01-.49-.02-.86-.1.14-.41.82-.43.08-.21.17-.1.39-.31.43,0,.37.53.02.65.24-.1.39-.96.19-1.05.58.22.33.64,0,.12.47.11.1.32.18.43.28,1.79-1.1,1.63-3.55,2.69-4.13.1-.15,0-.25-.12-.35,1.57-1.67,2.67-4.75,4.04-5.76-.24-1.19,1.77-2.21,1.53-3.15,1.06-.46,1.67-1.57,2.08-2.64,4.8-5.04,8.3-11.07,13.76-15.38.22.21.86.08,1.06-.21-.22-.33-.32.19-.75.02,1.68-1.32,4.22-2.33,5.61-2.35,2.34-.34,3.98,1.19,4.34,3.35,0,0-.08,1.38-.28,1.67.01.49.64,0,.55.64-.21.17-.32.06-.53.11,0,.25.76.35.85-.05.33.31-.19,1.15-.5,1.46-.09.64.54.14.23.7.21-.04.32-.19.42-.45.32.06-.2.54-.31.68.21.08.33.31.44.41-.31.43,0,.37-.41.95-.43.08-.33-.18-.64.13-.21.04.01.49-.2.54,0,.25.32.18.54.14-.3.8-.41.82-.49,2.08-.21.04-.43.08-.64.13.75.1-.3.93.02.99-.31.56-.54-.26-.31.56-.33-.31-.64.25-1.06.21.44.41.11.23-.2.66,0,.25.95-.56.54.26.43-.08.31-.68.84-.54-.1.27-.42.46-.41.83-.43-.04-.96.19-1.18-.02.01.49.43.29.86.2.01.62-.41.83-.72,1.26q.53.02-.1.51c4.76-2.18,10.98-5.53,17.26-6.65-.21.29-.42.46.01.49-.63.74-1.58,1.06-2.75,1.29.22.33.43.16.75.1-.52.72-2.64,1.52-3.59,1.7-.32.19.22.45-.42.46.43.29,0,.12.02.74-.74.15-1.71.09-1.9.87-1.69.83-3.82,1.01-4.64,2.66-.97-.3-1.58.81-2.22,1.18.64.24,1.48-.79,2.33-.96-.94.93-2.64,1.39-3.25,2.75-.42.21-.43-.16-.75.02,0,0,.21.08.32.06-1.58.93-5.6,2.85-6.5,5.5-.31.56-.94.81-.93,1.67-1.07-.04-.71,1.88-1.89,1.61-.1.39.22.33.43.29.01.49-.42.33-.64.13,0,.25.12.59-.29,1.3-.75-.1-1.37.89-2.65.9.44.53,1.49-.42,2.13-.3-.83.91-1.78,1.72-3.05,2.22-.21.04-.1.39-.1.52-.85.17-1.29-.61-2.02.28.54.14,1.82.01,2.56-.01.01.62-.84.41-.72,1.26-.42.21-1.07-.04-1.04,1.07-.33-.31-.74.15-1.06.33.67,1.23-1.98,2.25-3.25,2.88,0,.12.11.23.22.2-.31.43-.22-.2-.74.39.1-.27.31-.31.31-.56-.23-.57-.75-.22-.84.42-.22-.08-.53-.02-.96.07.33.31.32.06.12.72-.97-.18-1.7.21-2.98.35-.21.17,0,.25.01.62-1.61-.43-1.69.95-2.69-.95-.01-.62.3-.93.5-1.34-.11-.23-.32-.06-.33-.31.02.99-.74.4-.33-.43-.32.06-.64.13-.96.19.42-.21.63-.62.83-1.03-.43-.04-.76-.35-1.38.28-.11-.23.52-.6.09-.64,0-.37.33.18.64-.13-.54-.26-.12-.35.42-.33.09-.64-.54-.26-.76-.47.31-.56-.01-.62.41-.7-.32-.18-.33-.55-.44-.66.1-.39,1.6-.32,1.05-.83.86.33,1.78-1.72,3.05-2.09,2.81-3.16,6.39-5.61,9.75-8.26,2.19-2.29,4.04-5.88,5.59-8.18,1.02-2.31,4.94-8.29,5.41-11.36.19-1.03-.14-1.58-.37-2.28-2.15-.56-4.11,2.3-5.3,2.04-.63.5-.83,1.28-1.78,1.59.34.92,1.05-.83,1.16-.48-1.55,2.29-3.43,4.4-4.88,6.3-.53-.02-.12-.35-.13-.84-.31.31-.94,1.05-.3,1.17-1.66,2.19-3.55,3.68-4.46,5.85-1.06.46-1.05.71-1.04,1.2-1.17.36-.8,2.27-2.08,2.52-.08,1.13-.29,1.3-1.24,1.73,0,.37.22.33.23.7-.64-.12-.51,1.09-.95.68,0,.25.01.49.02.74-1.47,1.16-1.54,2.91-3.25,2.88.22.45.33.18.86.08.22.2-.41.7.01.62-.74.15-.3,1.17-1.35,1.63.44.53-.51,1.09-.49,1.83-.53.23-.64,0-.86-.2-.11.02-.1.39-.21.41.12.47.31-.31.53.02-1.02,2.31-1.73,4.06-2.85,6.51-.21-.08-.32-.18-.33-.55-.1.14-.21.29-.31.31-.32.19.43.29.13.97-.32-.18-.42.21-.85.05.55.88-.92,1.67-1.03,1.94-.1.14.32.18.43.16-.31.43-.83.91-1.15,1.1-.1.27.01.62-.2.78,1.83.75-.98,3.91-.96,5.15-.1.27-.42.45-.74.52.24,1.32-.08,1.38-.26,2.66-.21.04-.22-.21-.43-.29.66.98-1.01,2.8-.87,4.14-.1.51-.54-.14-.75-.1.1-.27.42-.46.63-.62-.54-.39-1.06.21-1.39-.1.22.45.44.78.03,1.24.11.23.22.45.44.41.21-.04.1-.27.2-.54.11.1.32.18.54.14-.63.5-.19.91-.28,1.91.32-.06.42-.21.52-.48.23.58-.5,1.34-.49,1.96-.32.19-.22-.33-.44-.53-.41.95.35,1.29-.28,1.91-.22-.08-.22-.33-.34-.68-.1.39-.41.58-.74.4-.09.64.64,0,.76.35-.31.31.02,1.11.22.33.22.33-.29,1.3-.71,1.5.42-.45-.12-.72.29-1.3-.73.64-1.03,1.82-.9,2.66-.32.19-.42.45-.74.52.11.35.54.51-.2.54.87.82.46,1.64-.37,2.8.28-1.67-.51,1.09-1.05.95.11.35.85-.29.65.49-.32.19-.32-.06-.33-.31-.31.43-.52.6-.74.15-.2.54.23.58-.18,1.65-.33-.18-.21.04-.53.11,0,.25.32.18.54.14-.1.27-.09.76-.52.85.11.1.22.2.44.41-.1.27-.2.41-.3.8-.45-.78-.21.41-.95.31.22.45.54.39-.2.54.43.04.35,1.54-.19.91,0,.37.33.43.64.24.13,1.21-.8,2.39-.57,3.21-.2.54-.65-.24-.96.31.11.23.32.06.54.14-.49,1.83-.35,3.29-1.5,4.51.13.97.26,2.06-.8,2.51-.06,2.12-1.42,3.38-.86,4.76.21-.17.2-.41.52-.48-.4,1.07-.51,1.09-.59,2.22-1.06.46-1.37,1.01-1.56,2.05-.22-.33-.53.23-.85.05-.11.02.42-.33.42-.21-.22-.45-.96.19-1.4-.34.1-.27.53-.23.31-.68,0-.25-.85.05-.63.62-.21.04-.97-.43-.85.17-.43-.04-.85.05-.76-.59-.32.19-.09.76-.63.62-.13-.84-1.18-.38-1.1-1.52.2-.54.12.72.34.68Zm19.17-50.91c.23.7-.08,1.01-.4,1.32.43.04.31-.56.74-.52,0-.37-.02-.86-.34-.8Zm.14-3.38c1.06-.21.3-.8,1.04-1.07-.42.33-.76-.35-.74.15.54.14-.64.13-.52.48.21-.04.22.2.22.45Zm.08-1.25c.64-.13,1.28-.25,1.37-.77-.54-.39-1.37.64-1.37.77Zm.91,7.13c0,.12-.1.15-.21.17,0,.37.23.94-.29,1.17,0,.25,0,.37.01.62.32.06.42-.33.74-.52-.65-.37.3-.93-.24-1.44Zm.74-5.35c-1.28,0-.2.41-1.04,1.32.11-.02.32-.06.53-.11-.12-.6.3-.93.51-1.22Zm-.56-1.13c.53-.11.63-.5.73-.89-.32.19-.63.37-.73.89Zm.46-3.31c0,.37-.73.89-.29,1.17,0-.25.1-.14.32-.06-.23-.7.62-.99-.02-1.11Zm-.02-.86c.64-.13.74-.52.51-.97-.32.06-.53.35-.73.64.11-.02.21-.04.32-.06,0,.25-.1.27-.1.39Zm1.93.48c-.32.19-.33-.18-.43-.29-.09.52-.82,1.4-.72,1.38.21.08.53-.11.54.14-.21.04-.21.29-.42.46,0-.12,0-.37-.12-.35-1.16.48.54.26-.29,1.42.53.02,1.04-1.45.83-1.03-.11.02-.21.29-.21.04.1-.27.62-.74.19-1.15.54.14.53-.35.63-.62Zm-.95-4.27c0,.37-.09.76.12.72,0-.25.84-.66.3-.93,0,.25-.21.17-.42.21Zm2.77-5.26c.42-.33.43-.08.74-.4-.43-.29-.02-.74-.35-1.17.01.62-.95.31-.83,1.03.21.08.74-.27.54.26-.65-.37-.1.39-.41.7-.12-.6-.96.19-1.26.75.42-.21.63-.37.96-.07-.32.06-.09.64-.41.7,0-.25-.43-.16-.53.11,1.08.53,1.35-1.51,1.89-1.37.1-.52-.53-.02-.33-.55Zm-.09,10.31c-.52.85-.29,1.55-.69,2.37-.11.02-.21.17-.21.29.84-.66.93-1.3,1.55-2.29-.63.37-.12-.72-.65-.37Zm2.16-13.44c-.84.54-.34-.8-.98-.67.44.66-.31.56-.4,1.19.74-.27-.41.83.13.97-.02-.74.51-.97.94-1.18.12.6-1.68,1.33-.6,1.98.2-.78.94-1.18.91-2.29Zm-.08-3.83c-.21.04-.1.39-.2.66.54.14,1.06-.58.62-.74-.3.93,0-.25-.43.08Zm2.6-7.83c-.22-.2-.53-.02-.63.25.32-.06.32.18.64.12,0-.37.42-.45.41-.82-.32.06-.31.31-.42.45Zm.93,27.46c-.43.08-.64.25-.84.54.22.08.65.61.86.08-1.07.09,0,0-.01-.62Zm.24-13.31c.01.49-.09.76-.51,1.21.11-.02.11.23.12.47.42-.08.42-.33.63-.62-.32-.06-.52.6-.54-.14.53-.35,1.27-.62,1.25-1.49-.53.23-.3.93-.95.56Zm2.44-15.36c-.1.39-.52.6-.62,1.11.53-.11.85-.29.95-.68-.21.04-.12-.47-.33-.43Zm.05,30.98c.75-.02,1.17.01,1.7-.46-.85.17-1.28-.12-1.7.46Zm3.69-40.65c.1-.51,1.07-.09.95-.68-.65-.24-1.36,1.01-.95.68Zm5.76,9.27c.01.49.33.55.02.99.63-.5,1.15-1.22,1.67-1.94-.63.37-1.27.62-1.69.96Zm4.56,17.69c.43.16,1.59-.32,1.37-1.01-.42.33-1.06.46-1.37,1.01Zm17.01-13.42c.85-.17,1.49-.42,1.9-1-.74.15-1.59.44-1.9,1Z"/>
    <path class="cls-1" d="m134.09,175.22c-1.04,1.32-1.78,1.59-2.49,3.47-1.38.27-1.67,1.57-2.19,2.54-1.07-.03-1.69.83-2.76.55-.53.23,0,.37-.3.8-.85.29-2.32,1.2-3.2.39-.21.17-.1.39-.2.66-1.07-.04-1.94-.98-2.58-.6,0-.37.53-.23.41-.58-2.34.71-3.54-.54-5.17-1.82-1.63-1.16-3.03-1.88-3.51-4.26-.59-2.73-.34-5.76.12-8.95.32.06.53-.11.74-.27,0-.37-.45-1.15.29-1.3-.12-.47-.23-.94-.77-.84.31-.56-.13-.84.62-1.11-.21.17-.2.41-.2.78.53-.11.41-.7.73-.89-.12-.35-.54-.26-.76-.35.31-.43.3-1.05.94-1.18,0-.12-.21-.08-.32-.06.82-1.4,1.19-4.2,2.67-4.62-.1.27-.32.19-.53.23.11.23.53.02.54.26.62-.99,1.24-1.98,1.75-3.2-.12-.35-.64.25-.74.4-.54-.39.62-.87,1.06-.58-.77-.84-.24-1.07.38-2.18.54.39-1.15,1.22-.28,1.67.72-1.26,1.55-2.41,2.27-3.67-.33-.43-.52.6-1.06.33,2.41-2.21,5.01-5.33,7.08-8.47,2.53-1.62,3.98-3.52,5.76-5.36,1.49-.05,2.54-1,2.83-2.54,2.21-1.55,3.58-2.44,5.59-3.46,0,.12-.1.27-.1.39.53-.11,2.12-.92,1.47-1.04.1-.51.97.43.73-.64,1.06-.21,1.28,0,1.8-.73.34.68,1.5.2,2.45-.49-.62.74.87.69,1.41.84-.1.51-.31.31-.41.58.44.66.31-.56.73-.52,1-3.3,2.54-5.96,3.43-9.36.53.02.52-.48,1.06-.46-.15-1.83,1.94-3.86,2.1-6.61,1.35-1.76,2.03-4.87,3.17-6.46,0-.37-.12-.59-.34-.68.21-.04.64-.25.73-.76-.01-.49-.42.21-.42.33-.43-.04.42-.33.09-.88,1.07.03.94-1.06,1.25-1.61-.64,0-.3.93-.94,1.06.31-.31.3-.93.5-1.34.21-.04.32-.06.53-.11.71-1.63,1.42-3.26,2.03-4.87,1.8-.85,1.75-3.07,2.15-4.27.74-.39.5-1.59,1.24-1.86-.04-1.6,2.28-3.18,1.81-5.19.32-.19.3-.8.83-.91,1.1-3.44,4.02-6.75,5.32-10.6.53-.35.53-.11,1.06-.46-.09.64.64.12.45.9.53.02.2-.66.63-.74,1.63,1.16,3.15,2.47,3.74,4.96-.29,1.17-1.22,2.6-.77,3.87-.42.45-.43-.04-.52.72-.21.04-.43.08-.74.15-.21.04-.09.51-.3.68.11.35,1.07.04.95-.31.22.2-.29,1.17-.94,1.18.33.31.23.82-.3.8.1-.14.21-.17.32-.19-.12-.6-.32.19-.53.23,0,.37.53.02.44.66-.54-.14-.43.08-.75-.1-.32.19.23.58.33.68-1.48.79-1.44,2.64-2.61,2.63.01.49.53.02.75.1.01.62-1.06.21-.83,1.03-.53.35-.32.06-.96.19.44.53.22.45-.3.93,0,.37.63-.37.22.2.12.47.31-.31.64-.13-.1.39-.31.68-.51.97-.64.13,0-.25-.01-.62-.21.29-.41.58-.73.77.32.06.44.53.97.3-.74.52-1.7.58-2,1.51.42-.33,1.06-.46,1.48-.67-.1.14-.31.68.22.45-.75.03-1.38.4-2.11,1.16,0,.25.22.08.43.04-.42.33-.95.56-1.37,1.01.54.14-.09.64.65.37-.52.6-1.18-.01-1.69.71.12.47.75-.02.66.61-.42.21-.74.39-1.27.38.64.12.44.53.02.99.21-.17.43.29.53.02-.09.76-1.23,2.11-1.86,2.97-.1.39.75.22.64-.13.33.55-1.27.75-.71,1.63-.1.39-.85.17-1.17.36.33.43.97.18,1.49-.05-.11-.1-.22-.33-.23-.58,1.07.04.73-1.01,1.58-1.18-.2.41-.52.6-.51,1.22-.53.35-1.05.83-1.25,1.49-.22-.08-.32-.06-.33-.31-.21.29-.31.56-.63.62.12.6.42-.21.74-.15,0,.37-.2.41-.09.76-.43-.04-.96-.06-1.6.19.11.23.53.02.65.24-.73.89-1.25,1.61-2.2,1.92.44.53,1.06-.33,1.6-.32,0,.25-.1.39,0,.37.42-.33.21-.41,1.27-.62-1.16.6-1.66,2.31-3.05,2.09.11.35.75-.02.76.35-.54-.39-1.25,1.24-1.87,2.36.44.53.73-.64.73-1.01.22.08.43.16.75-.02.12.72-.74.52-.73,1.01,0,.25.11.23.12.35.32-.06.1-.51.52-.6.11.1-.51.97.44.41-.2.54-.51.97-1.26.99.11.23.43.04.64,0-.1.27-.31.31-.31.68-.44-.66-1.5-.45-1.92.13.43.29.75-.02.12.6.33.43.52-.72,1.06-.58.32.18.12.47.33.55,0,.25-.42.33-.63.37-.1.52.33.31.54.39-.2.54-.54-.14-.84.42.22.2.32-.19.64,0-.1.15-.1.39-.09.76-.64.13-.75.02-1.37.77-.43-.04.2-.54-.02-1.11.54.14.52-.48.84-.66.1-.52-.53-.02-.54-.39-.3.8-1.25,1.61-1.56,2.05.33.43-.2.78.34.68-.63.25.12.72-.73.89-.2.66.54.26.34.92-.31.31-.53.11-.95.56,0,.37.23.58.54.39-.1.27-.73.89-.64.13-.41.58.02,1.11-.93,1.42.11.23.43.16.64.12-.52.48,0,.25.33.43-.1.15-.63.37-.74.15,0,.37-.3.8-.73,1.01,1.08.41,2.23-.57,1.88-2.11.42-.33.84-.54,1.27-.38-.84.54-.61,1.61-.9,2.66-.76-.47-1.37,1.02-2.45.49-.32.06-.09.64-.63.62.21.08.86.08,1.06-.21.43.04-.19.91.02,1.11-.31.43-.95.68-1.04,1.44.22.33.65.37.86.45-.12-.35.41-.83,1.04-1.07,0-.25-.22-.33-.23-.7.21-.17.53-.23.63-.62-.07,1.5-1.01,2.8-2.05,3.75-.02-.74-.66-.61-.77-1.21-.42.45-.84.79-1.04,1.45.11.23.2-.41.53.02.01.49-.22-.08-.42.33.11.1.22.33.23.7.1-.27.53-.23.41-.7.53-.23-.71,1.63-.94.81-.42.21.33.68-.08,1.01,0,.37.53.02.75.1,0,.37-.52.85-.64.25-.32.19-.62,1.11-.29,1.42.75.1.52-.6,1.05-.71-.51,1.09-.84.91-1.46,1.53-.11-.1-.22-.2-.33-.43-.21.17-.1.51-.63.5.65.24.14,1.34,1.62.92-.2.41-.08,1.01-.29,1.42-1.18-.14-.5,1.46-1.46,1.41.12.72.43-.08.85-.17.02.74-.73.64-1.15.97.01.62.22.33-.31.31,0,.37.22.33.12.72.74-.27.61-1.36,1.57-1.3-.42.45-.52.72-.94.81-.1.51.22.45.13.84-.21.17-.85.05-.74.52,0,.37.63-.37.75.1-.42.33-.19.91.33.43-.31.56-.61,1.24-.39,1.81-.52.6-1.06.21-1.04,1.44-.86-.45-1.38.4-2.55.75.54.39.03,1.48,1.2,1.13-.11-.23-.43-.29-.76-.35.39-1.57,1.38-.52,2.43-1.35.02.74-.2.78-.63.62.11.35.45,1.03-.3.93.12.72.44.78.25,1.44-1.58,1.06-.15,2.88-1.19,4.08-.32.06-.74.15-.85.41,1.39.1-.08,1.38.26,2.18-.1.27-.31.31-.74.4.88,1.31-.06,2.12-.25,3.27-.09.89.46,1.27.05,2.1.11-.02-.09.76-.19,1.03-.1.15-.63.37-.63.5-.4,1.44-.14,3.13-.32,4.77-.53.23-.43-.16-.86-.08,1.19.88-.58,2.97.31,4.28-1.45,2.15-.21,5.12-.25,7.86,10.62-12.27,17.54-28.03,26.85-41.4.13,1.21-.92,2.04-1.43,3.13,0,0,.22.2.12.47-.5,1.59-2.27,3.8-3.39,6.13-.81,2.02-1.92,5.09-2.53,6.58-.81,1.77-2.69,3.76-2.54,5.96-.67-1.23-.61,1.24-1.01,2.43-.4,1.2-1.34,2.25-1.11,3.07-.74.39-1.25,1.49-1.02,2.31-.74.39-.4,1.2-1.04,1.2.11.23.11.35.12.6-.11-.1-.32-.18-.64-.12.23.7-.09.88.56,1,.01.62-.62.87-.94,1.18.45.78-.39,1.57-.81,1.77.96-.07-.3,1.05-.93,1.3.11.1.11.23.12.47-.75-.1-.84.66-1.47,1.04-.1.39.22.33.43.29-1.04,1.45-1.88,1.86-2.92,3.06,0,.25.12.35.12.72-.21.29-.63.5-.73,1.01-1.17.11-1.79,1.1-1.67,1.57-.43-.16-1.68,1.2-2.85,1.56-4.77,1.57-9.94-.13-10.43-7.85.47,1.77,1.26,3.84,1.61,5.01.21-.04.32-.06.32.18-.49-2.63-1.85-6.32-1.29-9.91,0-.25-.22-.2-.33-.43-.94.93.52,3.99-.43,4.8-.18-3.19-.36-6.5.23-8.85-.62.99-.83,1.28-1.01,2.68.11-.02.1-.14.1-.27.43.29-.63.74-.33-.31-.31.43-.1.51-.4,1.19-.33-.31-.64.13-.95.31.65.61.13,1.09-.39,1.57.11.1.32.06.33.43-.32.06-.42.21-.63.37.11.23.43.04.64,0-.1.52-.63.5-.73,1.01-.32.06.2-.54-.23-.58Zm-17.16-7.87c-.14-1.34,1.62-3.79.86-4.63,0,.25-.31.31-.31.43.22.33-.73.64-.29,1.3-.22-.08-.32-.06-.42.33.21-.04.43.04.43.29-.53-.02-.27,2.04-.59,2.23.1-.15.1-.27.21-.29,0,.12,0,.37.11.35Zm25.93-20.52c.4-1.07-.07-3.09,1.3-3.85-.3.8-.61,1.48-.69,2.49,1.24-1.86,1.41-3.63,2-5.98-1.06.46-.68,3.11-1.53,3.16.61-1.36.99-3.42,1.5-4.39.11-.02.22.21.43.16.6-1.73.9-2.78,1.72-4.31-.75.02-1.37.77-1.92.26-.2.66-.43.08-.96.31,0,.37.22.33.12.72-1.17.11-1.69,1.08-3.28,1.27-.2.78.53.02.44.53-.53.11-1.17.11-1.16.73.21-.04.53-.11.53.02-.73.64-2.65,1.02-1.89,1.37-1.58.81-3.78,2.98-5.13,4.49.11.1.32-.06.32.18-1.48.67-2.93,2.94-3.86,4.11-.73.76-.74.15-1.06.33-.42.21-.95.56-1.37,1.01.43.04.64-.25,1.06-.33-.41.58-.31.43.12.6-.32.19-1.49.17-1.06.46,1.07.03-.21.29-.63.62-.09.76.43.41.34,1.05-.52.85-1.49.05-1.9.87.01.49.95-.31,1.07.16-.52.48-.85.05-1.6.32.13.84-1.05.83-.5,1.71-.22-.45.31-.43.52-.48.21-.17.09-.76.3-.8.11.23.21.08.32-.06,0,.37-.73.76-.3.93,0-.12.63-.25.64-.13-.2.41-.94.81-1.27.62-.09.64.43.29.55.63-.74.4-.3,1.05-.71,1.51-.31.31-.97-.3-1.26.87.43.04.42-.33.74-.4-.31.43.01.49.23.7-.53.11-1.18-.01-1.27.62.53.02.64-.13.75-.02-.31.43-1.15,1.34-.5,1.59-.42.21-.95.56-1.28.25,0,.37-.31.43-.3.93.43.04.85-.05,1.07.16-.54-.14-.63.37-.84.66.1-.52.09-.64-.34-.8.01.49-.09.76-.3.93-.23-.58-1.06.46-1.5-.2.32-.19.52-.48.52-.85-1.27.75-1.33,2.62-2.27,3.43.43.29-.08,1.13.55.64-.2.66-.29,1.3-.82,1.65.22.33.65.49,1.08.65-.53.11-.96.19-1.38.27.97.43-1.14,1.59.16,2.2.1-.51-.22-.45-.13-.97.43.16.42-.33,1.06-.46-.2.54.45.78.43.29-.21.04-.32.06-.33-.31.32.06.54.51.75.1.1-.39-.11-.35-.22-.45.42-.33.32.18.75-.02-.13-.97.73-1.01,1.03-1.57-.34-.8-.55-.76-.25-1.56-.43.08-.96.19-.86-.45.31-.43.51-.97.71-1.51.65.24,1.49-.17,1.72.4-.1.39-.63.37-.73.76.96-.07-.28,1.67-.49,2.08.21-.04.42-.08.54.14-.52.72-.82,1.65-.79,2.88-.63.62-.42.21-.51,1.22-.64.25-.85.29-1.05.95.21-.04.53-.23.53.02-.53.35-.31.56.02.86-.97-.55-2.02.53-2.87.45.63-.62-.25-1.56.71-1.87-.31.68.13.84-.28,1.67.63-.25,1.27-.5,1.25-1.24,0-.25-.32-.06-.32-.18,1.06-.21-.45-.9.61-1.24-.85.05-1.37.77-1.81.11-.63.37-.19,1.15-.62.87-.2.66.43.04.34.68-.21.04-.22-.08-.32-.06-.1.27.22.2.33.43-1.03,1.57.4,3.76.11,5.06.42-.21.33.43.55.51-.01-.49.84-.66.95-.56.23.82-.85.41-1.05.95,1.07.16.96.06,2.04.46-.12-.35.09-.64.41-.7,2.78.07,5.16-3.26,7.8-4.52,4.89-5.81,9.34-12.15,12.6-19.36.1-.39-.02-.74-.13-.84.4-1.2,1.43-2.76,1.08-4.18.43-.08.3-.8.73-.89-.1.39-.28,2.04-.07,1.5.5-1.46.49-1.96.89-3.15-.43-.16-.63.5-.64.13Zm-20.43,13.23c-.09.64.76.59.86.08-.33-.31-.53.23-.86-.08Zm2.06-3.63v.37c.12.1.23.21.33.18-.12-.72.74-.4.62-.87-.64-.12-.52.72-.96.31Zm1.82-4.45c.22.08,1.39.1,1.48-.67-.11-.1-1.49.17-1.48.67Zm16.46,20.03c.32-.06.64-.13.96-.19.09-.76-.97-.3-.96.19Zm1.44,2.56c0,.12,0,.37.12.35.1-.39-.02-.74-.13-.84-.43-.04-.64.13-.74.52.32-.06.12.6.65.37,0-.12,0-.37.1-.39Zm.55-4.08c.22.45-.41.82.02.99.1-.27.43-.08.74-.4-.12-.47-.44-.53-.76-.59Zm-.05-7.18c.42-.45,1.28-.13,1.58-1.06-.33-.18-1.8.73-1.58,1.06Zm2.58-13.53c-.21.04-.86-.32-1.06.21.32.06,0,.25-.1.39.54.26.01.62.03,1.23.32-.06.53-.11.75-.02-.02-.74.3-.93.39-1.81Zm1.02-2.31c-.43-.16-.64.25-1.07-.16.33.55.02.74-.08,1.38.21-.04.53-.11.74-.15.21-.29.09-.89.4-1.07Zm-.6-7.69c0-.37.53-.23.63-.5-.22-.33.41-.7-.02-.74-.21.41-1.05.95-.61,1.24Zm.65,10.16c.32-.06.42-.33.63-.25.22.33-.41.7.01.62.63-.62-.68-1.72-.65-.37Zm.66-13.52c-.32.06-.53.35-.41.7.32-.19.32.18.43.29,0-.37-.01-.62-.02-.99Zm1.16,9.07c1.17-.11.95-.68,1.03-1.82-.64.13-1.25,1.36-.74.15-.74.27-.94.93-1.14,1.84.54.14.72-1.14,1.16-.6-.21.04-.42.21-.31.43Zm1.08-4.43c.2-.41.63-.37.62-.87-.53.23-1.06.58-1.04,1.2.22.08.53-.11.64.12-.43.08-1.69,1.08-1.27.75.53-.11,1.17-.23,1.7-.34-.01-.49-.44-.66-.66-.86Zm11.7-26.49c-.43-.16-1.49.3-1.8.73.85-.29,1.06-.21,1.8-.73Zm-1.29-14.87c.2-.53.95-.56.72-1.38-.43.08-.94,1.18-.72,1.38Z"/>
    <path class="cls-1" d="m172.18,137.66c-.01-.62.53-.23.64-.13-.01-.49-.12-.47-.33-.43,0-.25.42-.33.74-.39.07-1.63,1.44-2.64,2.7-3.63-.43-.28.2-.41-.01-.62.84-.54,1.9-1,1.87-2.23.21.08,1.9-1,1.04-1.07.52-.6,2.22-.94,1.56-1.8.32-.06.73-.64,1.16-.48-.32-.18.5-1.46,1.26-.99-.01-.62-.33-.43-.02-.74,1.37-.64,2.84-1.93,3.56-3.06,2-1.51,4.88-1.34,6.78-2.46.42-.21.53.02.54.27.41-.7.54.26,1.16-.48.76.72,1.42,1.33,2.28,1.9-.61,1.36-3.49,1.56-3.89,2.76-.21-.08-.53.11-.54-.14-.32.19-.31.56-.52.72,2.02-.52,4.82.65,6.66,1.65-.28,1.79-.45,3.81-1.48,5.5,0,.25.11.22.33.31,0,.37-.42.21-.74.27.22.45.34,1.05-.4,1.44-.1.51.33.55.13.84-.43-.04-.1.52-.52.48.11.1.21.08.43.16-.53.23.12.6-.62.74.22.33.66.74-.3.93.96.06.02.99.34,1.05,0,.37-.2.41-.52.48-.1.39.43.16.22.45-.74.27-.71,1.63-1.46,1.41.33.43.43.04.96-.19-.62,1.11-.28,2.04-1,3.05.11.1.12.35.33.31-.1.27-.42.33-.63.37.76.59-.51,1.09.04,1.6-.1.14-.32.19-.63.25.64.12.13.84-.3,1.05.22.2.54.26.55.63-.21.17-.42.21-.85.29.96-.07.03,1.24.36,1.91-.62.87-.79,3.13-.56,3.71-.94.93.36,1.79-1.01,2.68.75-.02-.08,1.01-.07,1.75,0,.37.76.59-.09.76,0,.25.43-.08.54.14-.92,2.04-.45,3.93-.59,6.93-.1.15-.32.19-.63.25.11.23.74-.15.33.31,6.21-9.04,11.22-18.96,17.87-27.35-1.02,2.19-3.42,4.52-4.43,7.45-.21.04-.43.08-.53.11.02,1.11-1.75,3.07-1.83,4.45-.11-.1-.11-.23-.32-.18-.81,1.9-1.6,4.78-3.06,6.56.14,1.34-1.33,2.74-1.83,3.96-.1.27.75.1.64-.13-.39,1.57-1.73,3.69-2.45,5.2-.1.15.11.23.22.21-.19,1.03-1.56,2.04-.79,2.76-.1.39-.41.58-.95.68.23.94-.92,1.67-1.01,2.68-.43.08-.63.25-1.06.33,0-.37-.53-.02-.44-.65-.64.25-1.28.13-2.02.28.21-.29.1-.39-.01-.49-.64.25-.96-.06-1.18-.14-1.69.58-2.25-.54-2.71-1.94-1.15-3.74-1.32-11.27-.35-15.67-.59,2.22-2.78,4.89-3.04,7.42-1.36,1.39-2.26,3.92-2.44,5.44-.32-.18-.52.6-.73,1.01.12.35.42-.21.74-.15.01.49-.62.99-.61,1.36.09-.76-.63.62-.74.15-.21.29-.3.8-.62.99.54.26.31-.31.74-.27-1.37.89-1.64,2.93-2.47,4.21,0,.12.53-.11.74-.15-.2.54-1.02,1.94-1.33,2.5-.43-.16-.86-.32-1.61-.42-.32.06-.1.51-.31.68-.43-.04-1.07-.16-.76-.71-1.8.61-3-.52-3.96-.45-.15-1.95-1.77-2.62-2.43-3.85-.1.14-.1.27-.42.33.1-.51-.23-.58-.14-1.46-2.39-1.63-1.85-6.57-1.31-11.02,0-.37-.54-.26-.55-.64,1.24-1.86.45-4.05,1.15-5.93.11-.02.21.08.33.31.84-5.25,4.79-10.5,7.13-15.67.43-.08.32.18.53-.11-.11-.23-.21.04-.43-.16Zm-3.91,30.9c.74-.27.03,1.23.66.98.1-.27-.23-.82.09-.88.46,1.27.04,1.73,1.01,2.4-.34-.92-.03-1.23-.36-1.79.11-.02.32-.06.31-.31-1.15-3.86-.02-10.41,1.02-16.57-.53.35-.51,1.09-1.04,1.32.31-.68.07-1.75,1.03-1.57-.23-.82.7-2.12.05-2.74.53-.35.29-1.42.72-1.38-.03-1.24,1.12-2.7,1.51-4.14-.64,0-.52.6-.73.77-.32.06-.42.33-.53.11.21-.41.64-.25.31-.68.43-.08.42-.46.74-.52.31-.43-.53.11-.43-.16.42-.33.75-.02.74-.15-.11-.1-.53.1-.43-.29.21-.04.32.06.43.04.2-.54-.43-.04-.33-.43.43.29,1.26-.87.51-1.09.64-.25.29-1.3,1.14-1.47.01.49-.2.54-.31.68.33.31.94-.93.62-1.12,0,.25-.2.41-.52.48.21-.29.2-.66.52-.72.21-.17.32.06.53.02.41-.58.3-.93.61-1.49-.74.15-.3.8-.62.99-.53.23-.53-.02-.32-.18-.53.11-.63.74-1.15,1.1.32-.19-.02-.74-.22-.2.32.06-.3.93-.51,1.22.21-.04.21.08.32.18-.73.76-.81,2.02-1.65,2.68.24,1.32-1.74,3.32-1.29,4.47.1-.27-.12-.35-.43-.16-.1.39.34,1.05-.4,1.07-.09.76.53.02.65.49.12.47-.74.27-.85.17-.78,3.38-1.48,5.38-1.42,8.46-.31.56-1.12,2.45.16,2.45-.63.62-.3,1.05-.71,1.75.42-.21.96-.07.43.16-.12-.47-.41.58-.09.64,0-.37.43.04.43.16-.53.23.01.62-.62.87.21-.04.43-.08.54.14-.21.04-.32.06-.53.11-.1.39.53.02.33.43-.1.14-.43.08-.42.33.44.41.04,1.97.81,2.69-.21.17-.31.31-.31.68Zm3.5,3.77c-.34-.92-.25-1.81-1.33-2.21.34.92.25,1.56.7,2.59.32-.06.31-.31.63-.37Zm12.5-38.43c-.32.06-.31.31-.74.4-.2.66-.81,2.02-1.87,2.48-.09.76-.83,1.16-1.57,1.55-.2.66-.72,1.38-.48,2.57-1.14,1.47-1.32,3.24-2.24,4.78-.21.29-.84.79-1.04,1.08-.31.68-.08,1.01-.28,1.91-1.76,2.7-1.16,5.56-2.8,8.61-.65,4.22-1.61,9.25-.04,12.78,1.22-2.6,2.55-5.22,4.22-7.41,1-3.3,3.59-6.54,4.69-9.86,1.06-.58,1.12-2.58,2.38-3.57.09-.64.4-1.19.92-1.67-.12-.47.2-.54.08-1.01.43-.08.31-.56.63-.62,1.78-6.3,3.96-14.05,5.73-20.85-.95.68-1.68,1.45-2.84,1.93-.69,2.49-3.97,4.14-4.76,6.9Zm-6.62,28.96c.51-.85,1.65-2.56,1.74-3.57-.62,1.11-1.45,2.15-1.74,3.57Zm3.89-7.59c1.25-1.49,1.95-3.49,2.88-5.03-1.15,1.34-2.17,3.16-2.88,5.03Z"/>
    <path class="cls-1" d="m203.61,105.39c-.4,1.07-1.91.63-3.19.88.41-.7-.44-.41-.45-1.03-.21.17-.53.23-.41.83-.66-.74-1.11-1.89-1.78-3.12.21-.04,1.06-.33.63-.62,2.35.03,6.63.17,10.23-1.16-.21.29-.09.64.33.55,1.15-1.34,5-.87,6.16-1.47.69-2.37,2.35-4.68,2.3-7.15.66.86.51-1.09,1.58-.93.12.35.13.97.45,1.15.32-.19.61-1.24.4-1.32.42-.33.96-.07,1.38-.52.46,1.4,3.2-.26,3.55,1.4.32-.06.31-.31.63-.37-.19,1.15-.24,3.52-.11,4.73,3.4-1.05,5.93-2.17,9.97-3.22-.3.68-1.81.11-1.57,1.3-.53-.02-.85.29-1.16.48.77.84-1.25,1.24-1.99,1.88,2.12-.79,3.7-1.73,5.59-2.97-.33-.43-1.06.33-1.49.42,2-1.51,2.85-1.43,4.98-1.86,0-.37-.53-.02-.75.02.41-.7,1.04-1.2,2.11-1.41-.41.58-.74.4-1.16.6.54.26,1.7-.46,2.23-.81,0-.25-.43-.04-.64,0,.85-.42,2.11-1.04,3.39-1.42-.19.91-.71,1.5-1.35,1.88.03,1.48-1.35,1.75-1.97,2.74,0,.37.53-.11.75-.02-1.46,1.41-3.58,2.45-5.39,2.68.11.23.32.18.33.43-2.55.63-3.81,1.5-6.57,2.54.93-1.42-3.09.12-2.87.57-.53-.02-1.16.73-1.7.21-.1.51-2.33.71-.85.29,1.37-1.01,3.71-1.36,4.76-2.18,0-.25-.1.14-.43.08.1-.39.63-.5,1.05-.7-2.46-.13-4.12,1.93-6.56,3.04.75-.02-.3.81-.21.04-.3,1.05-.61,1.61-1.24,1.86.11.23.43.04.64.12-.21.17-.42.33-.3.93-.32.06-.64.13-.96.19.97.18-.41.7.35,1.54-.32.19-.63.37-.73.89.75-.02-.62.87-.71,1.5-.54-.26-.85.29-1.39.15.12.47,1.07-.09,1.39.22-.52.48-.62.74-.4,1.44-1.16.73-.84.54-2,1.26,0,.25.11.1.11-.02.32-.06.34.92-.09.76.11.35.85-.05.96-.19.1-.52-.22-.45-.23-.82.54.14.64-.13,1.28-.25-.21.29-.42.46-.84.54.12.47.35,1.17.04,1.97-.22-.2-.33-.43-.23-.95-1.7.22-1.46,1.65-2.73,1.91.34.68,1.47-1.16,1.07-.09.53.02.2-.78.73-.64,0,.12-.21.17-.32.19.11.23.43.04.64.12-.09.64-.43-.04-.74.4.33.31,1.07.28,1.18.01.43.29-.74.52-.41.95-.64.13-.11-.1-.22-.45-.2.41-.52.85-1.15,1.1.22.45.75.1,1.06-.21.23.82-2.44,5.81-3.18,6.08,0-.37.42-.45.41-.82-.64-.12-.2.78-.73.89.33.43.43.04,1.07-.09-.1.27-.31.31-.31.68-1.19-.51-1.69.71-1.79,1.22.01.49.31-.31.64-.13-.1.27-.2.54-.3.81,0,.25.43-.08.43.29.21-.29.2-.41.31-.68.1-.27-.11-.23-.33-.31.1-.39.41-.7.62-.99.43.16.33.55,1.08.53,0,.37-.42.46-.74.52.65.37-.41.83.34.92-.2.54-.43-.16-.63.37.22.21.76.35,1.07-.09-.76-.35.42-.45.41-.58.34.8-.6,1.98-1.01,2.68.1-.39-.01-.62-.34-.68.2-.54.32-.19.63-.25-.11-.1-.12-.47-.33-.43-.64.13-.2.41-.41.7-.52.48-.53-.02-.97-.18-.09.64.34.68.03,1.11.42-.33.73-.64,1.27-.38-.1.27-.73.64-.32.06-.31.43-1.37.65-1.04,1.45-.32-.18-.54-.26-.97-.18-.52.48-.19.91-.5,1.71-.53-.02-.54-.39-.96.19.33.43.96-.31.97.3-.64.25-.75-.22-1.06.21.44.78,1.38-.4,2.12-.55-.01-.62-.52.48-.54-.14.3-.8.41-.7.82-1.4.22.45.01.49.75.22-.31.31-.3.8-.73,1.01.02.99.43.29-.18,1.52-.22-.2,0-.37-.01-.62,0-.12-.32-.06-.43-.04-.41.58-.09.89-.5,1.34-.23-.58-.43-.29-1.07-.28-.31.43.43.29.02.99-.54-.14-.2.53-.74.52,0,.25.22.2.22.45.63-.62.42-.21,1.06-.58.33.55-.52.6-.94.93.22.2.12.72.44.66.53-.23.73-.64,1.27-.5-.52.48-1.27.62-1.69,1.08.12.72,1.17-.36.44.53,0,.25.53-.23.53-.35.54.26-.42.46-.52.6.12.35.32.06.53-.11-.09.51-2.12.55-2.64,1.27.33.43,1.07-.09,1.27-.38.45.9-1.27.38-1.68,1.33.33.55.64-.25.95-.31-.3.8.55.63.46,1.27.21-.17.42-.33.74-.27-.94.81-1.45,1.9-2.83,2.3-.1.39.44.53-.2.54.12.35.53.02.54.26.32-.06.31-.43.3-.93.11-.02.11.1.11.23.11-.02.1-.15.21-.29.11.1.12.47.12.72.21-.17.63-.25.74-.52.32.06-.2.53.43.28-.42.46-1.16.6-1.89,1.24.44.41.12.47-.3.8.22.2,1.17-.36,1.04-1.07.54.26-.2.78-.3,1.05.64.12.41-.58,1.06-.58-.31.56-.51,1.22-1.15,1.34.34.68.31-.31,1.06-.21-.1.39-.84.66-.2.78-.1.27-.21.04-.43.08-.2.66.43.16.34.8-.62.99-1.46,1.65-2.73,2.15.22.45.63-.37,1.06-.21-.74.15-1.24,1.73-1.79,1.1-.21.04.11.23-.21.29.54.39.97.18,1.27-.38.13.84-1.05.95-1.67,1.57.01.49.64.12.66.61,1.16-.73,1.55-2.29,2.38-3.57-.39,1.69.16,2.32-1.31,3.48.12.47.53-.35.75.1-.74.27-.52.72-1.04,1.07.86.45-.3,1.05.46,1.27-.75.02-.95.44-1.59.56.86.08-.09.64-.84.66.11.1.22.21.22.45.1-.39.95-.68,1.17-.36.42-.33-.22-.45.2-.78.33.18.21-.04.53-.11-.2.41-.31.56.23.7-.2.41-.96.19-1.38.4.23.57.53.02.97.18-.1.27-.42.33-.31.56-.44-.66-.53.35-1.28.25-.1.39.75.22.64-.13.65.24-.84.79-.08,1.01-.42.46-.64,0-1.06.33.54.39.75.35,1.49-.17.01.49-.09.64-.41.7,0,.12.11.23.12.47.43.04.31-.43.41-.58.44.53-.4,1.44-.49,2.08-.32.06-.64.13-.96.19,0,.12.43.04.64,0-.21.29-.53.35-.74.52-.1.27.75.1.74-.15.43.04-.2.78-.31.43-.2.66.44.41.35,1.17-.53.11-1.16.48-1.59.44.01.49-.2.66.23.7.09-.64.32.06,1.16-.48-.41.83-.21.29.02,1.11-.21.17-.31.56-.52.6.12.6.32.06.54.26.12.47-.42.33-.41.7,0,.12.32.06.43.04-.1.39.12.84-.4,1.19.43.16.11.35.44.53.23.82-.63.62-.39,1.57.31-.56.32-.19.95-.56.43.04-.31.31-.2.54,1.27-.75,2.16-3.53,3.3-5.12,3.08-.98,3.21-4.73,5.52-6.55,0-.25-.01-.49-.02-.74.85-.05.72-1.14,1.58-1.18-.15-1.95,1.63-3.3,2.57-4.48-.64-.12.09-.51-.23-.58.42-.46.85-.05,1.27-.62-.23-.57.2-.78-.44-.41.93-1.3,2.82-2.92,2.79-4.15.62-.87,1.37-.77,1.77-1.84.34.68-.93,1.3-1.02,2.06.53-.23,1.46-1.65,1.76-2.7,0-.37-.53-.02-.44-.66.76.72,1.04-1.08,1.79-1.22-.54-.26-1.49.42-1.69.96-.22-.45.39-1.57.92-1.79-.12-.47-.44-.41-.43.08-.32-.06-.02-.86.41-.83.13,1.09,1.25-1.49,1.12-2.33.21-.04,0,.25.01.49.63-.5.83-1.28,1.24-1.86-.11-.23-.33-.31-.65-.24.31-.31.41-.95,1.04-1.07.07-1.63,1.64-2.93,2.36-4.56.23.82-.92,1.79-1.33,2.62,1.06-.21-.61,1.36-.7,2.25.53-.23.52-.85.72-1.26.04,1.73-1.65,2.81-1.6,4.78-.11.02-.32.06-.43.08.23.7-.3.8-.29,1.3.31-.43.62-.87.93-1.42.53.02-.63.74.12.47-.81,2.02-2.06,3.51-2.65,5.73.63-.62,1.04-1.45,1.34-2.25.14,1.58-1.87,2.6-2.04,4.37-.84.78-1.04,1.44-1.76,2.58.53-.23.83-.91,1.25-1.49-.07,1.5-1.65,2.44-2.26,3.92-.1.15.22.33.12.6-.09.64-.63.5-1.04,1.2-.31.43-.4,1.44-.8,2.27-.62,1.11-1.56,2.04-1.97,2.87-.1.14.12.47.02.74,0,0-.43.08-.42.21-.1.51.23.7-.18,1.28-.2.41-1.36,1.14-1.77,2.09-.1.27.12.72.02.99-.62,1.11-2.09,2.15-2.7,3.51.64,0,.3-.8.84-.66.11.23-.52.6.01.62-.31.43-1.17.36-1.37.89,0,.25.96.06.85-.17-.09.76-1.67,1.69-1.75,3.2-.95.44-1.15.97-2.11,1.04.47,2.01-1.79.98-2.4,2.46-1.48.79-3.1,0-5.23-.07-1.43-1.82-3.94-4.18-3.35-6.77-1.01-2.4-.33-5.39-.18-8.14.6-6.69,2.18-12.33,3.86-18.62,2.86-10.61,7.32-26.37,10.52-36.05-.11-.23-.22-.33-.44-.41-.21.04-.1.27-.2.41-1.61-.3-2.97.71-4.38,0-.64.25-.83,1.03-1.37.77,0-.25.21-.17.42-.33-.33-.43-1.38.52-1.91.75.2-.66-.74.15-.55-.51-.42.33-1.38.4-1.48.54-.32.06.21-.29-.22-.45Zm-1.17,67.91c.32-.19.64-.13.75-.02.2-.54-.87-.69-.75.02Zm3.19-14.89c.22.2.54.14.64-.25-.53.23-.54-.14-.96-.06.01.49-.31.68.23.7,0-.12,0-.37.1-.39Zm2.21-6.27c-.32.19-.63.5-.95.68.22.2.54.14.96.06,0-.25-.01-.49-.02-.74Zm1.18-4.57c.2-.54,1.16-.48,1.15-1.22-.43.08-.52.48-.64-.12.21-.04.53.02.64-.25-.43-.04-.44-.78-.87-.94,0,.25-.1.39-.31.43.55.88-.61,1.24-.7,2.12.64.12.31-.56.74-.52,0,.25-.2.41.01.49Zm2.49,20.7c.32.18.95-.31.94-.93-.42.33-.95.31-.94.93Zm3.65-4.07c-.46-1.52,1.24-2.1.79-3.01-.73.76-.92,1.92-1.98,2.5.13.84-.51,1.09.04,1.6.53-.23.4-1.07,1.15-1.1Zm1.89-49.71c.53-.23.51-.85,1.15-.97-.12-.47.51-.97-.02-1.11,0,.25-.2.41-.42.46,0-.12,0-.37-.22-.33-.09.64.43.29.55.64-.42.21-1.47.91-1.04,1.32Zm1.1-3.44v.37c.01.12.02.37.23.33-.01-.62,1.48-.54,1.15-1.22-.31.31-1.05.71-1.38.52Zm7.57-10.43c-.11.02-.32.06-.32-.06.21-.04.43-.08.53-.35-.32.19-1.07.09-1.06.46.11-.02.11.1.12.35.21-.17.75-.02.74-.39Zm3.76-4.09c.43-.08,1.16-.6.95-.68-.21.29-.86-.08-.95.68Zm1.26-.75c.23.7,1.38-.52,1.8-.73-.85.05-1.15.97-1.8.73Zm.93,3.53c.65.24,1.6-.32,1.8-.98-.75-.1-1.27.38-1.8.98Z"/>
    <path class="cls-1" d="m224.48,151.45c-.32-.06-.32.19-.31.43-.15-1.95-.98-5.63-.19-8.52-.12-.35-.21.29-.43-.16.62-.74-.15-2.08.69-2.37.94-5.76,2.86-10.85,4.98-16.48.94-.81,1.54-2.66,1.31-3.48.21-.04.43-.08.64-.13,4.03-6.25,11.48-12.2,17.74-13.81.11-.02.1-.27.1-.39,1.8-.85,3.42-.06,4.82.53-.1.14-.21.29-.31.43.32.18.76.35,1.18.38.42-.21-.33-.31-.44-.41.84-.54,1.83.87,1.85,1.62.74-.39-.46-1.52-.15-1.83,1.29.49.58,1.99,1.45,2.56-.1.52-.63.74.12.72-.49,2.2-.78,3.25-1.37,5.85-.32.06-.32-.18-.64-.12.01.49.12.72.34.8-.31.43-.74.52-.94.93.96-.19.12.72-.84.66.11.1.65.49.01.62-.1.27.11.23.22.2-1.56,1.67-2.17,3.16-4.17,4.42.12.6.63-.62.54.26-.85.29-1.15,1.22-1.04,1.32-1.89,1.49-3.34,3.39-5.45,4.55-.71,1.63-3.77,3.35-5.25,4.26-1.57,1.43-3.1,4.71-5.52,6.3.01.49-.15,2.76-1.01,2.68-.1.39.02.74.44.53.01.49-.52.48-.84.54.54.39.12.35.24,1.07-.21.17-.1.14-.52.48.01.62.43-.08.43.29,0,.25,0,.37.01.62-.43-.04-.53.35-.95.44.22.2.23.82.87.57-.21.17-.2.41-.19.91-.75.02.01.62-.63.5-.19.91.12.47.35,1.17-1.26.87.69,2.1.39,3.02.64.12,1.28.12,1.72.4.01.62-.63.5-.95.68-.19,1.03.88,1.07,1.11,2.01.95-.31,2.35.03,3.83-.51,3.82-1.25,7.04-5.49,10.06-8.57,4.39-4.22,7.96-7.28,11.7-11.99,4.15-5.41,7.69-9.83,11.75-14.6-1.87,2.48-3.16,6.95-5.78,9.33-.1.51.43.16.34.8-2.88,5.16-6.95,9.44-9.52,13.91-1.06.46-1.46,1.53-2.4,2.34,0,.25.01.49.22.45-.96.31-.3,1.17-1.36,1.14-.1.51.33.31.44.41-.53.35-1.16.6-1.47,1.28-.1.27.11.23.33.18-.31.43-.94.93-1.27.62-.43.08-.08,1.01-.4,1.32-1.39.03-1.03,1.57-2.21,1.68.12.47.66.61.86.08-.69,2.49-3.86,4.11-6.4,5.36-.64.13,0-.25-.33-.55-.53.11-.41.7-.95.56,0,.25.22.08.32.18-2.2,1.8-5.22.66-7.02,1.15-2.04-.71-5.69-1.47-6.17-3.85-2.27-1.04-2.74-3.05-4.28-5.1.11-.02.63-.25.31-.68Zm4.7-.07c.21-.04.64-.25.64,0-.1.27-.31.43-.41.7.01.62.99,1.17,1.18.38-.64.13-.02-.74.19-.91-.32.06-.53-.02-.65-.24.64,0,.1-.39-.01-.49.42-.58.05-2.49-.28-3.17-.43-.04-.09.64-.74.52-.2.78.74-.15.55.64-.21.04-.43-.04-.54-.14-.1.39-.31.56-.29,1.17.43-.08.64,0,.86.2-.1.27-.2.78-.5,1.34Zm2.76,4.04c.34,1.05-.86-.08-.83.91.74-.4,1.5.32,1.59-.69-.63.37-.33-.43-.75-.22Zm1.1-32.2v.49c.44.29.54-.23.87.08.2-.78-.65-.24-.87-.57Zm.93,8.49c.02.86,1.4.47,1.17-.36-.53-.02-.63.37-1.17.36Zm19.44-19.48c.3-1.05.59-2.47-.6-2.86-.53.35-1.15,1.1-1.69.83-.31.43,0,.25.02.74-2.11,1.29-3.56,3.31-4.91,5.19-.53.35-.43-.16-.85.05.33.55-.53.23-.41.58.86.2-.41.58.02.86-.74.27-.94.93-1.46,1.41.11-.02.32-.06.32.06-.63.62-1.05.95-1.36,1.38.11-.02.32-.06.32.06-.52.85-.62.74-1.37.89-.2.66.64-.13.44.53-.42.33-.65-.37-.74.15.11.1.33.18.43.29-.43-.16-1.06.46-.75-.22-.42.21-.52.6-.73.89.32-.19,1.06-.58,1.17.02-.31.56-.61,1.24-1.78,1.59.64.12-.52.72.34.92-.42.46-1.38.4-1.47,1.04.43-.08.74-.52,1.17-.23-.85.29.03,1.6-1.67,1.7.33.55.22.45.55.88-.64.13-.62.87-1.27.62.12.35-.31.31-.3.68.32.06.73-.64.96-.19-.53.23-.08,1.01-.29,1.17-.87-.45-1.05.71-1.81.48.02.74,1.17.01,1.4.46-.1.27.01.49-.2.54-.43.08-1.18-.26-1.38.52.32.06.95-.44.96-.07-.43.08-1.07.09-1.06.58.54.14.53-.23,1.06-.33-.2.41-.41.95-.72,1.38-.22-.21-.32-.06-.74.15-.31.68.43.04.44.41-.21.29-.09.88-.41.95-.12-.6-.96-.06-.95.44.95-.44.86.32,1.49-.17.4-1.07,1.14-1.84,1.98-2.5-.11.02-.22-.08,0-.25,1.58-.93,3.13-3.35,4.92-4.69v-.62c.31.18.3-.31.63,0,1.43-3.01,5.23-4.88,5.8-8.09.76.35.41-.58.62-.87.82-1.65,3.2-4.85,3.9-7.34Zm-16.45,14.55c.43.04.86.45.84-.54-.43.08-.85.05-.84.54Z"/>
    <path class="cls-1" d="m269.24,181.1c-.11-.1-.12-.35-.12-.72,1.48-.91,1.64-3.3,2.46-4.83,0,.12-.21.29-.31.56.53-.23,1.25-1.24.82-1.77,1.77-2.21,2.55-5.34,4.64-7.37-.12-.6-.02-.74.52-.6.2-.41-.12-.47.08-1.13.64-.25,1.27-.5.94-1.18,1.48-.67,1.54-2.66,2.92-3.43,0-.12-.11-.1-.22-.21,1.25-1.49,2.79-4.15,4.9-5.56-.11-.1-.22-.2-.22-.45.32-.06.53-.11.85-.17,0-.37-.22-.33-.23-.7.11.1.32.06.33.31.61-1.48,2.41-2.09,3.01-3.94.75.22-.12-.35.85-.42,0-.12-.11-.23-.12-.47q.21-.04.32.18c.49-1.83,3.04-2.71,3.86-4.36.95-.31,1.06-.46,1.46-1.78.34.92,1.68-1.08,1.37-.77.73-.89,3.67-2.96,4.39-4.47.65.37,1.16-.73,1.68-1.2.22.08-.1.27,0,.37.53.02.52-.6,1.05-.71,0-.25-.21-.08-.32-.18.31-.56.53-.11,1.06-.46-.12-.6-.32.19-.64.13,0-.37.53-.23.41-.7-.42.21-.63.5-.83.91-.43-.04-.02-.74.31-.56-.33-.31-.53.23-.86-.2.62-.87,1.56-1.92,2.43-1.35,2.75-1.04,3.63-4.69,4.77-6.53,1-3.05,2.73-6.99,4.26-10.27,0-.37-.43-.16-.33-.55.31-.43.32-.19.74-.15.31-.68-.76-.59-.02-.74,0-.25-.32-.06-.43-.16,0-.37.53-.35.73-.64-.64.13-.01-.62.41-.95-.75-.1-1.99,1.76-2.82,3.04-1.55,2.29-3,4.31-4.44,6.71-.42.21-.63.62-.94.93.11.23.32.06.53.02-.09.52-1.25,1.61-.6,1.61,0,.37-.64.13-.74.52.23.94-.82,1.65-.69,2.62-.32.06-.64.13-.96.19,0,.37.13.84.34.92-1.26.99-1.34,2.25-2.8,3.66,0,.12.11.23.33.31-.1.39-.32-.18-.64.13-.39,1.69-2.31,1.82-2.81,3.41-.43.08-.64,0-.86-.08-.09.64.54.14.86.2-.1.27-1.59.69-2.44.86.11.1.76.47.85-.05.34.92-1.39.03-1.38.27-.22-.08-.12-.35.2-.41-.22-.33-.96.19-1.06.46-2.38-1.51-5.18-2.2-6.42-5.54.2-.54.53.02.95-.44-.15-1.71-.68-1.6-.61-3.35.43.04.75-.03.63-.62.11.23.54.26.66.61.32-.19.31-.56.41-.82.12.35-.07,1.5.67,1.48.53-.23-.44-.66.31-.56.11-.02.21-.04.32-.06,0,.37-.31.43-.19.91.63-.5,1.26-.99,1.78-1.59-.22-.33-.42.45-.85.17-.01-.49.2-.41-.02-.74-.53-.02-.85.29-.95.68.11-.02.21-.04.32-.06-.2.66-.64,0-.44-.53.32.06.63-.5.31-.43.09-.64.21-.17.74-.52-.13-.84.61-1.36.48-2.57-.32.19-.52.6-.83.91.54.39-.1.52-.29,1.3-.55-.51.3-1.05.07-1.87-.52.72-1.23,2.23-.79,2.88-.1.27-.43.08-.52.48-.36-1.91,1.18-4.57,1.45-6.86,0-.25-.32-.18-.43-.16,0-.25.21-.41.52-.48.1-.39-.02-.74-.44-.53.1-.51.84-.41-.01-.62-.12-.35.31-.43.09-.89.21-.29.32-.06.53-.11-.34-.68.61-1.48.05-2.49,1.07.04-.02-.99,1.05-.95-.22-.45-.02-.99.4-1.32-.44-.66-.03-1.48.27-2.16.21-.04.12.35.33.31.63-.5.49-1.83,1.01-2.56-.53.11-.31.68-.84.79.54.14-.2.66-.19,1.28-.32-.18.2-.66-.13-1.09,1.94-4.1,3.88-8.08,6.58-11.47-.13-.84,1.24-1.86,1.32-3.11,1.17-.36,1.65-2.81,3.13-3.47.21-.17.73-.89.51-.97.21-.17.76.59.87.69.21-.04.1-.15.21-.29,1.39.22,3.02,1.26,2.95,3.13.57,1.5-1.42,3.5-2.57,4.6.55.51-.81,2.02-1.55,2.41,0,.25.21-.17.43-.08-.72,1.26-1.76,2.46-2.06,3.63-.22-.08-.22-.33-.43-.29.23.58-.08,1.01-.29,1.42-.32.19-.32-.06-.53-.02.12.35-.17,1.89-1.14,1.59-.09.64.64.12.76.47-.84.54-.91,2.41-2.19,2.29-.2.66.43.29.75.22-.1.39-.63.5-.62.99-.31.19-.32-.18-.75.03-.2.54.32.18.65.24.01.49-.52.6-.95.68.33.55.23.58.03,1.23-.42.21.09-.88-.33-.68-.21.17.12.84-.3,1.17.11.23.32-.06.32-.19.44.41-.4,1.19-.71,1.5.12.47.32-.19.64-.13-.2.54-.73,1.01-1.27.75.97.55.22.2.67,1.11-.53.23-.73.77-.4,1.32-.42.33-1.27.62-.62,1.11-.21.17-.41.58-.4,1.07-.53-.02-.53.35-.74.52-.1.39.12.35.12.72-.42.21-.63.62-1.05.71.1-.27.2-.54.09-.88,0-.37-.31.31-.54-.14-.41.82-1.16.73-1.04,1.32,0,.12.43.41.43.04.44.41-.95.56-.72,1.26.84-.54,1.25-1.36,1.55-2.29.11.35-.19,1.15.87.69-.1.39-.74.27-.52.85.43.04.51-.97.64-.13.43-.08.53-.35.63-.62.32.06-.31.56-.19.91-.76-.47-.52.6-.83,1.03-.31.56.1-.14-.01-.49-.21.04-.32.06-.53.11,0,.25-.1.51-.51.85.12.84,1.06-.33.87.69.21-.04.2-.41.2-.54.21-.04.53-.11.74-.15-.1.27-.74.15-.41.7-.21.17-.85.05-.85.42.22.45.53-.23.85-.17-.09.88-.85.05-.94.81.11.35.21-.04.43-.08-.1.27-.31.43-.52.48-.1.39.53.02.75.1.01.62-.73,1.01-1.05.71-.1.39.44.53-.2.54.34.8.86.2.74-.27.76.35-.51,1.09-.82,1.4.22.21.43-.08.85-.05.22.33-.85.29-.2.41-.1.39-.42.21-.32-.06-.43.08-.09.76.33.43.01.49-.2.66-.63.62.11.35.23.7.76.47.12.72-.54-.14-.63.62,0,.37.63-.5.54.39,3.25-2.63,6.6-5.9,8.99-8.85.64-.13-.2.41-.2.78.74-.4,1.15-1.1,1.56-1.8-.64.13-.3.93-1.16.85,4.18-4.3,6.94-9.81,10.9-14.06,2.4-2.46,3.5-6.03,5.36-9,.1-.39-.12-.72-.03-1.23.37-2.43,2.91-3.68,3.71-6.07,3.33.83,4.13,3.39,2.83,7,0,.12-.43.08-.42.21-.71,1.88-1.19,4.33-1.9,5.96-.1.27-.53.35-.73.64-.41.7-.17,1.89-1.02,2.19.02.74-.08,1.38-.71,1.5,0,.25.32.06.43.04-1.44,2.52-.56,3.58-2.88,4.91,0,.37.33.31.23.82.43.04-.13-.84.3-.8.64,0-.31.68-.19,1.15-.21.04-.32.06-.53.11,0,.25.21.08.43.04-.1.39-.52.48-.73.76.11.1.32.06.33.43-.21.04-.43.08-.64.13.98.67-.62.99-.71,1.75,10.34-5.53,13.98-10.09,24.97-15.5-.09.64-1.53,3.28-2.26,3.92-1.05.83-3.57,2.94-4.83,3.69-.21.04-.42.33-.52.6-1.37.89-3.28,1.27-3.89,2.88-1.27.5-2.21,1.43-3.26,2.13-.2.41-1.04,1.07-1.26.87-.21.17-.1.39-.09.64-.96.07-1.05.95-2.01,1.02-4.17,4.55-4.55,1.9-8.94,6.49-.42.33-.41.82-.61,1.24-.32-.06-.31.43-.74.27.12.6.43.16.75.1.01.49-.63.5-1.06.58.01.62.21-.17.43.28-.1.39-1.07.09-1.05.71.22.33.74-.52.65.37-.32.06-.74.15-1.06.21.43.16.97.55,1.07.04.44.65-.93,1.42-1.35,1.51,0,.12.32.06.43.04-.21.41-.19.91-.84.91-.1.39.64-.25.44.41-.32.06-.53.23-.31.31-.2.41-.54-.39-.86-.2-.43.08-.53.35-.73.64-.09.64.76.47.85-.05.21-.04.34.8.43.16.12.6-1.25,1.49-1.57,1.3.34.92.95-.31,1.6-.32.22.33-.85.29-.2.41-.63.74-1.37.64-2.11,1.04.53.02.12.47.45.9.09-.76.75.1,1.06-.58.55.76-.52.6-.72,1.14,0,.12.21.08.43.04-.21.41-.74.52-.61,1.24-.21.04-.22-.2-.33-.31-.21.17-.2.54-.52.6,0,.25.21.08.43.04-.19,1.03-.93,1.42-1.23,2.48-.11-.23-.32-.18-.75-.1-.1.15.12.47-.52.48.11.23.64.12.86.2-.1.51-1.07.09-1.05.7,0,.12.22.2.22.33.09-.76.53-.35,1.27-.62.21-.04.21-.29.2-.41.54.39-.61,1.24-.94.81-.31.56-.62.87-1.37.77v.37c.44.04.54.02,1.08.16-.32.19-.52.6-.72,1.14-.21.04-.53-.02-.54-.26-.2.41-.52.72-.62,1.11.73-.89.85-.29,1.8-.73.12.47-.95.68-.62.74-.09.64-.43-.04-.53-.02-.43.08-.53.35-.63.62.01.49.33.43.44.66-.1.14-.1.27-.1.51-.42.33-.43-.16-.75.02.44.66-.86-.2-1.15.97.11.23.63-.37,1.17-.23-.3,1.17-1.07-.04-1.58.93.44.66.31-.56,1.07.04-.42.21-.52.6.02.74.43.04.31-.43.52-.72.43.16-.61,1.49-.62.74-.43.08-.31.68-.51.97.32-.06.42-.21.52-.48.54.26-.41.7-.95.68,0,.37.53.02.65.24-1.17-.01-1.03,1.57-2.31,1.82.54.14.85-.17.55.88-.64.13-1.39-.22-1.81.36.54.26.96-.19,1.61.18-.2.41-1.17.23-1.59.44.33.43,1.19.51,1.61.3-.08,1.25-.94,1.05-1.78,1.34.43.29.85-.05.33.68.32-.06.53-.23.63-.5-.4,1.19-1.99,1.63-2.28,3.3-.21.04-.22-.08-.43-.04-.21.04-.1.27-.31.43-.1.39.74-.27.44.41-.95.56-.94,1.18-1.13,1.96-.32.06-.53.11-.74.15-.21.41-.41.7.03,1.23-.64,0-.41.58-.31.56-.2.54-1.49.17-.94.93-.42.21-1.17.11-1.16.6,0,.12,1.28-.25,1.37-.77.43.04.75-.02,1.17-.23-.61,1.24-1.69,1.08-2.73,2.15.22.33.52-.6,1.06-.46.01.49-.85.29-.51,1.22-.74.27-1.16.85-1.9,1.12.22.33.85-.17,1.06-.21.12.84-1.27.5-1.58.93.01.49.65.24,1.07.16-.31.43-.32.19-.2.78-.32-.06-.43.08-.42.45-.42.21-.33-.31-.65-.24-.22-.08.01.62.23.7-.31.56-.42.21-.96.31.79,2.07-1.97,2.75-2.34,5.05-.21.04-.53.11-.74.15,0,.25.22.08.32.18-.93,1.55-1.76,2.58-3.14,3.1.66.61-1.47,1.16-1.24,1.98-.22-.2-2.01.77-1.47,1.04-.43.08-1.71.09-2.76.92.76.59-.53.11-.41.95-1.28-.12-2.65.78-3.83.51-.21.04-.74.52-.95.56-.21.04-4.37.5-4.38-.12-1.7.21-6.63-.54-4.99-3.35-.32-.18-.34-.8-.14-1.34.22.08,0,.25.01.49.73-.76.78-3.62,1.51-4.02Zm3.61,3.75c.01.49.02.99.55.76-.01-.49-.23-.7-.55-.76Zm1.06-.58c.43.04.64-.13.85-.29,2.28,1.65,5.97-.44,7.53-2.49-.21.04-.84.66-1.06.21.85-.29,1.25-1.24,2.1-1.66.01.62-1.05.83-.61,1.24,1.46-1.53,3.33-3.76,4.7-4.65-.1.27-.21.04-.22-.33.32-.06.64-.13.96-.19.5-1.71,1.98-2.25,2.26-4.17-.85.41-1.25,1.49-2.12.92,1.78-1.35,1.71-4.56,3.82-6.09-.11-.1-.01-.49-.55-.51.53-.23.54.14.85-.17.09-.88-.53.23-.54-.26,1.25-1.49,2.39-3.08,3.64-4.44-.22-.08-.33-.18-.33-.55.52-.72,1.23-2.35,2.09-2.15-.86-.08.14,1.34-.73.89-.1.27.11.35.12.59-.2.41-.53.11-.84.54.64.12-.1.39-.2.78.53-.35.12.59.44.41-.02-.99,1.05-.83.92-1.92.42-.21,1.05-.7,1.26-.99.82-1.4,1.3-3.98,2.77-5.26.31-.31.61-1.36,1.13-1.84,0,0,.11.35.22.33.1-.39-.23-.58-.23-.7.1-.39.93-1.3-.03-1.23.42-.08.85-.17,1.27-.25-.22-.45.41-.83-.02-.86-.1.27-.73.89-.74.27-.01-.62.95-.44.72-1.38-.53-.02-.63.5-.96.19-.08,1.38-1.14,1.71-1.11,3.07-.65-.24-.61,1.48-1.57,1.55.75-.02-1.03,1.69-.08,1.38-1.05.83-1.44,2.52-2.26,4.04-.22-.08-.64,0-.75-.22.71-1.88,2.47-4.33,2.22-5.9,1.79-1.1,2.9-4.05,3.4-5.88.74-.15.83-1.03.71-1.5.53.02.52-.6.73-.89-.21.04-.53.23-.64,0,.53.02.42-.46.95-.44-.23-.82.62-.99.28-1.79.43.29.19-1.28.5-1.59-3.26,2.26-6.08,5.05-8.36,8.23-.09.64-.1.39.02.99-2.61,2.63-6.09,4.56-8.37,7.61.51-.97,1.88-2.11,2.07-2.89-1.26.75-1.66,2.31-2.82,3.04.1-.51.74-.52.72-1.14-1.58.93-2.49,3.47-4.06,5.02.44.66-.2.78-.4,1.2-1.12,2.33-2.46,4.83-3.8,6.7-2.18,3.03-3.92,6.48-4.91,9.78,0-.12.21-.29.21-.04-.72,1.38-1.64,3.3-1.5,4.51.19-1.03,1.19.51.87.69-.11-.35-.33-.31-.34-.8-.32.06-.31.31-.64.25.01.62.44.53.45,1.03Zm16.19-50.44c.02.74.34.92.98.67-.34-.68-.13-.84-.98-.67Zm1.2-3.59c-.1.27-.21-.08-.32-.18-.41.58.22.33.13.84-.1.15-.21.04-.31.31.32-.06.53-.23.63-.37,0-.25.09-.64-.12-.6Zm.3,42.58c.2-.54.74-.52.61-1.24-.64-.12-1.05.83-.61,1.24Zm1.25-40.28c-.21.04-.43.08-.64.13.01.62.75.22.34.8.11-.02.21-.04.32-.06.11-.02.32-.06.32-.19-.43-.04-.01-.49.1-.27-.33-.43-.04-1.98-.79-1.95.33.55.13.84-.29,1.17.32-.06.74-.15.65.37Zm-.21,34.13c.33.31-.08,1.13.23.7,0-.37.73-.89.29-1.17-.1.27-.31.31-.52.48Zm1.05-44.21c.02.74-1.13,2.21-.58,2.72.2-.78.92-2.04.58-2.72Zm.49,41.67c.34.68-.51,1.09-.6,1.86.85-.42,1.04-1.45,1.34-2.37-.43.08-.42.33-.74.52Zm.2-43.92c-.21.29-.85.29-.73,1.01.75.22,1.13-1.96.61-1.36.11-.02.22.08.12.35Zm.67,6.06c-.32-.06-.33-.43-.65-.37.02.99-.71,1.51-.59,2.23.53-.23.2-.66.64-.13-.01-.62.43-.08.42-.45-.43-.16-.02-.99.41-.83-.12-.6.3-.8.18-1.4-.96.19.33.55-.41.95Zm.79,35.67c-.11.02-.21.04-.32.06-.1.14-.32.06-.31.31.11-.02.22.08.33.31-.74.52-1.28.25-1.69.95.64,0,.85-.41,1.49-.42.2-.41.52-.6.51-1.22Zm-1.05-37.72c-.36-1.67,1.22-2.72.36-3.17-.19.91-.9,2.66-1.19,3.96.53.02.52-.6.84-.79Zm5.91,30.56c.43-.08.31-.56.62-.87-.53.11-.74.39-.62.87Zm4.2-8.27c-.02-.74.3-1.05.5-1.59-.42.21-.43-.29-.65-.37.1-.39.94-1.18.29-1.3-.94,1.18-1.11,2.82-2.27,3.8.33.43.33.18-.08,1.01.53-.23.41-.7.74-.15.19-.91.61-1.36,1.46-1.41Zm-1.58-13.57c.43.16.84-.66.41-.83.01.49-.63.37-.41.83Zm.83,18.18c.64-.13,1.16-.6,1.36-1.14-.53.23-1.16.48-1.36,1.14Zm3.35-12.81c-.95.31-.49,2.08-1.35,1.88-.09.64.33.43.34.68-.1.15-.42.33-.74.27.02.74-.3.8-.61,1.61.32-.06.53-.11.64,0,.61-1.36,1.33-2.74,1.72-4.43Zm.85,4.54c.53-.23.95-.44.94-1.18-.42.21-.73.64-.94,1.18Z"/>
    <path class="cls-1" d="m337.39,114.27c.09-.76,1.04-1.32.91-2.53-.21.17-.31.56-.41.83-.33-.43.4-1.32.38-2.06.43-.08.33.18.64-.13,0-.25-.32-.06-.54-.14.8-2.51,1.41-4,2.32-6.29-.02-1.11.28-1.79,1.02-2.19-.44-.78,1.01-2.8,1.86-2.97-.76-.72,1.02-2.19,1.55-2.29.2-.54-.33-.18-.54-.26.2-.78.53-.35,1.05-.83-.44-.53,1.02-2.06,1.76-2.58-.83,1.03-.49,2.2-1.75,2.71.54.26,0,.37-.3.8.11.1.32.06.33.43-.63.37-.61,1.36-1.35,1.63,0,.37.54.14.44.66-.32.06-.53.11-.74.39,0,.12.22.08.32.06-.31.56-.52.72-.94.93,0,.12.22.08.32.06-.31.43-.4,1.07-1.05.83.2-.41.52-.48.4-1.07-.42.33-.4,1.2-1.04,1.45.11.23.33.31.65.24-.1.14-1.06.46-.1.39-.85.42-.93,1.3-1.56,1.8.22.33.31-.56.74-.4.63-.37-.13-.84.62-.99-.1.51-.41.82-.4,1.32-.85.17-1.06.58-1.05.71.12.72.64.12.75.22.11.35-.74.27-.1.39-.53.35-.85.29-1.27.62.34.68.76.35.35,1.29,1.37-.89,1.21-3.34,2.05-3.75.68-3.11,3.83-5.35,4.5-9.08.32.06.42-.21.63-.25.1-.39-.11-.35-.33-.31.62-.99.93-1.3,1.54-2.66-.43.08-1.04,1.2-1.68,1.45-.76-.47.5-1.34,1.03-1.82-.13-.84.6-1.73,1.45-2.27-.12-.72.4-1.44,1.35-1.88.41-.83.82-1.4,1.47-1.16-.41.7-.93,1.42-1.78,1.59.11.23.32.06.54.14-.73,1.01-1.46,1.78-2.08,2.52,1.07.28,1.03-1.69,2.09-1.9.02.74.01.49.03,1.23.52-.48.73-1.01,1.46-1.65-.11-.35-.74.15-.33-.43-.43.08-.41.7-1.05.71.51-1.22,1.67-1.82,2.07-3.14-.32-.06-.94,1.18-1.48.54.2-.41.85-.29,1.05-.71-.85.29-.02-.86.1-.27,1.34-2.13,1.93-4.72,2.94-7.15,1.98-2.01,2.55-5.34,5.19-6.73-.2.66.53.02.33.68,1.17-.23,2.03-.15,2.45-.49,1.64,1.66,6.01,1.29,6.62,4.51.12.47.75.1.55.76-.53.23.09-.64-.76-.35.22.45.34,1.05.88.94.37,2.28,2.16,6.02,2.63,8.03-.11.02-.1.15,0,.12-.09.64-.32.19-.64.13.01.49.33.43.65.37.16,2.45-.03,3.35.13,6.05.11.23.55.76.65.24-.2.66.03,1.23.37,2.28-.53.23-.12-.6-.65-.24-.2.78.14,1.46.47,1.77.12.6-.2.78-.08,1.26-.32.06-.22-.33-.64-.12.55.88-.28,1.67.28,2.8-.31.31-.85.17-1.07-.04-.53.23-.61,1.36-.5,1.71.43.16.41-.95.53-.11.32-.19-.02-.86.08-1.26.22.21.33.43.75.22-.41.95-.94,1.05-.39,1.81-.85.29-.49,2.08-1.34,2,.33.68-.18,1.4-.27,2.29,8.51-1.57,13.78-4.6,19.88-9.15-1.02,2.06-3.77,3.48-4.47,5.35-2.64,1.51-3.14,2.98-6.32,4.11-1.04,1.45-3.18,1-4.32,2.47.11.1.32.06.53.02-.2.53-1.49.42-2.44.73-.13-.84.32.06.31-.43-.22-.33-1.17.11-1.05.7-1.07-.16-2.13.3-2.76.55-.31.43-.4,1.07-.72,1.38.02.86.55.63-.19,1.15.11.1.32.06.53.02-.24,3.77-2.77,5.14-3.66,8.16-1.17.11-.82,1.4-1.23,2.23-.2.54-1.05.95-1.35,1.76-.6,1.98-1.53,3.15-2.45,5.07-.87-.45-.5,1.46-1.46,1.53-.21.04,0,.25.01.49-1.16.6-1.36,1.14-1.98,2.13-.32.06-.64.13-.96.19-.39,1.57-2.5,2.85-4.19,3.93-.32.19-3.58,2.08-4.56,1.65.11-.02-.01-.49-.23-.57-7.37.1-10.02-3.96-12.52-10.78-.34-.92.16-2.39-.39-3.02.11-.02.32-.06.43-.08-.39-3.02,1.22-7.43,1.56-11.47.75.22.2-.78.84-.66-.65-.37-.84.41-1.38.4-.2.78.43.29.34.8-.32.06-.31.31-.21.29-.2.54-.55-.51-.86-.33,0-.25.21-.29.21-.04Zm.64,4.58c-.1.27-.2.54-.3.81.21-.04.11.22.33.31.1-.39.41-.82-.02-1.11Zm.04,11.52c.22.45.24,1.07.66.98-.12-.47-.13-.97-.66-.98Zm1.35-1.63c-.22-.45-.69-2.34.17-2.14,0-.37-.22-.45-.54-.26.3-.8.07-1.5.16-2.39-.01-.62.7-2.25-.05-2.22.02.74-.08,1.38-.16,2.51-.07,1.63-.65,4.22.42,4.5Zm1.26-20.45c-.64.13-.3,1.17-1.04,1.2-.09.76-.29,1.42-.6,1.85.11-.02.21-.04.32-.06,0,.12,0,.25.22.2.3-.93.52-.85-.02-.74.21-.04.1-.51.52-.48.09-.76.5-1.34.6-1.98Zm-.72,20.72c-.64-.12-.84.79-.3.8-.23-.58.42-.33.3-.8Zm4.89,3.74c-1.59-4.39-.63-13.76.58-17.47.23.7-.64.25-.63.62.22.08.32.18.33.55-.21.04-.43.08-.64.13-.2.66.53.02.54.39-.42.21-.63.5-.73.89.11-.02.32-.06.22.33-.74.27,0,.12-.09.89-.54-.39-1.27.62-1.4-.34.32-.06.43.28.96.06.2-.78-.96.19-.97-.3.21-.17.53-.11.63-.37-.33-.31-.32.19-.74.15-.28,1.91-1.39,4.62-.72,6.22,0,.37-.53.23-.41.83.21-.04.42-.21.43.04-.48,2.57,1.19,5.59,1.78,7.95.53-.23.54.26.66.86,1.98,2.46,7,2.45,9.7-.94-1.37.77-3.7,1.85-5.1,1.38-1.79,1.35-3.74,0-4.42-1.85Zm-2-27.74c.42-.33.85-.42.83-1.16-.53.11-1.14,1.71-.61,1.24-.11.02-.21.04-.22-.08Zm9.11-3.42c-.01-.62.3-.68-.02-.86,1.17-.36.7-2.12.27-2.29.34.68-.85.17-.51.85.33.18.63-.62.74-.15.02.74-1.06.33-1.27.75.54.14-.42.33-.3.68.32.06.95-.44.96-.07-.41.58-.72,1.26-1.14,1.84-.32-.18-.43.08-.96.07-.09.76.54.14.65.37.01.62-.84.42-.2.78-.2.41-.31.56-.74.52.35,1.17-1.8.98-1.02,2.06,0-.25.42-.33.43-.08-.43.08-.83,1.03-.51,1.22,0-.25.2-.54.31-.31-.63.62-.3,1.05-1.15,1.22.22.45,0,.37.23.82-.33-.31-.32.06-.2.41-.43.08-.43-.29-.74.15-.09.76.44.41.54.51-.21.17-.09.76-.3.8-.53-.02-.42.46-.95.44-.09.76.53-.23.43.16-.31.31.22.45-.09.64,0-.25-.22-.2-.43-.16.12.72-.41.7-.51,1.22.22.33.63-.37.64,0,.01.49-.72,1.13-.29,1.54,1.61-4.53,3.65-8.66,5.59-12.89.21-.04.32-.19.53-.23Zm-5.75-4.06c-.19,1.03,1.18.14.64-.13-.09.51-.32-.06-.64.13Zm16.8,11.29c.2-.66-2.56.01-1.52-1.18-2.35.09-3.45-1.55-4.97-2.73.21-.04.53.02.64-.25-.33-.43-.55-.88-1.08-.65.21-.04,0,.25-.21.29-1.49.54-1.44,2.76-2.37,3.94-.32.06-.85.17-1.07-.04.54.39.36,1.66-.3.93,0,.37.12.6.23.7-.42.33-.73.77-1.04,1.07.21.08.32.18.33.55-1.27.5-.26,2.53-1.54,2.79,0,.25.12.35.22.45-.32.06-.31.31-.64.25-.08,1.13-.28,2.04-.8,2.64-.07,1.5.14,1.46-.48,2.45.21-.04.22.2.33.31-.11.02-.43.08-.42.21.03,1.23.17,2.94-.65,4.59.64.12.23.82.03,1.23.11.1.32.18.43.29-.93,1.3.38,2.78.41,4.01,0,.12-.43.08-.32.19,0,.25.97.55.77.96,2.23-.44,3.51-.82,5.3-1.8,0,.25-.1.27-.1.39,2.01-.9,3.45-3.29,5.35-4.41,1.37-.77,1.86-2.97,2.9-3.92-.11.02,0,.37.12.35.31-.43.08-1.38.72-1.26-.11-.22.21-.17-.12-.72,1.58-.81,2.01-5.61,3.67-7.92,0,.37-.73.89-.3,1.05,0-.25.1-.14.32-.06.3-.68.28-1.91.71-1.75-.01-.49-.33-.31-.02-.74-.32-.06-.63.62-.64.13.42-.33-.35-1.29.3-.93-.33-.55-.22-.2.09-.89-.43-.16-.74.27-1.49.3-.44-.78-.96-.18-1.82-.38.41-.58-.54-.14-.65-.49.21-.17.53-.11.63-.37-.54-.14-.42.21-.95.44Zm-12.08-15.08c0,.25.01.49.12.6.09-.89.74-.4.93-1.3-.31.31-.63.5-1.05.7Zm6.24-2.6c-.12-.47.83-1.03.4-1.32.02.74-1.27.5-.95.68.53.02-.42.21-.31.56.43-.08.43.29.86.08Zm7.45-6.07c.23.58-.71,1.51-.37,2.55-.53.23-.3,1.05-.72,1.38.64,0-.41.95-.61,1.36.43.29-.41.95-.94,1.05,0-.12,0-.25-.11-.23-.2.66.53.02.44.53-.11.02-.1.15,0,.37-.42.45-1.69.83-.51.97-.42.21-.41.83-.62,1.12-.11-.1-.22-.33-.43-.29.34.8-.31.68-.62,1.11.64-.13.01.62.13.97-.21.17-.63.25-.74.52.46,1.64-1.65,2.43-1.61,4.29,2.41,2.74,5.86,4.29,9.62,5.16-.32-.06-.64-.24-.74.27.43.16.97.18,1.5.07-.02-.74.41-.95.28-1.79.53.02.42-.45.95-.44,0-.25-.23-.82.3-.68-.34-.8-.15-1.95-.05-2.47,0,.12-.1.51.12.47.55-3.95,1.85-7.93.37-12.1.97.3-.36-1.67.62-1.11-.22-.45-.44-.53-.24-1.19-.53.11-.45-.9-.76-.72.32-.19-.02-.99.4-1.07-.43-.29-.33-.43-.34-1.05-.11-.23-.54-.14-.76-.35.21-.29.42-.45.52-.84-.97-.3-.78-1.46-.7-2.71-.09.64-.09.89-.61,1.36-.01-.49.29-1.42.29-1.3.39-1.69-.59-2.36-.71-3.21-.43-.16-1.4-.47-1.95-1.1.21-.04.65.49.53-.23-3.17-3.21-6.45,3.02-7.13,5.88,1.28,0,1.53,1.56,2.27,1.16-.11.02-.21.17-.1.27.98.8,2.69.71,3.04,2Zm6.47,26.85c-.85.42-1.03,1.94-.69,2.49.83-.91-.04-1.6.69-2.49Z"/>
    <path class="cls-1" d="m382.07,128.45c.1-.52-.43-.29-.65-.24-.01-.49-.02-.99-.03-1.36.21-.04.32-.19.42-.45-.21.17-.54-.14.2-.66-.11-.1-.32-.06-.53-.02.5-1.59,1.08-4.18.84-5.5.42-.21.91-2.04.38-2.18,1.5-4.51,3.29-10.69,5.2-16.03.21-.04.31-.43.74-.39-.55-.64.48-2.45.7-2.37,0-.12,0-.25-.11-.23,2.54-5.96,5.08-11.79,7.84-17.55.21-.17.53-.11.63-.37.22.08,0,.37.01.49.53-.11.41-.82.72-1.13.11.1.44.66.43-.08.44.53,1.28,0,1.4.71,2.13-.3,4.8-.46,4.94,1.37.21-.04.43-.08.42-.21.76.35-.18,1.28.36,1.66-.1.15-.31.31-.64.25.11.22.32.18.54.14-.31.31-.08,1.01-.73,1.01,0,.25.21.08.43.04-.09.64-.63.62-.4,1.32-1.48.79.03,1.23-1.35,1.63.11.1.32.06.22.45-.32.06-.32-.06-.54-.14-.1.39.22.33.43.29-.21.29-.84.54,0,.37-.31.68-.64.13-1.38.52.11.23.54.14.75.1-.42.46-.53.11-1.06.21.23.82,1.28.12,1.61.3-.2.78-.94,1.05-1.57,1.3.11.23.33.31.64.24-.09.51-.95.44-1.16.73.01.49.64,0,.86.08-.83,1.28-3.39,1.42-3.14,2.98.19-1.15,1.05-.58,1.47-1.28-.2.54.23.82.33.55.53.02-.31.31-.31.56.11.23.74-.27.63-.62.43.29-.08,1.01-.73,1.01,0,.25.32.06.43.04-.62.74-.74.27-1.69,1.08.33.18.75-.02,1.39-.15.01.62-.52.72-1.05.83-.08,1.01-1.04,1.07-1.78,1.59.22.2,1.18.01.66.74-.12-.35-.44-.53-.76-.59-.43-.04-.31.43-.63.5.63-.25.32.18,1.06-.21-.42.45-.1.27-.3.8.11.1.32.06.33.31.53-.23.62-.74.94-.81.13.97-2,1.51-1.97,2.87.74-.4,0,.12.64.12-.21.29-.52.48-.95.56.11.1.22.45.23.82-1.16.72-2.35.09-4.03,1.17.22.33.84-.66.54.39.53-.35.63-.62,1.05-.7.33.43-.52.6-.3,1.05-.54-.27-1.39.15-1.37.89.4-1.07.85-.29,1.7-.34.21-.29.09-.88.73-.76-.1.27-.42.21-.52.48.11.23.32.06.33.31.43.04.09-.64.63-.62-.1.27-.2.41-.3.8-1.07-.16-2.44.73-2.94,2.07.22.45.52-.48.51-.97.43.29-.09.64.24,1.07-.21.16-.42.21-.64.25,0,.25.22.08.33.18-.2.54-.43.08-.95.56.99,1.17-.8,2.64-.35,3.54-.53-.02-.41.83-1.26.99.64.12.66.86.03,1.23.45,1.03-.27,2.16-.7,2.25-.19.91.44.66.56,1.13-.74.15-.82,1.4-.29,1.3-.84.54-.29,1.3-1.03,1.69.12.47.31-.31.53-.11-.84.42-.27,2.41-1.22,2.85.22.45-.2.78.23.82-.3.8-.4,1.07-.17,2.02-.95.68.33.55-.94.93.12.35.74-.15,1.07-.09-.1.51-.41.7-.73.89-.09.51.74-.27.65.24,5.31-6.14,10.4-12.73,15.16-19.74,1.37-1.01,3.45-3.54,4.14-5.91.33.31.83-1.03.4-1.32.92-1.79,2.04-4.12,2.22-6.02,0-.12.21-.17.42-.21.78-3.62,2.75-6.12,3.63-9.65,1.95-3.36,3.04-7.54,5.21-10.83.33.31.54.14.65.24.43.04.09-.64.41-.83.43-.08.43.29.55.63,1.06-.33,3.19-.63,3.64.39.72-1.01,1.18.26,2.03.21-.19.91.56,1.38.56,1.25.36,1.66-.45,3.81-.95,5.52-.96-.06-.2.66-.72,1.38-.32.06-.53-.02-.75-.1.01.49.44.41.76.35.02.99-.73.77-.39,1.69-.43.08-.42.45-.74.52.45.9-.92,1.92-.58,2.59-.43-.04-.62.99-1.16.85.12.47.21.08.53.02-.2.54.04,1.73-1.34,2,.86.2.02.74.35,1.17-1.48.79-2.41,1.97-3.24,3.37.53.02,1.67-1.82,2.21-1.68.12.72-.43-.04-.52.48-.1.27.11.23.22.33-.52.48-.74.27-.82,1.4-.53.11-1.28,0-1.59.44.22.08,1.07.04,1.6-.32-.52.85-1.49.42-1.03,1.82-.32.06-2.34.46-.33-.68-1.08-.53-1.16.73-1.99,1.63.44.53,1.8-.6,2.44-.85-.3.93-.93,1.55-2.21,1.31-.21.29-.51.97.02.99.31-.31.52-.72,1.16-.6,0,.12-1.16.6-1.36,1.14.11.23.43.04.64,0,.21-.04.1-.27.1-.52.32-.06.53-.11.85-.17-.4,1.32-1.25,1.24-2.64,1.39.01.62.33.55.76.47,0,.25-.64.13-.52.6-.33-.43-.65-.49-1.07-.04.13.84.13.97.13,1.21.32-.06.53-.11.63-.37.11.1.12.35.43.16-.74.39-1.37,1.01-2.43,1.1.11.23.97.43,1.07-.09.43.04-.3.93-.63.5.32.06.23.82.66.74-.1.52-.53-.02-.75.02-.1.14.12.6-.3.93.53.02.31-.56.74-.52-.3.68-1.04,1.07-1.57,1.55.11.23.54.26.86.2.31-.43-.1.52-.64.25.13.84.55.63-.41.82-.1.39.86.45.96.06.32-.06.02.74.13.97-.64,0-.74.4-.73,1.01-.53-.02-.74.15-1.07.09-.42.21.33.18.12.72q-.53.23-1.05.7c.12.35.64,0,.96-.07-.1.39-.52.48-.73.77.23.7.94-.93.85-.05.21-.17.42-.33.52-.6.22.08-.3,1.05-.94.93.64-.13.45.78-.08,1.01.12.47.32-.19.53-.11-.21.29-.62.87-1.06.58.65.37.15,1.83.38,2.53-.94.81.33.55-1.15,1.34,0,.37.53.02.65.24-.1.27-.21.41-.52.48,0,.25.32.06.53.02-.3.93.26,2.3-.48,2.45.22.2.64.12.55.76-.31.31-.42.33-.64.13.44.65,1.69-.71,1.78-1.59,1.66-2.19,4.09-3.54,5.42-6.04.86.2,1.57-1.3,1.88-2.11,1.38-.27,1.24-1.86,2.41-2.09.1-.15-.22-.2-.32-.18,1.45-2.02,10.04-14.51,11.92-16.62-.33-.55.93-1.42.29-1.54-.02-1.11,2.4-2.46,1.94-4.1.86.33.3-1.17,1.47-1.28.12.47-.31.43-.3.68.84-.54.92-1.79,1.77-2.21-.02-.86-.63.37-.75-.1-.32-.06.74-.27.95-.68-.09.76.03,1.23-.59,2.1.44.41.63-.5.63-.5.75-.02-.63.74-.5,1.34-.97-.18-.62.99-1.26,1.12.11.1.11.35.12.72,1.24-1.98,2.59-3.86,4.15-5.53-2.58,3.98-5.39,7.51-7.43,11.64-1.15.97-9.01,12.57-9.95,13.75,0,.25.33.18.54.14.19-.91,8.29-11.44,8.6-12.24-1.13,1.96-10.01,15.75-11.55,18.66,0,.25.32.06.64.12-.09.88-.75.02-.3.93-.22-.2-.32-.06-.32.19-.22-.2-.96.07-.95.56-.1.27.75.1.64-.13-.19.91-1.46,1.78-2.3,2.44,1.5.07-.51,1.09-1.15,1.1.12.59.54.14.96-.07-.21.29-.2.41.12.35-.31.43-.3,1.05-.39,1.57-1.38.52-1.75,2.83-2.84,2.18-.32.19-.51.84.12.47-.52.48-1.07-.03-1.04,1.08-2.34.34-3.91,2.14-5.61,2.23-.32-.06-.22-.45-.44-.53-.11.02-.42.45-.63.37-.86-.2-1.42-1.45-2.6-1.47-.22-.45.2-.54.09-.89-3.09-4.59-1.13-12.67.24-18.14-.11-.35-.94,1.05-.54-.14-.54-.14.02.86-.52.72,0,.12.11.1.32.06-1.45,2.02-2.58,4.23-4.03,6.13,0,.25.01.49.12.47-.52.48-.94,1.05-1.46,1.41.13.84-.72,1.38.04,1.73-.73.76-.39,1.57-1.45,2.15,0,.12.11.23.12.47-.74.52-1.15,1.34-1.45,2.27-.32.06-.43-.04-.64-.12.44.66-.3.68-.72,1.26-.94,1.05-1.63,3.42-3.12,3.6-1.19,3.95-5.87,5.13-8.8,2.99-.02-.74-.34-.8-.25-1.56-.1.27-.31.31-.63.37,0,.37.43.16.33.68-.22-.33-.33-.68-.77-.84.2-.41.53-.35.95-.31-.56-1.01-.59-2.73-1.68-3.39.22.45.24,1.07.57,1.5,0,.25-.53.23-.52.6-.22-.2-1.1-1.64-.14-1.71-.33-.55-.53.11-.76-.47-.12-.47.54.39.64-.25Zm5.04-13.65c.42-.33,1.28-.25,2.13-.18-.02-.99-2.57-.48-2.13.18Zm8.29-11.69c.01.62,1.08.41,1.38-.15-.44-.41-1.06.46-1.38.15Zm2.1-1.53c-.64.13-.32-.06-.12-.35-.33-.31-.32.19-.85.17-.09.76.01.62-.08,1.13.43.16.42-.21,1.06-.21,0-.25-.01-.49-.02-.74Zm15.84,11.36c-.01-.62-1.18-.26-1.49.17.54.26.95-.31,1.49-.17Zm-1.18-.38c.1-.39.65.37.85-.42-.32.06-1.39-.1-.85.42Zm3.75-9.17c-.32.06-.86-.2-.95.44.63-.5.32.06.86.2-.11-.23,0-.37.09-.64Zm1-3.17c-.2.54-1.39.15-1.48.67.43.16.95-.44,1.5.07-.12-.35.41-.7-.02-.74Zm1.24,22.31c-.32.06-.32-.18-.43-.29,0,.25-.31.43-.31.56.21-.04.11.35.33.31-.12-.35.42-.21.41-.58Zm-.36,3.05c.32-.19.96-.19.84-.79-.43.08-.74.27-.84.79Zm2.94-7.15c.64-.25.52-.6.83-1.03-.53.11-.84.54-.83,1.03Zm2.59-3.49c-.11-.1.09-.76-.54-.39.33.68-.84.79-.92,1.92.63-.37,1.05-.95,1.46-1.53Zm-.61-22.94c.22.45-.53.23-.31.68.43-.08.74-.4.95-.68-.32-.18-.32.19-.64,0Zm.5,22.46c.54.14,1.57-1.67,1.45-2.15-.94.68-.61,1.36-1.45,2.15Zm11.54-19.27c.53-.23.73-.64.83-1.28-.31.31-.52.85-.83,1.28Zm2.06-3.26c.53-.23.51-.85.72-1.26-.31.31-.73.64-.72,1.26Z"/>
    <path class="cls-1" d="m428.88,112.83c1.47-1.41.98-4.04,2.03-4.87-.43-.16.3-.8-.12-.84.42-.08.2-.78.63-.5-.23-.94.56-3.71,1.39-4.74-.43-.04-.23-.82.3-.93-.11-.22-.32-.18-.33-.55.32.06.65.37.74-.27.1-.39-.22-.33-.43-.29.92-2.04,1.2-3.58,2.01-5.85.21-.04.43-.08.64-.13,0-.37-.22-.33-.54-.26,3.22-9.07,5.78-18.75,9.11-27.72,1.7-.34,3.02,1.38,4.27.02,0,.25.12.6.33.68.32-.06.2-.41.2-.66.74-.15,1.18.38.66.98.12.47.85-.17.76.59.43-.08.52-.48.95-.44.01.62-.2.53-.63.5.12.47.54.51.75-.02-.2.41,1.08.65-.09.76,0,.25.32.06.43.16,0,.25-.42.21-.41.58.11.35.53-.35.95-.44-.63.74-.19,1.03.04,1.97-.74.15-.94.81-1.59.56-.21.17-.1.51-.42.21.12.47.12.84.66.74.1-.27-.44-.66.52-.6-.2.66.13.84-.08,1.38-.42.33-.43-.16-.75.02,0-.25.32-.19.64-.25-.65-.37-1.81.24-1.9.87.74-.52.95-.44,1.91-.38-.31.43-1.28.25-1.91.5.54.26.22.45-.09.76,0,.12.11.1.11.35.51-.97,1.26-.87,1.68-1.2.01.62-.41.83-.4,1.44-.85.29-1.28,0-1.59.69.53.02,1.07.16.01.49,0,.37.86.2.85-.17.33.31-.61,1.24-.84.54-.21.04.01.62-.2.78.53-.23.32-.06.85-.29q0,.12-.1.14t.11.1c-.09.64-.32-.06-.64.13,0,.37.22.33.33.31-.19.91-1.48.91-1.56,1.92.42-.21.72-1.13,1.16-.73-.31.43-.84.66-1.04,1.2,0,.37.43-.08.42-.21.45,1.15-1.8.61-2.11,1.29.32.06.44.41.96.06-.1.14-.2.54.01.49.53-.11-.01-.62.73-.64-.41.58-.1.27.02.86-.96-.06-1.16.48-2.02.4-.21.29-.2.66-.41.95.22.45.84-.66,1.06-.21.21-.04.1-.39.2-.54.32-.19.53-.11.75-.02-.42.33-.63.37.01.49-.1.27-.31.31-.53.35.11.1.22.08.22.33.75-.03.18-1.28,1.04-1.2-.14-1.34,1.03-1.57.69-2.37.65.37.81-2.14,1.46-1.78.09-.76.94-1.18.6-1.85,1.05-.95,2.84-2.18,3.35-3.14,2.02-.4,5.43-.83,6.21.5.21-.04.32-.19.53-.23.54.26-.18,1.65.56,1.25-.1.51.35,1.42-.19,1.28.88.94.05,2.34.28,3.04-.75-.1-.74.52-1.27.62,0,.12.96.18.85-.05.32.06.33.55.34,1.05-.32.19-.52.48-.73.64.01.62.34.8-.3.93,0,.25.32.06.43.16.02.74-.81,1.77-.47,2.7-.31.19-.86-.08-.85.29.33.31.64-.25.86.45-.84.79.16,2.2-.79,2.76.11.1.65.49.01.62.32.18.65.49.97.67,4.71-4.41,8.98-9.22,13.36-13.93-.41.7-.83,1.28-1.24,1.86,0,.25.21.08.32.18-2.58,4.23-5.06,7.82-7.75,11.83-1.45,1.9-3.62,5.31-6.71,5.79-.11-.22-.22-.33-.23-.7-.1.14-.31.31-.53.23-.43-.16-.24-1.19-1.09-.78.94-.81-.64-.12-.76-.59,0-.25.21-.17.42-.21-2.84-3.03-3.48-7.49-2.34-13.91-1.27.75-.92,1.92-2.08,2.64.65.37-.52.85-.29,1.3-.75-.22-.72,1.38-1.13,2.08-.11-.23-.32-.18-.64-.12,0,.37.12.47.33.43-1.45,2.15-2.47,4.21-3.72,5.57.45.9-.89,3.03-1.61,4.41-.11.02-.11-.23-.11-.35-.42.21-.2.78.02.86-.92,2.04-1.75,2.95-2.45,5.2-.32.06-.32-.18-.54-.14-.1.39.12.72-.29,1.17-.21.04-.22-.21-.43-.16.02.86-.31.31-.07,1.63-.21.04-.43.08-.64.13.35,1.42-1.01,2.56-1.31,3.36-.4,1.2-.58,2.72-.98,3.91-.2.66-.73,1.01-.92,1.79-.18,1.4-.04,3.23-1.18,4.45,0,.25.32.18.22.45-.21.17-.22-.08-.43-.04.77.96-.48,2.45-.35,3.42-.21.04-.64,0-.63.37.11.23.21-.17.43-.08-.2.54-.05,2.61-1,3.17.43.29.46,1.64-.28,1.79.44.41-.08,1.01.04,1.85-.84.42-1.51-.69-1.81.11-.53.23-.23-.7-.86-.32-.12-.72.22.08.31-.43-.75.02-1.29-.12-2.02.28-.22-.2-.23-.7-.02-.99-2.95,1.95-3.47-2.53-2.25-5.13.21-.17.43.16.43-.08.54.14.12.47.24,1.19.62-.87-.06-2.84,1.22-2.97-.01-.49-.64-.12-.55-.76.43.04.2-.66.41-.82-.74.52-1.03,1.82-.91,2.53-.75-.22,0,.25-.41.58-.64.13-.13-1.09-.03-1.36-.64.25-.83,1.16-1.46,1.53.02.86.37,2.16-.69,2.62.22.2.55.76-.19.91.33.43-.07,1.5-.6,1.73-.16-2.57,1.42-3.63,1.15-5.93.11-.02.32-.06.43-.08.2-.78-.46-1.52.49-2.2,0,.25-.2.41-.2.66.71-1.51,1.1-3.44,1.59-5.27-.43-.04-.31.43-.41.7-.43-.29.82-1.77,1.01-2.68-.11-.35-.21.04-.53.11Zm.86,4.91c.31-.43.4-1.07.5-1.71-.32.19-.64.25-.74.52.32-.06.23.58.24,1.07,0-.37-.64.13-.75-.22.53-.35-.02-.86.5-1.34.32-.06.64-.13.85-.05.29-1.54.68-2.99,1.18-4.45-1.06.33-.4,1.07-1.03,1.57.54.14-.17,1.89-.92,1.79-.12-.35.41-.83-.12-.72-.53.35.12.47.02.99.33.18.73-.64.74-.15,0,.12,0,.37.01.49-.43-.04-.42.33-.74.27-.11-.23.21-.41-.01-.49-.2.66-.62.99-.93,1.42.21-.04.43-.08.43.16-.42.33-.52.48-.09.51-.1.39-.64.25-.41.82.11-.02.21-.04.22.08-.2.41-.43-.29-.42.46.54.39.41-.7.73-1.01,0,.37.53-.11.75-.03Zm.43-4.92c-.64,0-.3.93-.61,1.24.21-.04.53.02.64-.25-.53-.02-.12-.59-.02-.99Zm1.6-4.9c.43.04.53-.23.85-.29-.34-.68.1-.39.3-.93-.22-.33-.64.13-.74.4.11.1.22.2.33.31-.43.08-.74.15-.74.52Zm.22.2c.11.23-.21.29-.2.54.21.08-.1.27.01.49,1.07-.09.3-.68.51-1.09,0,.12-.1.14-.32.06Zm.25-3.27c0,.25-.3,1.05-.08,1.01-.01-.62.85-.41,1.16-.85-.53-.02-.53.11-1.07-.16Zm.98.67c-.54-.14-.09.64-.41.58-.32-.06-.74.52-.31.43,0-.25.32-.19.53-.23,0-.37.09-.64.2-.78Zm.09-.76c0-.37.2-.41.31-.56-.43-.16.41-.58.3-.93-.3.8-1.48.79-1.36,1.14,0-.12,0-.25.21-.17.01.49.42-.21.54.51Zm.89-3.15c.01.49-.52.6-.71,1.51.21-.04.42-.08.74-.15-.11-.35.61-1.48-.03-1.36Zm.61-1.24c.11-.02.32-.06.2-.41-.43-.04-.42.46-.73.76.32.06.65.49.74-.15-.11-.1-.21.04-.22-.2Zm.3-5.76c.12.47-.62.87.03,1.11.21-.29.09-.76.62-.87-.31.31-.08,1.01.11.35-.43-.04.31-.31.2-.78-.53.11-.63.62-.96.19Zm1.12,2.5c-.52.48-.74.52-1.05.95.21-.04.42-.21.43.04-.1.39-.52.6-.73,1.01.32.06.31-.31.74-.27-.02-.74.51-1.09.6-1.73Zm10.84-16.78c.53.02.63-.37.86.08.52-.85-.87-.82-.86-.08Zm4.13-11.48c-.11.02-.32.06-.43.08,0-.12-.01-.49-.22-.45-.1.39-.3.93-.08,1.13.43-.08.52-.48.73-.76Z"/>
    <path class="cls-1" d="m536.26,81.09c.43.16.95-.56,1.68-1.08.54-4.69,2.3-11.86,2.5-17.36.07-1.75-.3-4.15-2.13-4.41-2.22.81-4.75,2.56-6.94,4.85.02.74-.18,1.4-.82,1.77-.59,2.35-1.94,3.98-3.73,5.08-.31.31-.52.85-.72,1.26-2.02.52-1.49,4.88-3.61,5.55.22.45-1.14,1.47-.49,2.08-1.68,1.45-1.39,4.74-2.95,6.78.13.97-.61,1.61-1.01,2.8.15,1.95-.98,4.16-1.68,5.91,0,.12.21.08.32.06-.48,2.45-1.7,5.05-1.86,7.44-.08,1.38.49,3-.87,4.14.33.43.53-.11.86.2-.1.51-.52.6-.84.79.23.7.5,3.25-.45,3.93.12.47.44.41.13,1.21-.53-.02-.14-1.34-.87-.94.43.29.12.47.24,1.07-.54-.26-1.3-.98-1.6.07-.22-.08-.33-.43-.55-.64.12.72-.62.87-.75.02-.42.33-.31.19-.85.17v-.49c-.32.43-.54.11-.66-.24-.73.64-1.17.36-1.71-.03-.16-2.32.56-3.83.29-6.26-.52.48-.18,1.65-.7,2.24.54-4.69,1.37-10.68,2.12-15.17.78-13.17,5.97-29.57,7.92-42.73.37-2.43,1.03-6.53,1.94-8.81-.23-.58.18-1.4.28-1.79,1.84-8.67,4.32-17.34,6.81-25.4.22-4.38,2.71-7.98,3.35-12.57.32-.19,1.29.36,1.28-.25.32.06.33.31.12.59.95-.44,1.07.28,1.4.71.74-.52.97.3,1.38-.4,1.39-.15,1.56,2.79,2.85,3.28-.57,3.09-.23,4.01-1.25,6.32-.21.17-.75-.1-.74.39,0,.37.42-.45.64,0-.21.29-.2.41.12.35,0,.12-.63.5-.1.52-.31.31-.64.13-1.28.25.65.37-.1.27-.41.58.12.6.43-.08.74-.15-.09.64-.42.46.02.74.01.62-.63.5-.62.99.64.12.63-.62.94-.81.22.08-.08,1.13-.73,1.01,0,.12.21.08.43.04-.09.64-.32.19-.74.4.01.62.34.68-.52.72.01.49.96-.31.65.49-.64-.12-.42.45-.84.54.22.45.31-.43.74-.4,0,.12-.1.15-.21.29,0,.12.11.1.21.08-.2.41-.84.42-1.05.71.23.57.53-.23.85-.17-.09.64-1.17.36-1.04,1.32-.64.25.1-.39-.33-.31-.42.21.12.72.02,1.11-.22-.33-.11-.35-.54-.14,0,.37.53.02.54.26.21-.17.31-.43.52-.6.53.02-.52.72.01.62-.31.43-1.06.21-1.38.52,0,.25.22.08.43.04-.1.51-.52.72-1.05.83.33.31.76.47,1.39.22,0,.37-.53.23-.63.5-.32.19-.22-.33-.43-.29-.1.14-.32.19-.31.43.11.23.43.04.64,0-.31.31-.4,1.32-.18,1.65.21-.17.2-.41.52-.48-.2.66-2.53,1.37-1.35,1.88-.1.27-.42.46-.74.52,0,.25.21.08.43.04-.1.39-.09.76-.42.45.11.23.11.35,0,.37,0,.37.64,0,.75.22-.22-.2-1.78,1.47-1.34,2.25-.51.97-1.17.11-1.36,1.14.22.45.86.08,1.07-.09.54.26-.42.45-.08,1.01-.32.06-.43-.04-.64-.12.23.7.02,1.11.14,1.71-.31.56-.22-.2-.75.02.13.97.23.94-.28,1.67.11.23.21-.17.53-.11.12.84-.85.29-.3.8-.1.15-.96-.06-1.06.58.11.35.63-.5.54.39-.11-.1-.22-.2-.43-.16,0,.25,0,.37.01.62.22.08.63-.37,1.06-.46-.31.56-.94.81-1.36,1.14.23.58.54.51-.31.68.11.23.43.04.64,0-.2.41-.52.72-1.06.58-.2.78.86.45.75-.03.43.16-.4,1.2.24,1.07-.21.29-.42.45-.74.52,0,.25.32.06.53.02-.52.85-.73,1.01-1.14,1.71.65.49.14,1.46-.6,1.85.43.29.33.31-.31.43.01.49.64,0,.65.37-.63.37,0,.25-.94.81.11.1.22.21,0,.37.11.1.32.06.53.02-.31.31-.31.68-.84.54,0,.37.33.31.54.26-.21.29-.74.27-.73.64.12.47.32-.19.53-.11.22.45-.31.43-.52.48.11.23.54.14.76.35,0,.25-.21.17-.21.04-.42.33-.62.74-1.15.97,0,.37.73-.52.33.31.63-.5.85-.17,1.48-.54-.51,1.22-1.18-.02-1.79.98-.11.02.65.61-.31.56.33.43.43.04,1.07-.09-.52.48-.63.37-.3,1.05-.54-.26-.42.21-.84.42.11.23.22.33.43.29-.31.43-.52.6-.3,1.17-.21.04-.43.08-.64.13.43.16.33.31-.31.43.22.45.32.06.64,0,0,.37-.31.43-.74.52.12.47.85-.05.66.99-.76-.47-.74.52-.73.76,0,.37.53-.35.85-.29-.21.29-.41.7-.84.66,0,.25.32.06.54.14,0,.12-.21.17-.42.21.13.84.12.6-.08,1.25.43.04.09-.64.74-.52-.11-.1-.32-.06-.53-.02.2-.54.51-.97,1.04-1.07,0,.37-.53.35-.41.95.52-.84.21.08.23.7-.53-.02-.74.52-1.06.21-.21.17-.31.43-.52.72.74-.39.32.06.23.58.74-.15.51-1.22,1.47-1.04-.52.72-.62.74-1.03,1.57-.32-.06-.74.15-.97-.18-.1.14-.1.39-.2.41.43.16.75.22.23.82.22.08,1.17-.11.64-.25.75-.02-.2.78-.72,1.26,0,.37.64-.13.96-.07-.61,1.24-1.14,1.47-1.87,2.48.11.23.32.06.54.14-.21.17-.2.66-.19,1.03-.41.58-.63.25-1.05.83.86.32.45,1.15,1.71.15.32.06-.2.66-.08,1.01-.43-.16-.64.25-.96-.06,0,.25-.31.31-.73.64.11.35,1.16-.6,1.49-.17-.31.68-1.16.73-1.79,1.1.23.57-.1.27-.19.91.74-.27.83-1.28,1.68-1.32-.84.54-.09.76.03,1.6-.11-.35-.44-.41-.86-.2.11.23,1.07.04.11.35,0,.12.43.04.64,0,.15,2.08-1.01,2.43-2.29,2.81.33.43,1.28-.13,1.59-.56.22.08.12.47.12.72-.43-.04-.53.23-.95.31.23.58.53-.23.85-.17.01.62-.4,1.44-.83,1.16,0,.37.32.18.54.14-.1.27-.2.54-.2.78-.64,0-.84.54-1.07.09-.42.21-.2.54-.09.89.42-.21.41-.83,1.16-.73.11.35-.21.29-.42.33-.2.66.54.14.33.68.53-.23.07-1.5.82-1.53-.75-.22.73-1.01-.13-1.21.31-.31.74-.52.72-1.26.43.04-.09.64.02.86,4.39-9.18,11.59-21.64,23.27-19.75.43-.08-.11-.23.2-.54.44.78.86.2,1.09.9.21-.17-.11-.23-.01-.62.33.43.97.43,1.51.69-.63.37-.41.95-.29,1.42.64,0,.41-.7.62-.99.33.43.22.33.76.35-.63.37.44.41-.31.56.23.7.74-.15.97.18.33.31-.11.02-.32.06-.09.64.44.41.45.78.73-.76,1.2,1.13,1,1.79,0,.12.55.51.43.16-.08,1.01.14,1.58.6,2.98-.43.08-.64.25-.63.5s.21-.04.43-.08c.01.62-.73.64-.72,1.26.93-1.3,1.84,1,1.11,1.76,0,.12.32.06.43.04-.41.58-.09.64-.51,1.22-.1.39.64-.25.44.41-.43.08-.54-.27-.64.25.01.49.53.02.75.1-.52.6.02,1.11.04,1.73-.42.33-.52.72-.29,1.17-.2.66-.55-.76-.42.45-.21.04-.32-.06-.33-.31-.31.43-.73.89-1.04,1.44.43.16.52-.48,1.27-.5-.1.39-.2.54-.3.8,4.72-3.91,10.53-6.8,16.34-9.57-1.86,2.85-5.56,4.7-7.98,6.29-2.1,1.66-4.83,3.81-6.93,5.47-.21.17-.31.31-.31.68-1.39.03-2.53,1.37-3.04,2.83.11.23.21-.04.64.12-1.15,1.1.06,2.59-1.31,3.73.01.49.21-.29.64-.13.01.49.02.74-.19.91-.11.02-.32-.06-.33-.43-.52.6-.83,1.03-.82,1.77,0,.25.43.16.43-.08.53.02-.2.54-.09.76-.32.06-.32-.06-.33-.31-.53.23-.19.91-.19,1.28.64,0,.41-.95.83-1.28.86.2-.3,1.17-.28,1.67-.54-.39-.52.48-.95.56,0,.37.43.16.34.68-.42.33-.4,1.07-.94,1.18.34,1.05.14,1.46-.7,2.12.43.16-.69,2.61-1.31,3.48.85-.42.13,1.09-.5,1.34-.08,1.13-.91,2.16-.88,3.52-.53.11-.63.37-.95.56.12.35.31-.31.54.14-.32.19-.31.56-.51.97-.75-.1-.73.64-1.48.67.11.1.32.18.43.16.43.16.73-1.01.85-.17-.64.25-1.48.79-1.67,1.57.12.6.32-.19.53-.11-.2.41-.51.85-1.15.97-.5,1.59-1.22,2.84-2.04,4.13.01.62.73-.89.64.12-1.06.21-.4,1.07-1.36,1.14-.32.06.34.68-.52.6,0,.37.22.33.23.7-.75-.1-.83,1.03-1.27.75-.58,2.59-3.21,4.36-3.81,6.46-.09.64-.53.11-.73.64.11.23.21-.04.43.29-.1.39-.41.7-.84.79-.19,1.03-.71,1.75-1.66,2.19.02.74.21-.04.43.29.01.49-.53.35-.73.64.12.59.32-.19.64-.13-1.67,1.57-4.07,4.16-5.89,4.02,0,.25.33.18.43.16-1.26,1.12-3.41.18-3.97-.82-.84.66-1.72-.4-2.14-.07-1.98-2.83-2.12-9.12-.2-13.84-.22-.08-.32-.06-.34-.8.44.41.53-.35.63-.74.65.49-.6,1.85.04,1.98,0,.25-.2.41-.42.45.12.35.02.86.34,1.05-.74.39-.39,1.81-1.02,2.31.44.53.04,1.85.59,2.49-.2.66-.32-.18-.23-.58-.61,1.24-.25,3.15.62,3.72-.11.02-.32.06-.43.08.13.97.57,1.62,1.01,2.28.31-.31-.45-1.03-.03-1.36.32-.19.22.2.43.29.42-.45-.23-.82-.13-1.21.54.39,1.08.78,1.63,1.16,1.36-1.26,3.92-1.52,4.73-3.42,1.89-1.37,3.95-4.87,5.19-6.98,1.23-2.23,2.34-5.3,3.45-8.37.81-2.14,1.29-4.59,1.98-6.84.4-1.07,1.03-1.82,1.32-2.87,1-3.17,1.57-6.51,2.46-9.41-.32.06-.31.31-.53.35.75.22-.31.31.01.49-.53.35-.74.52-1.46,1.41-.43-.04.21-.41.09-.64-.75.02-.19,1.28-1.15,1.1.02.74.21-.04.43.29-.83,1.03-1.58,1.06-2.08,2.4-.43.08-.74.52-1.06.21.11.1.12.35.33.31-.85.29-.63.62-1.04,1.32-.32.06-.43-.29-.96-.06.11.35.53.02.64.24-.73.89-1.58,1.18-2.08,2.52-.53-.02-.11-.35-.02-.74-.32.06-.53.23-.63.5,0,.37.11.35.33.31,0,.37-.53.23-.41.7-1.08-.65-1.25,1.36-1.99,1.88-.43-.04.52-.48.3-.93-1.56,1.8-3.34,3.51-5.13,4.74-.43.08.31-.31.2-.54-1.88,2.11-3.43,4.4-4.43,7.33,1.77-6.67,7.07-13.55,10.94-17.17-.64-.12.94-1.05,1.04-1.2.41-.95,1.68-1.45,2.72-2.53,1.25-1.24,2.72-2.77,3.55-3.68.1-.15.2-.41.2-.66.96.06,1.16-.73,1.15-1.22.21-.04.11.1,0,.12Zm-15.96,41.6c1.06-.33,1.79-1.1,2.42-1.72-.73.64-2.01.65-2.42,1.72Zm1.78-79.07c.12.6.41-.7.53-.1-.1.39-.63.37-.62.74.43.41.84-.42.72-1.14-.21.04-.75-.1-.63.5Zm2.17-8.24c.31-.31.2-.41.74-.39.2-.54.4-1.2.38-2.06-.96.19-1.04,1.07-1.57,1.43.33.43,1.05-.95,1.28,0-.31.31-.94.81-1.27.5-.2.54-.3.93.13,1.09-1.06.21-.91,2.16-.69,2.62.73-.77.38-1.94,1.34-2.37-.01-.49-.33-.55-.34-.8Zm.04,84.16c.53-.23.84-.66,1.15-1.1-.64.13-.84.66-1.15,1.1Zm1.55-89.43c-.32.19-.54-.51-.64.13.21-.04.32.06.43.16-.64.13-.93,1.43-.71,1.75-.12-.6.74-.27.73-.76-.43-.29.41-.7.19-1.28Z"/>
    <path class="cls-1" d="m556.84,85.43c-.32-.06-.32.19-.31.43-.15-1.95-.98-5.63-.19-8.52-.12-.35-.21.29-.43-.16.62-.74-.15-2.08.7-2.37.94-5.76,2.86-10.85,4.98-16.48.94-.81,1.54-2.66,1.31-3.48.21-.04.43-.08.64-.13,4.03-6.25,11.48-12.2,17.74-13.81.11-.02.1-.27.1-.39,1.8-.85,3.42-.06,4.82.53-.1.14-.21.29-.31.43.32.18.76.35,1.18.38.42-.21-.33-.31-.44-.41.84-.54,1.84.87,1.85,1.62.74-.39-.46-1.52-.15-1.83,1.29.49.58,1.99,1.45,2.56-.1.52-.62.74.12.72-.49,2.2-.78,3.25-1.37,5.85-.32.06-.32-.18-.64-.12.01.49.12.72.34.8-.31.43-.74.52-.94.93.96-.19.12.72-.84.66.11.1.65.49.01.62-.1.27.11.23.22.2-1.56,1.67-2.17,3.16-4.17,4.42.12.6.63-.62.54.26-.85.29-1.15,1.22-1.04,1.32-1.89,1.49-3.34,3.39-5.45,4.55-.71,1.63-3.77,3.35-5.25,4.26-1.57,1.43-3.1,4.71-5.52,6.3.01.49-.15,2.76-1.01,2.68-.1.39.02.74.44.53.01.49-.52.48-.84.54.54.39.12.35.24,1.07-.21.16-.1.14-.52.48.01.62.43-.08.43.29,0,.25,0,.37.01.62-.43-.04-.53.35-.95.44.22.2.23.82.87.57-.21.17-.2.41-.19.91-.75.02.01.62-.63.5-.19.91.12.47.35,1.17-1.26.87.69,2.09.39,3.02.64.12,1.28.12,1.72.4.01.62-.63.5-.95.68-.19,1.03.88,1.07,1.11,2.01.95-.31,2.35.03,3.83-.51,3.82-1.25,7.03-5.49,10.06-8.57,4.39-4.22,7.96-7.28,11.7-11.99,4.15-5.41,7.69-9.83,11.75-14.61-1.87,2.48-3.16,6.95-5.78,9.33-.1.51.43.16.34.8-2.88,5.16-6.95,9.44-9.52,13.91-1.06.46-1.46,1.53-2.4,2.34,0,.25.01.49.22.45-.95.31-.29,1.17-1.36,1.14-.1.51.33.31.44.41-.53.35-1.16.6-1.47,1.28-.1.27.11.23.32.18-.31.43-.94.93-1.27.62-.43.08-.08,1.01-.4,1.32-1.39.03-1.03,1.57-2.21,1.68.12.47.66.61.86.08-.69,2.49-3.86,4.11-6.4,5.36-.64.13,0-.25-.33-.55-.53.11-.41.7-.95.56,0,.25.22.08.32.18-2.2,1.8-5.22.66-7.02,1.15-2.04-.71-5.69-1.47-6.17-3.85-2.26-1.04-2.74-3.05-4.28-5.1.11-.02.64-.25.31-.68Zm4.7-.07c.21-.04.64-.25.64,0-.1.27-.31.43-.41.7.01.62.99,1.17,1.18.38-.64.13-.02-.74.19-.91-.32.06-.53-.02-.65-.24.64,0,.1-.39-.01-.49.41-.58.05-2.49-.28-3.17-.43-.04-.09.64-.74.52-.2.78.74-.15.55.64-.21.04-.43-.04-.54-.14-.1.39-.31.56-.3,1.17.43-.08.64,0,.86.2-.1.27-.2.78-.5,1.34Zm2.76,4.04c.34,1.05-.86-.08-.84.91.74-.4,1.5.32,1.59-.69-.63.37-.33-.43-.75-.22Zm1.1-32.2v.49c.44.29.54-.23.87.08.2-.78-.65-.24-.87-.57Zm.94,8.49c.02.86,1.4.47,1.17-.36-.53-.02-.63.37-1.17.36Zm19.44-19.48c.3-1.05.59-2.47-.6-2.86-.53.35-1.15,1.1-1.69.83-.31.43,0,.25.02.74-2.11,1.29-3.56,3.31-4.9,5.19-.53.35-.43-.16-.85.05.33.55-.53.23-.41.58.86.2-.41.58.02.86-.74.27-.94.93-1.46,1.41.11-.02.32-.06.32.06-.63.62-1.05.95-1.36,1.38.11-.02.32-.06.32.06-.52.85-.63.74-1.37.89-.2.66.64-.13.44.53-.42.33-.65-.37-.74.15.11.1.32.18.43.29-.43-.16-1.06.46-.75-.22-.42.21-.52.6-.73.89.31-.19,1.06-.58,1.17.02-.31.56-.61,1.24-1.78,1.59.64.12-.52.72.34.92-.42.45-1.38.4-1.47,1.04.43-.08.74-.52,1.17-.23-.85.29.03,1.6-1.67,1.7.33.55.22.45.55.88-.64.13-.62.87-1.27.62.11.35-.31.31-.31.68.32.06.73-.64.96-.19-.53.23-.08,1.01-.29,1.17-.86-.45-1.05.71-1.8.48.02.74,1.17.01,1.4.46-.1.27.01.49-.2.54-.43.08-1.18-.26-1.38.52.32.06.95-.44.96-.07-.43.08-1.07.09-1.06.58.54.14.53-.23,1.06-.33-.2.41-.41.95-.72,1.38-.22-.2-.32-.06-.74.15-.31.68.43.04.44.41-.21.29-.09.88-.41.95-.12-.6-.96-.06-.95.44.95-.44.86.32,1.49-.17.4-1.07,1.14-1.84,1.97-2.5-.11.02-.22-.08,0-.25,1.58-.93,3.13-3.35,4.92-4.69v-.62c.31.18.3-.31.63,0,1.43-3.01,5.23-4.88,5.8-8.09.76.35.41-.58.62-.87.82-1.65,3.2-4.85,3.9-7.34Zm-16.45,14.55c.43.04.86.45.84-.54-.43.08-.85.05-.84.54Z"/>
    <path class="cls-1" d="m582.83,107.17c-.55-.76-2.24.2-2.48-1.24.84-.54.4-1.32,1.02-2.19.54.26-.09.76-.08,1.13.95-.56.02-3.85.52-5.31.73-.89.91-2.29,1.52-3.53-.23-.58-.51,1.09-.64.13.83-1.16,1.87-2.23,2.7-3.51-.21.17-.03-1.36.28-1.79.1-.14.22.2.22.2.63-.37,2.3-2.44,2.17-3.41.42-.21.41-.83.62-1.11.43-.08-.1.27.01.49.22.21.84-.66.3-1.17.65.24.74-.27,1.38-.4,0-.25-.43-.04-.43-.29.31-.43.3-.81.82-1.4.12.35-.2.54-.3.8.63-.37.51-1.22,1.36-1.39-.21-.08-.32-.18-.54-.26,0-.25.54.14.31-.56.32-.19.43.04.43.29.42-.21.41-.58.83-.91-.22-.45-.42.45-.85.29.62-.99,1.76-2.33,1.76-2.46,1.79-1.1,3.23-3.62,4.79-5.41,3.25-2.63,5.75-5.61,9.33-8.05-1.28-4.58-4.26-9.19-7.8-9.85.21-.41,0-.12-.22-.45-.63.74-1.46,1.41-2.32,1.21.2-.66.5-1.34,1.14-1.71-4.45-3.08-4.04-13.82-1.58-18.28.77-3.75,2.29-7.64,4.7-9.49,0-.25-.22-.08-.32-.18,1.07.04,2.96-1.58,3.61-.84.32-.06.31-.43.52-.6,1.28-.13,2.15.57,3,.27.32.06.32.18.44.41,3.09-.24,8.7,1.99,6.54,6.01.24,1.07-.25,3.02-1.2,3.59,0,.12.22.08.33.18-.19.91-.95.44-.71,1.63-.11.02-.32.06-.43.08,0,.25.12.47.12.72-2.8,3.9-5.6,7.56-8.83,11.05-.32.06-.31.31-.2.66-.42.33-1.16.48-1.04,1.32-.32.06-.74.15-.85.29.33.43.95-.31.33.31,2.27,1.29,4.65,2.43,6.71,4-.1.14-.2.41.01.62.62-.74.45.9,1.3.61.01.62.13,1.21,1.2,1.37-.2.54.78,1.58,1.12,2.38,4.94-3.58,13.75-10.79,17.97-13.49.75.22-.93,1.55-.6,1.85.11.23-.1.15-.32-.06-.7,2.24-5.36,3.91-5.85,5.99-2.21,1.55-7.55,6.33-9.75,8.26.44.66.67,1.48.15,2.2.11.23.43.04.64,0,.12.47-.09.64-.3.93.22.2.43.29.75.22-.09.64-.64,0-.84.66.33.55.42-.21.85-.17.12.72-.1.14-.42.33.01.49.43.29.76.59-.08,1.01.24,1.19.37,2.16-.32-.06-.74.4-.31.43-.43.08-.31.43-.95.68.33.68.87.69,1.19.75-.85.29.14,1.58-1.02,2.06,1.28.12.22.33-.41.7.12.35.87.45,1.07-.09.44.41-.63.74-.94.93.12.6.23.57-.08,1.01.43.04,1.05-.71,1.27-.5-.09.64-1.27.5-1.48.91.22.45.42-.33.96-.19,0,.25,0,.37.12.35.23.7-.63.5-.29,1.3-1.07.09-.84.42-.83,1.28-.32.19-.33-.43-.75-.22.65.37-.2.66.45,1.02-.09.51-.1.14-.53.23.12.35.44.66.87.57.21-.17-.01-.62.2-.78.43.04-.2.54.13.84-.74.39-1.5-.2-1.48.67-1.18-.38-1.68,1.2-2.97.71-.3.93.23.95.15,1.95.63-.37.31-.56.65.24.53.02-.12-.84.52-.85-.11-.1-.55-.51-.53-.02-.65-.49.74-.52.62-.99.22.45-.3.93-.07,1.62.42-.45.4-1.07.5-1.58.53-.11.85-.42,1.05-.71.43.29-.41.7-.62.99.97.18-.42.46-.51.97.32.06,1.06-.46,1.59-.32-.2.41-.95.31-.95.68,0,.37.22.45.54.26-2.33.96-2.7,3.51-4.16,5.17.03,1.48,1.59-.69,2.14.07-.74.15-1.59.69-1.57,1.55-1.09-.78-1.26.87-2.01.77,0,.25.12.35.33.31-.51,1.09-2.84,2.05-3.01,3.94.64-.13.62-.87.93-1.3.54.39-.41.95-.61,1.36-.75-.1-1.7.46-2.23.81,0,.25.74-.27,1.06-.33-.2.41-.74.52-.5,1.34.11-.02.1-.27.1-.39.14,1.46-2.2,2.17-2.7,3.51.86.08,1.06-.46,2.02-.53-.42.45-1.05.83-1.36,1.14-.22-.33-.53-.02-.65-.37-.09.76-1.04,1.32-1.55,2.29.53.02-.18,1.4-.39,1.69-1.25,1.36-3.51.57-4.99,1.12,0-.12.1-.14.1-.39-.43.08-.52.6-1.06.58.84-.79-.22-.33-1.07-.16-.09.64.23.57.55.63-.63.37-2.21,1.55-2.56.14-1.28,0-1.49.42-2.67.03-.01-.49-.44-.66-.87-.94-.32.06.01.62-.31.56-.1.27.44.53.43.16.21-.04.12.47.44.41-.74.15-1.49.05-2.24.07-.1.27.12.35.22.33-.21.29-1.63-1.04-2.59-1.1.1-.15.32-.19.2-.54,0-.25-.96-.06-.85.17-.54-.14.31-.56.3-.8Zm8.92-16.89c.21.08,0,.25.12.6-.65-.37-.21.17-.31.31-.81,1.9-2.8,3.9-3.29,5.98.22.2-.42.45.13.97-.94,1.05-1.34,2-1.41,4,0,.25.32.06.43.29-.31.56-.6,1.61.25,1.56.21-.17-.01-.49.2-.66,2.33,4,5.63-1.24,8.07-2.35.2-.54.82-1.65,1.25-1.61,0-.25-.12-.6-.13-.84,1.16-.6,1.57-1.67,2.4-2.46-.44-.66.19-1.03.4-1.44.12.6.21-.17.64,0-.76-.72,1.67-1.94,1.11-3.07,3.5-6.02,4.93-13.75,6.04-21.4-1.26,1.12-2.61,2.87-3.76,3.6-.71,1.75-3.24,3.37-4.47,5.35.11-.02.32-.06.32.06-.32.06-.32-.18-.64,0-.72,1.38-3.22,3.86-2.46,4.7-.31.56-.6,1.98-1.25,1.36.73-.64.93-1.42.7-2.12-.61,1.24-1.77,2.09-1.95,3.73.32-.06.31-.31.42-.46.11.23.33.31.33.43-.76-.35-.7,2-1.46,1.78.31-.68.73-.89.71-1.75-.64.13-.42.46-.52.6-.52.48-1.24,2.1-1.86,2.85Zm-.74,14.77c.74-.15,2.02-.4,2.11-1.16-.85.29-1.8.48-2.11,1.16Zm4.51-3.75c.12.35-.31.31-.2.78,1.81-.11,1.87-2.6,3.16-2.11-.45-1.15,1.69-.95.91-2.29-.31.43-.51,1.22-1.15,1.1.34.8-2.42,1.84-1.87,2.48-.32.19-.43-.16-.85.05Zm3.1,5.09c-.74.4-.63.62-1.69.71.11.1.11.35.12.47.85-.17.85-.42,1.49-.3-.22-.45.2-.54.09-.89Zm7.08-71.07c-.96-.06-.72,1.14-1.48.79-.09.64.53.02.54.39-1.45,1.9-1.3,4.1-2.22,6.02.32-.19.12.6.23.82-.53.35-1.06.58-1.47,1.04.43.04.84-.54.85-.17,0,.12,0,.25.12.47-.43-.04-.53.23-.63.5.01.49.23.57.34.92-.09.76-.42.46-.62.99.21.08.32.18.43.29-.85.17.13.84-.4,1.19.65.37,1.47-.91,1.99-1.63,2.07-2.77,4.25-5.93,5.35-9.12.95-.56.81-2.02.89-3.15-.55-.88-.89-1.44-.91-2.67q-.64.13-.54-.39c-.32.19-1.06.21-1.16.73,0-.37-.22-.45-.55-.63.23.57-.42.33-.08,1.01.64,0-.44-.41.31-.43-.08,1.01-1.16.85-.71,1.88-.53.11-.62.74-.29,1.17Zm2.65,56.87c.11-.02.32-.06.32.06-.21.04-.1.14-.21.29-.22-.21-.32-.18-.43-.29.12.35-.31.31-.2.78,1.39.1.94-.81,1.57-1.43-.52.48-1.07-.04-1.06.58Zm2.57-4.48c-.22-.2-.64.13-.74.52.75.22.04,1.6-.49,1.96.43-.08.63-.25.84-.42-.11-.23-.12-.35.1-.39.31-.31-.25-1.44.28-1.67Zm1.79-10.64c.55.76-.2.66-.4,1.19.32-.06.53-.11.85-.17.1-.51.19-1.15-.45-1.02Zm.91,2.3c-.64.25-1.79,1.1-.93,1.43-.23-.95,1.05-.58.93-1.43Z"/>
    <path class="cls-1" d="m624.46,21.8c-.4,1.07-1.91.63-3.19.88.41-.7-.44-.41-.45-1.03-.21.17-.53.23-.41.82-.66-.74-1.11-1.89-1.78-3.12.21-.04,1.06-.33.63-.62,2.35.03,6.63.17,10.23-1.16-.21.29-.09.64.33.55,1.15-1.34,5-.87,6.16-1.47.69-2.37,2.35-4.68,2.3-7.15.66.86.51-1.09,1.58-.93.12.35.13.97.45,1.15.32-.19.61-1.24.4-1.32.42-.33.96-.07,1.38-.52.46,1.4,3.2-.26,3.55,1.4.32-.06.31-.31.63-.37-.19,1.15-.24,3.52-.11,4.73,3.4-1.05,5.93-2.17,9.97-3.22-.3.68-1.81.11-1.57,1.3-.53-.02-.85.29-1.16.48.77.84-1.25,1.24-1.99,1.88,2.12-.79,3.7-1.73,5.6-2.97-.33-.43-1.06.33-1.49.42,2-1.51,2.85-1.43,4.98-1.86,0-.37-.53-.02-.75.02.41-.7,1.04-1.2,2.11-1.41-.41.58-.74.4-1.16.6.54.26,1.7-.46,2.23-.81,0-.25-.43-.04-.64,0,.85-.42,2.11-1.04,3.39-1.42-.19.91-.71,1.51-1.35,1.88.03,1.48-1.35,1.75-1.97,2.74,0,.37.53-.11.75-.02-1.46,1.41-3.58,2.45-5.39,2.68.11.23.33.18.33.43-2.55.63-3.81,1.5-6.57,2.54.93-1.42-3.09.12-2.87.57-.53-.02-1.16.73-1.7.21-.1.51-2.33.71-.85.29,1.37-1.01,3.71-1.36,4.76-2.18,0-.25-.1.14-.43.08.1-.39.63-.5,1.05-.7-2.46-.13-4.12,1.93-6.56,3.04.75-.02-.3.8-.21.04-.3,1.05-.61,1.61-1.24,1.86.11.23.43.04.64.12-.21.17-.42.33-.3.93-.32.06-.64.13-.96.19.97.18-.41.7.35,1.54-.32.19-.63.37-.73.89.75-.02-.62.87-.71,1.5-.54-.26-.85.29-1.39.15.12.47,1.07-.09,1.39.22-.52.48-.62.74-.4,1.44-1.16.73-.84.54-2,1.27,0,.25.11.1.11-.02.32-.06.34.92-.09.76.12.35.85-.05.96-.19.1-.51-.22-.45-.23-.82.54.14.64-.13,1.28-.25-.21.29-.42.46-.84.54.12.47.35,1.17.04,1.97-.22-.2-.33-.43-.24-.94-1.7.22-1.46,1.65-2.73,1.91.34.68,1.47-1.16,1.07-.09.53.02.2-.78.73-.64,0,.12-.21.17-.32.19.11.23.43.04.64.12-.09.64-.43-.04-.74.4.33.31,1.07.28,1.17.01.43.29-.74.52-.41.95-.64.13-.11-.1-.22-.45-.21.41-.52.85-1.15,1.1.22.45.75.1,1.06-.21.23.82-2.43,5.81-3.18,6.08,0-.37.42-.45.41-.82-.64-.12-.2.78-.73.89.33.43.43.04,1.07-.09-.1.27-.31.31-.31.68-1.19-.51-1.69.71-1.79,1.22.01.49.31-.31.64-.13-.1.27-.2.54-.3.8,0,.25.43-.08.43.29.21-.29.2-.41.31-.68.1-.27-.11-.23-.33-.31.1-.39.41-.7.62-.99.43.16.33.55,1.08.53,0,.37-.42.46-.74.52.65.37-.41.83.34.92-.2.54-.43-.16-.63.37.22.2.76.35,1.07-.09-.75-.35.42-.45.41-.58.34.8-.6,1.98-1.01,2.68.1-.39-.01-.62-.34-.68.2-.54.32-.19.64-.25-.11-.1-.12-.47-.33-.43-.64.13-.2.41-.41.7-.52.48-.53-.02-.97-.18-.09.64.34.68.03,1.11.42-.33.73-.64,1.27-.38-.1.27-.73.64-.32.06-.31.43-1.37.65-1.04,1.45-.32-.18-.54-.26-.97-.18-.52.48-.19.91-.5,1.71-.53-.02-.54-.39-.96.19.33.43.96-.31.97.3-.64.25-.75-.22-1.06.21.44.78,1.38-.4,2.12-.55-.01-.62-.52.48-.54-.14.3-.8.41-.7.82-1.4.22.45.01.49.75.22-.31.31-.3.8-.73,1.01.02.99.43.29-.18,1.52-.22-.2,0-.37-.01-.62,0-.12-.32-.06-.43-.04-.42.58-.09.88-.5,1.34-.23-.58-.43-.29-1.07-.28-.31.43.43.29.02.99-.54-.14-.2.53-.74.52,0,.25.22.2.22.45.63-.62.42-.21,1.06-.58.33.55-.52.6-.94.93.22.2.12.72.44.66.53-.23.73-.64,1.27-.5-.52.48-1.27.62-1.69,1.08.12.72,1.17-.36.44.53,0,.25.53-.23.53-.35.54.26-.42.46-.52.6.11.35.32.06.53-.11-.1.51-2.12.55-2.64,1.27.33.43,1.07-.09,1.27-.38.45.9-1.27.38-1.68,1.33.33.55.64-.25.96-.31-.3.8.55.63.45,1.27.21-.17.42-.33.74-.27-.94.81-1.45,1.9-2.83,2.3-.1.39.44.53-.2.53.12.35.53.02.54.26.32-.06.31-.43.3-.93.11-.02.11.1.11.23.11-.02.1-.15.21-.29.11.1.12.47.12.72.21-.17.64-.25.74-.52.32.06-.2.53.43.28-.42.46-1.16.6-1.9,1.24.44.41.12.47-.3.8.22.2,1.17-.36,1.04-1.08.54.26-.2.78-.3,1.05.64.12.42-.58,1.06-.58-.31.56-.51,1.22-1.14,1.34.33.68.31-.31,1.06-.21-.1.39-.84.66-.2.78-.1.27-.21.04-.43.08-.2.66.43.16.34.8-.62.99-1.46,1.65-2.73,2.15.22.45.63-.37,1.06-.21-.74.15-1.24,1.73-1.79,1.1-.21.04.11.23-.21.29.54.39.97.18,1.27-.38.13.84-1.05.95-1.67,1.57.01.49.64.12.66.61,1.16-.73,1.55-2.29,2.38-3.57-.39,1.69.16,2.32-1.31,3.48.12.47.53-.35.75.1-.74.27-.52.72-1.04,1.07.86.45-.3,1.05.45,1.27-.75.02-.95.44-1.59.56.86.08-.09.64-.84.66.11.1.22.21.22.45.1-.39.95-.68,1.17-.36.42-.33-.22-.45.2-.78.33.18.21-.04.53-.11-.2.41-.31.56.23.7-.2.41-.96.19-1.38.4.23.57.53.02.97.18-.1.27-.42.33-.31.56-.44-.66-.53.35-1.28.25-.1.39.75.22.64-.13.64.24-.84.79-.08,1.01-.42.46-.64,0-1.06.33.54.39.75.35,1.49-.17.01.49-.09.64-.41.7,0,.12.11.23.12.47.43.04.31-.43.41-.58.44.53-.4,1.44-.49,2.08-.32.06-.64.13-.96.19,0,.12.43.04.64,0-.21.29-.53.35-.74.52-.1.27.75.1.74-.15.43.04-.2.78-.31.43-.2.66.44.41.35,1.17-.53.11-1.16.48-1.59.44.01.49-.2.66.23.7.09-.64.32.06,1.16-.48-.41.83-.21.29.02,1.11-.21.17-.31.56-.52.6.12.6.32.06.54.26.12.47-.42.33-.41.7,0,.12.32.06.43.04-.1.39.13.84-.4,1.19.43.16.11.35.44.53.23.82-.63.62-.39,1.57.31-.56.32-.19.95-.56.43.04-.31.31-.2.54,1.27-.75,2.16-3.53,3.31-5.12,3.07-.98,3.2-4.73,5.51-6.55,0-.25-.01-.49-.02-.74.85-.05.72-1.14,1.58-1.18-.15-1.95,1.63-3.3,2.57-4.48-.64-.12.1-.51-.23-.58.42-.46.85-.05,1.27-.62-.23-.57.2-.78-.44-.41.93-1.3,2.82-2.91,2.79-4.15.62-.87,1.37-.77,1.78-1.84.33.68-.93,1.3-1.02,2.06.53-.23,1.46-1.65,1.75-2.7,0-.37-.53-.02-.44-.66.76.72,1.04-1.08,1.79-1.22-.54-.26-1.49.42-1.69.96-.22-.45.39-1.57.92-1.79-.12-.47-.44-.41-.43.08-.32-.06-.02-.86.41-.83.13,1.09,1.25-1.49,1.12-2.33.21-.04,0,.25.01.49.63-.5.83-1.28,1.24-1.86-.11-.22-.33-.31-.65-.24.31-.31.41-.95,1.04-1.07.07-1.63,1.64-2.93,2.35-4.56.23.82-.92,1.79-1.33,2.62,1.06-.21-.61,1.36-.7,2.25.53-.23.52-.85.72-1.26.04,1.73-1.65,2.81-1.6,4.78-.11.02-.32.06-.43.08.23.7-.3.8-.29,1.3.31-.43.62-.87.93-1.42.53.02-.62.74.12.47-.81,2.02-2.06,3.51-2.65,5.73.63-.62,1.04-1.45,1.34-2.25.14,1.58-1.87,2.6-2.04,4.37-.84.79-1.04,1.44-1.76,2.58.53-.23.84-.91,1.25-1.49-.07,1.5-1.65,2.44-2.26,3.92-.1.14.22.33.12.6-.09.64-.63.5-1.04,1.2-.31.43-.4,1.44-.8,2.27-.62,1.11-1.56,2.04-1.97,2.87-.1.15.12.47.02.74,0,0-.43.08-.42.21-.09.51.23.7-.18,1.28-.2.41-1.36,1.14-1.77,2.09-.1.27.12.72.02.99-.62,1.11-2.09,2.15-2.7,3.51.64,0,.3-.8.84-.66.11.22-.52.6.01.62-.31.43-1.17.36-1.37.89,0,.25.96.06.85-.17-.09.76-1.67,1.69-1.75,3.2-.95.44-1.15.97-2.11,1.04.47,2.01-1.79.98-2.4,2.46-1.48.79-3.1,0-5.23-.07-1.43-1.82-3.94-4.18-3.35-6.77-1.01-2.4-.33-5.39-.18-8.14.6-6.69,2.18-12.33,3.86-18.62,2.86-10.61,7.32-26.37,10.52-36.05-.11-.23-.22-.33-.44-.41-.21.04-.1.27-.2.41-1.61-.3-2.97.72-4.38,0-.64.25-.83,1.03-1.37.77,0-.25.21-.17.42-.33-.33-.43-1.38.52-1.91.75.2-.66-.74.15-.55-.51-.42.33-1.38.4-1.48.54-.32.06.21-.29-.22-.45Zm-1.17,67.91c.32-.19.64-.13.75-.02.2-.54-.87-.7-.75.02Zm3.19-14.89c.22.2.54.14.64-.25-.53.23-.54-.14-.96-.06.01.49-.31.68.23.7,0-.12,0-.37.1-.39Zm2.21-6.27c-.32.19-.63.5-.95.68.22.2.54.14.96.06,0-.25-.01-.49-.02-.74Zm1.18-4.57c.2-.54,1.16-.48,1.15-1.22-.43.08-.52.48-.64-.12.21-.04.53.02.64-.25-.43-.04-.44-.78-.87-.94,0,.25-.1.39-.31.43.55.88-.61,1.24-.7,2.12.64.12.31-.56.74-.52,0,.25-.2.41.01.49Zm2.49,20.7c.32.18.96-.31.94-.93-.42.33-.95.31-.94.93Zm3.65-4.07c-.46-1.52,1.24-2.1.79-3.01-.73.76-.92,1.92-1.97,2.5.12.84-.51,1.09.04,1.6.53-.23.4-1.07,1.15-1.1Zm1.89-49.71c.53-.23.51-.85,1.15-.97-.12-.47.51-.97-.02-1.11,0,.25-.2.41-.42.46,0-.12,0-.37-.22-.33-.09.64.43.29.55.64-.42.21-1.48.91-1.04,1.32Zm1.1-3.44v.37c.01.12.02.37.23.33-.01-.62,1.48-.54,1.15-1.22-.31.31-1.05.71-1.38.52Zm7.57-10.43c-.11.02-.32.06-.32-.06.21-.04.43-.08.53-.35-.32.19-1.07.09-1.06.46.11-.02.11.1.12.35.21-.17.75-.02.74-.39Zm3.75-4.09c.43-.08,1.16-.6.95-.68-.21.29-.86-.08-.95.68Zm1.26-.75c.23.7,1.38-.52,1.8-.73-.85.05-1.15.97-1.8.73Zm.93,3.53c.65.24,1.6-.32,1.8-.97-.75-.1-1.27.38-1.8.97Z"/>
  </g>
</svg>