<?xml version="1.0" encoding="UTF-8"?>
<svg id="_レイヤー_1" data-name="レイヤー 1" xmlns="http://www.w3.org/2000/svg" viewBox="0 0 564 106">
  <defs>
    <style>
      .cls-1 {
        fill: #fff;
      }
    </style>
  </defs>
  <path class="cls-1" d="m46.32,28.042v8.454l-34.542,12.916-2.505.937,2.505.937,34.542,12.916v8.454L1.296,55.172v-9.648l45.024-17.482m1-1.461L.296,44.84v11.017l47.024,18.259v-10.608l-35.192-13.159,35.192-13.159v-10.608h0Z"/>
  <path class="cls-1" d="m91.402,1.161l-32.961,94.089h-9.305L82.096,1.161h9.306m1.41-1h-11.425l-33.662,96.089h11.424L92.812.161h0Z"/>
  <path class="cls-1" d="m126.737,14.626c10.975,0,20.473,3.852,26.864,10.87l-7.141,6.715c-5.222-5.281-11.646-7.957-19.111-7.957-15.356,0-26.502,10.974-26.502,26.093s11.146,26.093,26.502,26.093c7.493,0,13.918-2.707,19.113-8.048l7.143,6.803c-6.394,7.02-15.93,10.874-26.971,10.874-21.526,0-37.149-15.023-37.149-35.722s15.667-35.722,37.252-35.722m0-1c-21.932,0-38.252,15.402-38.252,36.722s16.32,36.722,38.149,36.722c11.731,0,21.728-4.182,28.357-11.935l-8.568-8.16c-5.202,5.712-11.628,8.466-19.074,8.466-14.791,0-25.502-10.405-25.502-25.093s10.711-25.093,25.502-25.093c7.446,0,13.872,2.754,19.074,8.364l8.568-8.058c-6.63-7.752-16.626-11.935-28.255-11.935h0Z"/>
  <path class="cls-1" d="m187.804,31.967c16.528,0,28.071,11.04,28.071,26.847,0,7.614-2.798,14.494-7.879,19.374-5.087,4.885-12.258,7.576-20.193,7.576-16.207,0-27.97-11.334-27.97-26.949s11.763-26.847,27.97-26.847m0,44.882c10.138,0,17.219-7.416,17.219-18.035s-7.081-18.035-17.219-18.035c-10.078,0-17.117,7.416-17.117,18.035s7.039,18.035,17.117,18.035m0-45.882c-16.729,0-28.97,11.526-28.97,27.847s12.241,27.949,28.97,27.949c16.933,0,29.071-11.628,29.071-27.949s-12.139-27.847-29.071-27.847h0Zm0,44.882c-9.181,0-16.117-6.63-16.117-17.035s6.937-17.035,16.117-17.035c9.282,0,16.219,6.63,16.219,17.035s-6.937,17.035-16.219,17.035h0Z"/>
  <path class="cls-1" d="m257.49,31.967c13.821,0,21.748,8.335,21.748,22.869v30.213h-10.751v-28.582c0-9.92-4.956-15.383-13.955-15.383-10.143,0-16.198,6.513-16.198,17.423v26.541h-10.751v-52.471h10.139v8.792l1.767-2.112c3.935-4.702,10.328-7.292,18.002-7.292m0-1c-7.956,0-14.586,2.652-18.769,7.65v-7.039h-12.139v54.471h12.751v-27.541c0-10.915,6.12-16.423,15.198-16.423,8.161,0,12.955,4.692,12.955,14.383v29.582h12.751v-31.213c0-16.423-9.691-23.869-22.748-23.869h0Z"/>
  <path class="cls-1" d="m318.761,31.967c10.095,0,17.839,3.993,21.922,11.27l-8.144,4.751c-3.285-4.721-8.064-7.208-13.879-7.208-10.319,0-17.525,7.416-17.525,18.035s7.207,18.035,17.525,18.035c5.815,0,10.594-2.488,13.879-7.208l8.14,4.749c-4.12,7.243-12.05,11.374-21.917,11.374-16.768,0-28.479-11.082-28.479-26.949s11.711-26.847,28.479-26.847m0-1c-17.238,0-29.479,11.526-29.479,27.847s12.241,27.949,29.479,27.949c10.608,0,19.075-4.59,23.257-12.75l-9.792-5.712c-3.265,5.203-8.16,7.548-13.566,7.548-9.385,0-16.525-6.426-16.525-17.035,0-10.506,7.141-17.035,16.525-17.035,5.406,0,10.302,2.346,13.566,7.548l9.792-5.712c-4.182-8.262-12.648-12.648-23.257-12.648h0Z"/>
  <path class="cls-1" d="m374.004,31.967c7.516,0,14.274,2.626,19.03,7.395,4.914,4.927,7.512,11.759,7.512,19.759,0,.796-.065,1.887-.129,2.774h-43.026l.229,1.189c1.645,8.554,8.783,13.868,18.628,13.868,5.961,0,10.792-1.788,14.732-5.46l5.565,6.396c-4.705,5.157-11.807,7.877-20.603,7.877-17.401,0-29.092-10.83-29.092-26.949,0-15.556,11.42-26.847,27.153-26.847m-16.671,23.461h33.212l-.147-1.129c-1.098-8.453-7.687-14.132-16.395-14.132s-15.174,5.538-16.493,14.109l-.177,1.152m16.671-24.461c-16.219,0-28.153,11.628-28.153,27.847s11.833,27.949,30.092,27.949c9.385,0,17.035-3.06,21.931-8.875l-6.834-7.854c-3.876,3.978-8.671,5.916-14.791,5.916-9.486,0-16.116-5.1-17.646-13.057h42.74c.102-1.224.204-2.754.204-3.774,0-17.035-11.629-28.153-27.542-28.153h0Zm-15.505,23.461c1.225-7.957,7.243-13.261,15.505-13.261,8.364,0,14.383,5.406,15.403,13.261h-30.908Z"/>
  <path class="cls-1" d="m441.447,31.967c15.687,0,26.644,11.04,26.644,26.847,0,7.938-2.613,14.72-7.558,19.614-4.78,4.73-11.558,7.336-19.086,7.336-6.899,0-12.67-2.422-16.691-7.004l-1.752-1.996v28.075h-10.751V32.579h10.139v8.927l1.772-2.152c3.98-4.833,9.956-7.388,17.283-7.388m-1.428,44.882c10.078,0,17.117-7.416,17.117-18.035s-7.039-18.035-17.117-18.035c-10.138,0-17.219,7.416-17.219,18.035s7.081,18.035,17.219,18.035m1.428-45.882c-7.446,0-13.771,2.55-18.055,7.752v-7.14h-12.139v74.26h12.751v-26.419c4.386,4.998,10.506,7.344,17.442,7.344,15.913,0,27.644-11.017,27.644-27.949,0-16.831-11.73-27.847-27.644-27.847h0Zm-1.428,44.882c-9.181,0-16.219-6.63-16.219-17.035s7.038-17.035,16.219-17.035,16.117,6.63,16.117,17.035-6.937,17.035-16.117,17.035h0Z"/>
  <path class="cls-1" d="m492.345,20.542v12.445h14.586v8.2h-14.586v26.91c0,5.821,3.116,9.16,8.548,9.16,2.524,0,4.803-.587,6.67-1.707l2.831,7.199c-2.741,1.923-6.711,3.015-11.032,3.015-11.624,0-17.769-6.003-17.769-17.361v-27.215h-8.977v-8.2h8.977v-12.445h10.751m1-1h-12.751v12.445h-8.977v10.2h8.977v26.215c0,12.037,6.834,18.361,18.769,18.361,4.591,0,9.181-1.224,12.241-3.672l-3.57-9.079c-1.938,1.53-4.488,2.244-7.141,2.244-4.896,0-7.548-2.856-7.548-8.16v-25.91h14.586v-10.2h-14.586v-12.445h0Z"/>
  <path class="cls-1" d="m517.68,28.042l45.024,17.482v9.648l-45.024,17.482v-8.454l34.543-12.916,2.505-.937-2.505-.937-34.543-12.916v-8.454m-1-1.461v10.608l35.192,13.159-35.192,13.159v10.608l47.024-18.259v-11.017l-47.024-18.259h0Z"/>
</svg>