<?xml version="1.0" encoding="UTF-8"?>
<svg id="_レイヤー_1" data-name="レイヤー 1" xmlns="http://www.w3.org/2000/svg" viewBox="0 0 708.66 121.89">
  <defs>
    <style>
      .cls-1 {
        fill: #fff;
      }
    </style>
  </defs>
  <path class="cls-1" d="m54.27,85.23L.45,64.34v-12.8l.14-.05,53.68-20.84v12.51l-39.5,14.79,39.5,14.79v12.51ZM.88,64.04l52.95,20.56v-11.58l-40.3-15.09,40.3-15.09v-11.58L.88,51.83v12.21Z"/>
  <path class="cls-1" d="m67.64,110.26h-13.43L92.58.74h13.43l-38.37,109.52Zm-12.82-.43h12.51L105.4,1.17h-12.51l-38.06,108.66Z"/>
  <path class="cls-1" d="m181.32,99.84c-6.17,0-11.98-1.04-17.28-3.08-5.29-2.05-9.95-4.98-13.85-8.73-3.9-3.75-6.98-8.23-9.14-13.33-2.16-5.1-3.26-10.74-3.26-16.76s1.1-11.66,3.26-16.76c2.16-5.09,5.26-9.58,9.2-13.33,3.94-3.75,8.6-6.68,13.85-8.73,5.25-2.05,11.08-3.08,17.33-3.08,6.63,0,12.78,1.16,18.26,3.43,5.49,2.28,10.19,5.71,13.98,10.19l.13.16-10.04,9.44-.15-.16c-2.9-3.13-6.19-5.51-9.77-7.07-3.59-1.56-7.53-2.36-11.73-2.36s-8.09.7-11.56,2.07c-3.47,1.37-6.52,3.34-9.08,5.86h0c-2.55,2.51-4.56,5.53-5.97,8.96-1.41,3.43-2.13,7.26-2.13,11.38s.72,7.95,2.13,11.38c1.41,3.43,3.42,6.45,5.97,8.96,2.55,2.52,5.61,4.49,9.08,5.86,3.47,1.37,7.36,2.07,11.56,2.07s8.14-.79,11.73-2.36c3.58-1.56,6.87-3.98,9.77-7.19l.15-.16,10.04,9.56-.13.16c-3.79,4.41-8.49,7.81-13.98,10.13-5.48,2.32-11.67,3.49-18.38,3.49Zm.12-83.38c-6.19,0-11.97,1.03-17.18,3.05-5.2,2.03-9.81,4.93-13.71,8.64-3.9,3.71-6.96,8.15-9.1,13.19-2.14,5.04-3.23,10.63-3.23,16.59s1.09,11.55,3.23,16.59c2.14,5.04,5.18,9.48,9.04,13.19,3.86,3.71,8.47,6.61,13.71,8.64,5.24,2.03,11,3.05,17.12,3.05,6.66,0,12.78-1.16,18.21-3.46,5.36-2.27,9.96-5.58,13.68-9.86l-9.42-8.97c-2.91,3.17-6.19,5.57-9.77,7.13-3.64,1.59-7.64,2.39-11.9,2.39s-8.2-.71-11.72-2.1c-3.52-1.39-6.63-3.4-9.22-5.95-2.6-2.56-4.64-5.62-6.07-9.1-1.43-3.48-2.16-7.37-2.16-11.55s.73-8.07,2.16-11.55c1.43-3.49,3.47-6.55,6.07-9.1h0c2.59-2.56,5.7-4.56,9.22-5.95,3.52-1.39,7.46-2.1,11.72-2.1s8.25.8,11.9,2.39c3.58,1.56,6.86,3.92,9.77,7.01l9.42-8.86c-3.72-4.35-8.32-7.69-13.68-9.92-5.43-2.26-11.52-3.4-18.1-3.4Z"/>
  <path class="cls-1" d="m250.92,99.49c-6.34,0-12.06-1.39-17.01-4.14-4.95-2.75-8.92-6.57-11.78-11.37-2.86-4.8-4.32-10.33-4.32-16.44s1.45-11.74,4.32-16.5c2.86-4.76,6.82-8.54,11.78-11.25,4.95-2.71,10.67-4.08,17.01-4.08s12.19,1.37,17.18,4.08h0c4.99,2.71,8.95,6.48,11.78,11.2,2.83,4.72,4.26,10.29,4.26,16.56s-1.43,11.64-4.26,16.44c-2.83,4.8-6.79,8.63-11.78,11.37-4.99,2.75-10.77,4.14-17.19,4.14Zm0-63.35c-6.26,0-11.92,1.35-16.8,4.03-4.89,2.67-8.79,6.41-11.61,11.1-2.82,4.69-4.25,10.17-4.25,16.28s1.43,11.49,4.25,16.22c2.82,4.73,6.73,8.5,11.62,11.21,4.88,2.71,10.54,4.08,16.8,4.08s12.05-1.37,16.98-4.08c4.92-2.71,8.83-6.48,11.61-11.21,2.79-4.73,4.2-10.19,4.2-16.22s-1.41-11.68-4.2-16.33c-2.79-4.65-6.69-8.37-11.61-11.04-4.93-2.67-10.64-4.03-16.98-4.03Zm0,50.95c-3.5,0-6.67-.79-9.43-2.34-2.76-1.56-4.99-3.84-6.63-6.8-1.63-2.95-2.46-6.45-2.46-10.41s.83-7.56,2.46-10.47c1.63-2.92,3.86-5.18,6.63-6.74,2.76-1.56,5.97-2.34,9.54-2.34s6.69.79,9.49,2.34c2.8,1.56,5.03,3.83,6.63,6.74,1.59,2.92,2.4,6.44,2.4,10.47s-.81,7.46-2.4,10.41h0c-1.6,2.96-3.83,5.25-6.63,6.8-2.8,1.55-6.03,2.34-9.6,2.34Zm.12-38.68c-3.5,0-6.64.77-9.33,2.29-2.69,1.52-4.87,3.73-6.46,6.58-1.6,2.85-2.4,6.3-2.4,10.26s.81,7.32,2.41,10.2c1.59,2.89,3.77,5.12,6.46,6.63,2.69,1.52,5.79,2.29,9.22,2.29s6.66-.77,9.39-2.29c2.73-1.52,4.9-3.75,6.46-6.63,1.56-2.89,2.35-6.32,2.35-10.2s-.79-7.41-2.35-10.26c-1.55-2.84-3.73-5.06-6.46-6.57-2.73-1.52-5.86-2.29-9.28-2.29Z"/>
  <path class="cls-1" d="m355.47,98.68h-14.91v-33.8c0-5.4-1.29-9.48-3.82-12.13-2.53-2.65-6.12-3.99-10.67-3.99-3.35,0-6.35.69-8.93,2.06-2.57,1.36-4.59,3.42-5.99,6.1-1.41,2.7-2.12,6.15-2.12,10.26v31.48h-14.91v-62.27h14.21v7.67c1.85-2.09,4.09-3.82,6.69-5.16,4.14-2.13,8.99-3.21,14.4-3.21,4.95,0,9.44.98,13.36,2.92h0c3.92,1.94,7.05,4.95,9.3,8.95,2.25,3.99,3.39,9.19,3.39,15.45v35.65Zm-14.48-.43h14.04v-35.22c0-6.18-1.12-11.31-3.33-15.24-2.21-3.92-5.27-6.87-9.11-8.77-3.85-1.91-8.28-2.87-13.16-2.87-5.34,0-10.12,1.06-14.2,3.16-2.73,1.4-5.06,3.25-6.94,5.49l-.38.46v-8.42h-13.35v61.41h14.04v-31.05c0-4.19.73-7.71,2.17-10.46,1.44-2.77,3.52-4.88,6.17-6.29,2.64-1.4,5.72-2.11,9.13-2.11,4.67,0,8.37,1.39,10.98,4.12,2.61,2.73,3.94,6.91,3.94,12.42v33.37Z"/>
  <path class="cls-1" d="m398.57,99.49c-6.49,0-12.35-1.39-17.42-4.14-5.07-2.75-9.09-6.57-11.95-11.37-2.86-4.8-4.32-10.33-4.32-16.44s1.45-11.74,4.32-16.5c2.86-4.76,6.88-8.54,11.95-11.25,5.06-2.71,10.92-4.08,17.41-4.08,6.03,0,11.42,1.24,16.02,3.67,4.61,2.44,8.17,6.08,10.57,10.81l.09.18-11.47,6.69-.11-.18c-1.82-2.89-4.08-5.04-6.69-6.41-2.62-1.37-5.49-2.06-8.53-2.06-3.5,0-6.7.77-9.51,2.29h0c-2.81,1.52-5.04,3.73-6.63,6.57-1.6,2.85-2.4,6.3-2.4,10.26s.81,7.41,2.4,10.26c1.59,2.85,3.83,5.06,6.63,6.57,2.81,1.52,6.01,2.29,9.51,2.29,3.04,0,5.91-.69,8.53-2.06,2.62-1.37,4.87-3.52,6.69-6.41l.11-.18,11.47,6.69-.09.18c-2.4,4.65-5.96,8.29-10.57,10.8-4.6,2.51-10,3.79-16.03,3.79Zm0-63.35c-6.42,0-12.21,1.35-17.21,4.03-5,2.67-8.97,6.41-11.79,11.1-2.82,4.69-4.25,10.17-4.25,16.28s1.43,11.49,4.25,16.22c2.82,4.73,6.79,8.5,11.79,11.21,5,2.71,10.79,4.08,17.21,4.08,5.96,0,11.28-1.26,15.82-3.74,4.47-2.44,7.94-5.95,10.3-10.44l-10.76-6.28c-1.84,2.86-4.11,5.01-6.75,6.39-2.68,1.4-5.62,2.11-8.73,2.11-3.57,0-6.84-.79-9.71-2.34-2.88-1.56-5.17-3.82-6.8-6.74-1.63-2.91-2.46-6.44-2.46-10.47s.83-7.56,2.46-10.47c1.63-2.92,3.92-5.19,6.8-6.74h0c2.88-1.55,6.14-2.34,9.71-2.34,3.11,0,6.05.71,8.73,2.11,2.63,1.37,4.9,3.52,6.75,6.39l10.76-6.28c-2.36-4.56-5.82-8.07-10.3-10.44-4.54-2.4-9.86-3.62-15.82-3.62Z"/>
  <path class="cls-1" d="m463.07,99.49c-6.88,0-12.97-1.39-18.11-4.14-5.15-2.75-9.19-6.57-12.01-11.37-2.82-4.8-4.26-10.33-4.26-16.44s1.39-11.74,4.14-16.49c2.75-4.76,6.59-8.54,11.43-11.26,4.84-2.71,10.42-4.08,16.61-4.08s11.48,1.33,16.2,3.96h0c4.72,2.63,8.49,6.4,11.2,11.2,2.71,4.8,4.08,10.52,4.08,17.01,0,.61-.02,1.31-.06,2.1-.04.78-.1,1.52-.17,2.21l-.02.19h-48.45c.4,2.01,1.11,3.89,2.12,5.58,1.67,2.81,4.05,5,7.09,6.52,3.04,1.52,6.59,2.29,10.56,2.29,3.43,0,6.56-.54,9.3-1.61,2.73-1.06,5.2-2.76,7.33-5.04l.16-.18,8.04,9.24-.12.14c-2.79,3.25-6.34,5.79-10.56,7.53-4.22,1.74-9.09,2.62-14.5,2.62Zm-2.2-63.35c-6.11,0-11.63,1.35-16.4,4.03-4.77,2.67-8.56,6.41-11.27,11.09-2.71,4.69-4.08,10.17-4.08,16.28s1.41,11.49,4.2,16.22c2.78,4.73,6.77,8.5,11.84,11.21,5.08,2.71,11.1,4.09,17.91,4.09,5.35,0,10.17-.87,14.34-2.59,4.09-1.69,7.55-4.14,10.28-7.27l-7.48-8.6c-2.14,2.24-4.6,3.92-7.33,4.98-2.79,1.09-5.97,1.64-9.46,1.64-4.03,0-7.65-.79-10.75-2.34-3.11-1.56-5.56-3.8-7.27-6.68-1.08-1.81-1.82-3.82-2.22-5.98l-.05-.26h48.59c.06-.63.12-1.3.15-2,.04-.77.06-1.47.06-2.07,0-6.41-1.35-12.07-4.03-16.8-2.67-4.73-6.38-8.44-11.03-11.03h0c-4.66-2.59-10.04-3.91-15.99-3.91Zm17.81,26.64h-35.66l.03-.25c.33-2.36,1.02-4.51,2.05-6.39h0c1.52-2.76,3.65-4.95,6.33-6.51,2.69-1.56,5.86-2.35,9.43-2.35s6.63.79,9.31,2.35c2.68,1.56,4.83,3.73,6.39,6.45,1.09,1.91,1.79,4.08,2.08,6.45l.03.24Zm-35.16-.43h34.67c-.3-2.22-.97-4.25-1.99-6.05-1.52-2.66-3.61-4.77-6.23-6.29-2.62-1.52-5.68-2.29-9.1-2.29s-6.6.77-9.21,2.29c-2.62,1.52-4.69,3.65-6.17,6.34h0c-.97,1.76-1.63,3.78-1.96,5.99Z"/>
  <path class="cls-1" d="m517.25,121.15h-14.91V36.41h14.21v7.8c1.78-2.06,3.85-3.76,6.16-5.05,4.11-2.29,8.86-3.44,14.12-3.44,6.1,0,11.58,1.33,16.26,3.97h0c4.68,2.63,8.45,6.36,11.2,11.08,2.75,4.72,4.14,10.37,4.14,16.78s-1.39,12.08-4.14,16.84c-2.75,4.76-6.52,8.51-11.2,11.14-4.68,2.63-10.15,3.97-16.26,3.97-5.03,0-9.69-1.18-13.83-3.5-2.12-1.19-4.05-2.73-5.76-4.58v29.74Zm-14.48-.43h14.04v-30.44l.38.43c1.77,2.01,3.79,3.66,6.02,4.91,4.08,2.29,8.66,3.45,13.62,3.45,6.03,0,11.43-1.32,16.05-3.91,4.61-2.59,8.33-6.29,11.04-10.98,2.71-4.69,4.08-10.29,4.08-16.63s-1.37-11.91-4.08-16.57c-2.71-4.65-6.42-8.33-11.04-10.92-4.62-2.59-10.02-3.91-16.05-3.91-5.19,0-9.87,1.14-13.91,3.39-2.44,1.36-4.6,3.17-6.42,5.4l-.38.47v-8.56h-13.35v83.87Zm32.44-33.61c-3.5,0-6.69-.79-9.49-2.34-2.8-1.56-5.05-3.84-6.68-6.8-1.63-2.95-2.46-6.46-2.46-10.41s.83-7.56,2.46-10.47c1.63-2.92,3.88-5.18,6.68-6.74,2.8-1.55,5.99-2.34,9.49-2.34s6.67.79,9.43,2.34c2.76,1.56,4.99,3.83,6.63,6.74,1.63,2.91,2.46,6.44,2.46,10.47s-.83,7.46-2.46,10.41h0c-1.63,2.96-3.86,5.24-6.63,6.8-2.76,1.56-5.93,2.34-9.43,2.34Zm0-38.68c-3.42,0-6.54.77-9.28,2.29-2.73,1.52-4.92,3.73-6.52,6.58-1.6,2.85-2.4,6.3-2.4,10.26s.81,7.31,2.41,10.2c1.59,2.88,3.79,5.12,6.52,6.63,2.73,1.52,5.85,2.29,9.28,2.29s6.52-.77,9.22-2.29c2.69-1.52,4.87-3.75,6.46-6.63h0c1.6-2.89,2.4-6.32,2.4-10.2s-.81-7.41-2.4-10.26c-1.59-2.84-3.77-5.06-6.46-6.58-2.7-1.52-5.8-2.29-9.22-2.29Z"/>
  <path class="cls-1" d="m601.8,99.49c-6.82,0-12.17-1.79-15.9-5.33-3.73-3.54-5.63-8.83-5.63-15.73v-29.55h-10.19v-12.01h10.19v-14.13h14.91v14.13h16.56v12.01h-16.56v29.2c0,2.86.74,5.11,2.2,6.69,1.46,1.57,3.53,2.36,6.15,2.36,3.18,0,5.86-.84,7.97-2.5l.23-.18,4.22,10.72-.12.1c-1.71,1.4-3.84,2.47-6.33,3.17-2.48.7-5.07,1.05-7.7,1.05Zm-31.28-51.04h10.19v29.98c0,6.78,1.85,11.97,5.49,15.42,3.65,3.46,8.89,5.21,15.6,5.21,2.59,0,5.14-.35,7.58-1.03,2.37-.67,4.41-1.67,6.05-2.99l-3.89-9.89c-2.15,1.6-4.85,2.42-8.01,2.42-2.75,0-4.93-.84-6.47-2.5-1.54-1.66-2.32-4-2.32-6.98v-29.63h16.56v-11.15h-16.56v-14.13h-14.04v14.13h-10.19v11.15Z"/>
  <path class="cls-1" d="m654.39,85.23v-12.51l39.5-14.79-39.5-14.79v-12.51l53.82,20.9v12.8l-.14.05-53.68,20.84Zm.43-12.21v11.58l52.95-20.56v-12.21l-52.95-20.56v11.58l40.3,15.09-40.3,15.09Z"/>
</svg>