<?xml version="1.0" encoding="UTF-8"?>
<svg id="_レイヤー_1" data-name="レイヤー 1" xmlns="http://www.w3.org/2000/svg" viewBox="0 0 728.5 121.89">
  <defs>
    <style>
      .cls-1 {
        fill: #2b75ae;
      }
    </style>
  </defs>
  <path class="cls-1" d="m54.92,84.83L1.11,63.93v-12.8l.14-.05,53.68-20.84v12.51l-39.5,14.79,39.5,14.79v12.51ZM1.54,63.63l52.95,20.56v-11.58l-40.3-15.09,40.3-15.09v-11.58L1.54,51.42v12.21Z"/>
  <path class="cls-1" d="m68.29,109.86h-13.43L93.23.34h13.43l-38.37,109.52Zm-12.82-.43h12.51L106.05.77h-12.51l-38.06,108.66Z"/>
  <path class="cls-1" d="m233.38,98.28h-14.68l-.1-53.15-26.31,43.88h-6.96l-26.3-43.19v52.45h-14.79V16.78h12.73l32.04,53.51,31.52-53.51h12.73l.12,81.5Zm-14.24-.43h13.81l-.12-80.63h-12.05l-31.76,53.92-32.29-53.92h-12.05v80.63h13.93v-53.56l26.97,44.3h6.47l26.98-45.01.11,54.27Z"/>
  <path class="cls-1" d="m279.25,99.09c-6.88,0-12.97-1.39-18.11-4.14-5.15-2.74-9.19-6.57-12.01-11.37-2.82-4.79-4.26-10.33-4.26-16.44s1.39-11.74,4.14-16.49c2.75-4.76,6.59-8.54,11.43-11.26,4.84-2.71,10.42-4.08,16.61-4.08s11.48,1.33,16.2,3.96h0c4.72,2.63,8.49,6.4,11.2,11.2,2.71,4.8,4.08,10.52,4.08,17.01,0,.61-.02,1.3-.06,2.1-.04.77-.1,1.51-.17,2.21l-.02.19h-48.45c.4,2.01,1.11,3.89,2.12,5.58,1.67,2.81,4.05,5,7.09,6.52,3.04,1.52,6.59,2.29,10.56,2.29,3.43,0,6.56-.54,9.3-1.61,2.73-1.06,5.2-2.76,7.33-5.04l.16-.18,8.04,9.24-.12.14c-2.79,3.25-6.34,5.79-10.56,7.53-4.22,1.74-9.09,2.62-14.5,2.62Zm-2.2-63.35c-6.11,0-11.63,1.35-16.4,4.03-4.77,2.67-8.56,6.41-11.27,11.09-2.71,4.69-4.08,10.17-4.08,16.28s1.41,11.49,4.2,16.22c2.78,4.73,6.77,8.5,11.84,11.21,5.08,2.71,11.1,4.09,17.91,4.09,5.35,0,10.17-.87,14.34-2.59,4.09-1.69,7.55-4.14,10.28-7.27l-7.48-8.6c-2.14,2.24-4.6,3.92-7.33,4.98-2.79,1.09-5.97,1.64-9.46,1.64-4.03,0-7.65-.79-10.75-2.34-3.11-1.56-5.56-3.8-7.27-6.68-1.08-1.81-1.83-3.82-2.22-5.98l-.05-.26h48.59c.07-.64.12-1.31.15-2,.04-.79.06-1.47.06-2.07,0-6.42-1.35-12.07-4.03-16.8-2.67-4.73-6.38-8.44-11.03-11.03h0c-4.66-2.59-10.04-3.91-15.99-3.91Zm17.81,26.64h-35.66l.03-.25c.33-2.36,1.02-4.51,2.05-6.39h0c1.52-2.76,3.65-4.95,6.33-6.51,2.69-1.56,5.86-2.35,9.43-2.35s6.63.79,9.31,2.35c2.68,1.56,4.83,3.73,6.39,6.45,1.09,1.91,1.79,4.08,2.08,6.45l.03.24Zm-35.16-.43h34.67c-.3-2.22-.97-4.25-1.99-6.05-1.52-2.66-3.61-4.77-6.23-6.29-2.62-1.52-5.68-2.29-9.1-2.29s-6.6.77-9.21,2.29c-2.62,1.52-4.69,3.65-6.17,6.34h0c-.97,1.76-1.63,3.78-1.96,5.99Z"/>
  <path class="cls-1" d="m337.85,99.09c-5.16,0-10.19-.68-14.94-2.03-4.75-1.35-8.57-3.02-11.36-4.95l-.15-.11,5.75-11.38.2.13c2.75,1.76,6.08,3.23,9.9,4.38,3.82,1.15,7.7,1.73,11.52,1.73,4.49,0,7.79-.61,9.79-1.82,1.97-1.19,2.96-2.8,2.96-4.79,0-1.63-.65-2.84-1.98-3.7-1.36-.87-3.17-1.54-5.37-2-2.21-.46-4.72-.88-7.46-1.27-2.74-.38-5.51-.91-8.24-1.57-2.74-.66-5.28-1.64-7.53-2.92-2.26-1.28-4.12-3.04-5.52-5.22-1.41-2.19-2.12-5.11-2.12-8.69,0-3.97,1.15-7.46,3.4-10.38,2.25-2.91,5.46-5.19,9.53-6.79,4.06-1.59,8.94-2.39,14.5-2.39,4.16,0,8.43.47,12.67,1.4,4.25.93,7.82,2.26,10.6,3.96l.17.1-5.75,11.39-.2-.12c-2.9-1.75-5.86-2.97-8.79-3.62-2.95-.65-5.91-.98-8.81-.98-4.34,0-7.59.65-9.67,1.94-2.05,1.26-3.08,2.88-3.08,4.8,0,1.79.65,3.1,1.99,3.99,1.37.91,3.17,1.64,5.37,2.17,2.22.54,4.72.98,7.45,1.33,2.74.35,5.49.87,8.19,1.57,2.7.7,5.23,1.66,7.52,2.86h0c2.3,1.21,4.18,2.93,5.58,5.11,1.41,2.19,2.12,5.07,2.12,8.57,0,3.89-1.17,7.33-3.46,10.21-2.29,2.88-5.58,5.14-9.76,6.73-4.18,1.58-9.23,2.39-15.02,2.39Zm-25.89-7.24c2.73,1.86,6.46,3.47,11.07,4.78,4.71,1.34,9.7,2.02,14.82,2.02,5.73,0,10.73-.79,14.86-2.36,4.11-1.56,7.33-3.78,9.58-6.59,2.24-2.8,3.37-6.15,3.37-9.94,0-3.42-.69-6.22-2.05-8.34-1.36-2.12-3.19-3.79-5.42-4.96-2.25-1.18-4.75-2.13-7.42-2.82-2.68-.69-5.42-1.21-8.14-1.56-2.74-.35-5.26-.8-7.49-1.34-2.25-.54-4.1-1.29-5.51-2.23-1.45-.96-2.18-2.43-2.18-4.35,0-2.08,1.11-3.81,3.29-5.16,2.15-1.33,5.48-2,9.9-2,2.93,0,5.93.33,8.91.99,2.91.64,5.85,1.84,8.72,3.55l5.36-10.62c-2.72-1.63-6.19-2.91-10.3-3.81-4.21-.92-8.44-1.38-12.58-1.38-5.5,0-10.33.79-14.34,2.36-4,1.56-7.14,3.8-9.35,6.65-2.2,2.84-3.31,6.25-3.31,10.12,0,3.49.69,6.34,2.05,8.45,1.36,2.12,3.17,3.83,5.37,5.08,2.21,1.26,4.71,2.23,7.41,2.87,2.72.65,5.48,1.18,8.2,1.56,2.75.39,5.27.82,7.48,1.28,2.25.47,4.11,1.16,5.52,2.06,1.45.93,2.18,2.29,2.18,4.06,0,2.16-1.07,3.89-3.17,5.16-2.07,1.25-5.44,1.88-10.01,1.88-3.86,0-7.78-.59-11.64-1.75-3.77-1.13-7.07-2.58-9.81-4.3l-5.37,10.62Z"/>
  <path class="cls-1" d="m394.01,99.09c-5.16,0-10.19-.68-14.94-2.03-4.75-1.35-8.57-3.02-11.36-4.95l-.15-.11,5.75-11.38.2.13c2.75,1.76,6.08,3.23,9.9,4.38,3.82,1.15,7.7,1.73,11.52,1.73,4.49,0,7.79-.61,9.79-1.82,1.97-1.19,2.96-2.8,2.96-4.79,0-1.63-.65-2.84-1.98-3.7-1.36-.87-3.17-1.54-5.37-2-2.21-.46-4.72-.88-7.46-1.27-2.74-.38-5.51-.91-8.24-1.57-2.74-.66-5.28-1.64-7.53-2.92-2.26-1.28-4.12-3.04-5.52-5.22-1.41-2.19-2.12-5.11-2.12-8.69,0-3.97,1.15-7.46,3.4-10.38,2.25-2.91,5.46-5.19,9.53-6.79,4.06-1.59,8.94-2.39,14.5-2.39,4.16,0,8.43.47,12.67,1.4,4.25.93,7.82,2.26,10.6,3.96l.17.1-5.75,11.39-.2-.12c-2.9-1.75-5.86-2.97-8.79-3.62-2.95-.65-5.91-.98-8.81-.98-4.34,0-7.59.65-9.67,1.94-2.05,1.26-3.08,2.88-3.08,4.8,0,1.79.65,3.1,1.99,3.99,1.37.91,3.17,1.64,5.37,2.17,2.22.54,4.72.98,7.45,1.33,2.74.35,5.49.87,8.19,1.57,2.7.7,5.23,1.66,7.52,2.86h0c2.3,1.21,4.18,2.93,5.58,5.11,1.41,2.19,2.12,5.07,2.12,8.57,0,3.89-1.17,7.33-3.46,10.21-2.29,2.88-5.58,5.14-9.76,6.73-4.18,1.58-9.23,2.39-15.02,2.39Zm-25.89-7.24c2.73,1.86,6.46,3.47,11.07,4.78,4.71,1.34,9.7,2.02,14.82,2.02,5.73,0,10.73-.79,14.86-2.36,4.11-1.56,7.33-3.78,9.58-6.59,2.24-2.8,3.37-6.15,3.37-9.94,0-3.42-.69-6.22-2.05-8.34-1.36-2.12-3.19-3.79-5.42-4.96-2.25-1.18-4.75-2.13-7.42-2.82-2.68-.69-5.42-1.21-8.14-1.56-2.74-.35-5.26-.8-7.49-1.34-2.25-.54-4.1-1.29-5.51-2.23-1.45-.96-2.18-2.43-2.18-4.35,0-2.08,1.11-3.81,3.29-5.16,2.15-1.33,5.48-2,9.9-2,2.93,0,5.93.33,8.91.99,2.91.64,5.85,1.84,8.72,3.55l5.36-10.62c-2.72-1.63-6.19-2.91-10.3-3.81-4.21-.92-8.44-1.38-12.58-1.38-5.5,0-10.33.79-14.34,2.36-4,1.56-7.14,3.8-9.35,6.65-2.2,2.84-3.31,6.25-3.31,10.12,0,3.49.69,6.34,2.05,8.45,1.36,2.12,3.17,3.83,5.37,5.08,2.21,1.26,4.71,2.23,7.41,2.87,2.72.65,5.48,1.18,8.2,1.56,2.75.39,5.27.82,7.48,1.28,2.25.47,4.11,1.16,5.52,2.06,1.45.93,2.18,2.29,2.18,4.06,0,2.16-1.07,3.89-3.17,5.16-2.07,1.25-5.44,1.88-10.01,1.88-3.86,0-7.78-.59-11.64-1.75-3.77-1.13-7.07-2.58-9.81-4.3l-5.37,10.62Z"/>
  <path class="cls-1" d="m449.71,99.09c-4.64,0-8.76-.81-12.25-2.39-3.5-1.59-6.23-3.84-8.14-6.68-1.91-2.84-2.87-6.09-2.87-9.67s.85-6.69,2.52-9.49c1.68-2.81,4.46-5.06,8.26-6.69,3.79-1.63,8.89-2.45,15.14-2.45h15.77v-.71c0-4.16-1.26-7.44-3.75-9.74-2.5-2.31-6.34-3.47-11.43-3.47-3.43,0-6.86.54-10.18,1.61-3.32,1.07-6.16,2.57-8.44,4.48l-.2.17-5.89-10.93.15-.11c3.32-2.55,7.34-4.49,11.94-5.77,4.59-1.27,9.42-1.92,14.36-1.92,8.97,0,16.01,2.18,20.93,6.48h0c4.93,4.31,7.43,11.04,7.43,20.02v36.46h-14.1v-7.05c-1.41,1.94-3.27,3.56-5.53,4.82-3.6,2.02-8.22,3.04-13.71,3.04Zm2.66-36.94c-6.2,0-11.23.81-14.97,2.41-3.72,1.6-6.44,3.79-8.06,6.51-1.63,2.73-2.46,5.85-2.46,9.27s.94,6.67,2.8,9.43c1.86,2.77,4.54,4.97,7.96,6.52,3.43,1.56,7.49,2.35,12.07,2.35,5.42,0,9.96-1,13.5-2.98,2.42-1.35,4.36-3.12,5.77-5.25l.4-.6v8.02h13.23v-36.03c0-8.85-2.45-15.48-7.28-19.7-4.84-4.23-11.79-6.37-20.64-6.37-4.9,0-9.69.64-14.24,1.9-4.48,1.24-8.4,3.12-11.65,5.58l5.46,10.14c2.29-1.86,5.11-3.33,8.38-4.39,3.37-1.08,6.84-1.63,10.31-1.63,5.2,0,9.15,1.21,11.73,3.59,2.58,2.39,3.89,5.77,3.89,10.06v1.14h-16.2Zm.35,26.4c-3.74,0-6.7-.79-8.81-2.36-2.13-1.58-3.21-3.74-3.21-6.43,0-2.37.88-4.39,2.62-6.01,1.73-1.61,5.13-2.43,10.11-2.43h15.16v7.47c-1.26,3.2-3.34,5.65-6.19,7.29h0c-2.84,1.63-6.09,2.46-9.66,2.46Zm.69-16.79c-4.86,0-8.16.78-9.81,2.32-1.64,1.53-2.48,3.45-2.48,5.69,0,2.54,1.02,4.59,3.04,6.08,2.04,1.51,4.91,2.27,8.56,2.27s6.67-.81,9.45-2.4c2.75-1.58,4.76-3.95,5.97-7.03v-6.92h-14.72Z"/>
  <path class="cls-1" d="m525.91,121.55c-5.71,0-11.36-.76-16.79-2.27-5.44-1.51-9.97-3.72-13.46-6.58l-.14-.12,6.71-11.26.19.16c2.67,2.21,6.09,4.01,10.18,5.35,4.09,1.34,8.3,2.02,12.5,2.02,6.7,0,11.68-1.56,14.79-4.63,3.11-3.07,4.68-7.75,4.68-13.92v-2.73c-1.84,1.95-3.95,3.53-6.29,4.72-4.18,2.13-8.96,3.21-14.23,3.21-5.88,0-11.27-1.27-16.02-3.79-4.76-2.52-8.57-6.07-11.32-10.56-2.75-4.49-4.14-9.83-4.14-15.86s1.39-11.26,4.14-15.75c2.75-4.49,6.55-8.02,11.32-10.5,4.76-2.48,10.15-3.73,16.02-3.73,5.26,0,10.04,1.06,14.22,3.15,2.63,1.32,4.98,3.14,6.98,5.42v-7.88h14.21v52.68c0,11.2-2.91,19.58-8.64,24.88-5.73,5.3-14.12,7.99-24.93,7.99Zm-29.83-9.07c3.42,2.77,7.84,4.92,13.15,6.38,5.4,1.49,11.01,2.25,16.68,2.25,10.7,0,18.99-2.65,24.64-7.88,5.64-5.22,8.5-13.49,8.5-24.57v-52.24h-13.35v8.62l-.38-.46c-2.04-2.45-4.48-4.38-7.23-5.76-4.12-2.06-8.84-3.1-14.03-3.1-5.8,0-11.13,1.24-15.82,3.68-4.69,2.44-8.44,5.92-11.15,10.34-2.71,4.42-4.08,9.64-4.08,15.52s1.37,11.22,4.08,15.64c2.71,4.42,6.46,7.92,11.15,10.4,4.69,2.48,10.02,3.74,15.82,3.74,5.19,0,9.91-1.06,14.03-3.16,2.45-1.25,4.65-2.94,6.54-5.03l.38-.42v3.85c0,6.28-1.62,11.07-4.81,14.22-3.19,3.15-8.27,4.75-15.09,4.75-4.25,0-8.5-.69-12.63-2.04-4.04-1.32-7.44-3.09-10.12-5.26l-6.26,10.51Zm30.18-29.26c-3.65,0-6.97-.77-9.89-2.28-2.92-1.52-5.21-3.65-6.8-6.33-1.6-2.68-2.4-5.82-2.4-9.32s.81-6.63,2.4-9.32c1.59-2.69,3.88-4.78,6.81-6.22,2.91-1.44,6.24-2.17,9.88-2.17s6.95.73,9.82,2.17c2.88,1.44,5.15,3.54,6.75,6.22,1.6,2.69,2.4,5.82,2.4,9.32s-.81,6.63-2.4,9.32h0c-1.6,2.69-3.86,4.82-6.74,6.33-2.87,1.51-6.18,2.28-9.83,2.28Zm0-35.21c-3.58,0-6.84.71-9.69,2.12-2.85,1.41-5.08,3.44-6.63,6.05-1.56,2.62-2.34,5.68-2.34,9.1s.79,6.48,2.34,9.1c1.55,2.61,3.78,4.69,6.63,6.17,2.85,1.48,6.11,2.23,9.69,2.23s6.81-.75,9.63-2.23c2.81-1.48,5.02-3.56,6.57-6.17,1.56-2.62,2.34-5.68,2.34-9.1s-.79-6.48-2.34-9.1c-1.55-2.61-3.76-4.65-6.57-6.05-2.81-1.41-6.05-2.12-9.63-2.12Z"/>
  <path class="cls-1" d="m603.85,99.09c-6.88,0-12.97-1.39-18.11-4.14-5.15-2.75-9.19-6.57-12.01-11.37-2.82-4.79-4.26-10.33-4.26-16.44s1.39-11.74,4.14-16.49c2.74-4.76,6.59-8.54,11.43-11.26,4.84-2.71,10.42-4.08,16.61-4.08s11.48,1.33,16.2,3.96h0c4.72,2.63,8.49,6.4,11.2,11.2,2.71,4.8,4.08,10.52,4.08,17.01,0,.61-.02,1.3-.06,2.1-.04.77-.1,1.52-.17,2.21l-.02.19h-48.45c.4,2.01,1.11,3.89,2.12,5.58,1.67,2.81,4.05,5,7.09,6.52,3.04,1.52,6.59,2.29,10.56,2.29,3.43,0,6.56-.54,9.3-1.61,2.73-1.06,5.2-2.76,7.33-5.04l.16-.18,8.04,9.24-.12.14c-2.79,3.25-6.34,5.79-10.56,7.53-4.22,1.74-9.09,2.62-14.5,2.62Zm-2.2-63.35c-6.11,0-11.63,1.35-16.4,4.03-4.77,2.67-8.56,6.41-11.27,11.09-2.71,4.69-4.08,10.17-4.08,16.28s1.41,11.49,4.2,16.22c2.78,4.73,6.77,8.5,11.84,11.21,5.08,2.71,11.1,4.09,17.91,4.09,5.35,0,10.17-.87,14.34-2.59,4.09-1.69,7.55-4.14,10.28-7.27l-7.48-8.6c-2.14,2.24-4.6,3.92-7.33,4.98-2.79,1.09-5.97,1.64-9.46,1.64-4.03,0-7.65-.79-10.75-2.34-3.11-1.56-5.56-3.8-7.27-6.68-1.08-1.81-1.83-3.82-2.22-5.98l-.05-.26h48.59c.07-.63.12-1.3.15-2,.04-.79.06-1.47.06-2.07,0-6.41-1.35-12.07-4.03-16.8-2.67-4.73-6.38-8.44-11.03-11.03-4.66-2.59-10.04-3.91-15.99-3.91Zm17.81,26.64h-35.66l.03-.25c.33-2.36,1.02-4.51,2.05-6.39h0c1.52-2.76,3.65-4.95,6.33-6.51,2.69-1.56,5.86-2.35,9.43-2.35s6.63.79,9.31,2.35c2.68,1.56,4.83,3.73,6.39,6.45,1.09,1.91,1.79,4.08,2.08,6.45l.03.24Zm-35.16-.43h34.67c-.3-2.22-.97-4.25-1.99-6.05-1.52-2.66-3.62-4.77-6.23-6.29-2.62-1.52-5.68-2.29-9.1-2.29s-6.6.77-9.21,2.29c-2.62,1.52-4.69,3.65-6.17,6.34-.97,1.76-1.63,3.78-1.96,5.99Z"/>
  <path class="cls-1" d="m673.58,84.83v-12.51l39.5-14.79-39.5-14.79v-12.51l53.82,20.9v12.8l-53.82,20.9Zm.43-12.21v11.58l52.95-20.56v-12.21l-52.95-20.56v11.58l40.3,15.09-40.3,15.09Z"/>
</svg>