<?xml version="1.0" encoding="UTF-8"?>
<svg id="_レイヤー_1" data-name="レイヤー 1" xmlns="http://www.w3.org/2000/svg" viewBox="0 0 580 121">
  <defs>
    <style>
      .cls-1 {
        fill: #fff;
      }
    </style>
  </defs>
  <path class="cls-1" d="m61.782.019c1.326,2.315,4.073,1.758,6.013,2.914,1.3.774,1.254,1.179.443,2.109-2.16-.845-4.296-1.729-6.466-2.517-2.604-.945-3.475-.411-4.01,2.168-.218,1.052-.604,2.077-.991,3.084-.571,1.483-1.082,2.9-1.072,4.588.011,1.793-.626,3.59-1.152,6.255,3.68-2.323,7.039-3.353,10.134-4.99,1.089-.576,2.244-1.557,3.325-1.5,1.718.09,1.506-1.247,2.173-1.952.929-.981.586-1.573-.122-2.486-.41-.529-.237-1.51.214-2.53.353.636.648,1.313,1.069,1.9,2.377,3.315,2.173,4.339-1.287,6.187-4.084,2.181-7.921,4.815-12.575,5.896-1.086.252-2.645,2.145-2.556,3.157.45,5.126-1.52,10.019-1.131,15.091.01.136.167.261.431.651,2.597-.213,5.304.297,7.975.991.888.231,1.767.574,2.581.998,2.54,1.322,2.625,2.055.386,5.219-.165-.984-.263-1.637-.39-2.285-.049-.252-1.768-1.041-2.859-1.309-2.885-.709-5.654-2.108-8.759-1.524-.632,1.61-1.591,3.062-1.443,4.949.065.83-.656,1.701-.922,2.583-.715,2.375-2.507,4.365-2.103,7.178.181,1.265-.903,2.332-2.908,2.056,0-.796-.234-1.676.043-2.346.883-2.133,2.432-4.102,2.828-6.296.425-2.357.068-4.83,2.062-6.674-.713-.455-.807-2.322-2.428-.751-.61.591-2.237.036-3.367.216-1.217.193-2.574,1.164-3.544.835-1.217-.413-1.637,1.951-2.927.491-.201-.227-1.82.617-2.648,1.168-1.271.846-4.033,4.613-4.981,6.829-.44,1.03-2.607.188-2.038,2.068-3.911,4.965-4.082,5.423-3.995,10.752.002.15.077.299.186.695,1.65-1.255,3.531-.848,5.36-.865,1.994-.019,3.989-.004,5.984-.004.679.996.937,1.937-.669,1.975-3.484.082-6.972.025-10.866.025,0,2.017-.021,3.969.004,5.92.062,4.723-1.625,9.307-1.07,14.088.088.755-.697,1.61-1.148,2.568,8.037,1.461,15.821,2.858,24.41,5.634-4.211,1.54-6.781-.728-9.372-.663-2.684.068-4.761-1.079-7.137-1.496-2.783-.488-5.634-.592-8.219-.84-.161,1.768-.271,3.459-.48,5.136-.214,1.717-.07,3.376-.691,5.19-.559,1.633-.864,3.738-1.46,5.421-.621,1.753-.48,3.474-.921,5.119-.467,1.74-1.602,3.301-2.426,4.901h-2.031c-.182-1.535.384-5.542.988-6.949.359.322.707.635,1.213,1.09,1.025-4.371,2.274-8.571,2.422-13.061.075-2.256,1.014-4.484,1.557-6.701-1.033-.386-2.533-1.547-3.594-1.232-3.386,1.007-7.533.122-10.033,3.43-1.223,1.618-3.566,1.995-4.27,4.134-.067.204-.851.173-1.302.251-.058-.569-.372-1.303-.13-1.677.95-1.465,2.075-2.816,3.135-4.21,2.415.415,2.635-2.081,3.512-3.163,3.218-3.969,7.577-6.949,10.028-11.55.14-.263-.036-.782.141-.923,1.218-.969,3.206-1.644,3.584-2.842.607-1.927.163-4.186.163-6.552-3.163,2.096-6.863,1.145-10.068,2.602-3.39,1.541-7.177,1.374-11.37,2.835,1.51-2.548,1.715-2.505,3.672-2.889,1.55-.304,2.995-1.107,4.526-1.548,1.499-.432,3.067-.627,4.573-1.038,1.637-.447,3.215-1.123,4.862-1.517,1.537-.368,3.131-.497,4.743-.738-.274-.669-.924-1.458-.751-1.964,1.135-3.314,1.811-6.682,1.982-10.186.059-1.208.416-2.513,1.022-3.548.483-.823,1.553-1.302,2.445-1.998.312.657.623,1.311.967,2.035,5.547-5.897,11.24-11.584,16.433-17.697,1.532-1.804,3.484-3.262,4.73-5.387.658-1.123,2.127-1.771,3.514-2.854-1.722-.056-2.993-.005-4.66.682-4.269,1.761-8.834,2.798-13.256,4.199-4.752,1.506-9.767,1.994-14.448,3.732-1.77.657-3.867-.478-5.478,1.067-.055.052-.944-.766-2.211-1.81,2.373,0,4.592.582,5.108-.108,1.625-2.174,4.061-1.807,6.054-2.498,2.022-.701,4.072-1.902,6.433-1.42.613.125,1.527.192,1.899-.152,2.241-2.07,5.257-1.865,7.877-2.737,2.486-.827,4.85-2.063,7.633-2.21,1.543-.082,3.019-1.43,4.892-2.396-.595-3.256,1.41-6.492,1.13-10.146-.115-1.497,1.763-3.11,1.743-4.658-.032-2.464,2.552-2.104,3.128-3.675h3Zm-11.274,37.861c.481-2.425,1.149-4.415,1.2-6.42.055-2.154.283-4.253.859-6.381-4.468,4.443-8.632,8.96-12.764,13.505-.163.179-.021.635-.021,1.105.982-.228,1.927-.575,2.89-.636,1.003-.064,1.97.003,2.574-.999.601,1.522,1.728-.183,2.448.391,1.189.948,1.699-1.052,2.813-.566Zm-29.059,36.351c-3.608,4.366-6.481,9.354-10.549,13.648,3.292-1.004,6.441-1.597,9.881.085,0-2.419-.03-4.705.008-6.99.039-2.303,2.134-4.437.659-6.743Z"/>
  <path class="cls-1" d="m579.782,51.019c-.5,0-1.408.104-1.439-.015-.606-2.381-2.676-2.616-4.483-3.55-3.912-2.022-6.925-5.17-9.197-9.016-1.341-2.271-2.914-4.406-4.444-6.695-2.164,1.196-4.364,1.915-5.892,3.349-4.783,4.488-11.031,6.73-16.036,10.853-1.737,1.431-3.707,1-5.442-.359-.401-2.859.25-5.334,2.286-7.517.673-.722.723-2.852,1.115-2.867,1.974-.077,1.152-1.525,1.604-2.382.734-1.392,1.928-2.54,2.928-3.792,1-1.251,2.041-2.473,2.988-3.763.834-1.136.738-2.659,2.499-3.529,1.079-.533,1.2-3.004,1.778-4.681,1.704,1.006,2.422,2.143,1.293,3.946-.289.462-.388,1.127-.361,1.689.081,1.676-.369,2.003-1.993,1.335-.142-.059-.33-.008-.815-.008-1.084,3.757-4.326,6.245-6.314,9.55-2.053,3.413-3.478,7.203-5.581,11.688,4.049-2.206,7.854-3.228,10.444-6.22.95-1.098,1.72-1.661,3.135-1.487.442.054,1.108-.193,1.383-.534,3.099-3.849,7.715-5.455,11.925-8.428,1.218,1.687,2.37,3.163,3.388,4.725,1.017,1.56,1.808,3.27,2.868,4.796,1.007,1.449,2.087,2.914,3.404,4.063,1.355,1.181,3.11,1.891,4.553,2.986,1.551,1.177,2.944,2.564,4.406,3.859v2Z"/>
  <path class="cls-1" d="m94.782,51.068c2.255-1.257,4.146-1.99,6.452-2.186,2.546-.216,5.024-1.436,7.489-2.333,1.58-.575,3.066-1.382,4.845-.837.287.088.698-.227,1.051-.355-.009.451.165,1.082-.065,1.317-.537.549-1.271,1.285-1.92,1.281-3.095-.02-5.776,1.5-8.527,2.439-2.931,1.001-5.73,1.846-9.175,1.559-.051,1.808-.12,3.579-.144,5.35-.025,1.808-.006,3.616-.006,5.642,1.588-1.791,2.98-3.361,4.379-4.938q1.991,2.197-.712,3.177c-.106.038-.26-.028-.348.027-1.041.644.802,2.802-1.656,2.965-.557.037-1.164,2.007-1.42,3.16-.28,1.259-.468,2.676-.159,3.887.293,1.151,1.76,2.115-.01,3.223.567.858,1.336,2.525,1.669,2.442,2.155-.538,2.776,1.541,4.171,2.201,1.27.601,2.218,1.851,3.386,2.708,2.875,2.109,4.946,5.11,7.991,7.038,3.049,1.931,5.922,4.16,9.06,5.923,1.574.884,3.567,1.023,5.809,1.615-1.053.589-1.885,1.054-2.673,1.495-1.55-.861-3.079-2.161-4.824-2.596-5.489-1.368-9.619-4.757-13.436-8.588-2.958-2.969-6.052-5.684-10.226-7.667v8.91c0,5.333-.216,10.679.098,15.993.141,2.389-1.199,4.323-1.168,6.592.003.195-.991.403-1.484.591-1.391-2.758-.242-5.333-.093-7.749.283-4.572.68-4.537-.268-8.785-.212-.949-.081-1.978-.082-2.97-.006-4.666-.003-9.333-.003-14.081-1.058-.529-2.148-1.075-3.293-1.647-4.999,8.266-11.13,15.536-17.457,22.994-.124-.295-.368-.878-.787-1.879,1.348-1.875,2.738-4.867,5.042-6.729,2.521-2.038,3.143-5.247,5.759-7.194,2.251-1.676,2.823-4.91,4.809-7.09,2.093-2.297,3.775-4.969,5.896-7.826-.479-1.857,1.07-4.429-.921-6.578,1.858-2.148.507-4.723,1.156-7.576-1.288.236-2.421.174-3.251.644-2.819,1.599-6.074,1.441-9.07,2.176-2.723.668-5.226,2.236-8.12,2.207-2.517,2.377-6.349,1.569-8.966,3.703-1.708-.717-2.91.19-4.211,1.142-.746.545-1.499.149-3.629-1.311,3.545-1.215,7.054-2.101,10.273-3.609,3.379-1.582,6.954-2.872,10.434-3.686,3.632-.849,7.205-2.487,11.118-2.3,1.176.056,2.469-.443,3.559-.988.984-.492,1.75-1.256,1.704-2.695-.127-3.973-.044-7.953-.044-11.828.988-.476,1.798-.867,2.951-1.423-.336,1.588-.79,3.028-.914,4.497-.155,1.821-.037,3.665-.037,5.498v5.049Z"/>
  <path class="cls-1" d="m406.949,4.115c1.879-.372,2.961-.069,3.043,1.657.355.092.703.309.95.226,2.902-.966,5.774-1.957,8.935-1.414,1.236.212,2.316-1.315,3.798-.257,1.071.765,2.446,1.19,3.748,1.493.404.094.732-1.368,1.438.218,1.547,3.475,3.142,6.806,2.992,10.792-.082,2.181,1.444,4.257.928,6.581,1.559,1.261.897,3.016.982,4.585.082,1.495-.006,2.998.024,4.497.031,1.588,1.327,2.848,1.045,4.592-.236,1.454-.502,3.235.123,4.402.618,1.153.033,2.265.71,3.413.74,1.253-.53,3.262,1.042,4.546-1.588,1.572.577,3.005.159,4.661-.396,1.566-.085,3.311-.085,4.977s-.102,3.34.022,4.997c.228,3.036-.253,6.028.801,9.144.846,2.503.075,5.541,1.094,8.228.11.291.079.642.08.965.006,1.999.393,4.103-.107,5.969-.499,1.86,1.701,3.449.156,5.18,1.854,1.606.725,3.732.91,5.607.195,1.98.347,4.056-.043,5.976-.374,1.843,1.246,3.433.238,5.253-.814,1.469.985,2.929.193,4.462,1.507,1.136-1.189,1.608-.423,2.861.438.717.079,1.921.079,3.201-5.076.626-4.868-4.183-6.952-6.456,2.363-2.072,1.389,1.728,2.915,1.621,2.114-.148.197,2.356,1.567,2.898.817-5.388.62-10.721-.443-15.417-.214-.947-.083-1.977-.085-2.968-.007-3.832.083-7.667-.049-11.494-.047-1.371-.76-2.709-.916-4.09-.168-1.481-.038-2.995-.038-4.494,0-1.333.543-3.184-.123-3.881-1.094-1.145.518-2.614-.877-3.373,0-3.665.133-7.337-.031-10.995-.241-5.364-1.23-10.665-1.114-16.085.034-1.56-1.27-3.355-.786-5.061.467-1.649-1.716-3.098-.124-4.666-1.7-1.446-.587-3.416-.96-5.103-1.492-6.748-1.411-13.765-3.823-20.398-.627-1.725-1.737-2.636-2.647-3.943h-3.474c-1.166,0-2.347-.116-3.495.031-1.244.16-2.567-.547-3.777.587-.503.471-1.611-.733-2.504.47-.546.735-1.921.855-3.265,1.386,0,2.355-.256,5.017.075,7.604.308,2.404-2.396,4.45-.632,6.894,2.324.186,3.392-2.628,5.56-2.407,2.184.223,2.981-3.749,5.6-1.668,1.885-1.123,3.814-2.089,6.674-1.815-1.483,1.842-2.973,2.652-4.845,2.925-2.338.341-4.533.851-6.519,2.433-1.25.996-3.134,1.197-4.688,1.738-.728,1.956.814,4.507-1.805,5.733-1.395-1.85-1.058-1.911-1.823-6.122-.399-2.194-.533-4.325-.583-6.499-.058-2.498-.719-5.296.179-7.416.959-2.266.395-4.454.975-6.779Z"/>
  <path class="cls-1" d="m353.782,91.919h-2v-21.439c1.822-4.069.706-8.373.991-12.564.084-1.237-.22-2.55.881-3.525-1.777-1.145-.152-2.115.085-3.227.706-3.305,1.533-6.642,1.021-10.055-.643-4.286,1.466-8.317,1.022-12.567-.117-1.118.186-2.603-.419-3.279-1.24-1.384,1.171-1.659.539-2.94-.342-.693.568-1.987.874-3.022.35-1.184-.009-5.589-.619-7.397-.576-1.708-.604-1.7,1.005-3.765,2.085.746,1.134,2.729,1.74,4.024.634,1.357,1.345,2.334-.827,4.129,1.906-.381,3.121-.25,3.613-.784,2.927-3.172,3.837-3.334,7.237-.873.485.351,1.125.487,1.857.79,0,2.068-.597,4.459.164,6.283.795,1.903-1.128,3.598.163,5.08,1.642,1.884-.181,4.211,1.169,6.31.714-.277,1.478-.574,2.347-.912.797,2.619-2.193,1.694-2.855,3.146-.587,1.287-1.923,2.436-3.658,2.976-1.446.45-1.966,2.363-3.809,2.88-1.176.33-2.42,1.465-3.288,2.886-.7,1.146-2.565,1.579-4.162,2.468-.364,2.028.104,4.403-.948,6.752-.864,1.93.292,4.353-.995,6.592-.719,1.251-.298,3.274-.099,4.913.679,5.595-1.542,10.994-1.013,16.559.111,1.164.998,2.622.558,3.384-.664,1.149-.494,2.186-.558,3.278-.075,1.281-.018,2.57-.018,3.9Zm3.411-47.774c3.399-3.618,6.978-6.407,11.322-8.141,1.117-.446,1.828-3.13,1.559-4.248-.461-1.92-1.92-2.782-3.013-3.851-1.742.724-3.107,1.489-4.572,1.844-1.513.367-3.122.337-4.707.482,0,2.549.244,4.889-.071,7.151-.297,2.138-1.578,4.149-.519,6.762Zm12.555-15.189c-.452-3.252-.753-5.098-.947-6.956-.103-.983.094-2.002-.041-2.977-.296-2.137-1.943-3.993-3.404-4.004-1.059-.008-6.399,4.058-6.569,5.01-.029.161-.004.331-.004.496,0,1.491.13,2.997-.039,4.468-.148,1.289-.63,2.54-.952,3.761,2.187-.637,4.235-.887,5.915-1.808,2.332-1.278,4.121-1.324,6.043,2.009Z"/>
  <path class="cls-1" d="m212.561,65.697c-1.049-.213-2.035-.721-2.408-.433-1.309,1.008-2.534,2.191-3.547,3.497-.926,1.194-3.112,1.055-3.157,3.09-5.909,4.314-10.303,10.346-16.407,14.454-1.325.892-1.944,2.528-3.222,3.588-1.005.834-1.648,2.103-2.468,3.199-.629-.629-.983-.983-1.374-1.374.085-.21.113-.52.281-.656,2.782-2.25,4.518-5.694,8.057-7.079.875-2.626,3.165-4.09,4.979-5.914,1.339-1.346,2.979-2.392,4.484-3.572-.556-2.495,2.354-1.991,3.146-3.596.761-1.542,2.679-2.557,4.184-3.676,1.407-1.045,1.992-3.164,4.162-3.205,1.366-2.793,4.612-3.569,6.421-6.105,1.034-1.45,3.873-1.612,6.292-2.498-2.077-.519-3.632-.495-5.501.288-3.973,1.665-8.271,2.549-11.911,5.022-2.614-.372-4.551,1.313-6.383,2.598-1.108.777-1.518-.442-2.211-.009-.924.578-1.832,1.193-2.801,1.686-.819.417-1.725.658-2.573,1.023-1.414.609-2.812,1.255-4.216,1.885l-7.622,2.109c-.519.309-1.039.619-1.644.979-.21-.595-.372-1.195-.636-1.746-.136-.283-.454-.48-.698-.724.837.008.563-2.189,2.151-.985.416.315,1.58-.563,2.355-.479,2.232.243,3.924-.814,5.791-1.774,3.556-1.827,7.136-3.978,10.961-4.793,2.94-.626,5.384-2.749,8.509-2.481.165.014.383.071.492-.008,3.786-2.725,8.311-3.323,12.662-4.426,2.711-.687,5.388-1.547,8.132-2.037.934-.167,2.028.562,3.985,1.174-1.421.731-2.442.959-2.497,1.332-.329,2.2-3.792-.462-3.551,2.374-1.29.198-2.756.068-3.837.652-3.689,1.995-7.277,4.207-8.384,8.618Z"/>
  <path class="cls-1" d="m385.782,72.916h-2.578c-1.616-1.011,1.733-2.645-.541-3.515-.117-.118-.235-.236-.352-.353-1.137,2.283-4.222,1.455-5.546,3.465-.156.237-.514.342-1.54.987-.573-.603-1.284-1.351-2.3-2.42,3.697-1.651,6.596-2.946,9.682-4.325v-10.988c-2.948,3.413-7.126,3.349-10.648,5.197v-2.539c2.182-1.042,4.811-1.27,7.101-2.947,2.013-1.475,5.16-1.345,7.301-2.714,2.824-1.805,6.254-1.829,9.08-3.729.502.711,1.041,1.473,1.664,2.354-3.627,1.28-6.945,2.482-10.287,3.615-1.186.402-2.088,1.005-2.017,2.349.117,2.22-.579,4.545.939,6.613.299.407.043,1.221.043,3.148,2.011-3.951,5.221-2.706,7.488-4.042,1.231-.726,2.451.347,3.533.978.432.252,1.015.971.916,1.279-.395,1.219-1.112-.132-1.188-.059-1.336,1.292-2.367-.662-3.633-.274-1.921.589-3.354,2.353-5.656,2.171-.424-.034-1.204,1.42-1.402,2.284-.246,1.077-.059,2.254-.059,3.465Z"/>
  <path class="cls-1" d="m568.538,67.341c-.589-.206-.566-1.306-2.072-.716-2.817,1.105-5.949,1.503-9.077,1.418-1.9-.052-3.695.241-5.616.839-4.775,1.486-9.624,2.559-13.499,6.051-.466.42-1.532.172-2.613.257.459.556.764.853.981,1.205.406.657.762,1.346,1.138,2.022-.396.201-1.022.668-1.149.558-.685-.593-1.615-1.253-1.775-2.031-.333-1.614.054-2.915,1.807-3.997,4.682-2.89,9.447-5.277,15.009-6.036,1.495-.204,3.078-1.437,4.553-.805,1.553.665,2.811-1.983,4.198-.087,1.788-.502,3.658-.824,5.33-1.58.886-.401,1.979,1.334,2.503-.396,1.062,1.51,1.953.843,3.21.069.801-.493,2.152-.092,3.894-.092-.687,1.069-.991,1.938-1.285,1.934-1.88-.022-2.439,1.072-3.504,2.501-2.193,2.941-3.639,6.596-7.036,8.607-.554.328-.862,1.185-1.134,1.858-.956,2.365-3.187,3.041-5.819,4.854,1.053-2.025,1.879-3.098,2.173-4.301.42-1.715,2.856-.563,3.15-2.644.151-1.071,1.588-1.986,2.499-2.917.88-.899-.461-2.991,2.029-3.235.805-.079,1.413-2.176,2.102-3.335Z"/>
  <path class="cls-1" d="m214.585,62.019c1.029,0,1.864.045,2.692-.01,1.399-.093,2.33.786,2.439,1.884.267,2.689,1.534,5.065,2.21,7.611,1.283,4.832,3.446,9.415,8.922,11.083.442.135.881.418,1.318.411,4.321-.067,8.713.6,12.806-1.608,1.483-.8,3.338-.44,4.959-1.292,1.301-.684,2.973-.66,4.531-.959-.249,2.193-2.341,2.351-3.643,2.785-5.879,1.959-11.831,3.703-18.194,3.143-1.982-.174-3.553-.412-5.315-1.783-2.559-1.99-5.28-3.492-5.881-7.062-.145-.858-.761-1.744-1.394-2.387-.857-.872-1.428-1.706-1.267-2.994.396-3.163-.941-5.609-3.273-7.627-.341-.296-.563-.73-.911-1.195Z"/>
  <path class="cls-1" d="m191.215,45.426c1.176,1.599,1.992,2.709,3.055,4.154-2.744.098-4.073-1.439-5.216-2.931-.396-.516-.037-1.809.291-2.619.266-.656.969-1.409,1.71-.239,1.541-2.367,4.883-.929,6.514-3.07,1.096-1.439,2.809-.18,4.075-1.022,1.018-.677,2.134-1.415,3.297-1.624,2.822-.508,5.694-.752,8.553-1.041.987-.1,2.016.119,2.986-.042,2.423-.404,3.981.738,5.452,3.027-.864,0-1.503.121-2.08-.019-5.01-1.211-4.955-.73-10.662-.144-4.235.435-7.791,2.006-11.494,3.678-1.894.856-4.022,1.195-6.48,1.892Z"/>
  <path class="cls-1" d="m410.543,65.28c.458.458.81.81,1.297,1.297-.463.166-.864.273-1.234.447-3.336,1.563-6.762,2.954-10.105,4.475-3.327,1.513-6.581,3.303-10.046,4.583-1.425.526-2.728,1.604-3.849,2.678-1.595,1.528-3.684,1.578-5.575,2.2-.281.093-.827-.617-1.25-.955.267-.328.469-.796.814-.958.83-.389,1.94-.406,2.558-.981,2.115-1.967,4.927-2.632,7.26-4.167,2.203-1.449,4.567-2.468,7.122-3.26,2.311-.717,4.371-2.245,6.542-3.416,1.388,1.278,1.913-.28,2.841-.771,1.049-.554,2.283-.758,3.625-1.172Z"/>
  <path class="cls-1" d="m511.364,54.561c-2.131.66-3.743,1.02-5.243,1.649-5.994,2.514-11.537,5.906-17.111,9.198-1.76,1.039-3.143,2.505-5.402,2.711-.926.084-1.751,1.274-2.874,2.159-.598-.515-1.186-1.021-1.799-1.548.124-.253.186-.631.356-.689,5.322-1.809,9.814-5.193,14.697-7.822,3.676-1.979,7.13-4.254,11.288-5.284,2.811-.697,2.737-1.017,6.087-.374Z"/>
  <path class="cls-1" d="m486.315,88.862h-3.747c.319-.796.395-1.639.76-1.791,2.161-.903,3.915-2.095,5.215-4.19.892-1.437,2.198-2.828,4.095-3.219-.012-2.086,1.964-2.164,3.076-3.153,2.299-2.044,4.393-4.317,6.644-6.568.204.531.493.968.398,1.082-2.002,2.387-4.001,4.767-6.14,7.047-3.422,3.648-7.974,6.241-10.3,10.791Z"/>
  <path class="cls-1" d="m563.625,87.913c-2.203,1.42-3.434,2.749-4.841,2.974-1.5.24-2.531,1.247-3.896,1.509-1.554.298-3.172.332-4.684.759-1.315.371-2.918,1.934-3.692,1.551-1.683-.833-2.696.859-4.207.399-1.337-.407-2.896-.085-4.796-.085.375-.946.581-1.465.787-1.985,1.561,1.609,3.064-.3,4.678-.156,1.56.139,3.389-.615,4.782-1.485.951-.594,1.548,1.454,2.174-.024,3.343-.221,6.379-1.231,9.212-3.095.809-.532,2.178-.213,4.481-.361Z"/>
  <path class="cls-1" d="m423.898,28.519c-.837.55-1.5,1.226-2.294,1.465-3.402,1.023-6.753,2.103-10.009,3.593-2.033.93-3.137,2.001-2.758,4.729-2.098-.855-3.915-1.109-4.97-2.83,2.074-1.082,4.413-1.826,6.106-3.308,2.021-1.769,4.491-2.3,6.773-3,2.121-.651,4.427-2.178,7.152-.65Z"/>
  <path class="cls-1" d="m344.499,34.144c-2.217-.685-4.328-1.866-6.743-.676-2.186,1.077-4.553,1.835-6.902,2.52-2.567.749-2.227,4.162-4.9,4.926v-3.574c.227-.066.836-.052,1.076-.342,3.07-3.717,7.929-4.154,11.75-6.477.015-.009,3.996.49,4.018.498,1.281.481,2.374,1.078,1.701,3.125Z"/>
  <path class="cls-1" d="m341.865,60.39c-.195.877-.099,2.176-.642,2.552-1.538,1.063-2.698,2.232-3.498,3.975-.77,1.678-1.84,3.292-3.076,4.666-2.235,2.484-4.837,4.65-5.964,7.973-.09.266-.878.507-1.241.404-.299-.085-.621-.697-.623-1.076-.003-.6.062-1.376.429-1.776,4.309-4.708,7.737-10.112,11.894-14.935.646-.75,1.396-1.41,2.098-2.112.208.11.415.221.623.331Z"/>
  <path class="cls-1" d="m341.849,55.376c-1.359,1.64-2.494-1.336-3.467.543-1.244-1.512-2.363.292-3.609.231-1.052-.052-2.145,1.068-3.246,1.616-2.884,1.433-5.781,2.84-8.679,4.245-.134.065-.327.008-.919.008.125-.712.09-1.837.374-1.925,3.465-1.069,6.273-3.372,9.247-5.218,2.227-1.383,4.946.274,6.72-1.845,1.175.77,2.35,1.54,3.579,2.345Z"/>
  <path class="cls-1" d="m480.782,37.561v-2.072c.101-.092.224-.302.344-.3,3.824.072,7.461-2.129,11.364-.937.28.086.477.654.709.652,2.262-.019,1.521,1.532,1.462,3.005-1.385-.66-2.625-1.583-3.984-1.821-2.207-.386-4.566-.242-6.454,1.089-1.228.865-2.184,1.257-3.44.383Z"/>
  <path class="cls-1" d="m526.594,79.748c1.487-1.561,2.221-.278,2.879.504,1.606,1.909,3.096,3.917,4.454,5.657.957-.409,1.553-.881,2.068-.805.325.048.529.916.787,1.416-1.238-.372-1.665,1.697-3.533.721-1.983-1.035-3.483-2.088-4.487-4.035-.629-1.221-1.458-2.339-2.168-3.458Z"/>
</svg>