<?xml version="1.0" encoding="UTF-8"?>
<svg id="_レイヤー_1" data-name="レイヤー 1" xmlns="http://www.w3.org/2000/svg" viewBox="0 0 595.28 110.55">
  <defs>
    <style>
      .cls-1 {
        fill: #2b75ae;
      }
    </style>
  </defs>
  <path class="cls-1" d="m53.91,85.01L.09,64.11v-12.8l.14-.05,53.68-20.84v12.51l-39.5,14.79,39.5,14.79v12.51ZM.53,63.81l52.95,20.56v-11.58l-40.3-15.09,40.3-15.09v-11.58L.53,51.6v12.21Z"/>
  <path class="cls-1" d="m67.28,110.04h-13.43L92.22.52h13.43l-38.37,109.52Zm-12.82-.43h12.51L105.04.95h-12.51l-38.06,108.66Z"/>
  <path class="cls-1" d="m130.23,98.46h-15.49V16.96h33.57c7.18,0,13.42,1.18,18.56,3.49h0c5.15,2.32,9.17,5.7,11.96,10.04,2.79,4.34,4.2,9.56,4.2,15.52s-1.41,11.18-4.2,15.52c-2.79,4.34-6.81,7.72-11.96,10.04-5.14,2.32-11.38,3.49-18.56,3.49h-18.08v23.39Zm-15.05-.43h14.62v-23.39h18.51c7.11,0,13.3-1.16,18.38-3.46,5.07-2.29,9.03-5.61,11.78-9.88,2.74-4.27,4.13-9.41,4.13-15.29s-1.39-11.02-4.13-15.29c-2.74-4.27-6.71-7.59-11.78-9.88-5.08-2.29-11.27-3.46-18.38-3.46h-33.14v80.63Zm32.44-35.7h-17.82V29.7h17.82c6.66,0,11.75,1.42,15.13,4.22,3.39,2.81,5.12,6.88,5.12,12.09s-1.72,9.19-5.11,12.04h0c-3.38,2.84-8.47,4.28-15.14,4.28Zm-17.39-.43h17.39c6.56,0,11.56-1.41,14.86-4.18h0c3.29-2.76,4.96-6.7,4.96-11.7s-1.67-9.04-4.96-11.76c-3.3-2.73-8.3-4.12-14.86-4.12h-17.39v31.76Z"/>
  <path class="cls-1" d="m223.23,99.27c-6.88,0-12.97-1.39-18.11-4.14-5.15-2.75-9.19-6.57-12.01-11.37-2.82-4.8-4.26-10.33-4.26-16.44s1.39-11.74,4.14-16.49c2.75-4.76,6.59-8.55,11.43-11.26,4.84-2.71,10.42-4.08,16.61-4.08s11.48,1.33,16.2,3.96h0c4.72,2.63,8.49,6.4,11.2,11.2,2.71,4.8,4.08,10.52,4.08,17.01,0,.61-.02,1.32-.06,2.1-.04.78-.1,1.52-.17,2.21l-.02.19h-48.45c.4,2.01,1.11,3.89,2.12,5.58,1.67,2.81,4.05,5,7.09,6.52,3.04,1.52,6.59,2.29,10.56,2.29,3.43,0,6.56-.54,9.3-1.61,2.73-1.06,5.2-2.76,7.33-5.04l.16-.18,8.04,9.24-.12.14c-2.79,3.25-6.34,5.79-10.56,7.53-4.21,1.74-9.09,2.62-14.5,2.62Zm-2.2-63.35c-6.11,0-11.63,1.35-16.4,4.03-4.77,2.67-8.56,6.41-11.27,11.09-2.71,4.69-4.08,10.17-4.08,16.28s1.41,11.49,4.2,16.22c2.78,4.73,6.77,8.5,11.84,11.21,5.08,2.71,11.1,4.09,17.91,4.09,5.35,0,10.17-.87,14.34-2.59,4.09-1.69,7.55-4.14,10.28-7.27l-7.48-8.6c-2.14,2.24-4.6,3.92-7.33,4.98-2.79,1.09-5.97,1.64-9.46,1.64-4.03,0-7.65-.79-10.75-2.34-3.11-1.56-5.56-3.8-7.27-6.68-1.08-1.81-1.82-3.82-2.22-5.98l-.05-.26h48.59c.06-.63.12-1.3.15-2,.04-.77.06-1.47.06-2.07,0-6.41-1.35-12.07-4.02-16.8-2.67-4.73-6.38-8.44-11.03-11.03h0c-4.66-2.59-10.04-3.91-15.99-3.91Zm17.81,26.64h-35.66l.03-.25c.33-2.36,1.02-4.51,2.05-6.39h0c1.52-2.76,3.65-4.95,6.33-6.51,2.69-1.56,5.86-2.35,9.43-2.35s6.63.79,9.32,2.35c2.68,1.56,4.83,3.73,6.39,6.45,1.09,1.91,1.79,4.08,2.08,6.45l.03.24Zm-35.16-.43h34.67c-.3-2.22-.97-4.25-1.99-6.05-1.52-2.65-3.61-4.77-6.23-6.29-2.62-1.52-5.68-2.29-9.1-2.29s-6.6.77-9.21,2.29c-2.62,1.52-4.69,3.65-6.17,6.34h0c-.97,1.76-1.63,3.78-1.96,5.99Z"/>
  <path class="cls-1" d="m277.41,98.46h-14.91v-62.27h14.21v8.57c1.75-2.48,4.04-4.5,6.8-6,3.99-2.17,9.03-3.27,14.98-3.27h.22v14.27l-.27-.07c-.6-.15-1.17-.24-1.7-.28-.54-.04-1.08-.06-1.61-.06-5.4,0-9.75,1.6-12.93,4.74-3.19,3.15-4.8,7.91-4.8,14.15v30.21Zm-14.48-.43h14.04v-29.78c0-6.36,1.66-11.22,4.93-14.46,3.27-3.23,7.72-4.87,13.24-4.87.54,0,1.09.02,1.64.06.47.03.98.11,1.51.23v-13.29c-5.78.03-10.68,1.11-14.56,3.22-2.92,1.59-5.29,3.75-7.04,6.44l-.4.61v-9.57h-13.35v61.41Z"/>
  <path class="cls-1" d="m326.99,99.27c-5.16,0-10.19-.68-14.94-2.03-4.75-1.35-8.57-3.02-11.36-4.95l-.15-.11,5.75-11.38.2.13c2.75,1.76,6.08,3.23,9.9,4.38,3.82,1.15,7.7,1.73,11.52,1.73,4.49,0,7.79-.61,9.79-1.82,1.97-1.19,2.96-2.8,2.96-4.79,0-1.63-.65-2.84-1.98-3.7-1.36-.87-3.17-1.54-5.37-2-2.21-.46-4.72-.88-7.46-1.27-2.74-.38-5.51-.91-8.24-1.57-2.74-.66-5.28-1.64-7.53-2.92-2.26-1.28-4.12-3.04-5.52-5.22-1.41-2.19-2.12-5.11-2.12-8.69,0-3.97,1.15-7.46,3.4-10.38,2.25-2.91,5.46-5.19,9.53-6.79,4.06-1.59,8.94-2.39,14.5-2.39,4.16,0,8.43.47,12.67,1.4,4.25.93,7.81,2.26,10.6,3.96l.17.1-5.75,11.39-.2-.12c-2.9-1.75-5.86-2.97-8.79-3.62-2.95-.65-5.91-.98-8.81-.98-4.34,0-7.59.65-9.67,1.94-2.05,1.26-3.08,2.88-3.08,4.8,0,1.79.65,3.1,1.99,3.99,1.37.91,3.17,1.64,5.37,2.17,2.22.54,4.72.98,7.45,1.33,2.74.35,5.49.87,8.19,1.57,2.7.7,5.23,1.66,7.52,2.86h0c2.3,1.21,4.18,2.93,5.58,5.11,1.41,2.19,2.12,5.07,2.12,8.57,0,3.89-1.17,7.33-3.46,10.21-2.29,2.88-5.58,5.14-9.76,6.73-4.18,1.58-9.23,2.39-15.02,2.39Zm-25.89-7.24c2.73,1.86,6.46,3.47,11.07,4.78,4.71,1.34,9.7,2.02,14.82,2.02,5.73,0,10.73-.79,14.86-2.36,4.11-1.56,7.33-3.78,9.58-6.59,2.24-2.8,3.37-6.15,3.37-9.94,0-3.42-.69-6.22-2.05-8.34-1.36-2.12-3.19-3.79-5.42-4.96-2.26-1.18-4.75-2.13-7.42-2.82-2.68-.69-5.42-1.21-8.14-1.56-2.74-.35-5.26-.8-7.49-1.34-2.25-.54-4.1-1.29-5.51-2.23-1.45-.96-2.18-2.43-2.18-4.35,0-2.08,1.11-3.81,3.29-5.16,2.15-1.33,5.48-2,9.9-2,2.93,0,5.93.33,8.91.99,2.91.64,5.85,1.84,8.72,3.55l5.36-10.62c-2.72-1.63-6.19-2.91-10.3-3.81-4.21-.92-8.44-1.38-12.58-1.38-5.5,0-10.33.79-14.34,2.36-4,1.56-7.14,3.8-9.35,6.65-2.2,2.84-3.31,6.25-3.31,10.12,0,3.49.69,6.34,2.05,8.45,1.36,2.12,3.17,3.83,5.37,5.08,2.21,1.26,4.71,2.23,7.41,2.87,2.72.65,5.48,1.18,8.2,1.56,2.75.39,5.27.82,7.48,1.28,2.25.47,4.11,1.16,5.52,2.06,1.45.93,2.18,2.29,2.18,4.06,0,2.16-1.07,3.89-3.17,5.16-2.07,1.25-5.44,1.88-10.01,1.88-3.86,0-7.78-.59-11.64-1.75-3.77-1.13-7.07-2.58-9.81-4.3l-5.37,10.62Z"/>
  <path class="cls-1" d="m391.84,99.27c-6.34,0-12.06-1.39-17.01-4.14-4.95-2.75-8.92-6.57-11.78-11.37-2.86-4.8-4.32-10.33-4.32-16.44s1.45-11.74,4.32-16.5c2.86-4.76,6.82-8.54,11.78-11.25,4.95-2.71,10.67-4.08,17.01-4.08s12.19,1.37,17.18,4.08h0c4.99,2.71,8.95,6.48,11.78,11.2,2.83,4.72,4.26,10.29,4.26,16.56s-1.43,11.64-4.26,16.44c-2.83,4.8-6.79,8.63-11.78,11.37-4.99,2.75-10.77,4.14-17.19,4.14Zm0-63.35c-6.26,0-11.92,1.35-16.8,4.03-4.89,2.67-8.79,6.41-11.61,11.1-2.82,4.69-4.25,10.17-4.25,16.28s1.43,11.49,4.25,16.22c2.82,4.73,6.73,8.5,11.62,11.21,4.88,2.71,10.54,4.08,16.8,4.08s12.05-1.37,16.98-4.08c4.92-2.71,8.83-6.48,11.61-11.21,2.78-4.73,4.2-10.19,4.2-16.22s-1.41-11.68-4.2-16.33c-2.79-4.65-6.69-8.37-11.61-11.04h0c-4.93-2.67-10.64-4.03-16.98-4.03Zm0,50.95c-3.5,0-6.67-.79-9.43-2.34-2.76-1.56-4.99-3.84-6.63-6.8-1.63-2.95-2.46-6.45-2.46-10.41s.83-7.56,2.46-10.47c1.63-2.92,3.86-5.18,6.63-6.74,2.76-1.56,5.97-2.34,9.54-2.34s6.69.79,9.49,2.34c2.8,1.56,5.03,3.83,6.63,6.74,1.59,2.92,2.4,6.44,2.4,10.47s-.81,7.46-2.4,10.41h0c-1.6,2.96-3.83,5.25-6.63,6.8-2.8,1.55-6.03,2.34-9.6,2.34Zm.12-38.68c-3.5,0-6.64.77-9.33,2.29-2.69,1.52-4.87,3.73-6.46,6.58-1.6,2.85-2.4,6.3-2.4,10.26s.81,7.32,2.41,10.2c1.59,2.89,3.77,5.12,6.46,6.63,2.69,1.52,5.79,2.29,9.22,2.29s6.66-.77,9.39-2.29c2.73-1.52,4.9-3.75,6.46-6.63h0c1.56-2.89,2.35-6.32,2.35-10.2s-.79-7.41-2.35-10.26c-1.56-2.84-3.73-5.06-6.46-6.57-2.73-1.52-5.86-2.29-9.28-2.29Z"/>
  <path class="cls-1" d="m496.4,98.46h-14.91v-33.8c0-5.4-1.29-9.48-3.82-12.13-2.53-2.65-6.12-3.99-10.67-3.99-3.35,0-6.35.69-8.93,2.06-2.57,1.36-4.59,3.42-5.99,6.1-1.41,2.7-2.12,6.15-2.12,10.26v31.48h-14.91v-62.27h14.21v7.67c1.85-2.09,4.09-3.82,6.69-5.16,4.14-2.13,8.99-3.21,14.4-3.21,4.95,0,9.44.98,13.36,2.92h0c3.92,1.94,7.05,4.95,9.3,8.95,2.25,3.99,3.39,9.19,3.39,15.45v35.65Zm-14.48-.43h14.04v-35.22c0-6.18-1.12-11.31-3.33-15.24-2.21-3.92-5.27-6.87-9.11-8.77h0c-3.85-1.91-8.28-2.87-13.16-2.87-5.34,0-10.12,1.06-14.2,3.16-2.73,1.4-5.06,3.25-6.94,5.49l-.38.46v-8.42h-13.35v61.41h14.04v-31.05c0-4.19.73-7.71,2.17-10.46,1.44-2.77,3.52-4.88,6.17-6.29,2.64-1.4,5.72-2.11,9.13-2.11,4.67,0,8.37,1.39,10.98,4.12,2.61,2.73,3.94,6.91,3.94,12.42v33.37Z"/>
  <path class="cls-1" d="m541.36,85.01v-12.51l39.5-14.79-39.5-14.79v-12.51l53.82,20.9v12.8l-53.82,20.9Zm.43-12.21v11.58l52.95-20.56v-12.21l-52.95-20.56v11.58l40.3,15.09-40.3,15.09Z"/>
</svg>