<?xml version="1.0" encoding="UTF-8"?>
<svg xmlns="http://www.w3.org/2000/svg" xmlns:xlink="http://www.w3.org/1999/xlink" viewBox="0 0 813 485">
  <defs>
    <style>
      .cls-1 {
        fill: url(#linear-gradient);
      }

      .cls-2 {
        mask: url(#mask);
      }

      .cls-3 {
        filter: url(#luminosity-noclip);
      }

      .cls-4 {
        fill: #131313;
      }

      .cls-5 {
        fill: url(#radial-gradient-2);
        opacity: .4;
      }

      .cls-5, .cls-6 {
        mix-blend-mode: multiply;
      }

      .cls-7 {
        fill: url(#linear-gradient-8);
      }

      .cls-8 {
        fill: url(#linear-gradient-9);
      }

      .cls-9 {
        fill: url(#linear-gradient-3);
      }

      .cls-10 {
        fill: url(#linear-gradient-4);
      }

      .cls-11 {
        fill: url(#linear-gradient-2);
      }

      .cls-12 {
        fill: url(#linear-gradient-6);
      }

      .cls-13 {
        fill: url(#linear-gradient-7);
      }

      .cls-14 {
        fill: url(#linear-gradient-5);
      }

      .cls-6 {
        fill: url(#radial-gradient);
      }

      .cls-15 {
        fill: url(#linear-gradient-10);
      }

      .cls-16 {
        isolation: isolate;
      }

      .cls-17 {
        mask: url(#mask-1);
      }
    </style>
    <filter id="luminosity-noclip" x="63.12" y="458.96" width="686.72" height="26.02" color-interpolation-filters="sRGB" filterUnits="userSpaceOnUse">
      <feFlood flood-color="#fff" result="bg"/>
      <feBlend in="SourceGraphic" in2="bg"/>
    </filter>
    <filter id="luminosity-noclip-2" x="63.12" y="-12610.99" width="686.72" height="32766" color-interpolation-filters="sRGB" filterUnits="userSpaceOnUse">
      <feFlood flood-color="#fff" result="bg"/>
      <feBlend in="SourceGraphic" in2="bg"/>
    </filter>
    <mask id="mask-1" x="63.12" y="-12610.99" width="686.72" height="32766" maskUnits="userSpaceOnUse"/>
    <radialGradient id="radial-gradient" cx="816.37" cy="-79754.07" fx="816.37" fy="-79754.07" r="174.72" gradientTransform="translate(-1349.11 5975) scale(2.15 .07)" gradientUnits="userSpaceOnUse">
      <stop offset="0" stop-color="#fff"/>
      <stop offset=".07" stop-color="#eaeaea"/>
      <stop offset=".42" stop-color="#878787"/>
      <stop offset=".7" stop-color="#3e3e3e"/>
      <stop offset=".9" stop-color="#111"/>
      <stop offset="1" stop-color="#000"/>
    </radialGradient>
    <mask id="mask" x="63.12" y="458.96" width="686.72" height="26.02" maskUnits="userSpaceOnUse">
      <g class="cls-3">
        <g class="cls-17">
          <path class="cls-6" d="m749.84,471.67c0,7.19-122.93,13.31-346.82,13.31s-339.9-5.83-339.9-13.01,116.02-13.01,339.9-13.01,346.82,5.53,346.82,12.71Z"/>
        </g>
      </g>
    </mask>
    <radialGradient id="radial-gradient-2" cx="816.37" cy="-79754.07" fx="816.37" fy="-79754.07" r="174.72" gradientTransform="translate(-1349.11 5975) scale(2.15 .07)" gradientUnits="userSpaceOnUse">
      <stop offset="0" stop-color="#000"/>
      <stop offset="1" stop-color="#000"/>
    </radialGradient>
    <linearGradient id="linear-gradient" x1="406.5" y1="466.08" x2="406.5" y2="452.64" gradientUnits="userSpaceOnUse">
      <stop offset="0" stop-color="#575554"/>
      <stop offset=".46" stop-color="#575554"/>
      <stop offset="1" stop-color="#131313"/>
    </linearGradient>
    <linearGradient id="linear-gradient-2" x1="-6004.01" y1="450.95" x2="-5665.99" y2="450.95" gradientTransform="translate(-5665.52) rotate(-180) scale(1 -1)" gradientUnits="userSpaceOnUse">
      <stop offset="0" stop-color="#767676"/>
      <stop offset="0" stop-color="#6e6e6e"/>
      <stop offset="0" stop-color="#575757"/>
      <stop offset="0" stop-color="#494949"/>
      <stop offset="0" stop-color="#454545"/>
      <stop offset=".01" stop-color="#484848"/>
      <stop offset=".02" stop-color="#525252"/>
      <stop offset=".02" stop-color="#5d5d5d"/>
      <stop offset=".03" stop-color="#7c7c7c"/>
      <stop offset=".4" stop-color="#828282"/>
      <stop offset=".41" stop-color="#828282"/>
      <stop offset=".94" stop-color="#6a6a6a"/>
      <stop offset=".96" stop-color="#474747"/>
      <stop offset=".97" stop-color="#383838"/>
      <stop offset=".98" stop-color="#3c3c3c"/>
      <stop offset=".99" stop-color="#4b4b4b"/>
      <stop offset=".99" stop-color="#636363"/>
      <stop offset="1" stop-color="#7c7c7c"/>
    </linearGradient>
    <linearGradient id="linear-gradient-3" x1="474.47" y1="450.95" x2="812.48" y2="450.95" gradientUnits="userSpaceOnUse">
      <stop offset="0" stop-color="#505050"/>
      <stop offset="0" stop-color="#484848"/>
      <stop offset="0" stop-color="#313131"/>
      <stop offset="0" stop-color="#232323"/>
      <stop offset="0" stop-color="#1f1f1f"/>
      <stop offset=".01" stop-color="#222"/>
      <stop offset=".02" stop-color="#2c2c2c"/>
      <stop offset=".02" stop-color="#373737"/>
      <stop offset=".03" stop-color="#565656"/>
      <stop offset=".4" stop-color="#5e5e5e"/>
      <stop offset=".41" stop-color="#5e5e5e"/>
      <stop offset=".94" stop-color="#444"/>
      <stop offset=".96" stop-color="#212121"/>
      <stop offset=".97" stop-color="#121212"/>
      <stop offset=".98" stop-color="#161616"/>
      <stop offset=".99" stop-color="#252525"/>
      <stop offset=".99" stop-color="#3d3d3d"/>
      <stop offset="1" stop-color="#565656"/>
    </linearGradient>
    <linearGradient id="linear-gradient-4" x1="338.49" y1="451.14" x2="474.47" y2="451.14" gradientUnits="userSpaceOnUse">
      <stop offset="0" stop-color="#565656"/>
      <stop offset=".06" stop-color="#444"/>
      <stop offset=".51" stop-color="#565656"/>
      <stop offset=".94" stop-color="#444"/>
      <stop offset="1" stop-color="#565656"/>
    </linearGradient>
    <linearGradient id="linear-gradient-5" x1="-6004.01" y1="450.25" x2="-5665.99" y2="450.25" gradientTransform="translate(-5665.52) rotate(-180) scale(1 -1)" gradientUnits="userSpaceOnUse">
      <stop offset="0" stop-color="#a6a6a6"/>
      <stop offset="0" stop-color="#8e8e8e"/>
      <stop offset="0" stop-color="#6e6e6e"/>
      <stop offset="0" stop-color="#575757"/>
      <stop offset="0" stop-color="#494949"/>
      <stop offset="0" stop-color="#454545"/>
      <stop offset=".01" stop-color="#484848"/>
      <stop offset=".01" stop-color="#525252"/>
      <stop offset=".02" stop-color="#636363"/>
      <stop offset=".02" stop-color="#757575"/>
      <stop offset=".03" stop-color="#6b6968"/>
      <stop offset=".4" stop-color="#6b6968"/>
      <stop offset=".41" stop-color="#6b6968"/>
      <stop offset=".94" stop-color="#8c8c8c"/>
      <stop offset=".95" stop-color="#636363"/>
      <stop offset=".96" stop-color="#3a3a3a"/>
      <stop offset=".97" stop-color="#2b2b2b"/>
      <stop offset=".98" stop-color="#2f2f2f"/>
      <stop offset=".99" stop-color="#3e3d3d"/>
      <stop offset=".99" stop-color="#565454"/>
      <stop offset="1" stop-color="#6b6968"/>
    </linearGradient>
    <linearGradient id="linear-gradient-6" x1="406.52" y1="446.03" x2="406.52" y2="2.91" gradientUnits="userSpaceOnUse">
      <stop offset="0" stop-color="#504e4e"/>
      <stop offset=".1" stop-color="#575555"/>
      <stop offset=".25" stop-color="#6d6b6b"/>
      <stop offset=".43" stop-color="#908e8e"/>
      <stop offset=".45" stop-color="#959393"/>
      <stop offset="1" stop-color="#7a7878"/>
    </linearGradient>
    <linearGradient id="linear-gradient-7" x1="406.5" y1="23.15" x2="406.5" y2=".02" gradientUnits="userSpaceOnUse">
      <stop offset="0" stop-color="#1a1a1a"/>
      <stop offset=".28" stop-color="#1c1c1c"/>
      <stop offset=".45" stop-color="#242424"/>
      <stop offset=".59" stop-color="#333"/>
      <stop offset=".71" stop-color="#474747"/>
      <stop offset=".82" stop-color="#616161"/>
      <stop offset=".92" stop-color="#818181"/>
      <stop offset="1" stop-color="#9e9e9e"/>
    </linearGradient>
    <linearGradient id="linear-gradient-8" x1="474.47" y1="450.25" x2="812.48" y2="450.25" gradientUnits="userSpaceOnUse">
      <stop offset="0" stop-color="gray"/>
      <stop offset="0" stop-color="#696969"/>
      <stop offset="0" stop-color="#494949"/>
      <stop offset="0" stop-color="#323232"/>
      <stop offset="0" stop-color="#242424"/>
      <stop offset="0" stop-color="#202020"/>
      <stop offset=".01" stop-color="#232323"/>
      <stop offset=".01" stop-color="#2d2d2d"/>
      <stop offset=".02" stop-color="#3e3e3e"/>
      <stop offset=".02" stop-color="#4f4f4f"/>
      <stop offset=".03" stop-color="#6b6968"/>
      <stop offset=".4" stop-color="#6b6968"/>
      <stop offset=".41" stop-color="#6b6968"/>
      <stop offset=".94" stop-color="#686868"/>
      <stop offset=".95" stop-color="#4b4b4b"/>
      <stop offset=".96" stop-color="#222"/>
      <stop offset=".97" stop-color="#131313"/>
      <stop offset=".98" stop-color="#171717"/>
      <stop offset=".98" stop-color="#262625"/>
      <stop offset=".99" stop-color="#3e3d3c"/>
      <stop offset="1" stop-color="#5f5d5d"/>
      <stop offset="1" stop-color="#6b6968"/>
    </linearGradient>
    <linearGradient id="linear-gradient-9" x1="338.49" y1="450.44" x2="474.47" y2="450.44" gradientUnits="userSpaceOnUse">
      <stop offset="0" stop-color="#828080"/>
      <stop offset=".06" stop-color="#6b6968"/>
      <stop offset=".51" stop-color="#828080"/>
      <stop offset=".94" stop-color="#6b6968"/>
      <stop offset="1" stop-color="#828080"/>
    </linearGradient>
    <linearGradient id="linear-gradient-10" x1="149.82" y1="-30.62" x2="663.18" y2="482.74" gradientUnits="userSpaceOnUse">
      <stop offset="0" stop-color="#f1f2f3"/>
      <stop offset=".36" stop-color="#eceded"/>
      <stop offset=".78" stop-color="#dddedf"/>
      <stop offset="1" stop-color="#d4d5d5"/>
    </linearGradient>
  </defs>
  <g class="cls-16">
    <g id="_レイヤー_1" data-name="レイヤー 1">
      <g>
        <g>
          <g class="cls-2">
            <path class="cls-5" d="m749.84,471.67c0,7.19-122.93,13.31-346.82,13.31s-339.9-5.83-339.9-13.01,116.02-13.01,339.9-13.01,346.82,5.53,346.82,12.71Z"/>
          </g>
          <g>
            <path class="cls-1" d="m.47,452.64c28.55,8.91,58.29,13.44,88.19,13.44h635.66c29.91,0,59.64-4.53,88.19-13.44H.47Z"/>
            <g>
              <path class="cls-11" d="m.47,447.81v4.83h327.33c3.23,0,6.43.46,9.57,1.21.37.09.74.17,1.12.24v-6.27H.47Z"/>
              <path class="cls-9" d="m812.48,447.81v4.83h-327.33c-3.23,0-6.43.46-9.57,1.21-.37.09-.74.17-1.12.24v-6.27h338.02Z"/>
              <path class="cls-10" d="m474.47,447.81v6.27c-1.39.26-2.81.39-4.24.39h-127.51c-1.42,0-2.84-.13-4.24-.39v-6.27h135.98Z"/>
            </g>
            <path class="cls-14" d="m.47,447.11v4.83h327.33c3.23,0,6.43.46,9.57,1.21.37.09.74.17,1.12.24v-6.27H.47Z"/>
            <path class="cls-12" d="m718.32,2.91H94.77c-11.17,0-20.23,9.06-20.23,20.23v422.88h2.89V20.25c0-.89.07-1.77.2-2.63.04-.29.09-.57.15-.85.06-.28.12-.56.19-.83.07-.28.15-.55.23-.82.72-2.3,1.9-4.4,3.44-6.18.18-.21.37-.41.56-.61.09-.1.19-.2.29-.3.88-.88,1.86-1.67,2.91-2.34.35-.22.71-.44,1.08-.64.37-.2.74-.39,1.12-.56,0,0,0,0,0,0,.26-.11.51-.22.77-.32,0,0,0,0,0,0,1.96-.77,4.1-1.2,6.34-1.2h623.56c2.98,0,5.79.76,8.24,2.09.37.2.73.41,1.08.64.47.3.92.62,1.35.96h0c.22.18.43.35.64.53t0,0c.31.27.62.56.91.85.1.1.2.2.29.3.19.2.38.4.56.61,2.63,3.03,4.22,6.99,4.22,11.32v425.78h2.93V21.88c-.65-10.58-9.44-18.96-20.19-18.96Z"/>
            <path class="cls-13" d="m74.49,20.25C74.49,9.08,83.55.02,94.72.02h623.56c11.17,0,20.23,9.06,20.23,20.23v1.62c-.66-10.58-9.44-18.96-20.19-18.96H94.77c-11.17,0-20.23,9.06-20.23,20.23l-.04-2.89Z"/>
            <rect x="77.42" y="431.82" width="658.16" height="14.21"/>
            <path d="m735.58,20.25v411.57H77.42V20.25c0-9.54,7.76-17.3,17.3-17.3h623.56c9.54,0,17.3,7.76,17.3,17.3Z"/>
            <path class="cls-7" d="m812.48,447.11v4.83h-327.33c-3.23,0-6.43.46-9.57,1.21-.37.09-.74.17-1.12.24v-6.27h338.02Z"/>
            <path class="cls-8" d="m474.47,447.11v6.27c-1.39.26-2.81.39-4.24.39h-127.51c-1.42,0-2.84-.13-4.24-.39v-6.27h135.98Z"/>
            <polygon class="cls-4" points="738.51 446.03 738.51 447.11 735.58 447.11 735.58 447.11 77.42 447.11 77.42 447.11 74.53 447.11 74.53 446.03 738.51 446.03"/>
          </g>
          <rect class="cls-15" x="91.04" y="28.16" width="630.92" height="395.79"/>
        </g>
        <image width="291" height="34" transform="translate(228.77 205.99) scale(1.18)" xlink:href="../../../../Desktop/レイヤー 1 のコピー.png"/>
      </g>
    </g>
  </g>
</svg>