<?xml version="1.0" encoding="UTF-8"?>
<svg id="_レイヤー_1" data-name="レイヤー 1" xmlns="http://www.w3.org/2000/svg" xmlns:xlink="http://www.w3.org/1999/xlink" viewBox="0 0 336 283.97">
  <defs>
    <style>
      .cls-1 {
        fill: url(#linear-gradient);
      }

      .cls-2 {
        fill: #edf8f6;
      }

      .cls-3 {
        fill: #172739;
      }

      .cls-4 {
        fill: #6bc2c4;
      }

      .cls-5 {
        fill: #57b2b1;
      }

      .cls-6 {
        fill: url(#linear-gradient-8);
      }

      .cls-7 {
        fill: url(#linear-gradient-9);
      }

      .cls-8 {
        fill: url(#linear-gradient-3);
      }

      .cls-9 {
        fill: url(#linear-gradient-4);
      }

      .cls-10 {
        fill: url(#linear-gradient-2);
      }

      .cls-11 {
        fill: url(#linear-gradient-6);
      }

      .cls-12 {
        fill: url(#linear-gradient-7);
      }

      .cls-13 {
        fill: url(#linear-gradient-5);
      }

      .cls-14 {
        fill: url(#linear-gradient-41);
      }

      .cls-15 {
        fill: url(#linear-gradient-40);
      }

      .cls-16 {
        fill: url(#linear-gradient-43);
      }

      .cls-17 {
        fill: url(#linear-gradient-42);
      }

      .cls-18 {
        fill: url(#linear-gradient-45);
      }

      .cls-19 {
        fill: url(#linear-gradient-46);
      }

      .cls-20 {
        fill: url(#linear-gradient-44);
      }

      .cls-21 {
        fill: url(#linear-gradient-49);
      }

      .cls-22 {
        fill: url(#linear-gradient-47);
      }

      .cls-23 {
        fill: url(#linear-gradient-48);
      }

      .cls-24 {
        fill: url(#linear-gradient-14);
      }

      .cls-25 {
        fill: url(#linear-gradient-18);
      }

      .cls-26 {
        fill: url(#linear-gradient-22);
      }

      .cls-27 {
        fill: url(#linear-gradient-20);
      }

      .cls-28 {
        fill: url(#linear-gradient-21);
      }

      .cls-29 {
        fill: url(#linear-gradient-23);
      }

      .cls-30 {
        fill: url(#linear-gradient-15);
      }

      .cls-31 {
        fill: url(#linear-gradient-19);
      }

      .cls-32 {
        fill: url(#linear-gradient-16);
      }

      .cls-33 {
        fill: url(#linear-gradient-17);
      }

      .cls-34 {
        fill: url(#linear-gradient-13);
      }

      .cls-35 {
        fill: url(#linear-gradient-12);
      }

      .cls-36 {
        fill: url(#linear-gradient-10);
      }

      .cls-37 {
        fill: url(#linear-gradient-11);
      }

      .cls-38 {
        fill: url(#linear-gradient-27);
      }

      .cls-39 {
        fill: url(#linear-gradient-24);
      }

      .cls-40 {
        fill: url(#linear-gradient-26);
      }

      .cls-41 {
        fill: url(#linear-gradient-38);
      }

      .cls-42 {
        fill: url(#linear-gradient-35);
      }

      .cls-43 {
        fill: url(#linear-gradient-37);
      }

      .cls-44 {
        fill: url(#linear-gradient-34);
      }

      .cls-45 {
        fill: url(#linear-gradient-39);
      }

      .cls-46 {
        fill: url(#linear-gradient-36);
      }

      .cls-47 {
        fill: url(#linear-gradient-25);
      }

      .cls-48 {
        fill: url(#linear-gradient-28);
      }

      .cls-49 {
        fill: url(#linear-gradient-29);
      }

      .cls-50 {
        fill: url(#linear-gradient-33);
      }

      .cls-51 {
        fill: url(#linear-gradient-30);
      }

      .cls-52 {
        fill: url(#linear-gradient-32);
      }

      .cls-53 {
        fill: url(#linear-gradient-31);
      }
    </style>
    <linearGradient id="linear-gradient" x1=".08" y1="187.45" x2="139.47" y2="187.45" gradientUnits="userSpaceOnUse">
      <stop offset="0" stop-color="#dbeae8"/>
      <stop offset="1" stop-color="#b8d6d5"/>
    </linearGradient>
    <linearGradient id="linear-gradient-2" x1="64.77" y1="187.45" x2="139.47" y2="187.45" gradientUnits="userSpaceOnUse">
      <stop offset="0" stop-color="#9bbebb"/>
      <stop offset="1" stop-color="#aecbcc"/>
    </linearGradient>
    <linearGradient id="linear-gradient-3" x1=".08" y1="131.45" x2="139.47" y2="131.45" gradientUnits="userSpaceOnUse">
      <stop offset="0" stop-color="#b8d6d5"/>
      <stop offset="1" stop-color="#dbeae8"/>
    </linearGradient>
    <linearGradient id="linear-gradient-4" x1="119.07" y1="231.88" x2="133.48" y2="231.88" gradientUnits="userSpaceOnUse">
      <stop offset="0" stop-color="#4a9097"/>
      <stop offset="1" stop-color="#326a79"/>
    </linearGradient>
    <linearGradient id="linear-gradient-5" x1="132.05" y1="227.74" y2="227.74" xlink:href="#linear-gradient-4"/>
    <linearGradient id="linear-gradient-6" x1="71.15" y1="259.56" x2="85.57" y2="259.56" xlink:href="#linear-gradient-4"/>
    <linearGradient id="linear-gradient-7" x1="84.13" y1="255.43" x2="85.57" y2="255.43" xlink:href="#linear-gradient-4"/>
    <linearGradient id="linear-gradient-8" x1="20.11" y1="237.9" x2="64.73" y2="237.9" xlink:href="#linear-gradient-4"/>
    <linearGradient id="linear-gradient-9" x1="20.11" y1="224.83" x2="21.21" y2="224.83" xlink:href="#linear-gradient-4"/>
    <linearGradient id="linear-gradient-10" x1="4.43" y1="219.09" x2="15.75" y2="219.09" xlink:href="#linear-gradient-4"/>
    <linearGradient id="linear-gradient-11" x1="4.43" y1="215.67" x2="5.53" y2="215.67" xlink:href="#linear-gradient-4"/>
    <linearGradient id="linear-gradient-12" x1="64.73" y1="236.74" x2="113.63" y2="236.74" xlink:href="#linear-gradient-4"/>
    <linearGradient id="linear-gradient-13" x1="112.2" y1="222.52" x2="113.63" y2="222.52" xlink:href="#linear-gradient-4"/>
    <linearGradient id="linear-gradient-14" y1="215.18" y2="215.18" xlink:href="#linear-gradient-4"/>
    <linearGradient id="linear-gradient-15" x1="132.05" y1="211.04" y2="211.04" xlink:href="#linear-gradient-4"/>
    <linearGradient id="linear-gradient-16" x1="20.11" y1="221.2" x2="64.73" y2="221.2" xlink:href="#linear-gradient-4"/>
    <linearGradient id="linear-gradient-17" x1="20.11" y1="208.13" x2="21.21" y2="208.13" xlink:href="#linear-gradient-4"/>
    <linearGradient id="linear-gradient-18" x1="4.43" y1="202.39" x2="15.75" y2="202.39" xlink:href="#linear-gradient-4"/>
    <linearGradient id="linear-gradient-19" x1="4.43" y1="198.97" x2="5.53" y2="198.97" xlink:href="#linear-gradient-4"/>
    <linearGradient id="linear-gradient-20" x1="64.73" y1="220.04" x2="113.63" y2="220.04" xlink:href="#linear-gradient-4"/>
    <linearGradient id="linear-gradient-21" x1="112.2" y1="205.82" x2="113.63" y2="205.82" xlink:href="#linear-gradient-4"/>
    <linearGradient id="linear-gradient-22" y1="198.48" y2="198.48" xlink:href="#linear-gradient-4"/>
    <linearGradient id="linear-gradient-23" x1="132.05" y1="194.34" y2="194.34" xlink:href="#linear-gradient-4"/>
    <linearGradient id="linear-gradient-24" x1="20.11" y1="204.5" x2="64.73" y2="204.5" xlink:href="#linear-gradient-4"/>
    <linearGradient id="linear-gradient-25" x1="20.11" y1="191.44" x2="21.21" y2="191.44" xlink:href="#linear-gradient-4"/>
    <linearGradient id="linear-gradient-26" x1="4.43" y1="185.69" x2="15.75" y2="185.69" xlink:href="#linear-gradient-4"/>
    <linearGradient id="linear-gradient-27" x1="4.43" y1="182.27" x2="5.53" y2="182.27" xlink:href="#linear-gradient-4"/>
    <linearGradient id="linear-gradient-28" x1="64.73" y1="203.34" x2="113.63" y2="203.34" xlink:href="#linear-gradient-4"/>
    <linearGradient id="linear-gradient-29" x1="112.2" y1="189.13" x2="113.63" y2="189.13" xlink:href="#linear-gradient-4"/>
    <linearGradient id="linear-gradient-30" y1="181.78" y2="181.78" xlink:href="#linear-gradient-4"/>
    <linearGradient id="linear-gradient-31" x1="132.05" y1="177.64" y2="177.64" xlink:href="#linear-gradient-4"/>
    <linearGradient id="linear-gradient-32" x1="20.11" y1="187.8" x2="64.73" y2="187.8" xlink:href="#linear-gradient-4"/>
    <linearGradient id="linear-gradient-33" x1="20.11" y1="174.73" x2="21.21" y2="174.73" xlink:href="#linear-gradient-4"/>
    <linearGradient id="linear-gradient-34" x1="4.43" y1="168.99" x2="15.75" y2="168.99" xlink:href="#linear-gradient-4"/>
    <linearGradient id="linear-gradient-35" x1="4.43" y1="165.57" x2="5.53" y2="165.57" xlink:href="#linear-gradient-4"/>
    <linearGradient id="linear-gradient-36" x1="64.73" y1="186.64" x2="113.63" y2="186.64" xlink:href="#linear-gradient-4"/>
    <linearGradient id="linear-gradient-37" x1="112.2" y1="172.43" x2="113.63" y2="172.43" xlink:href="#linear-gradient-4"/>
    <linearGradient id="linear-gradient-38" y1="165.08" y2="165.08" xlink:href="#linear-gradient-4"/>
    <linearGradient id="linear-gradient-39" x1="132.05" y1="160.94" y2="160.94" xlink:href="#linear-gradient-4"/>
    <linearGradient id="linear-gradient-40" x1="20.11" y1="171.1" x2="64.73" y2="171.1" xlink:href="#linear-gradient-4"/>
    <linearGradient id="linear-gradient-41" x1="20.11" y1="158.04" x2="21.21" y2="158.04" xlink:href="#linear-gradient-4"/>
    <linearGradient id="linear-gradient-42" x1="4.43" y1="152.3" x2="15.75" y2="152.3" xlink:href="#linear-gradient-4"/>
    <linearGradient id="linear-gradient-43" x1="4.43" y1="148.87" x2="5.53" y2="148.87" xlink:href="#linear-gradient-4"/>
    <linearGradient id="linear-gradient-44" x1="64.73" y1="169.94" x2="113.63" y2="169.94" xlink:href="#linear-gradient-4"/>
    <linearGradient id="linear-gradient-45" x1="112.2" y1="155.73" x2="113.63" y2="155.73" xlink:href="#linear-gradient-4"/>
    <linearGradient id="linear-gradient-46" y1="148.38" y2="148.38" xlink:href="#linear-gradient-4"/>
    <linearGradient id="linear-gradient-47" x1="132.05" y1="144.24" y2="144.24" xlink:href="#linear-gradient-4"/>
    <linearGradient id="linear-gradient-48" x1="94.55" y1="248.65" x2="113.61" y2="248.65" xlink:href="#linear-gradient-4"/>
    <linearGradient id="linear-gradient-49" x1="103.34" y1="248.09" x2="103.82" y2="248.09" xlink:href="#linear-gradient-4"/>
  </defs>
  <path class="cls-5" d="m285.75,0l50.17,57.11-74.39,15.61,7.56-22.7c-22.92-4.48-89.61-11.11-118.76,54.83,10.9-41.65,28.75-91.44,127.95-82.4l7.48-22.44Z"/>
  <g>
    <polygon class="cls-1" points="139.47 128.54 139.47 240.57 121.04 251.29 64.77 283.97 31.16 264.44 6.34 250.02 .31 246.52 .08 246.52 .08 134.36 38.91 111.78 64.77 96.76 74.78 90.94 110.66 111.78 139.47 128.54"/>
    <polygon class="cls-10" points="139.47 128.54 139.47 240.57 121.04 251.29 64.77 283.97 64.77 96.76 74.78 90.94 110.66 111.78 139.47 128.54"/>
    <polygon class="cls-2" points="139.47 128.54 139.47 130.24 101.89 152.09 64.77 173.64 .08 136.07 .08 134.36 64.77 131.65 69.57 131.46 139.47 128.54"/>
    <polygon class="cls-8" points="139.47 128.54 101.16 150.82 64.77 171.96 28.39 150.82 .08 134.36 38.91 111.78 64.77 96.76 74.78 90.94 110.66 111.78 139.47 128.54"/>
    <g>
      <polygon class="cls-9" points="133.48 222.22 133.48 233.26 119.07 241.54 119.07 230.51 132.05 223.05 133.48 222.22"/>
      <polygon class="cls-4" points="132.05 223.05 132.05 232.64 119.07 240.11 119.07 230.51 132.05 223.05"/>
      <polygon class="cls-13" points="133.48 233.26 132.05 232.64 132.05 223.05 133.48 222.22 133.48 233.26"/>
    </g>
    <g>
      <polygon class="cls-11" points="85.57 249.91 85.57 260.95 71.15 269.22 71.15 258.19 84.13 250.73 85.57 249.91"/>
      <polygon class="cls-4" points="84.13 250.73 84.13 260.33 71.15 267.8 71.15 258.19 84.13 250.73"/>
      <polygon class="cls-12" points="85.57 260.95 84.13 260.33 84.13 250.73 85.57 249.91 85.57 260.95"/>
    </g>
    <g>
      <polygon class="cls-6" points="64.73 255.05 64.73 256.48 20.11 230.35 20.11 219.32 21.21 219.98 21.21 229.58 64.73 255.05"/>
      <polygon class="cls-4" points="64.73 245.46 64.73 255.05 21.21 229.58 21.21 219.98 64.73 245.46"/>
      <polygon class="cls-7" points="20.11 230.35 21.21 229.58 21.21 219.98 20.11 219.32 20.11 230.35"/>
    </g>
    <g>
      <polygon class="cls-36" points="15.75 226.6 15.75 228.03 4.43 221.18 4.43 210.16 5.53 210.8 5.53 220.41 15.75 226.6"/>
      <polygon class="cls-4" points="15.75 217 15.75 226.6 5.53 220.41 5.53 210.8 15.75 217"/>
      <polygon class="cls-37" points="4.43 221.18 5.53 220.41 5.53 210.8 4.43 210.16 4.43 221.18"/>
    </g>
    <g>
      <polygon class="cls-35" points="113.63 217 113.63 228.05 64.73 256.48 64.73 245.46 112.2 217.83 113.63 217"/>
      <polygon class="cls-4" points="112.2 217.83 112.2 227.43 64.73 255.05 64.73 245.46 112.2 217.83"/>
      <polygon class="cls-34" points="113.63 228.05 112.2 227.43 112.2 217.83 113.63 217 113.63 228.05"/>
    </g>
    <g>
      <polygon class="cls-24" points="133.48 205.52 133.48 216.56 119.07 224.83 119.07 213.81 132.05 206.35 133.48 205.52"/>
      <polygon class="cls-4" points="132.05 206.35 132.05 215.95 119.07 223.41 119.07 213.81 132.05 206.35"/>
      <polygon class="cls-30" points="133.48 216.56 132.05 215.95 132.05 206.35 133.48 205.52 133.48 216.56"/>
    </g>
    <g>
      <polygon class="cls-32" points="64.73 238.36 64.73 239.78 20.11 213.64 20.11 202.62 21.21 203.28 21.21 212.88 64.73 238.36"/>
      <polygon class="cls-4" points="64.73 228.76 64.73 238.36 21.21 212.88 21.21 203.28 64.73 228.76"/>
      <polygon class="cls-33" points="20.11 213.64 21.21 212.88 21.21 203.28 20.11 202.62 20.11 213.64"/>
    </g>
    <g>
      <polygon class="cls-25" points="15.75 209.9 15.75 211.33 4.43 204.48 4.43 193.46 5.53 194.11 5.53 203.71 15.75 209.9"/>
      <polygon class="cls-4" points="15.75 200.3 15.75 209.9 5.53 203.71 5.53 194.11 15.75 200.3"/>
      <polygon class="cls-31" points="4.43 204.48 5.53 203.71 5.53 194.11 4.43 193.46 4.43 204.48"/>
    </g>
    <g>
      <polygon class="cls-27" points="113.63 200.3 113.63 211.34 64.73 239.78 64.73 228.76 112.2 201.13 113.63 200.3"/>
      <polygon class="cls-4" points="112.2 201.13 112.2 210.73 64.73 238.36 64.73 228.76 112.2 201.13"/>
      <polygon class="cls-28" points="113.63 211.34 112.2 210.73 112.2 201.13 113.63 200.3 113.63 211.34"/>
    </g>
    <g>
      <polygon class="cls-26" points="133.48 188.82 133.48 199.87 119.07 208.14 119.07 197.11 132.05 189.65 133.48 188.82"/>
      <polygon class="cls-4" points="132.05 189.65 132.05 199.25 119.07 206.72 119.07 197.11 132.05 189.65"/>
      <polygon class="cls-29" points="133.48 199.87 132.05 199.25 132.05 189.65 133.48 188.82 133.48 199.87"/>
    </g>
    <g>
      <polygon class="cls-39" points="64.73 221.65 64.73 223.08 20.11 196.94 20.11 185.93 21.21 186.58 21.21 196.18 64.73 221.65"/>
      <polygon class="cls-4" points="64.73 212.06 64.73 221.65 21.21 196.18 21.21 186.58 64.73 212.06"/>
      <polygon class="cls-47" points="20.11 196.94 21.21 196.18 21.21 186.58 20.11 185.93 20.11 196.94"/>
    </g>
    <g>
      <polygon class="cls-40" points="15.75 193.2 15.75 194.63 4.43 187.78 4.43 176.76 5.53 177.41 5.53 187.01 15.75 193.2"/>
      <polygon class="cls-4" points="15.75 183.6 15.75 193.2 5.53 187.01 5.53 177.41 15.75 183.6"/>
      <polygon class="cls-38" points="4.43 187.78 5.53 187.01 5.53 177.41 4.43 176.76 4.43 187.78"/>
    </g>
    <g>
      <polygon class="cls-48" points="113.63 183.6 113.63 194.65 64.73 223.08 64.73 212.06 112.2 184.43 113.63 183.6"/>
      <polygon class="cls-4" points="112.2 184.43 112.2 194.03 64.73 221.66 64.73 212.06 112.2 184.43"/>
      <polygon class="cls-49" points="113.63 194.65 112.2 194.03 112.2 184.43 113.63 183.6 113.63 194.65"/>
    </g>
    <g>
      <polygon class="cls-51" points="133.48 172.12 133.48 183.16 119.07 191.44 119.07 180.41 132.05 172.95 133.48 172.12"/>
      <polygon class="cls-4" points="132.05 172.95 132.05 182.55 119.07 190.02 119.07 180.41 132.05 172.95"/>
      <polygon class="cls-53" points="133.48 183.16 132.05 182.55 132.05 172.95 133.48 172.12 133.48 183.16"/>
    </g>
    <g>
      <polygon class="cls-52" points="64.73 204.95 64.73 206.38 20.11 180.25 20.11 169.22 21.21 169.88 21.21 179.48 64.73 204.95"/>
      <polygon class="cls-4" points="64.73 195.36 64.73 204.95 21.21 179.48 21.21 169.88 64.73 195.36"/>
      <polygon class="cls-50" points="20.11 180.25 21.21 179.48 21.21 169.88 20.11 169.22 20.11 180.25"/>
    </g>
    <g>
      <polygon class="cls-44" points="15.75 176.5 15.75 177.93 4.43 171.08 4.43 160.06 5.53 160.71 5.53 170.31 15.75 176.5"/>
      <polygon class="cls-4" points="15.75 166.91 15.75 176.5 5.53 170.31 5.53 160.71 15.75 166.91"/>
      <polygon class="cls-42" points="4.43 171.08 5.53 170.31 5.53 160.71 4.43 160.06 4.43 171.08"/>
    </g>
    <g>
      <polygon class="cls-46" points="113.63 166.91 113.63 177.95 64.73 206.38 64.73 195.36 112.2 167.73 113.63 166.91"/>
      <polygon class="cls-4" points="112.2 167.73 112.2 177.33 64.73 204.96 64.73 195.36 112.2 167.73"/>
      <polygon class="cls-43" points="113.63 177.95 112.2 177.33 112.2 167.73 113.63 166.91 113.63 177.95"/>
    </g>
    <g>
      <polygon class="cls-41" points="133.48 155.43 133.48 166.46 119.07 174.74 119.07 163.72 132.05 156.25 133.48 155.43"/>
      <polygon class="cls-4" points="132.05 156.25 132.05 165.85 119.07 173.31 119.07 163.72 132.05 156.25"/>
      <polygon class="cls-45" points="133.48 166.46 132.05 165.85 132.05 156.25 133.48 155.43 133.48 166.46"/>
    </g>
    <g>
      <polygon class="cls-15" points="64.73 188.26 64.73 189.68 20.11 163.55 20.11 152.53 21.21 153.18 21.21 162.78 64.73 188.26"/>
      <polygon class="cls-4" points="64.73 178.66 64.73 188.26 21.21 162.78 21.21 153.18 64.73 178.66"/>
      <polygon class="cls-14" points="20.11 163.55 21.21 162.78 21.21 153.18 20.11 152.53 20.11 163.55"/>
    </g>
    <g>
      <polygon class="cls-17" points="15.75 159.81 15.75 161.24 4.43 154.38 4.43 143.36 5.53 144.01 5.53 153.61 15.75 159.81"/>
      <polygon class="cls-4" points="15.75 150.21 15.75 159.81 5.53 153.61 5.53 144.01 15.75 150.21"/>
      <polygon class="cls-16" points="4.43 154.38 5.53 153.61 5.53 144.01 4.43 143.36 4.43 154.38"/>
    </g>
    <g>
      <polygon class="cls-20" points="113.63 150.21 113.63 161.25 64.73 189.68 64.73 178.66 112.2 151.04 113.63 150.21"/>
      <polygon class="cls-4" points="112.2 151.04 112.2 160.63 64.73 188.26 64.73 178.66 112.2 151.04"/>
      <polygon class="cls-18" points="113.63 161.25 112.2 160.63 112.2 151.04 113.63 150.21 113.63 161.25"/>
    </g>
    <g>
      <polygon class="cls-19" points="133.48 138.72 133.48 149.77 119.07 158.04 119.07 147.01 132.05 139.55 133.48 138.72"/>
      <polygon class="cls-4" points="132.05 139.55 132.05 149.15 119.07 156.61 119.07 147.01 132.05 139.55"/>
      <polygon class="cls-22" points="133.48 149.77 132.05 149.15 132.05 139.55 133.48 138.72 133.48 149.77"/>
    </g>
    <polygon class="cls-23" points="113.61 255.63 113.61 230.67 94.55 241.68 94.55 266.64 113.61 255.63"/>
    <polygon class="cls-4" points="94.55 241.69 94.55 264.92 103.34 259.84 103.82 259.56 112.11 254.78 112.11 231.56 103.82 236.34 103.34 236.62 94.55 241.69"/>
    <polygon class="cls-21" points="103.34 236.62 103.34 259.84 103.82 259.56 103.82 236.34 103.34 236.62"/>
    <path class="cls-3" d="m105.78,249.62c.34,0,.63-.28.63-.62v-4.69c0-.34-.28-.63-.63-.63s-.63.28-.63.63v4.69c0,.34.28.62.63.62Z"/>
    <path class="cls-3" d="m101.68,251.97c.34,0,.62-.28.62-.63v-4.68c0-.35-.28-.63-.62-.63s-.63.28-.63.63v4.68c0,.35.28.63.63.63Z"/>
  </g>
</svg>