<?xml version="1.0" encoding="UTF-8"?>
<svg xmlns="http://www.w3.org/2000/svg" xmlns:xlink="http://www.w3.org/1999/xlink" viewBox="0 0 96 107.57">
  <defs>
    <style>
      .cls-1 {
        fill: url(#linear-gradient);
      }

      .cls-2 {
        fill: #f7d363;
      }

      .cls-3 {
        fill: #e9b79c;
      }

      .cls-4 {
        fill: #daa68c;
      }

      .cls-5 {
        fill: #40868c;
      }

      .cls-6 {
        fill: #585e8c;
      }

      .cls-7 {
        fill: #60bbbd;
      }

      .cls-8 {
        fill: #282a52;
      }

      .cls-9 {
        fill: url(#linear-gradient-5);
      }

      .cls-9, .cls-10, .cls-11, .cls-12, .cls-13, .cls-14, .cls-15, .cls-16 {
        mix-blend-mode: multiply;
      }

      .cls-10 {
        fill: url(#linear-gradient-8);
      }

      .cls-11 {
        fill: #bbbdbf;
      }

      .cls-12 {
        fill: #d0d2d3;
      }

      .cls-17 {
        fill: url(#linear-gradient-9);
      }

      .cls-18 {
        fill: url(#linear-gradient-3);
      }

      .cls-19 {
        fill: url(#linear-gradient-4);
      }

      .cls-20 {
        fill: url(#linear-gradient-2);
      }

      .cls-21 {
        fill: url(#linear-gradient-6);
      }

      .cls-22 {
        fill: url(#linear-gradient-7);
      }

      .cls-23 {
        fill: url(#linear-gradient-14);
      }

      .cls-24 {
        fill: url(#linear-gradient-22);
      }

      .cls-25 {
        fill: url(#linear-gradient-20);
      }

      .cls-26 {
        fill: url(#linear-gradient-21);
      }

      .cls-27 {
        fill: url(#linear-gradient-19);
      }

      .cls-28 {
        fill: url(#linear-gradient-16);
      }

      .cls-29 {
        fill: url(#linear-gradient-17);
      }

      .cls-30 {
        fill: url(#linear-gradient-13);
      }

      .cls-31 {
        fill: url(#linear-gradient-10);
      }

      .cls-32 {
        isolation: isolate;
      }

      .cls-13 {
        fill: url(#linear-gradient-15);
      }

      .cls-14 {
        fill: url(#linear-gradient-18);
      }

      .cls-15 {
        fill: url(#linear-gradient-12);
      }

      .cls-16 {
        fill: url(#linear-gradient-11);
      }
    </style>
    <linearGradient id="linear-gradient" x1="391.49" y1="28.35" x2="407.53" y2="28.35" gradientTransform="translate(-373.48)" gradientUnits="userSpaceOnUse">
      <stop offset="0" stop-color="#3d497f"/>
      <stop offset="1" stop-color="#282a52"/>
    </linearGradient>
    <linearGradient id="linear-gradient-2" x1="1299.92" y1="20.52" x2="1308.31" y2="20.52" gradientTransform="translate(1331.25) rotate(-180) scale(1 -1)" gradientUnits="userSpaceOnUse">
      <stop offset="0" stop-color="#d5e7e5"/>
      <stop offset="1" stop-color="#aed1d0"/>
    </linearGradient>
    <linearGradient id="linear-gradient-3" x1="1235.26" y1="90.05" x2="1331.25" y2="90.05" gradientTransform="translate(1331.25) rotate(-180) scale(1 -1)" gradientUnits="userSpaceOnUse">
      <stop offset="0" stop-color="#40868c"/>
      <stop offset=".56" stop-color="#2a5f6d"/>
      <stop offset="1" stop-color="#40868c"/>
    </linearGradient>
    <linearGradient id="linear-gradient-4" x1="1235.26" y1="77.16" x2="1331.25" y2="77.16" gradientTransform="translate(1331.25) rotate(-180) scale(1 -1)" gradientUnits="userSpaceOnUse">
      <stop offset="0" stop-color="#529f9e"/>
      <stop offset="1" stop-color="#40868c"/>
    </linearGradient>
    <linearGradient id="linear-gradient-5" x1="1291.18" y1="90.15" x2="1331.25" y2="90.15" gradientTransform="translate(1331.25) rotate(-180) scale(1 -1)" gradientUnits="userSpaceOnUse">
      <stop offset="0" stop-color="#d0d2d3"/>
      <stop offset=".58" stop-color="#edeeee"/>
      <stop offset="1" stop-color="#fff"/>
    </linearGradient>
    <linearGradient id="linear-gradient-6" x1="1239.7" y1="74.67" x2="1327.66" y2="74.67" gradientTransform="translate(1331.25) rotate(-180) scale(1 -1)" gradientUnits="userSpaceOnUse">
      <stop offset="0" stop-color="#40868c"/>
      <stop offset=".68" stop-color="#2a5f6d"/>
    </linearGradient>
    <linearGradient id="linear-gradient-7" x1="1242.25" y1="74.34" x2="1286.05" y2="74.34" xlink:href="#linear-gradient-4"/>
    <linearGradient id="linear-gradient-8" x1="1231.29" y1="29.47" x2="1294.35" y2="69.85" xlink:href="#linear-gradient-5"/>
    <linearGradient id="linear-gradient-9" y1="60.39" y2="60.39" xlink:href="#linear-gradient-3"/>
    <linearGradient id="linear-gradient-10" y1="47.5" y2="47.5" xlink:href="#linear-gradient-4"/>
    <linearGradient id="linear-gradient-11" x1="1291.59" y1="41.87" x2="1315.39" y2="41.87" xlink:href="#linear-gradient-5"/>
    <linearGradient id="linear-gradient-12" x1="1281.81" y1="35.21" x2="1305.62" y2="35.21" xlink:href="#linear-gradient-5"/>
    <linearGradient id="linear-gradient-13" x1="801.07" y1="-71.84" x2="818.47" y2="-71.84" gradientTransform="translate(-773.41 170.95) rotate(-4.8)" xlink:href="#linear-gradient"/>
    <linearGradient id="linear-gradient-14" x1="1283.61" y1="26.73" x2="1302.15" y2="24.74" gradientTransform="translate(1331.25) rotate(-180) scale(1 -1)" gradientUnits="userSpaceOnUse">
      <stop offset="0" stop-color="#282a52"/>
      <stop offset="1" stop-color="#3d497f"/>
    </linearGradient>
    <linearGradient id="linear-gradient-15" x1="1302.9" y1="50.31" x2="1319.77" y2="52.52" xlink:href="#linear-gradient-5"/>
    <linearGradient id="linear-gradient-16" x1="1289.82" y1="50.96" x2="1317.58" y2="50.96" xlink:href="#linear-gradient-2"/>
    <linearGradient id="linear-gradient-17" x1="-3746.43" y1="480.01" x2="-3733.16" y2="480.01" gradientTransform="translate(-3688.94 1643.82) rotate(150) scale(1 -1) skewX(-30)" xlink:href="#linear-gradient-2"/>
    <linearGradient id="linear-gradient-18" x1="1271.15" y1="33.02" x2="1288.02" y2="35.24" xlink:href="#linear-gradient-5"/>
    <linearGradient id="linear-gradient-19" x1="1258.06" y1="33.68" x2="1285.82" y2="33.68" xlink:href="#linear-gradient-2"/>
    <linearGradient id="linear-gradient-20" x1="-3782.05" y1="480.92" x2="-3768.78" y2="480.92" gradientTransform="translate(-3688.94 1643.82) rotate(150) scale(1 -1) skewX(-30)" xlink:href="#linear-gradient-2"/>
    <linearGradient id="linear-gradient-21" x1="1257.93" y1="52.46" x2="1275.17" y2="52.46" gradientTransform="translate(1331.25) rotate(-180) scale(1 -1)" gradientUnits="userSpaceOnUse">
      <stop offset="0" stop-color="#282a52"/>
      <stop offset="1" stop-color="#1e2044"/>
    </linearGradient>
    <linearGradient id="linear-gradient-22" x1="-1403.53" y1="49.58" x2="-1386.31" y2="49.58" gradientTransform="translate(1459.62)" xlink:href="#linear-gradient"/>
  </defs>
  <g class="cls-32">
    <g id="_レイヤー_1" data-name="レイヤー 1">
      <g>
        <g>
          <g>
            <path class="cls-1" d="m34.04,28.47c0,.11,0,.22,0,.33-.05,2.98-.27,5.78-.45,7.7-.15,1.57-.29,2.56-.29,2.56,0,0-.32.48-.97,1.09-.51.5-1.23,1.08-2.14,1.56h0c-.34.2-.71.37-1.09.52-1.21.48-2.69.76-4.41.59-.16-.02-.32-.04-.49-.06-1.15-.17-2.4-.54-3.75-1.18-.01,0-.02,0-.03-.02,0,0-.02,0-.03-.02-.93-.52-.83-2.84-.89-5.7,0-.66-.02-1.35-.06-2.05,0-.23-.03-.43-.04-.65-.27-3.45-.86-7.18-1.18-10v-.02c-.16-1.43-.25-2.62-.17-3.4.03-.4.1-.7.22-.86h0c1.02-1.41,3.15-2.79,5.41-3.75.73-.31,1.48-.58,2.21-.79.7-.21,1.38-.35,2.02-.43.49-.07.94-.09,1.35-.07.24,0,.46.04.67.11.29.08.55.2.81.37.02,0,.03.02.05.04,2.74,1.83,3.33,8.28,3.26,14.13Z"/>
            <path class="cls-11" d="m24.67,42.83h0c-.16-.01-.32-.04-.49-.07-1.14-.2-2.34-.69-3.75-1.19,0,0-.02,0-.03,0-.01,0-.02,0-.03-.02-.93-.52-.83-2.84-.89-5.7,0-.66-.02-1.35-.07-2.05,0-.23-.03-.43-.04-.65-.26-3.45-.86-7.18-1.18-9.99v-.02c-.16-1.43-.21-2.29.43-2.75,1.14-.84,3.09.28,3.41,1.35,1.24,4.15,3.36,18.97,2.63,21.09Z"/>
            <path class="cls-20" d="m22.96,15.44s.93,2.17,2.83,2.56c.1,1.2.44,5.27.56,6.95.17,2.25,1.04,1.87,2.27,1.11.07-.04.13-.09.2-.13,0,0,.04.02.13.02.19,0,.59-.08,1.16-.66.01,0,.02-.02.03-.03,0,0,.16.02.36-.04.35-.09.82-.41.82-1.41,0-1.37-2.09-5.53-2.66-6.65.14-.17.22-.37.21-.57-.01-1.12-2.4-2.02-2.87-2.19-.14-.05-.3.03-.36.17-.05.14.02.3.17.35,1.04.37,2.5,1.13,2.51,1.67,0,.23-.32.48-.89.7-2.64,1.01-3.92-1.95-3.97-2.08-.06-.14-.22-.2-.36-.15-.14.06-.21.22-.15.36Z"/>
            <path class="cls-4" d="m28.19,14.11s-.54,2.21-1.13,2.58c-.77.48-2.82.03-3.4-1.44l.44-4.1,4.09,2.96Z"/>
            <path class="cls-3" d="m28.1,1.98c1.87.5,3.91,3.72,3.36,7.39-.68,4.61-2.59,7.03-5.3,5.16-1.95-1.34-3.98-2.93-3.22-8.91.38-2.97,3.61-4.05,5.17-3.64Z"/>
            <path class="cls-8" d="m28.19.16c1.9.39,3.29,1.84,3.94,3.61.17.34,1.17,1.2,2.19,1.16,0,0-.82,4.16-5.23,3.97-1.78-.07-2.53-.54-2.8-1.08-.23-.14-.35-.25-.35-.25-.93,1.16-.43,3.27-.43,3.27l-.5.25c-.4-.14-.74-1.26-.74-1.26l-1.2.42c-1.66-2.58-1.35-6.52-1.35-6.52-.35-2.27,2.82-4.34,6.47-3.59Z"/>
            <path class="cls-3" d="m24.27,9.85s.1-2.82-1.31-2.59c-1.41.23-.3,3.89,1.11,3.24l.2-.65Z"/>
            <path class="cls-12" d="m27.76,21.19l.87,4.87c.07-.04.13-.09.2-.13,0,0,.04.02.13.02l-1.2-4.76Z"/>
            <path class="cls-12" d="m28.8,20.8l1.33,4.49s.02-.02.03-.03c0,0,.16.02.36-.04l-1.71-4.42Z"/>
          </g>
          <path class="cls-18" d="m0,81.78v2.68h0c.02.38.28.76.79,1.05l37.4,21.6c1.06.61,2.78.61,3.83,0l53.16-30.85c.53-.3.79-.71.79-1.11v-2.62l-2.93.28L4.09,81.39,0,81.78Z"/>
          <path class="cls-7" d="m0,81.78v.96c.16.18.36.34.6.48l37.4,21.6c.57.33,1.32.51,2.11.51s1.54-.18,2.11-.51l53.16-30.85c.24-.14.44-.3.6-.48v-.97l-2.93.28L4.09,81.39,0,81.78Z"/>
          <path class="cls-19" d="m.8,82.89l32.72,18.89,4.69,2.71c1.06.61,2.78.61,3.83,0l53.16-30.85c1.06-.61,1.06-1.61,0-2.21l-37.41-21.6c-1.06-.61-2.77-.61-3.83,0L4.5,78.52l-3.71,2.15c-1.06.61-1.06,1.61,0,2.22Z"/>
          <path class="cls-9" d="m.8,82.89l32.72,18.89h6.56v-23.26H4.5l-3.71,2.15c-1.06.61-1.06,1.61,0,2.22Z"/>
          <path class="cls-21" d="m3.6,56.04v24.58h0c.02.35.25.7.73.96l34.27,19.79c.97.56,2.54.55,3.51,0l4.74-2.75,43.98-25.52c.48-.28.73-.65.73-1.02v-24.53l-.85.08-1.84.18L7.34,55.68l-3.74.36Z"/>
          <path class="cls-22" d="m45.21,79.67v13.98c0,1.29.79,1.87,1.57,1.87.36,0,.73-.11,1.1-.33l39-22.52c1.19-.69,2.12-2.3,2.12-3.68v-13.98c0-1.29-.79-1.87-1.57-1.87-.36,0-.73.11-1.1.33l-39,22.52c-1.19.69-2.12,2.3-2.12,3.68Zm29.78-18.37v16.97l-13.81,7.97v-16.97l13.81-7.97Zm11.35,10.42l-10.24,5.91v-16.97l10.79-6.23c.2-.12.39-.18.55-.18.41,0,.47.48.47.76v13.98c0,.98-.72,2.23-1.57,2.72Zm-40.02,7.95c0-.98.72-2.23,1.57-2.72l12.19-7.04v16.97l-12.75,7.36c-.2.12-.39.18-.55.18-.41,0-.47-.48-.47-.76v-13.98Z"/>
          <path class="cls-10" d="m3.6,56.04v24.58h0c.02.35.25.7.73.96l34.27,19.79c.97.56,2.54.55,3.51,0,0,0,3.57-2.04,4.74-2.75,19.66-12.02,43.86-50.99,43.86-50.99l-1.84.18L7.34,55.68l-3.74.36Z"/>
          <path class="cls-17" d="m0,52.13v2.68h0c.02.38.28.76.79,1.05l37.4,21.6c1.06.61,2.78.61,3.83,0l53.16-30.85c.53-.3.79-.71.79-1.11v-2.62l-2.93.28L4.09,51.74,0,52.13Z"/>
          <path class="cls-7" d="m0,52.13v.96c.16.18.36.34.6.48l37.4,21.6c.57.32,1.32.51,2.11.51s1.54-.18,2.11-.52l53.16-30.85c.24-.14.44-.3.6-.48v-.97l-2.93.28L4.09,51.74,0,52.13Z"/>
          <path class="cls-31" d="m.8,53.24l37.4,21.59c1.06.61,2.78.61,3.83,0l53.16-30.85c1.06-.61,1.06-1.6,0-2.22l-37.41-21.6c-1.06-.61-2.77-.61-3.83,0l-17.69,10.26-10.24,5.94-.4.23-.83.48-3.19,1.85-5.76,3.34L.8,51.02c-1.06.61-1.06,1.6,0,2.22Z"/>
          <path class="cls-11" d="m18.68,22.69c.17,1.44.93,3.23,1.55,4.5,0,0,0,0,.01.02.1.2.19.38.28.55.9,1.79,3.69,7.27,4.84,8.78.04.05.09.1.14.16l4.12-2.39c-.41-.41-.72-.76-.87-1-.95-1.5-3.11-6.86-3.11-6.86-.44-2.02-2.27-7.97-5.98-6.9,0,0-1.26.65-.96,3.15Z"/>
          <polygon class="cls-16" points="15.86 42.28 15.86 46.64 39.67 46.64 32.05 39.99 28.75 37.1 25.64 37.1 24.81 37.09 21.62 38.94 15.86 42.28"/>
          <polygon class="cls-15" points="25.64 36.61 25.64 39.99 49.44 39.99 38.52 30.44 36.28 30.44 26.04 36.38 25.64 36.61"/>
          <path class="cls-3" d="m36.49,41.67s.93-.45,1.62-.27c.69.19,2.3.04,2.12.67-.19.63-1.49.37-1.27.57.21.21,3.53,1.79,3.37,2.2-.16.41-.68.29-.68.29,0,0,.8.56.66.9-.14.35-.53.35-.94.16,0,0,.23.76-.92.33,0,0,.04.36-.79.11-.82-.25-3.21-1.19-4.18-3.19,0,0,.55-1.64,1-1.78Z"/>
          <path class="cls-30" d="m28.67,34.04c-1-1.58-3.27-7.24-3.27-7.24-.47-2.13-2.4-8.41-6.32-7.29,0,0-1.33.7-1.02,3.33.18,1.51,1.82,13.73,5.27,16.29,1.93,1.42,8.71,4.92,12.18,4.63.71-.06,2.23-.6,1.4-2.46,0,0-7.23-5.66-8.24-7.25Z"/>
          <g>
            <path class="cls-23" d="m30.23,14.23c.37.25.84.59,1.14.99.07.09.15.2.21.31,1.85,2.81,2.32,8.43,2.26,13.61,0,.05.01.12.02.2.01.1.03.2.03.27.16.27-.09,1.73.05,1.97.08.13.13.2.17.25.03.03.04.06.06.07.06.04.07.01.21.18,1.14,1.43,7.97,4.62,10.38,4.86.81.44.89-.09,1.07-.2l.9-1.43c-.03-.12-.08-.25-.14-.39,0,0-7.09-5.29-8.09-6.8-1-1.5-3.31-6.9-3.31-6.9-.44-1.76-2.15-6.45-4.96-6.98Z"/>
            <path class="cls-11" d="m33.85,29.14s.01.12.02.2c.01.1.03.2.03.27.16.27-.09,1.73.05,1.97.08.13.13.2.17.25.08-.78.18-1.64.18-1.68,0-.12.01-.23.01-.35.07-5.63-.45-11.77-2.72-14.28,1.85,2.81,2.32,8.43,2.26,13.61Z"/>
          </g>
          <path class="cls-3" d="m45.84,34.73c.39-.13.8-.14,1.59-.07.71.07,2.35-.03,2.16.59-.19.62-1.48.36-1.27.57.21.21,3.52,1.78,3.36,2.19-.16.41-.68.29-.68.29,0,0,.8.56.66.9-.14.34-.53.34-.94.16,0,0,.23.76-.91.33,0,0,.03.35-.78.11-.82-.25-2.77-1.15-4.16-2.88-.36-.44.17-1.93.97-2.2Z"/>
        </g>
        <g>
          <polygon class="cls-13" points="8.75 46.41 11.65 58.97 29.95 58.97 25.28 43.3 14.11 43.3 8.75 46.41"/>
          <polygon class="cls-28" points="13.68 49.58 29.95 58.97 30.63 58.58 41.44 52.34 26.05 43.46 25.17 42.95 13.68 49.58"/>
          <polygon class="cls-5" points="36.55 51.43 28.37 56.15 29.35 56.72 37.54 52 36.55 51.43"/>
          <polygon class="cls-5" points="30.19 52.48 26.1 54.85 26.79 55.24 30.88 52.88 30.19 52.48"/>
          <polygon class="cls-5" points="33.08 49.43 24.9 54.15 25.59 54.55 33.77 49.82 33.08 49.43"/>
          <polygon class="cls-5" points="29.16 50.3 23.7 53.46 24.38 53.86 29.85 50.7 29.16 50.3"/>
          <polygon class="cls-5" points="29.48 47.34 21.29 52.07 21.98 52.47 30.17 47.74 29.48 47.34"/>
          <polygon class="cls-5" points="26.78 47.51 20.09 51.38 20.78 51.77 27.47 47.91 26.78 47.51"/>
          <polygon class="cls-5" points="27.07 45.96 18.89 50.68 19.58 51.08 27.76 46.35 27.07 45.96"/>
          <polygon class="cls-5" points="25.87 45.26 17.69 49.99 18.37 50.39 26.56 45.66 25.87 45.26"/>
          <polygon class="cls-12" points="15.25 49.7 30.63 58.58 41.44 52.34 26.05 43.46 15.25 49.7"/>
          <polygon class="cls-29" points="32.13 59.09 43.62 52.46 27.35 43.07 15.86 49.7 32.13 59.09"/>
          <polygon class="cls-5" points="38.74 51.55 30.55 56.27 31.54 56.84 39.72 52.11 38.74 51.55"/>
          <polygon class="cls-5" points="32.38 52.6 28.28 54.97 28.97 55.36 33.07 53 32.38 52.6"/>
          <polygon class="cls-5" points="35.27 49.55 27.08 54.27 27.77 54.67 35.96 49.94 35.27 49.55"/>
          <polygon class="cls-5" points="31.35 50.42 25.88 53.58 26.57 53.98 32.04 50.82 31.35 50.42"/>
          <polygon class="cls-5" points="31.66 47.46 23.48 52.19 24.17 52.59 32.35 47.86 31.66 47.46"/>
          <polygon class="cls-5" points="28.97 47.63 22.28 51.5 22.96 51.89 29.65 48.03 28.97 47.63"/>
          <polygon class="cls-5" points="29.26 46.08 21.07 50.8 21.76 51.2 29.95 46.47 29.26 46.08"/>
          <polygon class="cls-5" points="28.06 45.38 19.87 50.11 20.56 50.5 28.74 45.78 28.06 45.38"/>
        </g>
        <g>
          <polygon class="cls-14" points="40.51 29.13 43.4 41.69 61.7 41.69 57.03 26.01 45.87 26.01 40.51 29.13"/>
          <polygon class="cls-27" points="45.43 32.3 61.7 41.69 62.38 41.3 73.19 35.06 57.81 26.17 56.92 25.67 45.43 32.3"/>
          <polygon class="cls-5" points="68.31 34.15 60.12 38.87 61.11 39.44 69.29 34.71 68.31 34.15"/>
          <polygon class="cls-5" points="61.95 35.2 57.85 37.56 58.54 37.96 62.64 35.6 61.95 35.2"/>
          <polygon class="cls-5" points="64.84 32.14 56.65 36.87 57.34 37.27 65.53 32.54 64.84 32.14"/>
          <polygon class="cls-5" points="60.92 33.02 55.45 36.18 56.14 36.57 61.61 33.42 60.92 33.02"/>
          <polygon class="cls-5" points="61.23 30.06 53.05 34.79 53.73 35.19 61.92 30.46 61.23 30.06"/>
          <polygon class="cls-5" points="58.53 30.23 51.84 34.09 52.53 34.49 59.22 30.63 58.53 30.23"/>
          <polygon class="cls-5" points="58.83 28.67 50.64 33.4 51.33 33.8 59.52 29.07 58.83 28.67"/>
          <polygon class="cls-5" points="57.63 27.98 49.44 32.7 50.13 33.1 58.31 28.38 57.63 27.98"/>
          <polygon class="cls-12" points="47 32.41 62.38 41.3 73.19 35.06 57.81 26.17 47 32.41"/>
          <polygon class="cls-25" points="63.88 41.81 75.37 35.18 59.1 25.78 47.61 32.42 63.88 41.81"/>
          <polygon class="cls-5" points="70.49 34.27 62.31 38.99 63.29 39.56 71.48 34.83 70.49 34.27"/>
          <polygon class="cls-5" points="64.13 35.32 60.04 37.68 60.73 38.08 64.82 35.72 64.13 35.32"/>
          <polygon class="cls-5" points="67.03 32.26 58.84 36.99 59.52 37.39 67.71 32.66 67.03 32.26"/>
          <polygon class="cls-5" points="63.1 33.14 57.64 36.3 58.33 36.69 63.79 33.54 63.1 33.14"/>
          <polygon class="cls-5" points="63.42 30.18 55.23 34.91 55.92 35.31 64.11 30.58 63.42 30.18"/>
          <polygon class="cls-5" points="60.72 30.35 54.03 34.21 54.72 34.61 61.41 30.75 60.72 30.35"/>
          <path class="cls-2" d="m53.05,30.65c0,.51.83,1.08,1.94,1.08s1.94-.57,1.94-1.08-.83-1.08-1.94-1.08-1.94.57-1.94,1.08Z"/>
          <path class="cls-2" d="m56.74,28.49c0,.51.83,1.08,1.94,1.08s1.95-.57,1.95-1.08-.83-1.08-1.95-1.08-1.94.57-1.94,1.08Z"/>
        </g>
        <g>
          <path class="cls-26" d="m56.09,52.91v4.82s0,.01,0,.02v.03c.02.32.23.64.66.89l.78.44c.89.51,2.33.51,3.21,0l11.9-6.92c.43-.24.64-.56.66-.88h0v-4.87l-.39.02c-.08-.07-.18-.13-.28-.19l-.79-.44c-.89-.51-2.32-.51-3.21,0l-11.9,6.92c-.08.04-.14.09-.2.13l-.46.03Z"/>
          <path class="cls-6" d="m56.09,52.91v.56c.13.17.31.31.53.44l.79.44c.47.27,1.09.42,1.74.42s1.27-.15,1.74-.42l11.9-6.92c.22-.13.4-.28.53-.44v-.55l-.39.02c-.08-.07-.18-.13-.28-.19l-.79-.44c-.89-.51-2.32-.51-3.21,0l-11.9,6.92c-.08.04-.14.09-.2.13l-.46.03Z"/>
          <path class="cls-24" d="m73.31,46.34c-.03.3-.25.61-.66.84l-11.9,6.92c-.89.51-2.33.51-3.21,0l-.79-.44c-.41-.23-.62-.54-.66-.84.03-.31.25-.61.66-.84l11.9-6.92c.89-.51,2.32-.51,3.21,0l.79.44c.41.24.63.54.66.84Z"/>
          <path class="cls-6" d="m62.2,57.33l8.58-4.95c.53-.31.96-1.05.96-1.66v-.87c0-.61-.43-.86-.96-.55l-8.58,4.95c-.53.31-.96,1.05-.96,1.66v.87c0,.61.43.86.96.55Z"/>
        </g>
      </g>
    </g>
  </g>
</svg>