<?xml version="1.0" encoding="UTF-8"?>
<svg xmlns="http://www.w3.org/2000/svg" xmlns:xlink="http://www.w3.org/1999/xlink" viewBox="0 0 230 185">
  <defs>
    <style>
      .cls-1 {
        fill: url(#linear-gradient);
      }

      .cls-2 {
        fill: #eaf7f5;
      }

      .cls-3 {
        fill: #e9b79c;
      }

      .cls-4 {
        fill: #daa68c;
      }

      .cls-5 {
        fill: #101529;
      }

      .cls-6 {
        fill: #282a52;
      }

      .cls-7 {
        fill: #bbbdbf;
      }

      .cls-7, .cls-8 {
        mix-blend-mode: multiply;
      }

      .cls-8 {
        fill: #d0d2d3;
      }

      .cls-9 {
        fill: url(#linear-gradient-8);
      }

      .cls-10 {
        fill: url(#linear-gradient-9);
      }

      .cls-11 {
        fill: url(#linear-gradient-3);
      }

      .cls-12 {
        fill: url(#linear-gradient-4);
      }

      .cls-13 {
        fill: url(#linear-gradient-2);
      }

      .cls-14 {
        fill: url(#linear-gradient-6);
      }

      .cls-15 {
        fill: url(#linear-gradient-7);
      }

      .cls-16 {
        fill: url(#linear-gradient-5);
      }

      .cls-17 {
        fill: url(#linear-gradient-14);
      }

      .cls-18 {
        fill: url(#linear-gradient-18);
      }

      .cls-19 {
        fill: url(#linear-gradient-15);
      }

      .cls-20 {
        fill: url(#linear-gradient-19);
      }

      .cls-21 {
        fill: url(#linear-gradient-16);
      }

      .cls-22 {
        fill: url(#linear-gradient-17);
      }

      .cls-23 {
        fill: url(#linear-gradient-13);
      }

      .cls-24 {
        fill: url(#linear-gradient-12);
      }

      .cls-25 {
        fill: url(#linear-gradient-10);
      }

      .cls-26 {
        fill: url(#linear-gradient-11);
      }

      .cls-27 {
        isolation: isolate;
      }
    </style>
    <linearGradient id="linear-gradient" x1="1780.11" y1="501.8" x2="1831.97" y2="501.8" gradientTransform="translate(1832.41 660.68) rotate(-150) scale(1.15 -.87) skewX(-23.41)" gradientUnits="userSpaceOnUse">
      <stop offset="0" stop-color="#91bcb3"/>
      <stop offset="1" stop-color="#6da1a1"/>
    </linearGradient>
    <linearGradient id="linear-gradient-2" x1="1783.84" y1="129.57" x2="1828.97" y2="129.57" gradientTransform="translate(1832.41) rotate(-180) scale(1 -1)" gradientUnits="userSpaceOnUse">
      <stop offset="0" stop-color="#282a52"/>
      <stop offset="1" stop-color="#1e2044"/>
    </linearGradient>
    <linearGradient id="linear-gradient-3" x1="1659.87" y1="92.5" x2="1806.04" y2="92.5" gradientTransform="translate(1832.41) rotate(-180) scale(1 -1)" gradientUnits="userSpaceOnUse">
      <stop offset="0" stop-color="#d5e7e5"/>
      <stop offset="1" stop-color="#aed1d0"/>
    </linearGradient>
    <linearGradient id="linear-gradient-4" x1="1675.17" y1="95.33" x2="1784.65" y2="95.33" gradientTransform="translate(1832.41) rotate(-180) scale(1 -1)" xlink:href="#linear-gradient"/>
    <linearGradient id="linear-gradient-5" x1="1783.84" y1="156.72" x2="1828.97" y2="156.72" gradientTransform="translate(1832.41) rotate(-180) scale(1 -1)" gradientUnits="userSpaceOnUse">
      <stop offset="0" stop-color="#3d497f"/>
      <stop offset="1" stop-color="#282a52"/>
    </linearGradient>
    <linearGradient id="linear-gradient-6" x1="510.95" y1="-327.17" x2="514.88" y2="-327.17" gradientTransform="translate(701.55 198.28) rotate(165.94) scale(1 -.93)" gradientUnits="userSpaceOnUse">
      <stop offset="0" stop-color="#dcb655"/>
      <stop offset="1" stop-color="#c3a34d"/>
    </linearGradient>
    <linearGradient id="linear-gradient-7" x1="540.81" y1="-318.1" x2="544.74" y2="-318.1" xlink:href="#linear-gradient-6"/>
    <linearGradient id="linear-gradient-8" x1="570.72" y1="-308.97" x2="574.64" y2="-308.97" xlink:href="#linear-gradient-6"/>
    <linearGradient id="linear-gradient-9" x1="600.72" y1="-299.95" x2="604.64" y2="-299.95" xlink:href="#linear-gradient-6"/>
    <linearGradient id="linear-gradient-10" x1="1723.74" y1="31.53" x2="1742.97" y2="31.53" gradientTransform="translate(1832.41) rotate(-180) scale(1 -1)" gradientUnits="userSpaceOnUse">
      <stop offset="0" stop-color="#f4d363"/>
      <stop offset="1" stop-color="#ddbc4b"/>
    </linearGradient>
    <linearGradient id="linear-gradient-11" x1="1696.78" y1="16.01" x2="1716" y2="16.01" xlink:href="#linear-gradient-10"/>
    <linearGradient id="linear-gradient-12" x1="1777.66" y1="62.58" x2="1796.89" y2="62.58" xlink:href="#linear-gradient-10"/>
    <linearGradient id="linear-gradient-13" x1="1750.7" y1="47.06" x2="1769.92" y2="47.06" xlink:href="#linear-gradient-10"/>
    <linearGradient id="linear-gradient-14" x1="1830.2" y1="294.27" x2="1842.44" y2="301.34" gradientTransform="translate(1901.28 -1250.87) rotate(150) scale(1.15 -.87) skewX(23.41)" xlink:href="#linear-gradient-10"/>
    <linearGradient id="linear-gradient-15" x1="-1586.56" y1="10943.35" x2="-1571.52" y2="10943.35" gradientTransform="translate(1245.67 11059.23) rotate(2.75) scale(1 -1)" xlink:href="#linear-gradient-5"/>
    <linearGradient id="linear-gradient-16" x1="1736.87" y1="134.01" x2="1750.85" y2="134.01" gradientTransform="translate(1943.01) rotate(-180) scale(1 -1)" xlink:href="#linear-gradient-3"/>
    <linearGradient id="linear-gradient-17" x1="1725.74" y1="139.78" x2="1743.61" y2="139.78" gradientTransform="translate(1943.01) rotate(-180) scale(1 -1)" xlink:href="#linear-gradient-3"/>
    <linearGradient id="linear-gradient-18" x1="2902.83" y1="88.92" x2="2927.75" y2="88.92" gradientTransform="translate(3119.18) rotate(-180) scale(1 -1)" xlink:href="#linear-gradient-5"/>
    <linearGradient id="linear-gradient-19" x1="3859.43" y1="10507.07" x2="3874.47" y2="10507.07" gradientTransform="translate(1850.34 11136.87) rotate(-168.16)" xlink:href="#linear-gradient-5"/>
  </defs>
  <g class="cls-27">
    <g id="_レイヤー_1" data-name="レイヤー 1">
      <g>
        <g>
          <polygon class="cls-1" points=".44 154.91 52.3 184.85 26.37 69.46 .44 154.91"/>
          <polygon class="cls-13" points="3.44 153.73 48.57 179.78 38.21 133.66 26 79.36 3.44 153.73"/>
          <polygon class="cls-11" points="26.36 69.46 52.29 184.85 53.06 184.41 172.53 115.54 146.6 .15 27.13 69.01 26.36 69.46"/>
          <polygon class="cls-2" points="163.75 111.41 59.37 171.77 36.72 71.26 141.1 10.9 163.75 111.41"/>
          <path class="cls-12" d="m47.77,82.98l17.12,77.5c.06.26.24.48.48.59.11.05.22.07.34.07.15,0,.29-.04.42-.11l90.67-52.43c.32-.18.48-.55.4-.91l-4.1-18.54s0-.04-.01-.05l-13.02-58.9c-.06-.26-.24-.48-.48-.59-.25-.11-.53-.09-.76.04l-90.67,52.43c-.32.18-.48.55-.4.91Zm6.13,19.93l16.75-9.7,3.91,17.73-16.74,9.69-3.92-17.73Zm4.3,19.45l16.74-9.69,3.98,18.06-16.73,9.69-3.99-18.06Zm26.35,26.08l-3.72-16.87,16.63-9.63,3.72,16.88-16.64,9.62Zm18.17-10.51l-3.72-16.88,16.64-9.63,3.71,16.86s0,.02.01.03l-16.64,9.62Zm18.17-10.5l-3.72-16.89,16.64-9.63,3.67,16.64c.02.08.05.16.1.23l-16.68,9.64Zm30.44-38.61l-16.38,9.48-3.98-18.06,16.37-9.47,3.99,18.06Zm-4.37-19.78l-16.36,9.47-3.9-17.73,16.35-9.47,3.92,17.73Zm-26.13-27.03l3.95,17.93-16.64,9.63-3.95-17.94,16.64-9.62Zm-18.17,10.51l3.95,17.94-16.64,9.63-3.95-17.95,16.64-9.62Zm-8.4,47.03l-3.91-17.73,16.63-9.63,3.91,17.73-16.64,9.63Zm17.02-7.91l3.98,18.07-16.64,9.63-3.98-18.06,16.64-9.63Zm13.88-29.98l3.91,17.74-16.64,9.63-3.91-17.73,16.64-9.63Zm8.26,37.52l-16.63,9.63-3.98-18.06,16.64-9.63,3.98,18.07Zm-52.96,30.66l-3.98-18.06,16.64-9.63,3.98,18.06-16.64,9.63Zm-8.27-37.52l16.64-9.63,3.91,17.73-16.64,9.63-3.91-17.73Zm-.38-1.73l-3.96-17.96,16.64-9.62,3.95,17.95-16.64,9.63Zm70.85-41.02l-16.35,9.47-3.95-17.93,16.34-9.45,3.96,17.91Zm12.79,57.86l-16.39,9.48-3.72-16.9,16.38-9.48,3.74,16.9Zm-92.87,34.7l16.73-9.69,3.72,16.87-16.72,9.67-3.72-16.85Zm-13.02-58.92l16.77-9.7,3.96,17.96-16.75,9.7-3.97-17.96Z"/>
          <polygon class="cls-16" points="3.44 153.73 48.57 179.78 38.21 133.66 3.44 153.73"/>
          <path class="cls-14" d="m127.82,26.75c.35,1.39,1.48,2.29,2.53,2.03,1.05-.27,1.62-1.6,1.28-2.99-.35-1.38-1.48-2.29-2.53-2.03-1.05.26-1.62,1.6-1.28,2.98Z"/>
          <path class="cls-15" d="m100.91,42.23c.35,1.39,1.48,2.29,2.53,2.03,1.05-.27,1.62-1.6,1.28-2.99-.35-1.38-1.48-2.3-2.53-2.03-1.05.26-1.62,1.6-1.28,2.98Z"/>
          <path class="cls-9" d="m73.98,57.77c.35,1.38,1.48,2.29,2.53,2.03,1.05-.26,1.62-1.6,1.28-2.98-.35-1.39-1.48-2.29-2.53-2.03-1.05.26-1.62,1.6-1.28,2.99Z"/>
          <path class="cls-10" d="m46.93,73.24c.35,1.39,1.48,2.29,2.53,2.03,1.05-.26,1.62-1.6,1.28-2.98-.35-1.38-1.48-2.29-2.53-2.03-1.05.26-1.62,1.6-1.27,2.98Z"/>
          <path class="cls-25" d="m89.96,32.06c.06.22.14.42.26.6l3.71-2.14c-.68-3.16-.06-5.93,1.56-6.65.3-.13.61-.2.96-.2,1.94,0,4.87,2.13,6.71,6.21,1.04,2.31,1.48,4.66,1.23,6.61-.12.92-.5,2.54-1.77,3.12-1.06.47-1.53,1.72-1.05,2.78.35.78,1.12,1.24,1.92,1.24.29,0,.58-.06.87-.18,2.32-1.05,3.82-3.33,4.21-6.42.35-2.72-.21-5.87-1.57-8.87-2.38-5.27-6.52-8.68-10.54-8.68-.94,0-1.85.19-2.69.57-3.68,1.67-5.2,6.5-3.8,12.03Z"/>
          <path class="cls-26" d="m116.92,16.53c.05.21.13.4.25.58l3.71-2.14c-.67-3.16-.05-5.91,1.57-6.63.29-.13.61-.2.95-.2,1.93,0,4.86,2.14,6.72,6.21,1.04,2.3,1.47,4.65,1.23,6.6-.12.92-.5,2.55-1.78,3.12-1.05.48-1.52,1.73-1.04,2.79.35.78,1.11,1.24,1.92,1.24.29,0,.58-.06.86-.19,2.32-1.04,3.82-3.33,4.22-6.41.34-2.72-.21-5.88-1.57-8.88-2.39-5.27-6.53-8.68-10.55-8.68-.94,0-1.85.19-2.69.57-3.68,1.67-5.2,6.5-3.8,12.03Z"/>
          <path class="cls-24" d="m36.04,63.09c.06.23.15.45.28.63l3.7-2.14c-.7-3.18-.08-5.94,1.55-6.68.29-.13.61-.2.95-.2,1.94,0,4.86,2.14,6.72,6.21,1.04,2.31,1.48,4.65,1.23,6.61-.12.92-.5,2.54-1.77,3.12-1.06.48-1.53,1.73-1.05,2.79.35.78,1.11,1.24,1.92,1.24.29,0,.58-.06.87-.19,2.32-1.05,3.81-3.33,4.21-6.42.35-2.72-.21-5.87-1.57-8.87-2.39-5.28-6.52-8.69-10.55-8.69-.94,0-1.84.19-2.69.58-3.68,1.66-5.2,6.5-3.8,12.02Z"/>
          <path class="cls-23" d="m63,47.58c.06.22.14.43.26.61l3.71-2.13c-.69-3.17-.05-5.94,1.57-6.68.29-.13.61-.19.95-.19,1.94,0,4.87,2.13,6.71,6.2,1.04,2.31,1.48,4.65,1.24,6.61-.12.92-.5,2.54-1.78,3.11-1.06.48-1.52,1.73-1.05,2.79.35.78,1.12,1.24,1.92,1.24.29,0,.59-.06.87-.18,2.32-1.05,3.82-3.33,4.22-6.42.34-2.72-.22-5.87-1.57-8.87-2.39-5.28-6.53-8.68-10.55-8.68-.94,0-1.85.19-2.69.57-3.67,1.67-5.19,6.5-3.79,12.03Z"/>
          <polygon class="cls-2" points="26.36 69.46 52.29 184.85 53.06 184.41 27.13 69.01 26.36 69.46"/>
          <path class="cls-17" d="m64.32,100.05l-1.83,4.76c-.12.32-.45.74-.73.94l-4.08,2.95c-.28.2-.24.47.07.59l2.53,1c.32.13.53.5.48.84l-.68,4.34c-.05.34.09.41.32.15l3.72-4.1c.23-.25.69-.47,1.04-.49l3.31-.17c.34-.02.57-.31.5-.64l-.64-3.34c-.06-.34.03-.84.22-1.13l3.01-4.67c.19-.29.08-.41-.23-.28l-3.95,1.7c-.31.14-.73.02-.92-.26l-1.57-2.28c-.2-.28-.45-.25-.58.07Z"/>
        </g>
        <g>
          <path class="cls-3" d="m195.11,31.87s1.73-.48,2.41-1.51c.68-1.04,2.93-2.69,1.97-3.29-.96-.6-2.34,1.22-2.3.71.03-.52,2.52-6.36,1.84-6.71-.68-.35-1.21.4-1.21.4,0,0,.4-1.65-.17-1.93-.58-.29-1.09.16-1.4.87,0,0-.58-1.24-1.57.63,0,0-.36-.5-1.14.76-.78,1.26-2.8,5.21-1.75,8.91,0,0,2.6,1.5,3.33,1.16Z"/>
          <path class="cls-19" d="m194.08,49.33c.21,2.94,4.03,12.57,4.07,12.66,1.38,3.14,4.99,11.45-1,13.69,0,0-2.53,1.77-4.59-1.86-1.19-2.08-1.93-5.22-2.35-7.52h0s0-.02,0-.04c-.07-.36-.12-.69-.17-1-.56-3.27-3.61-12.87-3.56-15.99.06-3.77,4.87-18.76,4.87-18.76,0,0,2.51-.93,4.51,1.63,0,0-1.98,14.24-1.77,17.19Z"/>
          <path class="cls-5" d="m193.45,163.88l-.07,2.01c-.02.39-.3.85-.64,1.04-1.72.96-6.54,3.66-7.59,4.44-1.28.95-1.47,3.19-.88,3.73.72.66,1.18,1.36,3.74,1.12,1.72-.16,4.65-1.45,7.2-2.58,1.48-.65,2.88-1.33,4.5-2.64.29-.25.57-.77.61-1.16.2-1.9.71-7.1.45-8.63-.26-1.54-4.95.74-6.66,1.63-.34.18-.63.64-.65,1.03Z"/>
          <path class="cls-21" d="m206.13,116.19c-.11,4.49-.64,8.69-.64,8.69,0,0-3.92,40.12-4.53,40.63-1.14.93-2.46,1.06-3.71.85h0c-2.29-.39-4.28-1.95-4.28-1.95l-.79-62.84s8.63,1.92,12.05,4.24c1.71,1.15,2.02,5.9,1.91,10.37Z"/>
          <path class="cls-7" d="m206.13,116.19c-.11,4.49-.64,8.69-.64,8.69,0,0-3.92,40.12-4.53,40.63-1.14.93-2.46,1.06-3.71.85.48-1.88,1.42-7.11,1.83-10.41.68-5.58,1-30.42,1.47-32.17.47-1.76,3.15-6.37,3.15-6.37,0,0,1.24-1.36,2.44-1.22Z"/>
          <path class="cls-5" d="m209.03,172.3v.83c0,.39-.22.93-.5,1.19-1.43,1.39-5.45,5.3-6.52,6.09-.96.72-1.35,1.85-1.22,2.58.07.38.49.89.79,1.13.47.39,1.36.83,2.88.69,2.53-.23,6.91-1.76,12.46-6.53.29-.25.51-.78.5-1.17-.07-1.72-.28-6.11-.54-7.66-.27-1.58-5.4.88-7.21,1.8-.35.18-.63.64-.63,1.03Z"/>
          <path class="cls-22" d="m217.11,171.92c-.2.5-1.07,1.12-2.26,1.49-1.77.57-4.24.58-6.13-1.09l-9.33-63.08,9.94-2.34,4.56-1.07s2.46,6.21,1.25,16.3c-.62,5.2,2.9,47.36,1.97,49.8Z"/>
          <path class="cls-7" d="m217.11,171.92c-.2.5-1.07,1.12-2.26,1.49-3.78-8.1-3.36-27.92-3.73-33.54-.46-7.16-4.98-30.6-4.98-30.6l3.19-2.37,4.56-1.07s2.46,6.21,1.25,16.3c-.62,5.2,2.9,47.36,1.97,49.8Z"/>
          <path class="cls-18" d="m192.15,101.58c.25,2.45.45,3.98.45,3.98,0,0,.49.74,1.53,1.71.79.76,1.91,1.66,3.32,2.43.52.29,1.08.56,1.68.79,1.89.74,4.18,1.19,6.87.92h.02c.25-.02.47-.07.72-.09,1.77-.27,3.73-.85,5.84-1.84.02-.02.04-.02.07-.07,1.44-.81,1.3-4.4,1.39-8.85,0-1.03.02-2.09.09-3.17.02-.36.04-.67.07-1.01.4-5.37,1.35-11.16,1.84-15.52v-.02c.36-3.35.47-5.84-.09-6.6v-.02c-.63-.88-1.55-1.73-2.63-2.54-4.02-3.05-10.49-5.48-14.45-5.28-9.17.43-7.68,25.3-6.74,35.2Z"/>
          <path class="cls-4" d="m201.89,65.6s-.97,3.39-.45,4.36c.68,1.24,3.78,2.2,5.7.66l2.55-5.88-7.79.86Z"/>
          <path class="cls-3" d="m211.32,49.29c-2.9-.76-8.12,2.03-10.2,7.4-2.62,6.76-1.89,11.49,3.2,11.04,3.66-.32,7.62-.9,11.19-9.56,1.76-4.3-1.77-8.24-4.19-8.87Z"/>
          <path class="cls-6" d="m212.61,46.75c-2.87-.93-6.67.58-8.9,2.48-.5.33-1.11,1.1-3.03-.74,0,0-2.09,6.26,4.01,9.39,2.45,1.26,3.83,1.2,4.61.69.41-.01.65-.07.65-.07.37,2.29-1.93,4.75-1.93,4.75l.48.73c.66.11,1.96-1.14,1.96-1.14l1.3,1.48c4.23-2.21,6.83-7.76,6.83-7.76,2.21-2.8-.47-8.03-5.98-9.82Z"/>
          <path class="cls-3" d="m210.45,62.85s2.04-3.88,3.76-2.49c1.73,1.4-2.57,5.49-3.98,3.53l.22-1.05Z"/>
          <path class="cls-8" d="m206.03,111.4c.25-.02.47-.07.72-.09,1.77-.27,3.73-.85,5.84-1.84.02-.02.04-.02.07-.07,1.44-.81,1.3-4.4,1.39-8.85,0-1.03.02-2.09.09-3.17.02-.36.04-.67.07-1.01.4-5.37,1.35-11.16,1.84-15.52v-.02c.36-3.35.47-5.84-.09-6.6v-.02c-.63-.88-1.55-1.73-2.63-2.54l-3.44,6.65s-2.07,11.52-1.5,15.99c.43,3.44-.72,12.54-2.36,17.1Z"/>
          <path class="cls-3" d="m224.88,39.5s-1.55-.9-1.95-2.07c-.4-1.18-2.16-3.35-1.08-3.68,1.08-.34,1.95,1.77,2.05,1.27.1-.51-.83-6.79-.09-6.96.74-.17,1.07.69,1.07.69,0,0,.03-1.69.65-1.82.64-.13,1.01.43,1.14,1.2,0,0,.88-1.06,1.36,1,0,0,.47-.39.91,1.02.44,1.41,1.39,5.75-.55,9.06,0,0-2.89.8-3.52.29Z"/>
          <path class="cls-20" d="m221.47,56.66c-.95,2.79-7.07,11.15-7.13,11.23-2.13,2.69-7.72,9.82-2.48,13.5,0,0,2.01,2.35,4.91-.64,1.67-1.72,3.18-4.57,4.16-6.68h0s0-.02.02-.04c.15-.33.29-.64.42-.93,1.36-3.03,6.74-11.55,7.48-14.58.89-3.66,0-19.38,0-19.38,0,0-2.2-1.54-4.77.44,0,0-1.67,14.28-2.62,17.08Z"/>
        </g>
      </g>
    </g>
  </g>
</svg>