<?xml version="1.0" encoding="UTF-8"?>
<svg id="_レイヤー_1" data-name="レイヤー 1" xmlns="http://www.w3.org/2000/svg" xmlns:xlink="http://www.w3.org/1999/xlink" viewBox="0 0 182 174.19">
  <defs>
    <style>
      .cls-1 {
        fill: url(#linear-gradient);
      }

      .cls-2 {
        fill: #60bbbd;
      }

      .cls-3 {
        fill: url(#linear-gradient-8);
      }

      .cls-4 {
        fill: url(#linear-gradient-9);
      }

      .cls-5 {
        fill: url(#linear-gradient-3);
      }

      .cls-6 {
        fill: url(#linear-gradient-4);
      }

      .cls-7 {
        fill: url(#linear-gradient-2);
      }

      .cls-8 {
        fill: url(#linear-gradient-6);
      }

      .cls-9 {
        fill: url(#linear-gradient-7);
      }

      .cls-10 {
        fill: url(#linear-gradient-5);
      }

      .cls-11 {
        fill: url(#linear-gradient-14);
      }

      .cls-12 {
        fill: url(#linear-gradient-15);
      }

      .cls-13 {
        fill: url(#linear-gradient-16);
      }

      .cls-14 {
        fill: url(#linear-gradient-17);
      }

      .cls-15 {
        fill: url(#linear-gradient-13);
      }

      .cls-16 {
        fill: url(#linear-gradient-12);
      }

      .cls-17 {
        fill: url(#linear-gradient-10);
      }

      .cls-18 {
        fill: url(#linear-gradient-11);
      }
    </style>
    <linearGradient id="linear-gradient" x1="3523.72" y1="4423.43" x2="3553.03" y2="4423.43" gradientTransform="translate(4342.67 -1175.04) rotate(-119.5) scale(1 -1) skewX(-30)" gradientUnits="userSpaceOnUse">
      <stop offset="0" stop-color="#f4d363"/>
      <stop offset="1" stop-color="#ddbc4b"/>
    </linearGradient>
    <linearGradient id="linear-gradient-2" x1="3507.94" y1="4407.54" x2="3531.76" y2="4407.54" gradientTransform="translate(4342.67 -1175.04) rotate(-119.5) scale(1 -1) skewX(-30)" gradientUnits="userSpaceOnUse">
      <stop offset="0" stop-color="#529f9e"/>
      <stop offset="1" stop-color="#40868c"/>
    </linearGradient>
    <linearGradient id="linear-gradient-3" x1="-3714.02" y1="6436.1" x2="-3730.93" y2="6445.86" gradientTransform="translate(6423.63 3905.23) rotate(90.5)" xlink:href="#linear-gradient-2"/>
    <linearGradient id="linear-gradient-4" x1="-3675.53" y1="6434.17" x2="-3714.25" y2="6456.53" gradientTransform="translate(6423.63 3905.23) rotate(90.5)" xlink:href="#linear-gradient-2"/>
    <linearGradient id="linear-gradient-5" x1="3547.01" y1="4403.67" x2="3576.33" y2="4403.67" xlink:href="#linear-gradient"/>
    <linearGradient id="linear-gradient-6" x1="3468.04" y1="4332.08" x2="3491.38" y2="4332.08" xlink:href="#linear-gradient-2"/>
    <linearGradient id="linear-gradient-7" x1="-3740.59" y1="6396.45" x2="-3784.79" y2="6421.98" gradientTransform="translate(6423.63 3905.23) rotate(90.5)" xlink:href="#linear-gradient-2"/>
    <linearGradient id="linear-gradient-8" x1="-3702.1" y1="6394.53" x2="-3768.11" y2="6432.65" gradientTransform="translate(6423.63 3905.23) rotate(90.5)" xlink:href="#linear-gradient-2"/>
    <linearGradient id="linear-gradient-9" x1="3570.03" y1="4383.95" x2="3599.35" y2="4383.95" xlink:href="#linear-gradient"/>
    <linearGradient id="linear-gradient-10" x1="3404.51" y1="4247.55" x2="3457.69" y2="4247.55" xlink:href="#linear-gradient"/>
    <linearGradient id="linear-gradient-11" x1="-3762.07" y1="6342.37" x2="-3843.38" y2="6389.31" gradientTransform="translate(6423.63 3905.23) rotate(90.5)" xlink:href="#linear-gradient"/>
    <linearGradient id="linear-gradient-12" x1="-3723.58" y1="6340.45" x2="-3826.69" y2="6399.98" gradientTransform="translate(6423.63 3905.23) rotate(90.5)" xlink:href="#linear-gradient"/>
    <linearGradient id="linear-gradient-13" x1="172.15" y1="66.87" x2="181.66" y2="66.87" gradientTransform="matrix(1, 0, 0, 1, 0, 0)" xlink:href="#linear-gradient"/>
    <linearGradient id="linear-gradient-14" x1="3593.04" y1="4364.27" x2="3622.35" y2="4364.27" xlink:href="#linear-gradient"/>
    <linearGradient id="linear-gradient-15" x1="3556.85" y1="4330.11" x2="3580.19" y2="4330.11" xlink:href="#linear-gradient-2"/>
    <linearGradient id="linear-gradient-16" x1="-3828.83" y1="6423.51" x2="-3854.7" y2="6438.45" gradientTransform="translate(6423.63 3905.23) rotate(90.5)" xlink:href="#linear-gradient-2"/>
    <linearGradient id="linear-gradient-17" x1="-3790.34" y1="6421.59" x2="-3838.01" y2="6449.11" gradientTransform="translate(6423.63 3905.23) rotate(90.5)" xlink:href="#linear-gradient-2"/>
  </defs>
  <g>
    <polygon class="cls-1" points="13.66 159.89 6.09 174.07 23.72 144.14 8.94 119.22 13.66 159.89"/>
    <polygon class="cls-7" points="12.7 149.13 21.67 173.72 30.61 159.37 30.33 119.2 12.7 149.13"/>
    <polygon class="cls-5" points="21.92 134.18 .57 134.28 8.7 119.22 30.33 119.2 21.92 134.18"/>
    <polygon class="cls-6" points="21.67 173.72 .33 174.19 .57 134.29 21.23 134.18 21.67 173.72"/>
    <polygon class="cls-2" points="21.67 173.72 20.81 173.71 21.01 134.03 29.47 119.19 30.33 119.2 21.88 134.04 21.67 173.72"/>
  </g>
  <g>
    <polygon class="cls-10" points="13.77 119.96 6.2 134.14 23.83 104.21 9.05 79.29 13.77 119.96"/>
    <polygon class="cls-8" points="76.81 109.2 85.78 133.78 94.33 118.7 94.44 79.26 76.81 109.2"/>
    <polygon class="cls-9" points="86.03 94.25 .68 94.34 8.81 79.29 94.44 79.27 86.03 94.25"/>
    <polygon class="cls-3" points="85.79 133.78 .44 134.26 .68 94.36 85.34 94.25 85.79 133.78"/>
    <polygon class="cls-2" points="85.79 133.78 84.92 133.78 85.13 94.09 93.58 79.26 94.44 79.27 85.99 94.1 85.79 133.78"/>
  </g>
  <g>
    <polygon class="cls-4" points="14 80.31 6.42 94.49 24.06 64.55 9.27 39.64 14 80.31"/>
    <polygon class="cls-17" points="134.04 69.54 173.01 94.13 181.45 79.33 181.67 39.61 134.04 69.54"/>
    <polygon class="cls-18" points="173.26 54.59 .91 54.69 9.03 39.64 181.66 39.61 173.26 54.59"/>
    <polygon class="cls-16" points="173.01 94.13 .67 94.6 .91 54.7 172.56 54.59 173.01 94.13"/>
    <polygon class="cls-15" points="173.01 94.13 172.15 94.12 172.35 54.44 180.8 39.61 181.66 39.61 173.22 54.45 173.01 94.13"/>
  </g>
  <g>
    <polygon class="cls-11" points="14.2 40.7 6.63 54.88 24.26 24.95 9.48 .03 14.2 40.7"/>
    <polygon class="cls-12" points="34.24 29.94 43.21 54.53 51.69 39.65 51.87 0 34.24 29.94"/>
    <polygon class="cls-13" points="43.46 14.99 1.11 15.09 9.24 .03 51.87 0 43.46 14.99"/>
    <polygon class="cls-14" points="43.21 54.53 .87 55 1.11 15.1 42.77 14.99 43.21 54.53"/>
    <polygon class="cls-2" points="43.21 54.53 42.35 54.52 42.55 14.83 51.01 0 51.87 0 43.42 14.84 43.21 54.53"/>
  </g>
</svg>