<?xml version="1.0" encoding="UTF-8"?>
<svg xmlns="http://www.w3.org/2000/svg" viewBox="0 0 1289 946">
  <defs>
    <style>
      .cls-1 {
        fill: #62accb;
      }

      .cls-2 {
        mix-blend-mode: color-dodge;
      }

      .cls-3 {
        isolation: isolate;
      }
    </style>
  </defs>
  <g class="cls-3">
    <g id="_レイヤー_1" data-name="レイヤー 1">
      <g class="cls-2">
        <path class="cls-1" d="m86.19,433.91c-.95,0-1.84-.35-2.53-1-.74-.7-1.14-1.65-1.14-2.68v-91.37c0-.44-.15-.81-.43-1.02-.28-.22-.67-.29-1.1-.18l-21.66,5.14c-1.06.25-1.99,1.43-1.99,2.52v33.11c0,2.03-1.63,3.95-3.64,4.27L-.03,391.33l-.32-1.97,53.73-8.64c1.06-.17,1.96-1.22,1.96-2.3v-33.11c0-2.03,1.55-3.99,3.53-4.46l21.66-5.14c1.02-.24,2.04-.04,2.8.56.76.6,1.19,1.54,1.19,2.59v91.37c0,.48.18.91.52,1.23.33.32.79.48,1.26.45l42.17-2.35c1.02-.06,1.89-.97,1.89-1.99v-49.98c0-2.04,1.64-3.94,3.65-4.25l35.64-5.39c1.03-.15,2.04.12,2.78.76.75.65,1.17,1.59,1.17,2.64v33.06c0,.47.18.89.5,1.19.32.3.76.44,1.23.4l108-9.63c1.04-.09,1.91-1.05,1.91-2.09v-78.87c0-2.05,1.57-3.97,3.58-4.38l112.39-22.91c1.02-.21,2.04.02,2.79.64.75.61,1.18,1.57,1.18,2.61v63.79c0,.46.17.87.49,1.15s.74.4,1.2.35l157.25-19.29c1.05-.13,1.94-1.13,1.94-2.19v-130.53c0-2.02,1.54-4,3.5-4.51L1157.9,49.25l.5,1.94-588.34,150.88c-1.06.27-1.99,1.47-1.99,2.57v130.53c0,2.05-1.66,3.92-3.69,4.17l-157.25,19.29c-1.04.13-2.02-.17-2.77-.83-.75-.66-1.16-1.6-1.16-2.65v-63.79c0-.45-.16-.82-.45-1.06-.29-.24-.69-.32-1.13-.23l-112.39,22.91c-1.05.21-1.98,1.35-1.98,2.42v78.87c0,2.07-1.68,3.9-3.74,4.08l-108,9.63c-1.03.09-2.01-.23-2.76-.91-.74-.68-1.15-1.63-1.15-2.67v-33.06c0-.46-.17-.86-.48-1.12-.31-.26-.73-.37-1.18-.3l-35.64,5.39c-1.06.16-1.95,1.2-1.95,2.27v49.98c0,2.08-1.69,3.87-3.77,3.99l-42.17,2.35c-.07,0-.14,0-.22,0Z"/>
        <path class="cls-1" d="m579.08,755.79c-.32,0-.65-.05-.98-.14l-135.83-38.52c-1.94-.55-3.45-2.56-3.45-4.57v-79.46c0-1.09-.9-2.17-1.97-2.38l-76.27-14.34c-.44-.08-.85,0-1.14.25-.29.24-.46.63-.46,1.08v44.58c0,1.05-.43,2-1.19,2.59-.76.59-1.78.79-2.8.53l-129.31-32.34c-1.97-.49-3.51-2.46-3.51-4.49v-71.63c0-1.06-.89-2.08-1.94-2.22l-69.88-9.46c-.46-.06-.88.05-1.19.33s-.48.68-.48,1.14v42.95c0,1.05-.43,2-1.19,2.6-.75.61-1.77.83-2.8.61l-54.75-11.86c-2-.43-3.56-2.37-3.56-4.41v-66.35c0-1.04-.87-1.99-1.91-2.07L-.27,501.18l.17-1.99,84.73,7.02c2.06.17,3.74,2,3.74,4.07v66.35c0,1.08.93,2.23,1.98,2.46l54.75,11.86c.44.09.83.02,1.12-.21.29-.23.44-.6.44-1.05v-42.95c0-1.05.41-1.99,1.17-2.64.75-.66,1.74-.94,2.78-.8l69.88,9.46c2.03.27,3.67,2.16,3.67,4.21v71.63c0,1.09.93,2.29,1.99,2.55l129.31,32.34c.43.11.81.05,1.08-.17.27-.21.42-.57.42-1.01v-44.58c0-1.04.43-2,1.18-2.62.75-.62,1.77-.87,2.79-.68l76.27,14.34c2.02.38,3.6,2.29,3.6,4.34v79.46c0,1.11.93,2.34,2,2.65l135.83,38.52c.42.12.79.07,1.05-.12.26-.2.4-.54.4-.98v-181.73c0-1.04.41-1.98,1.16-2.66.75-.67,1.73-.99,2.76-.88l113.44,11.56c2.05.21,3.72,2.06,3.72,4.12v82.34c0,1.08.9,2.16,1.97,2.35l455.18,81.2-.35,1.97-455.18-81.2c-2.03-.36-3.61-2.26-3.61-4.32v-82.34c0-1.05-.88-2.02-1.92-2.13l-113.44-11.56c-.47-.05-.9.09-1.22.38-.32.29-.5.71-.5,1.18v181.73c0,1.06-.44,2-1.2,2.57-.52.39-1.15.59-1.82.59Z"/>
        <path class="cls-1" d="m150.12,390.12c-.86,0-1.67-.3-2.3-.86-.75-.66-1.16-1.6-1.16-2.65v-40.1c0-.45-.16-.83-.45-1.07-.29-.24-.69-.32-1.13-.23l-21.86,4.35c-1.02.2-2.04-.03-2.79-.65-.75-.62-1.18-1.57-1.18-2.61v-32.54c0-.44-.15-.79-.41-1-.27-.21-.65-.26-1.07-.14l-44.27,11.78c-1.06.28-2,1.5-2,2.6v29.21c0,2.05-1.57,3.97-3.59,4.37l-29.99,5.97c-1.02.21-2.04-.03-2.79-.65-.75-.62-1.18-1.57-1.18-2.61v-47.73c0-.43-.14-.77-.39-.95s-.61-.22-1.02-.09l-24.12,7.45-.59-1.91,24.12-7.45c1.02-.31,2.04-.17,2.8.39.76.56,1.2,1.5,1.2,2.56v47.73c0,.45.16.83.45,1.07.29.24.69.32,1.13.23l29.99-5.97c1.05-.21,1.98-1.33,1.98-2.41v-29.21c0-2.02,1.53-4.01,3.48-4.53l44.27-11.78c1.02-.27,2.04-.09,2.8.49.76.58,1.2,1.52,1.2,2.58v32.54c0,.45.16.83.45,1.07.29.24.69.32,1.13.23l21.86-4.35c1.02-.21,2.04.03,2.79.65.75.62,1.18,1.57,1.18,2.61v40.1c0,.46.17.87.49,1.15.32.28.74.4,1.2.35l57.94-7.11c1.05-.13,1.94-1.13,1.94-2.19v-25.97c0-2.06,1.59-3.95,3.63-4.3l128.25-21.86c1.06-.18,1.96-1.25,1.96-2.32v-116.04c0-2,1.49-4.04,3.39-4.66l323.76-104.69c1.02-.33,2.04-.2,2.8.36.76.56,1.2,1.49,1.2,2.55v101.86c0,.44.15.81.44,1.04.28.22.67.29,1.11.19l612.15-139.43.44,1.95-612.15,139.43c-1.02.23-2.04.02-2.8-.58-.76-.6-1.19-1.55-1.19-2.6v-101.86c0-.43-.14-.76-.38-.94-.25-.18-.6-.21-1.01-.07l-323.76,104.69c-1.07.34-2,1.63-2,2.75v116.04c0,2.06-1.59,3.95-3.63,4.3l-128.25,21.86c-1.06.18-1.96,1.25-1.96,2.33v25.97c0,2.05-1.66,3.92-3.69,4.17l-57.94,7.11c-.16.02-.31.03-.47.03Z"/>
        <path class="cls-1" d="m101.4,335.34c-.73,0-1.42-.23-1.97-.67-.76-.6-1.19-1.55-1.19-2.6v-44.28c0-.43-.14-.76-.38-.94-.25-.18-.6-.2-1.01-.07l-87.02,28.14-.62-1.9,87.02-28.14c1.01-.33,2.03-.2,2.8.36.77.56,1.2,1.49,1.2,2.55v44.28c0,.44.15.81.43,1.03.28.22.67.29,1.1.19l35.79-8.32c1.06-.25,1.99-1.42,1.99-2.5v-53.68c0-1.99,1.48-4.05,3.37-4.68l48.16-16.03c1.01-.34,2.03-.21,2.8.34.77.55,1.21,1.48,1.21,2.55v71.38c0,.45.16.82.44,1.05.29.23.68.31,1.12.21l51.99-11.1c1.06-.23,1.98-1.37,1.98-2.45v-41.33c0-2.01,1.52-4.02,3.46-4.56l221.44-62.08c1.02-.29,2.04-.12,2.8.46.76.58,1.2,1.52,1.2,2.57v87.6c0,.45.16.84.46,1.09.3.25.71.34,1.15.26l141.53-25.47c1.07-.19,1.97-1.27,1.97-2.35v-112.65c0-2.01,1.51-4.02,3.44-4.58L1140.75.4l.56,1.92-512.66,148.61c-1.07.31-2,1.55-2,2.66v112.65c0,2.06-1.59,3.96-3.61,4.32l-141.53,25.47c-1.02.18-2.04-.07-2.79-.7-.75-.63-1.18-1.58-1.18-2.62v-87.6c0-.43-.14-.78-.41-.98-.26-.2-.64-.24-1.05-.13l-221.44,62.08c-1.06.3-2,1.53-2,2.64v41.33c0,2.04-1.57,3.98-3.56,4.4l-51.99,11.1c-1.02.22-2.04,0-2.8-.62-.75-.61-1.19-1.56-1.19-2.61v-71.38c0-.42-.13-.75-.38-.93-.24-.17-.6-.2-1-.06l-48.16,16.03c-1.07.36-2.01,1.66-2.01,2.78v53.68c0,2.03-1.55,3.99-3.53,4.45l-35.79,8.32c-.28.06-.55.1-.83.1Z"/>
        <path class="cls-1" d="m55.27,469.5h-.04l-22.15-.25c-2.11-.02-3.82-1.76-3.82-3.87v-65.61c0-.46-.17-.86-.48-1.14s-.74-.39-1.19-.32l-22.13,3.03-.27-1.98,22.13-3.03c1.04-.14,2.02.14,2.78.8.75.66,1.17,1.6,1.17,2.64v65.61c0,1.02.83,1.85,1.85,1.87l22.15.25c.47,0,.94-.18,1.29-.52.35-.34.54-.8.54-1.28v-60c0-2.05,1.66-3.92,3.7-4.16l39.61-4.67c1.04-.12,2.02.18,2.77.84.75.67,1.16,1.61,1.16,2.65v47.3c0,.48.19.93.53,1.27.34.33.8.52,1.28.5l152.68-3.4c1.02-.02,1.86-.87,1.86-1.9v-65.84c0-2.05,1.66-3.92,3.69-4.17l61.18-7.5c1.03-.13,2.02.17,2.77.83.75.66,1.16,1.6,1.16,2.65v50.19c0,.48.19.92.52,1.23s.78.48,1.26.46l111-5.66c1.02-.05,1.88-.96,1.88-1.98v-79.97c0-2.04,1.64-3.94,3.66-4.23l45.44-6.66c1.04-.15,2.03.12,2.78.78.75.65,1.17,1.59,1.17,2.64v48.64c0,.47.18.89.5,1.19.32.3.76.44,1.23.4l207.27-18.49c1.04-.09,1.91-1.05,1.91-2.09v-77.48c0-2.07,1.6-3.94,3.64-4.27l537.68-86.5.32,1.97-537.68,86.5c-1.06.17-1.96,1.22-1.96,2.3v77.48c0,2.07-1.68,3.9-3.73,4.08l-207.27,18.49c-1.04.09-2.01-.23-2.76-.91-.74-.68-1.15-1.63-1.15-2.67v-48.64c0-.46-.17-.86-.48-1.12-.31-.27-.73-.38-1.18-.31l-45.44,6.66c-1.06.16-1.95,1.19-1.95,2.26v79.97c0,2.09-1.7,3.87-3.78,3.98l-111,5.66c-1.03.05-2-.3-2.74-1-.74-.7-1.14-1.65-1.14-2.68v-50.19c0-.46-.17-.87-.49-1.15-.31-.28-.74-.4-1.2-.35l-61.18,7.5c-1.05.13-1.94,1.13-1.94,2.19v65.84c0,2.1-1.71,3.85-3.81,3.9l-152.68,3.4c-1.02.02-1.99-.36-2.72-1.07-.73-.71-1.13-1.67-1.13-2.7v-47.3c0-.46-.17-.88-.49-1.16s-.75-.41-1.21-.35l-39.61,4.67c-1.05.12-1.93,1.12-1.93,2.17v60c0,1.02-.4,1.98-1.13,2.7-.72.71-1.67,1.1-2.67,1.1Z"/>
        <path class="cls-1" d="m571.37,524.1c-.08,0-.15,0-.23,0l-183.29-10.8c-2.08-.12-3.77-1.92-3.77-4v-98.2c0-.47-.18-.91-.51-1.22-.33-.31-.77-.47-1.25-.43l-38.57,2.52c-1.03.07-1.89.99-1.89,2.02v51.08c0,1.02-.4,1.98-1.13,2.71-.72.72-1.68,1.11-2.69,1.11h-.02l-45.29-.29c-2.11-.01-3.83-1.74-3.83-3.85v-29.73c0-.48-.19-.92-.52-1.25-.34-.32-.79-.5-1.27-.47l-114.21,4.73c-1.02.04-1.87.94-1.87,1.95v56.64c0,1.03-.41,1.98-1.15,2.68-.74.7-1.71,1.05-2.74.99l-80.83-4.77c-2.08-.12-3.77-1.92-3.77-4v-35.19c0-.48-.19-.94-.53-1.27s-.78-.54-1.28-.51l-33.26.58c-1.02.02-1.85.86-1.85,1.88v27.48c0,1.03-.41,1.98-1.14,2.69-.74.7-1.71,1.05-2.74,1.01l-36.45-1.8.1-2,36.45,1.8c.48.03.93-.14,1.26-.46.34-.32.52-.76.52-1.24v-27.48c0-2.1,1.71-3.85,3.82-3.88l33.26-.58c1.02,0,1.99.37,2.72,1.08.73.72,1.13,1.68,1.13,2.7v35.19c0,1.03.86,1.94,1.89,2l80.83,4.77c.47.02.92-.13,1.25-.44.33-.31.52-.75.52-1.23v-56.64c0-2.09,1.7-3.86,3.79-3.95l114.21-4.73c1.03-.04,2,.32,2.73,1.03.73.71,1.14,1.66,1.14,2.69v29.73c0,1.02.83,1.85,1.84,1.85l45.29.29c.48-.02.94-.19,1.29-.53.35-.34.54-.8.54-1.29v-51.08c0-2.08,1.69-3.88,3.76-4.02l38.58-2.52c1.03-.06,2.01.28,2.75.97.74.69,1.15,1.64,1.15,2.68v98.2c0,1.03.86,1.94,1.89,2l183.29,10.8c.47.03.92-.13,1.25-.44.33-.31.52-.75.52-1.23v-102.08c0-2.09,1.7-3.87,3.79-3.96l45.95-2.12c1.02-.05,1.88-.95,1.88-1.97v-66.35c0-2.06,1.66-3.92,3.7-4.15l114.94-13c1.04-.12,2.02.19,2.77.86.75.67,1.16,1.61,1.16,2.65v154.51c0,1.02.83,1.87,1.85,1.89l391.97,8.12-.04,2-391.97-8.12c-2.1-.04-3.81-1.79-3.81-3.89v-154.51c0-.47-.18-.88-.49-1.16-.32-.28-.75-.41-1.21-.36l-114.94,13c-1.05.12-1.93,1.11-1.93,2.16v66.35c0,2.09-1.7,3.87-3.79,3.96l-45.96,2.12c-1.02.05-1.88.95-1.88,1.97v102.08c0,1.03-.41,1.98-1.15,2.68-.68.64-1.57.99-2.51.99Z"/>
        <path class="cls-1" d="m1140.79,846.72l-676.65-162.75-52.52-12.63c-1.98-.48-3.52-2.44-3.52-4.47v-101.18c0-1.05-.88-2.05-1.93-2.17l-94.77-11.02c-.47-.05-.89.07-1.21.36-.32.28-.49.69-.49,1.16v66.93c0,1.05-.43,2-1.19,2.61-.75.61-1.77.83-2.8.62l-31.15-6.6c-2-.42-3.57-2.36-3.57-4.4v-118.69c0-1.02-.86-1.91-1.87-1.95l-80.47-3.2c-.48-.02-.93.15-1.27.48-.34.33-.52.77-.52,1.25v79.53c0,1.04-.43,2-1.18,2.62-.75.63-1.77.89-2.79.71l-60.04-10.42c-2.03-.35-3.62-2.24-3.62-4.3v-18.89c0-1.06-.89-2.07-1.94-2.21l-68.38-8.93c-.46-.06-.88.06-1.2.33-.31.27-.49.68-.49,1.14v34.72c0,1.05-.43,2-1.19,2.61s-1.77.84-2.79.62l-40.92-8.67.41-1.96,40.92,8.67c.43.09.83.02,1.12-.22.29-.23.44-.61.44-1.05v-34.72c0-1.05.41-1.99,1.17-2.65.75-.66,1.73-.95,2.77-.81l68.38,8.93c2.03.27,3.68,2.15,3.68,4.19v18.89c0,1.08.9,2.15,1.96,2.33l60.04,10.42c.45.08.86-.02,1.16-.27.3-.25.46-.64.46-1.09v-79.53c0-1.03.4-1.98,1.14-2.69.73-.71,1.71-1.08,2.73-1.03l80.47,3.2c2.09.08,3.79,1.85,3.79,3.95v118.69c0,1.08.93,2.22,1.98,2.44l31.15,6.6c.44.09.83.02,1.12-.22.29-.23.44-.61.44-1.05v-66.93c0-1.04.41-1.98,1.16-2.65.75-.67,1.73-.97,2.77-.85l94.78,11.02c2.04.24,3.7,2.1,3.7,4.16v101.18c0,1.09.93,2.27,1.99,2.53l58.03,13.96,671.14,161.42-.47,1.94Z"/>
        <path class="cls-1" d="m1140.74,945.6l-392.1-118.66c-1.92-.58-3.42-2.61-3.42-4.61v-286.08c0-1.03-.86-1.94-1.89-2l-91.17-5.37c-.48-.03-.92.13-1.25.44s-.52.75-.52,1.23v110c0,1.04-.43,2-1.17,2.63-.75.63-1.76.9-2.79.73l-141.58-23.23c-2.04-.33-3.63-2.21-3.63-4.28v-121.86c0-1.01-.85-1.89-1.86-1.92l-168.07-5.09c-.48-.01-.93.16-1.27.49-.34.33-.53.78-.53,1.26v91.16c0,1.04-.43,2-1.17,2.63-.74.64-1.76.91-2.78.76l-67.93-10.5c-.46-.07-.87.04-1.17.3s-.47.66-.47,1.12v109.01c0,1.06-.44,2-1.2,2.56-.77.56-1.79.7-2.8.37l-71.71-22.73c-1.91-.6-3.4-2.64-3.4-4.64v-30.38c0-1.1-.93-2.3-2-2.58l-31.79-8.25c-.42-.11-.81-.06-1.07.15-.27.21-.42.56-.42,1v25.42c0,1.06-.44,2-1.2,2.56s-1.79.7-2.8.39l-33.88-10.58c-1.91-.6-3.41-2.63-3.41-4.63v-68.21c0-1.08-.9-2.16-1.97-2.35l-30.6-5.46c-.45-.08-.85.01-1.15.26-.3.25-.46.64-.46,1.09v51.04c0,1.06-.44,2-1.2,2.57-.76.57-1.78.73-2.8.44l-57.06-16.45.55-1.92,57.06,16.45c.42.12.79.08,1.05-.12.26-.19.4-.54.4-.97v-51.04c0-1.04.43-2,1.18-2.62s1.76-.88,2.79-.7l30.6,5.46c2.03.36,3.61,2.26,3.61,4.32v68.21c0,1.12.94,2.39,2,2.72l33.87,10.58c.41.13.77.1,1.02-.09.25-.18.39-.52.39-.95v-25.42c0-1.06.44-2,1.19-2.58.76-.59,1.78-.77,2.8-.51l31.79,8.25c1.96.51,3.49,2.49,3.49,4.51v30.38c0,1.12.94,2.4,2,2.74l71.71,22.73c.41.13.77.1,1.02-.08.25-.18.38-.52.38-.94v-109.01c0-1.04.43-2,1.17-2.63.74-.64,1.76-.91,2.78-.76l67.93,10.5c.45.07.87-.04,1.17-.3.31-.26.47-.66.47-1.12v-91.16c0-1.03.4-1.98,1.14-2.69.73-.71,1.69-1.09,2.73-1.05l168.07,5.09c2.1.06,3.8,1.82,3.8,3.92v121.86c0,1.08.9,2.13,1.96,2.31l141.58,23.23c.45.07.86-.03,1.17-.28s.47-.65.47-1.1v-110c0-1.03.41-1.98,1.15-2.68.74-.7,1.71-1.05,2.74-.99l91.17,5.37c2.08.12,3.77,1.92,3.77,4v286.08c0,1.11.94,2.38,2,2.7l392.1,118.66-.58,1.91Z"/>
      </g>
    </g>
  </g>
</svg>