<?xml version="1.0" encoding="UTF-8"?>
<svg id="_レイヤー_1" data-name="レイヤー 1" xmlns="http://www.w3.org/2000/svg" viewBox="0 0 1080 559">
  <defs>
    <style>
      .cls-1 {
        fill: #fff;
      }
    </style>
  </defs>
  <g>
    <path class="cls-1" d="m320.97,102.76c-3.87,1.99-8.1,2.61-11.39,4.93-1.61-.55-2.98-.2-4.56,1.2.69.79.48,1.83.14,2.41-6.8,5.68-15.34,10.35-23.65,13.99-8.65,4.22-17.06,9.35-25.84,13.11-3.53,1.41-7.64,2.49-10.93,4.81-4.21,2.56-3.06,3.24-6.01,4.99-7.38,5.35-16.05,7.62-24.03,10.68-4.33,2.11-8.99,4.79-13.2,7.36l-7.86,3.52c.36,1.37-.19,2.98-.87,4.13-.36-1.37-.6-2.29-.04-3.89-2.62,1.17-2.86,20.75-3.06,23.73l-3.25,26.7c-1.46,13.06-3.03,25.67-4.04,38.62,1.53-16.5,3.94-37.13,5.54-47.79-3.49,25.79-10.07,103.12-10.78,111.6,19.49-7.54,39.22-14.17,58.25-21.59,10.14-4.12,19.82-8.12,30.21-11.32l5.93-1.55c1.25-.82,2.02-3.46,3.05-3.24,5.96.39,5.66,4.86,2.85,9.01-4.62,6.58-14.69,7.26-21.06,10.88-3.41,1.87-1.35,2.3-4.98,5.2-3.39,3.82-10.58,6.19-14.9,8.29-8.43,3.18-16.17,7.16-24.49,10.8-6.15,2.58-8.39,7.07-15.91,10.02-5.7,2.47-17.35,4.54-21.41,9.51-2.14,3-1.2,15.92-1.61,19.93l-1.06,18.33c-.99,24.16-3.13,47.65-5.16,71.59-1.46,13.07-2.46,26.01-3.46,38.96-.59,8.93-2.78,17.31-1.09,25.65.36,1.37-.45-9.15,1.28-8.14,1.73,1.01,1.34,6.97,2.27,8.67,19.13-8.91,36.54-28.1,51.84-42.35,14.95-13.67,29.1-28.59,44.05-42.27,7.14-6.26,12.18-5.63,11.04,4.92-.93,9.51-7.33,20.45-12.5,28.64-7.65,11.76-14.85,23.4-23.53,34.94-17.61,22.17-43.23,54.73-75.1,50.39-19.72-2.64-42.85-14.63-46.53-36.11-1.36-8.91,2.11-16.16,4.31-24.54.32-2.52-.36-21.86,1.81-22.91,0,0-.18,4.92-.27,6.41l.49-7.44c-.58-.34-.55-7.66-.78-8.58l1.67-14.1c1.05-9.05,2.66-17.77,3.25-26.71,2.21-17.65,1.1-34.92,3.76-52.69-12.32,3.23-36.38-8.52-21.52-20.71.46-.12.91-.24.79-.69,5.46-3.38,13.34-4.96,19.15-6.97,2.62-1.18,5-3.26,7.16-4.31.46-.12-.04-3.89.99-3.67,0,0,.04,3.89-.29,4.47,2.16-1.05,2.13-14.21,2.31-19.14-.1,1.49-.65,3.1-1.21,4.71.46-.12,8.05-120.16,8.62-131.04-14.01,6.11-42.12,10.54-44.88-11.18-.86-5.14.71-8.48,5.71-11.74,11.13-7.79,38.82-8.21,43.26-21.08,3.78-9.77-4.11-19.41,5.89-25.93,7.04-4.77,18.74-2.96,26.32-.06,4.37,1.78,7.03,4.5,11.06,6.86,1.27,1.13,2.09,2.38,2.56,4.21l8.32-3.64c20.4-7.78,41.04-14.65,61.32-22.89,19.03-7.42,38.28-15.87,58.25-21.59,2.28-.6,5.48-1.43,7.18-2.37,1.37-.36,2.72-2.67,3.17-2.79,2.28-.6,5.02-1.31,6.43,2.22,3.18,8.43-14.36,15.95-19.02,18.64Zm-168.91,146.66c-1.46,13.06-3.95,25.91-4.49,38.74l-6.04,64.51c2.35-15.25,5.51-29.25,7.74-44.95,2.88-18.8,1.73-39.96,2.79-58.29Zm25.36,57.75l-2.11,16.17c1.37-.36,1.92-1.97.87-4.13l1.24-12.03Zm10.5-95.92l.53-3.55-.53,3.55Zm1.09-5.16s.22-1.03.1-1.49c.12.46-.22,1.03-.1,1.49Zm.77-2.64c-.46.12-.33.58-.67,1.15.34-.58.22-1.04.67-1.15Z"/>
    <path class="cls-1" d="m456.87,322.54c-6.7,15.41-12.24,31.5-20.09,46.23-5.94,10.83-15.81,29.02-29.67,28.26-2.98-.2-22.26-4.9-22.4-7.3l1.61.55-3.46-2.02c3.24,3.06-2.98-.19-3.44-.08-2.88-1.69-5.66-4.86-7.75-7.24-3.6-4.43-5.37-9.33-6.68-14.35-1.31-5.02-1.72-10.28-2.57-15.42-1.84-10.74-3.77-19.99-3.2-30.87.31-2.53,3.21-30.6,6.64-30.52.91-.24-.54,3.55.04,3.89l3.05-14.45c-.67,1.15-.89,2.18-1.69,2.88-.58-.34,2.61-12.39,3.38-15.03-6.38,12.89-10.82,25.76-16.16,38.86-3.9,9.32-9.89,16.25-12.09,24.63-5.28,18.95-13.21,37.12-16.55,56.04l-2.78-3.17c-5.59,12.19-21.02,3.55-27.62-3.01-6.02-6.23-6.09-12.07-7.33-20.52-1-7.54-3.37-14.73-3.12-23.09.23-10.31,1.49-20.39,2.63-30.93.68-10.42,1.37-20.85,2.51-31.39.73-6.53,3.38-15.03,3.08-21.79.06-5.38-2.15-8.21,2.83-13.42,4.64-4.63,10.69-5.73,16.87-6.37,7.66-.55,22.93,3.75,18.16,17.19-2.12,4.95-6.4,10.95-8.86,16.47-2.79,6.1-1.74,8.26-2.01,14.67.04,3.89-2.77,8.04-3.64,12.17-1.42,5.74-1.58,12.61-1.85,19.02.04,3.89,1.22,6.51,1.72,10.28,1.6,9.82.91,20.25,2.51,30.07-.02-1.95,2.34-5.98,2.91-5.64.58.33-2.41,9.41-1.96,9.29l16.66-46.31c-3.9,9.31-7.03,15.99-7.03,15.99-1.61-.55,34.55-84.16,39.39-91.77,10.01-15.79,27.02-19.76,39.03.02,13.28,20.91-6.52,42.19-13.17,61.49-3.54,10.68-5.7,22.96-7.75,33.74-1.64,6.77-5.02,21.8-3.31,32.08-.88-7.08,1.99-16.62,2.62-21.66,1.14-10.54,4.13-19.62,9.64-28.38-1.64,6.77-3.86,13.2-5.17,19.4l1.57-3.34c.91-.24-.05,16.6-.26,17.63-.39,5.96-.66,12.37.43,18.42-.34.58,2.03,7.76,2.03,7.76l.58.34c-.12-.46,2.96-1.75,3.75-2.45,6.25-4.07,11.42-12.26,15.71-18.26,8.68-11.54,16.67-23.88,24.78-35.76,5.85-9.34,13.98-19.27,18.34-28.7,1.67-4.83,6.14-13.8,11.29-3.44,4.69,10.48-8.59,30.54-12.15,39.28Z"/>
    <path class="cls-1" d="m596.53,111.6c2.13,6.27-4.32,13.32-9.44,16.13-5.46,3.38-13.26,1.52-18.5,3.87-2.96,1.75-1.69,2.88-4.18,4.51-3.75,2.44-8.89,3.3-13,4.38-5.93,1.55-19.55,1.71-23.74,6.22-.79.69-1.47,1.85-2.02,3.46l.65-3.1c-2.62,1.17-3.96,14.7-5,23.75l2.39-11.36-1.85,19.02c-2.06,10.78-3.53,21.9-5.13,32.56-3.2,21.32-5.6,41.95-7.77,63.5-3,38.83-5.53,79.5-4.06,118.62.3,6.75-.52,35.26,9.1,36.64,1.61.55,9.76-7.43,9.42-6.86,1.69-2.88,3.83-5.88,5.39-9.22-1.47,1.85-5.41,7.27-5.65,6.36-1.17-2.62,7.85-14.74,9.08-17.5,3.37-5.76,6.16-11.86,9.08-17.5l17.99-39.35c11.05-24.85,21.08-49.91,32.13-74.75,2.46-5.52,6.49-23.65,12.07-26.57,6.95-3.29,10.23,3.66,9.5,10.19-.88,13.4-10.58,26.67-14.1,39.3-6.39,22.16-15.43,43.55-23.88,65.28-9.47,23.45-18.94,46.91-30.01,69.81-4.91,11.04-11.15,26.33-21.13,34.8-7.6,6.38-20.33,4.35-29.06.78-9.65-3.33-16.37-10.35-20.58-19-1.17-2.62-7.74-16.51-5.84-20.42l1.79,6.84-1.48-9.37c-.43,2.07-1.99-3.87-2.23-4.78-.96-3.65-1.12-8-1.16-11.89-1-7.54-.97-14.87-1.05-22.65-.51-14.99-.56-30.09-1.65-45.42-1.54-15.21-.11-30.22.87-45.1.32-2.52,2.16-32.76,4.44-33.36.46-.12.52,5.71.64,6.17.03-7.32.98-14.89,1.47-22.33-.31,2.52-1.09,5.17-1.32,4.25-1.43-5.48,1.99-16.62,2.5-22.12l1.29-17.41c1.2-15.92,2.39-31.85,5.2-47.22-12.54,4.26-25.11,6.57-36.38,11.97-16.51,7.73-38.9,11.65-56.84,13.91-2.4.14-13.48,2.55-12.05-3.19.56-1.61,10-6.52,11.71-7.45,7.84-5.47,16.97-7.86,25.98-10.71,17.33-6.48,34.91-10.11,52.12-17.06,4.44-1.65,12.56-2.31,16.2-5.22,3.75-2.44,2.91-5.64,3.66-10.23,1.04-9.06,2.54-18.23,4.16-26.95,1.84-9.75,3.1-19.83,6.54-29.03,2.34-5.98,5.63-8.3,6.93-14.5,2.25-13.76,5.42-27.76,11.34-40.53,6.02-14.26,21.52-20.27,36.39-21.24,7.21-.42,17.87,1.18,17.06,11.14-.41,4.01-4.38,7.49-6.4,10.94.12.46,3.03-5.18,3.51-3.36.38,3.31-10.42,31.02-11.9,30.92-.46.12,3.4-13.09,3.62-14.12-10.65,30.11-17.97,61.78-24.38,93.21,1.37-.36,2.26-2.55,3.25-6.22-.65,3.1-1.09,5.16-.97,5.62,17.56-5.57,35.83-10.35,53.85-16.05,3.65-.96,9.18-7.77,11.32-1.5l.12.46Zm-50.46-80.93c-23.01,61.14-29.82,128.29-40.45,192.05-6.34,37.27-10.04,75.31-10.88,113.09-.38,17.17.15,34.1,1.26,51.38v-9.27c-.58-22.77,1.1-46.14,3.48-68.71,4.6-49.49,7.93-100.12,17.12-148.87,8.1-43.58,14.02-88.06,29.47-129.66Zm-39.46,404.47c.58.34,1.15.68,1.61.56l-1.61-.56Zm7.31-218c-1.72,10.2-2.52,20.17-3.91,29.8,1.5-9.17,3-18.34,3.93-27.85-.12-.46-.24-.91-.02-1.95Zm20.45-106.33l-1.94,11.24c.65-3.1,1.52-7.23,1.94-11.24Zm5.99-27.42l-5.46,23.87c1.82-11.7,3.3-22.81,5.46-23.87Z"/>
    <path class="cls-1" d="m764.67,218.02c-1.62,8.72-4.27,17.21-7.38,25.84-6.44,18.27-13.78,36.78-20.68,55.17-7.01,17.93-14.94,36.1-26.32,52.26-2.26,2.54-18.84,24.93-20.33,24.83-.12-.46.22-1.03.55-1.61l-2.84,2.21c2.16-1.06-4.96,7.15-7,8.66-6.03,3.04-13.36,3.01-19.79.79-6.89-2.1-11.52-6.74-15.93-12.41-7.2-8.85-10.16-18.32-11.2-29.75-.14-2.4-.68-30.55,2.63-30.93.91-.24.04,3.89.62,4.23l.21-12.25c-1.49-.1,9.32-57.56,10.76-61.35-12.98,6.32-30.44,10.41-43.14,1.05-3.7-2.93-3.62-6.37-5.25-8.87-2.33-3.29-4.63-4.64-6.38-7.6-10.42-21.17,7.47-59.03,33.33-49.7l-1.27-1.13c-.26-2.86,7.01,2.56,8.07,4.72.48,1.82.17,15.56-2.35,15.25-.46.12.59-8.93.47-9.39-.93,9.51-8,21.61-6.52,30.98.88,7.09,4.53,6.13,10.82,5.95,9.27.01,22.61-4.94,34.4-4.62-7.9-.37-16.69,1.45-22.87,2.09,0,0-.46.12-.57-.34,7.09-.88,14.39-2.79,20.68-2.98,14.08-.27,23.61,2.6,21.83,18.19-2.01,14.67-5.39,29.7-7.86,44.5-2.13,14.21-3.11,29.1-4.66,43.66-.18,4.92-5.2,26.73-.35,30.34,6,4.28,25.13-25.12,30.07-34.21-1.01,1.73-2.38,2.09-3.05,3.24-.91.24,5.78-15.17,6.67-17.35l8.82-20.36,16.16-38.87,16.27-40.35c1.56-3.34,8.34-22.18,14.18-11.03,3.04,6.03.51,14.99-.79,21.18Zm-138.93,2.23s-.12-.46.34-.57l-.34.57Zm.12.46c.7.79,4.03,2.36,4.03,2.36,2.76,1.23,6.19,1.3,9.97.8-4.23.62-8.45,1.24-11.21.01-1.03-.22-2.55-2.26-2.78-3.17Zm12.78,110.31c.24.91-.1,1.49.02,1.95-.12-.46.22-1.03-.02-1.95Zm.9,9.03l.12.46c-.12-.46.22-1.03.1-1.49.12.46-.34.57-.22,1.03Zm15.88,38.28c-.58-.33-1.15-.67-1.27-1.13l.58.34c-3.6-4.42-7.19-8.85-8.82-11.35l2.92,5.57-4.34-9.11-.12-.46c-.69-.79-.81-1.25-.81-1.25,0,0,.12.46.7.79l-.6-2.28c-2.13-6.27-3.23-12.32-3.87-18.5l-.12-.46c.16,4.35.66,8.12,1.86,12.68.98,5.6,3.11,11.87,5.91,16.99.81,1.25,6.5,8.05,10.19,10.99-.12-.46-.24-.91-.7-.79,3.46,2.02,7.71,3.35,12.17,3.64-5.5-.51-10.11-3.2-13.8-6.14l.12.46Zm-15.86-47.55c.09-12.71,2.12-25.43,3.82-37.58l3.41-22.36c1.21-4.71,4.94-29.59,6.86-31.55-2.96,1.75-5.04,19.86-5.6,21.47-2.08,8.84-3.7,17.55-4.74,26.6-2.13,14.22-4.14,28.89-3.75,43.42Zm12.63,44.5c-.12-.46-.7-.79-.7-.79.12.46.58.33.7.79Zm33.59-128.79l-4.21,23.05,4.33-22.6-.12-.46Zm-.12-.46l.46-.12-.12-.46-.34.57Zm0,0l.46-.12-.12-.46-.34.57Z"/>
    <path class="cls-1" d="m998.07,154.94l-31.47,41.9c-11.16,15.12-22.21,30.69-32.68,46.6-4.16,6.46-11.86,14.32-14.75,21.91-2.89,7.59-1.13,21.76-1.84,30.24-2.9,57.83-4.18,118.16-20.73,174.2-5.31,17-8.55,34.43-26.07,43.9-19.11,10.85-44.68,6.33-61.43-7.33-24.47-18.96-11.68-52.06-2.21-75.52,9.25-22.42,18.39-45.3,29.94-66.37,8.3-14.86,17.64-29.5,26.98-44.13,6.4-10.95,18.84-24.93,21.9-37.44,3.72-15.61,1.56-35.04,2.63-51.42.31-13.74,1.07-27.6,1.83-41.46-5.87,7.39-9.06,19.44-14.11,28.09l-22.24,38.02c-6.96,12.55-15.62,26.04-27.42,34.98-2.5,1.63-17.02,13.24-17.6,12.9l.67-1.15-2.5,1.63c3.19-.84-4.52,5.09-6.35,5.56-4.78,2.23-10.5,2.75-15.21,1.54-9.87-2.29-18.79-12.15-22.1-21.04-1.29-3.08-7.12-32.77-2.43-33.51.91-.24.26,2.86,1.29,3.08-.38-3.32-.88-7.08-.8-10.52l-.67,1.15c-2.4.14,1.62-49.69,1.92-54.16,1.26-10.08,1.37-20.85,4.12-30.83,1.11-3.22,3.15-4.73,3.8-7.83.67-1.15,1.21-4.7,2.1-6.89,2.27-11.81,13.38-21.55,25.53-19.86,5.5.51,14.02,5.11,14.21,11.4-.2,2.98-2.24,4.49-3.13,6.67.46-.12.79-.69,1.25-.81,1.49.1-1.41,16.96-2.9,16.86-.91.24-.5-3.77-.52-5.72-4.54,23.63-8.39,48.05-9.84,72.33,1.04-9.06,6.21-48.94,7.7-48.85,1.49.1-20.76,99.58,2.95,100.69,8.48.71,19.26-17.72,23.21-23.15,9.81-12.81,22.47-27.84,29.76-40.96-.79.69-1.47,1.85-2.83,2.21.46-.12,15.1-31.76,17.34-36.25,5.49-10.7,16.1-24.21,16.76-36.58.15-6.87-.13-11.67,8.98-16.01,10.48-4.69,28.23-3.98,33.74,7.75,2.35,5.24,1.14,9.95-.4,15.23-7.84,25.96-14.17,53.95-16.39,80.88,16.34-23.3,32.68-46.6,50.62-69.35,6.09-8.42,12.87-16.05,18.96-24.48,3.49-5.3,13.93-23.16,19.13-8.91,3.18,8.43-3.96,14.69-8.7,20.81Zm-114.7,163.69c-14.51,22.82-26.5,45.96-37.1,70.69-10.38,23.69-23.02,49.93-23.42,76.37-.11,10.76,9.15,40.53,25.74,29.36,8.75-5.71,12.13-20.74,15-30.27,3.3-11.6,6.03-23.53,7.85-35.23,0,0,.22-1.03.1-1.49,0,0-.12-.46.34-.57l-.12-.46.87-4.13-.12-.46c5.57-34.63,8.16-69.45,10.87-103.82Zm11.95,107.11l2.2-8.38c2.87-9.53,3-18.35,3.59-27.28-1.76,6.31-3.4,13.09-3.79,19.04-1.09,5.16-1.48,11.12-1.99,16.62Zm1.14-31.03l-1.11,3.22c.67-1.15.89-2.18,1.11-3.22Zm1.31-47.17c2.23,4.78.49,13.04-.26,17.63-1.11,3.22-.83,8.02-.66,12.37l2.96-22.24c.32-2.52-.98-5.59-2.03-7.76Z"/>
  </g>
  <path class="cls-1" d="m1080,101.49h-2s-1075,0-1075,0h0s-3,0-3,0v430h3s1075,0,1075,0h0s2,0,2,0V101.49Zm-9,9v412H9V110.49h1062Z"/>
</svg>