<?xml version="1.0" encoding="UTF-8"?>
<svg id="_レイヤー_1" data-name="レイヤー 1" xmlns="http://www.w3.org/2000/svg" viewBox="0 0 603.78 110.55">
  <defs>
    <style>
      .cls-1 {
        fill: #fff;
      }
    </style>
  </defs>
  <path class="cls-1" d="m55.21,85.01L1.39,64.11v-12.8l53.82-20.9v12.51l-39.5,14.79,39.5,14.79v12.51ZM1.83,63.81l52.95,20.56v-11.58l-40.3-15.09,40.3-15.09v-11.58L1.83,51.6v12.21Z"/>
  <path class="cls-1" d="m68.58,110.04h-13.43L93.52.52h13.43l-38.37,109.52Zm-12.82-.43h12.51L106.34.95h-12.51l-38.06,108.66Z"/>
  <path class="cls-1" d="m182.26,99.61c-6.17,0-11.98-1.04-17.28-3.08-5.29-2.05-9.95-4.98-13.85-8.73-3.9-3.75-6.98-8.23-9.14-13.33-2.16-5.1-3.26-10.74-3.26-16.76s1.1-11.66,3.26-16.76c2.16-5.09,5.26-9.58,9.2-13.33,3.94-3.75,8.6-6.68,13.85-8.73,5.25-2.05,11.08-3.08,17.33-3.08,6.63,0,12.78,1.16,18.26,3.43,5.49,2.28,10.19,5.71,13.98,10.19l.13.16-10.04,9.44-.15-.16c-2.9-3.13-6.19-5.51-9.77-7.07-3.59-1.56-7.53-2.36-11.73-2.36s-8.09.7-11.56,2.07c-3.47,1.37-6.52,3.34-9.08,5.86h0c-2.55,2.51-4.56,5.53-5.97,8.96-1.41,3.43-2.13,7.26-2.13,11.38s.72,7.95,2.13,11.38c1.41,3.43,3.42,6.45,5.97,8.96,2.55,2.52,5.61,4.49,9.08,5.86,3.47,1.37,7.36,2.07,11.56,2.07s8.14-.79,11.73-2.36c3.58-1.56,6.87-3.98,9.77-7.19l.15-.16,10.04,9.56-.13.16c-3.79,4.41-8.49,7.81-13.98,10.13-5.48,2.32-11.67,3.49-18.38,3.49Zm.12-83.38c-6.19,0-11.97,1.03-17.18,3.05-5.2,2.03-9.81,4.93-13.71,8.64-3.9,3.71-6.96,8.15-9.1,13.19-2.14,5.04-3.23,10.63-3.23,16.59s1.09,11.55,3.23,16.59c2.14,5.04,5.18,9.48,9.04,13.19,3.86,3.71,8.47,6.61,13.71,8.64,5.24,2.03,11,3.05,17.12,3.05,6.66,0,12.78-1.16,18.21-3.46,5.36-2.26,9.96-5.58,13.68-9.86l-9.42-8.97c-2.91,3.17-6.19,5.57-9.77,7.13-3.64,1.59-7.64,2.39-11.9,2.39s-8.2-.71-11.72-2.1c-3.52-1.39-6.63-3.4-9.22-5.95-2.6-2.56-4.64-5.62-6.07-9.1-1.43-3.48-2.16-7.37-2.16-11.55s.73-8.07,2.16-11.55c1.43-3.49,3.48-6.55,6.07-9.1h0c2.59-2.56,5.7-4.56,9.22-5.95,3.52-1.39,7.46-2.1,11.72-2.1s8.26.8,11.9,2.39c3.58,1.56,6.86,3.92,9.77,7.01l9.42-8.86c-3.72-4.35-8.32-7.69-13.68-9.92-5.43-2.26-11.52-3.4-18.1-3.4Z"/>
  <path class="cls-1" d="m242.71,99.27c-4.64,0-8.76-.81-12.25-2.39-3.5-1.59-6.23-3.84-8.14-6.68-1.91-2.84-2.87-6.09-2.87-9.67s.85-6.69,2.52-9.49c1.68-2.81,4.46-5.06,8.26-6.69,3.79-1.63,8.88-2.45,15.14-2.45h15.76v-.71c0-4.16-1.26-7.44-3.75-9.74-2.5-2.31-6.34-3.47-11.43-3.47-3.43,0-6.86.54-10.18,1.61-3.32,1.07-6.16,2.57-8.44,4.48l-.2.17-5.89-10.93.15-.11c3.32-2.55,7.34-4.49,11.94-5.77,4.59-1.27,9.42-1.92,14.36-1.92,8.97,0,16.01,2.18,20.93,6.48h0c4.93,4.31,7.43,11.04,7.43,20.02v36.46h-14.1v-7.05c-1.41,1.94-3.27,3.56-5.53,4.82-3.6,2.02-8.22,3.04-13.71,3.04Zm2.66-36.94c-6.2,0-11.23.81-14.97,2.41-3.72,1.6-6.44,3.79-8.06,6.51-1.63,2.73-2.46,5.85-2.46,9.27s.94,6.67,2.8,9.43c1.86,2.77,4.54,4.97,7.96,6.52,3.43,1.56,7.49,2.35,12.07,2.35,5.42,0,9.96-1,13.5-2.98,2.42-1.35,4.36-3.12,5.77-5.25l.4-.6v8.02h13.23v-36.03c0-8.85-2.45-15.48-7.28-19.7h0c-4.84-4.23-11.79-6.37-20.64-6.37-4.9,0-9.69.64-14.24,1.9-4.48,1.24-8.4,3.12-11.65,5.58l5.46,10.14c2.29-1.86,5.11-3.33,8.38-4.39,3.37-1.08,6.84-1.63,10.31-1.63,5.2,0,9.15,1.21,11.73,3.59,2.58,2.39,3.89,5.77,3.89,10.06v1.14h-16.2Zm.35,26.4c-3.74,0-6.7-.79-8.81-2.36-2.13-1.58-3.21-3.74-3.21-6.43,0-2.37.88-4.39,2.62-6.01,1.73-1.61,5.13-2.43,10.11-2.43h15.15v7.47c-1.26,3.2-3.34,5.65-6.19,7.29h0c-2.84,1.63-6.09,2.46-9.66,2.46Zm.69-16.79c-4.86,0-8.16.78-9.81,2.32-1.65,1.53-2.48,3.45-2.48,5.69,0,2.54,1.02,4.59,3.04,6.08,2.04,1.51,4.91,2.27,8.56,2.27s6.67-.81,9.45-2.4h0c2.75-1.58,4.76-3.95,5.97-7.03v-6.92h-14.72Z"/>
  <path class="cls-1" d="m305.58,98.46h-14.91v-62.27h14.21v8.57c1.75-2.48,4.04-4.5,6.8-6,3.99-2.17,9.03-3.27,14.98-3.27h.22v14.27l-.27-.07c-.6-.15-1.17-.24-1.7-.28-.54-.04-1.08-.06-1.61-.06-5.4,0-9.75,1.6-12.93,4.74-3.18,3.15-4.8,7.91-4.8,14.15v30.21Zm-14.48-.43h14.04v-29.78c0-6.36,1.66-11.22,4.93-14.46,3.27-3.23,7.72-4.87,13.24-4.87.54,0,1.09.02,1.64.06.47.03.98.11,1.51.23v-13.29c-5.78.03-10.68,1.11-14.56,3.22-2.92,1.59-5.29,3.75-7.04,6.44l-.4.61v-9.57h-13.35v61.41Z"/>
  <path class="cls-1" d="m365.12,99.27c-6.88,0-12.97-1.39-18.11-4.14-5.15-2.74-9.19-6.57-12.01-11.37-2.82-4.79-4.26-10.33-4.26-16.44s1.39-11.74,4.14-16.49c2.74-4.76,6.59-8.54,11.43-11.26,4.84-2.71,10.42-4.08,16.61-4.08s11.48,1.33,16.2,3.96h0c4.72,2.63,8.49,6.4,11.2,11.2,2.71,4.8,4.08,10.52,4.08,17.01,0,.61-.02,1.3-.06,2.1-.04.77-.1,1.51-.17,2.21l-.02.19h-48.45c.4,2.01,1.11,3.89,2.12,5.58,1.67,2.81,4.05,5,7.09,6.52,3.04,1.52,6.59,2.29,10.56,2.29,3.43,0,6.56-.54,9.3-1.61,2.73-1.06,5.2-2.76,7.33-5.04l.16-.18,8.04,9.24-.12.14c-2.79,3.25-6.34,5.79-10.56,7.53-4.22,1.74-9.09,2.62-14.5,2.62Zm-2.2-63.35c-6.11,0-11.63,1.35-16.4,4.03-4.77,2.67-8.56,6.41-11.27,11.09-2.71,4.69-4.08,10.17-4.08,16.28s1.41,11.49,4.2,16.22c2.78,4.73,6.77,8.5,11.84,11.21,5.08,2.71,11.1,4.09,17.91,4.09,5.35,0,10.17-.87,14.34-2.59,4.09-1.69,7.55-4.14,10.28-7.27l-7.48-8.6c-2.14,2.24-4.6,3.92-7.33,4.98-2.79,1.09-5.97,1.64-9.46,1.64-4.03,0-7.65-.79-10.75-2.34-3.11-1.56-5.56-3.8-7.27-6.68-1.08-1.81-1.82-3.82-2.22-5.98l-.05-.26h48.58c.07-.63.12-1.3.15-2,.04-.79.06-1.47.06-2.07,0-6.42-1.35-12.07-4.03-16.8-2.67-4.73-6.38-8.44-11.03-11.03-4.66-2.59-10.04-3.91-15.99-3.91Zm17.81,26.64h-35.66l.03-.25c.33-2.36,1.02-4.51,2.05-6.39h0c1.52-2.76,3.65-4.95,6.33-6.51,2.69-1.56,5.86-2.35,9.43-2.35s6.63.79,9.31,2.35c2.68,1.56,4.83,3.73,6.39,6.45,1.09,1.91,1.79,4.08,2.08,6.45l.03.24Zm-35.16-.43h34.67c-.3-2.22-.97-4.25-1.99-6.05-1.52-2.66-3.62-4.77-6.23-6.29-2.62-1.52-5.68-2.29-9.1-2.29s-6.6.77-9.21,2.29c-2.62,1.52-4.69,3.65-6.17,6.34h0c-.97,1.76-1.63,3.78-1.96,5.99Z"/>
  <path class="cls-1" d="m433.67,99.27c-6.88,0-12.97-1.39-18.11-4.14-5.15-2.74-9.19-6.57-12.01-11.37-2.82-4.79-4.26-10.33-4.26-16.44s1.39-11.74,4.14-16.49c2.74-4.76,6.59-8.54,11.43-11.26,4.84-2.71,10.42-4.08,16.61-4.08s11.48,1.33,16.2,3.96h0c4.72,2.63,8.49,6.4,11.2,11.2,2.71,4.8,4.08,10.52,4.08,17.01,0,.61-.02,1.3-.06,2.1-.04.77-.1,1.51-.17,2.21l-.02.19h-48.45c.4,2.01,1.11,3.89,2.12,5.58,1.67,2.81,4.05,5,7.09,6.52,3.04,1.52,6.59,2.29,10.56,2.29,3.43,0,6.56-.54,9.3-1.61,2.73-1.06,5.2-2.76,7.33-5.04l.16-.18,8.04,9.24-.12.14c-2.79,3.25-6.34,5.79-10.56,7.53-4.22,1.74-9.09,2.62-14.5,2.62Zm-2.2-63.35c-6.11,0-11.63,1.35-16.4,4.03-4.77,2.67-8.56,6.41-11.27,11.09-2.71,4.69-4.08,10.17-4.08,16.28s1.41,11.49,4.2,16.22c2.78,4.73,6.77,8.5,11.84,11.21,5.08,2.71,11.1,4.09,17.91,4.09,5.35,0,10.17-.87,14.34-2.59,4.09-1.69,7.55-4.14,10.28-7.27l-7.48-8.6c-2.14,2.24-4.6,3.92-7.33,4.98-2.79,1.09-5.97,1.64-9.46,1.64-4.03,0-7.65-.79-10.75-2.34-3.11-1.56-5.56-3.8-7.27-6.68-1.08-1.81-1.83-3.82-2.22-5.98l-.05-.26h48.59c.07-.64.12-1.31.15-2,.04-.79.06-1.47.06-2.07,0-6.42-1.35-12.07-4.03-16.8-2.67-4.73-6.38-8.44-11.03-11.03-4.66-2.59-10.04-3.91-15.99-3.91Zm17.81,26.64h-35.66l.03-.25c.33-2.36,1.02-4.51,2.05-6.39h0c1.52-2.76,3.65-4.95,6.33-6.51,2.69-1.56,5.86-2.35,9.43-2.35s6.63.79,9.31,2.35c2.68,1.56,4.83,3.73,6.39,6.45,1.09,1.91,1.79,4.08,2.08,6.45l.03.24Zm-35.16-.43h34.67c-.3-2.22-.97-4.25-1.99-6.05-1.52-2.66-3.62-4.77-6.23-6.29-2.62-1.52-5.68-2.29-9.1-2.29s-6.6.77-9.21,2.29c-2.62,1.52-4.69,3.65-6.17,6.34h0c-.97,1.76-1.63,3.78-1.96,5.99Z"/>
  <path class="cls-1" d="m487.85,98.46h-14.91v-62.27h14.21v8.57c1.75-2.48,4.04-4.5,6.8-6,3.99-2.17,9.03-3.27,14.98-3.27h.22v14.27l-.27-.07c-.6-.15-1.17-.24-1.7-.28-.54-.04-1.08-.06-1.61-.06-5.4,0-9.75,1.6-12.93,4.74-3.18,3.15-4.8,7.91-4.8,14.15v30.21Zm-14.48-.43h14.04v-29.78c0-6.36,1.66-11.22,4.93-14.46,3.27-3.23,7.72-4.87,13.24-4.87.54,0,1.09.02,1.64.06.47.03.98.11,1.51.23v-13.29c-5.78.03-10.68,1.11-14.56,3.22-2.92,1.59-5.29,3.75-7.04,6.44l-.4.61v-9.57h-13.35v61.41Z"/>
  <path class="cls-1" d="m548.57,85.01v-12.51l39.5-14.79-39.5-14.79v-12.51l53.82,20.9v12.8l-53.82,20.9Zm.43-12.21v11.58l52.95-20.56v-12.21l-52.95-20.56v11.58l40.3,15.09-40.3,15.09Z"/>
</svg>