<?xml version="1.0" encoding="UTF-8"?>
<svg id="_レイヤー_1" data-name="レイヤー 1" xmlns="http://www.w3.org/2000/svg" viewBox="0 0 765.35 110.55">
  <defs>
    <style>
      .cls-1 {
        fill: #eae547;
      }
    </style>
  </defs>
  <path class="cls-1" d="m54.36,85.01L.54,64.11v-12.8l53.82-20.9v12.51l-39.5,14.79,39.5,14.79v12.51ZM.97,63.81l52.95,20.56v-11.58l-40.3-15.09,40.3-15.09v-11.58L.97,51.6v12.21Z"/>
  <path class="cls-1" d="m67.73,110.04h-13.43L92.67.52h13.43l-38.37,109.52Zm-12.82-.43h12.51L105.49.95h-12.51l-38.06,108.66Z"/>
  <path class="cls-1" d="m159.16,98.46h-15.49V16.96h15.49v81.5Zm-15.05-.43h14.62V17.39h-14.62v80.63Z"/>
  <path class="cls-1" d="m237.09,98.46h-14.91v-33.8c0-5.4-1.29-9.48-3.82-12.13-2.53-2.65-6.12-3.99-10.67-3.99-3.35,0-6.35.69-8.93,2.06-2.57,1.36-4.59,3.42-5.99,6.1-1.41,2.7-2.12,6.15-2.12,10.26v31.48h-14.91v-62.27h14.21v7.67c1.85-2.09,4.09-3.82,6.69-5.16,4.14-2.13,8.99-3.21,14.4-3.21,4.95,0,9.44.98,13.36,2.92h0c3.92,1.94,7.05,4.95,9.3,8.95,2.25,3.99,3.39,9.19,3.39,15.45v35.65Zm-14.48-.43h14.04v-35.22c0-6.18-1.12-11.31-3.33-15.24-2.21-3.92-5.27-6.87-9.11-8.77-3.85-1.91-8.28-2.87-13.16-2.87-5.34,0-10.12,1.06-14.2,3.16-2.73,1.4-5.06,3.25-6.94,5.49l-.38.46v-8.42h-13.35v61.41h14.04v-31.05c0-4.19.73-7.71,2.17-10.46,1.44-2.77,3.52-4.88,6.17-6.29,2.64-1.4,5.72-2.11,9.13-2.11,4.67,0,8.37,1.39,10.98,4.12,2.61,2.73,3.94,6.91,3.94,12.42v33.37Z"/>
  <path class="cls-1" d="m275.09,99.27c-6.82,0-12.17-1.79-15.9-5.33-3.73-3.54-5.63-8.83-5.63-15.73v-29.55h-10.19v-12.01h10.19v-14.13h14.91v14.13h16.56v12.01h-16.56v29.2c0,2.86.74,5.11,2.2,6.69,1.46,1.57,3.53,2.36,6.15,2.36,3.18,0,5.86-.84,7.97-2.5l.23-.18,4.22,10.72-.12.1c-1.71,1.4-3.84,2.47-6.33,3.17-2.48.7-5.07,1.05-7.7,1.05Zm-31.28-51.04h10.19v29.98c0,6.78,1.85,11.97,5.49,15.42,3.65,3.46,8.89,5.21,15.6,5.21,2.59,0,5.14-.35,7.59-1.03,2.37-.67,4.41-1.67,6.05-2.99l-3.89-9.89c-2.15,1.6-4.85,2.42-8.01,2.42-2.75,0-4.93-.84-6.47-2.5-1.54-1.66-2.32-4-2.32-6.98v-29.63h16.56v-11.15h-16.56v-14.13h-14.04v14.13h-10.19v11.15Z"/>
  <path class="cls-1" d="m326.51,99.27c-6.88,0-12.97-1.39-18.11-4.14-5.15-2.75-9.19-6.57-12.01-11.37-2.82-4.8-4.26-10.33-4.26-16.44s1.39-11.74,4.14-16.49c2.75-4.76,6.59-8.55,11.43-11.26,4.84-2.71,10.42-4.08,16.61-4.08s11.48,1.33,16.2,3.96h0c4.72,2.63,8.49,6.4,11.2,11.2,2.71,4.8,4.08,10.52,4.08,17.01,0,.61-.02,1.32-.06,2.1-.04.78-.1,1.52-.17,2.21l-.02.19h-48.45c.4,2.01,1.11,3.89,2.12,5.58,1.67,2.81,4.05,5,7.09,6.52,3.04,1.52,6.59,2.29,10.56,2.29,3.43,0,6.56-.54,9.3-1.61,2.73-1.06,5.2-2.76,7.33-5.04l.16-.18,8.04,9.24-.12.14c-2.79,3.25-6.34,5.79-10.56,7.53-4.21,1.74-9.09,2.62-14.5,2.62Zm-2.2-63.35c-6.11,0-11.63,1.35-16.4,4.03-4.77,2.67-8.56,6.41-11.27,11.09-2.71,4.69-4.08,10.17-4.08,16.28s1.41,11.49,4.2,16.22c2.78,4.73,6.77,8.5,11.84,11.21,5.08,2.71,11.1,4.09,17.91,4.09,5.35,0,10.17-.87,14.34-2.59,4.09-1.69,7.55-4.14,10.28-7.27l-7.48-8.6c-2.14,2.24-4.6,3.92-7.33,4.98-2.79,1.09-5.97,1.64-9.46,1.64-4.03,0-7.65-.79-10.75-2.34-3.11-1.56-5.56-3.8-7.27-6.68-1.08-1.81-1.82-3.82-2.22-5.98l-.05-.26h48.59c.07-.63.12-1.3.15-2,.04-.77.06-1.47.06-2.07,0-6.41-1.35-12.07-4.02-16.8-2.67-4.73-6.38-8.44-11.03-11.03h0c-4.66-2.59-10.04-3.91-15.99-3.91Zm17.81,26.64h-35.66l.03-.25c.33-2.36,1.02-4.51,2.05-6.39h0c1.52-2.76,3.65-4.95,6.33-6.51,2.69-1.56,5.86-2.35,9.43-2.35s6.63.79,9.31,2.35c2.68,1.56,4.83,3.73,6.39,6.45,1.09,1.91,1.79,4.08,2.08,6.45l.03.24Zm-35.16-.43h34.67c-.3-2.22-.97-4.25-1.99-6.05-1.52-2.65-3.61-4.77-6.23-6.29-2.62-1.52-5.68-2.29-9.1-2.29s-6.6.77-9.21,2.29c-2.62,1.52-4.69,3.65-6.17,6.34h0c-.97,1.76-1.63,3.78-1.96,5.99Z"/>
  <path class="cls-1" d="m380.69,98.46h-14.91v-62.27h14.21v8.57c1.75-2.48,4.04-4.5,6.8-6,3.99-2.17,9.03-3.27,14.98-3.27h.22v14.27l-.27-.07c-.6-.15-1.17-.24-1.7-.28-.54-.04-1.08-.06-1.61-.06-5.4,0-9.75,1.6-12.93,4.74-3.19,3.15-4.8,7.91-4.8,14.15v30.21Zm-14.48-.43h14.04v-29.78c0-6.36,1.66-11.22,4.93-14.46,3.27-3.23,7.72-4.87,13.24-4.87.54,0,1.09.02,1.64.06.47.03.98.11,1.51.23v-13.29c-5.78.03-10.68,1.11-14.56,3.22-2.92,1.59-5.29,3.75-7.04,6.44l-.4.61v-9.57h-13.35v61.41Z"/>
  <path class="cls-1" d="m447.32,98.46h-15.22l-26.7-62.27h15.53l19.03,45.5,19.71-45.5h14.37l-26.7,62.27Zm-14.94-.43h14.65l26.33-61.41h-13.43l-20,46.17-19.31-46.17h-14.58l26.33,61.41Z"/>
  <path class="cls-1" d="m486.55,26.42c-2.75,0-5.04-.88-6.81-2.61-1.77-1.73-2.67-3.85-2.67-6.29s.9-4.66,2.67-6.35c1.77-1.69,4.06-2.55,6.81-2.55s5.03.82,6.8,2.43c1.78,1.62,2.68,3.68,2.68,6.12,0,2.59-.88,4.81-2.61,6.58-1.73,1.77-4.05,2.67-6.87,2.67Zm0-17.37c-2.63,0-4.82.82-6.51,2.43-1.68,1.61-2.54,3.64-2.54,6.04s.85,4.34,2.54,5.98c1.69,1.65,3.88,2.49,6.51,2.49s4.91-.85,6.56-2.54c1.65-1.69,2.49-3.8,2.49-6.28,0-2.32-.85-4.27-2.53-5.8-1.69-1.54-3.88-2.32-6.51-2.32Z"/>
  <path class="cls-1" d="m493.95,98.46h-14.91v-62.27h14.91v62.27Zm-14.48-.43h14.04v-61.41h-14.04v61.41Z"/>
  <path class="cls-1" d="m538.32,99.27c-6.88,0-12.97-1.39-18.11-4.14-5.15-2.75-9.19-6.57-12.01-11.37-2.82-4.79-4.26-10.33-4.26-16.44s1.39-11.74,4.14-16.49c2.74-4.76,6.59-8.54,11.43-11.26,4.84-2.71,10.42-4.08,16.61-4.08s11.48,1.33,16.2,3.96h0c4.72,2.63,8.49,6.4,11.2,11.2,2.71,4.8,4.08,10.52,4.08,17.01,0,.61-.02,1.3-.06,2.09-.04.77-.1,1.51-.17,2.21l-.02.19h-48.45c.4,2.01,1.11,3.89,2.12,5.58,1.67,2.81,4.05,5,7.09,6.52,3.04,1.52,6.59,2.29,10.56,2.29,3.43,0,6.56-.54,9.3-1.61,2.73-1.06,5.2-2.76,7.33-5.04l.16-.18,8.04,9.24-.12.14c-2.79,3.25-6.34,5.79-10.56,7.53-4.22,1.74-9.09,2.62-14.5,2.62Zm-2.2-63.35c-6.11,0-11.63,1.35-16.4,4.03-4.77,2.67-8.56,6.41-11.27,11.09-2.71,4.69-4.08,10.17-4.08,16.28s1.41,11.49,4.2,16.22c2.78,4.73,6.77,8.5,11.84,11.21,5.08,2.71,11.1,4.09,17.91,4.09,5.35,0,10.17-.87,14.34-2.59,4.09-1.69,7.55-4.14,10.28-7.27l-7.48-8.6c-2.14,2.24-4.6,3.92-7.33,4.98-2.79,1.09-5.97,1.64-9.46,1.64-4.03,0-7.65-.79-10.75-2.34-3.11-1.56-5.56-3.8-7.27-6.68-1.08-1.81-1.83-3.82-2.22-5.98l-.05-.26h48.59c.07-.63.12-1.3.15-2,.04-.79.06-1.47.06-2.07,0-6.42-1.35-12.07-4.03-16.8-2.67-4.73-6.38-8.44-11.03-11.03-4.66-2.59-10.04-3.91-15.99-3.91Zm17.81,26.64h-35.66l.03-.25c.33-2.36,1.02-4.51,2.05-6.39h0c1.52-2.76,3.65-4.95,6.33-6.51,2.69-1.56,5.86-2.35,9.43-2.35s6.63.79,9.31,2.35c2.68,1.56,4.83,3.73,6.39,6.45,1.09,1.91,1.79,4.08,2.08,6.45l.03.24Zm-35.16-.43h34.67c-.3-2.22-.97-4.25-1.99-6.05-1.52-2.66-3.62-4.77-6.23-6.29-2.62-1.52-5.68-2.29-9.1-2.29s-6.6.77-9.21,2.29c-2.62,1.52-4.69,3.65-6.17,6.34h0c-.97,1.76-1.63,3.78-1.96,5.99Z"/>
  <path class="cls-1" d="m651.61,98.46h-14.2l-15.8-42.22-16.1,42.22h-14.2l-22.86-62.27h14.13l16.14,45.25,16.91-45.25h12.46l16.49,45.41,16.68-45.41h13.32l-22.97,62.27Zm-13.9-.43h13.6l22.65-61.41h-12.39l-16.98,46.24-16.79-46.24h-11.86l-17.22,46.08-16.44-46.08h-13.2l22.54,61.41h13.6l16.4-43.01,16.09,43.01Z"/>
  <path class="cls-1" d="m711,85.01v-12.51l39.5-14.79-39.5-14.79v-12.51l53.82,20.9v12.8l-.14.05-53.68,20.84Zm.43-12.21v11.58l52.95-20.56v-12.21l-52.95-20.56v11.58l40.3,15.09-40.3,15.09Z"/>
</svg>