<?xml version="1.0" encoding="UTF-8"?>
<svg id="_レイヤー_1" data-name="レイヤー 1" xmlns="http://www.w3.org/2000/svg" viewBox="0 0 799.37 110.55">
  <defs>
    <style>
      .cls-1 {
        fill: #2b75ae;
      }
    </style>
  </defs>
  <path class="cls-1" d="m54.92,85.01L1.1,64.11v-12.8l.14-.05,53.68-20.84v12.51l-.14.05-39.36,14.74,39.5,14.79v12.51ZM1.54,63.81l52.95,20.56v-11.58l-40.3-15.09,40.3-15.09v-11.58L1.54,51.6v12.21Z"/>
  <path class="cls-1" d="m68.29,110.04h-13.43l.1-.29L93.23.52h13.43l-38.37,109.52Zm-12.82-.43h12.51L106.05.95h-12.51l-38.06,108.66Z"/>
  <path class="cls-1" d="m181.97,99.61c-6.17,0-11.99-1.04-17.28-3.08-5.29-2.05-9.95-4.98-13.85-8.73-3.9-3.75-6.98-8.23-9.14-13.33-2.16-5.1-3.26-10.74-3.26-16.76s1.1-11.66,3.26-16.76c2.16-5.1,5.26-9.58,9.2-13.33,3.94-3.75,8.6-6.68,13.85-8.73,5.25-2.05,11.08-3.08,17.33-3.08,6.63,0,12.78,1.16,18.26,3.43,5.49,2.28,10.19,5.71,13.98,10.19l.13.16-10.04,9.44-.15-.16c-2.9-3.13-6.19-5.51-9.77-7.07-3.59-1.56-7.53-2.36-11.73-2.36s-8.09.7-11.56,2.07c-3.47,1.37-6.52,3.34-9.08,5.86h0c-2.55,2.51-4.56,5.53-5.97,8.96-1.41,3.43-2.13,7.26-2.13,11.38s.72,7.95,2.13,11.38c1.41,3.43,3.42,6.45,5.97,8.96,2.55,2.52,5.61,4.49,9.08,5.86,3.47,1.37,7.36,2.07,11.56,2.07s8.14-.79,11.73-2.36c3.58-1.56,6.87-3.98,9.77-7.19l.15-.16,10.04,9.56-.13.16c-3.79,4.41-8.49,7.81-13.98,10.13-5.48,2.32-11.67,3.49-18.38,3.49Zm.12-83.38c-6.2,0-11.97,1.03-17.18,3.05-5.2,2.03-9.81,4.93-13.71,8.64-3.9,3.71-6.96,8.15-9.1,13.19-2.14,5.04-3.23,10.63-3.23,16.59s1.09,11.55,3.23,16.59c2.14,5.04,5.18,9.48,9.04,13.19,3.86,3.71,8.47,6.61,13.71,8.64,5.24,2.03,11,3.05,17.12,3.05,6.66,0,12.78-1.16,18.21-3.46,5.36-2.27,9.96-5.58,13.68-9.86l-9.42-8.97c-2.91,3.17-6.19,5.57-9.77,7.13-3.64,1.59-7.64,2.39-11.9,2.39s-8.2-.71-11.72-2.1c-3.52-1.39-6.63-3.4-9.22-5.95-2.6-2.55-4.64-5.62-6.07-9.1-1.43-3.48-2.16-7.37-2.16-11.55s.73-8.07,2.16-11.55c1.43-3.49,3.48-6.55,6.07-9.1,2.59-2.56,5.7-4.56,9.22-5.95,3.52-1.39,7.46-2.1,11.72-2.1s8.25.8,11.9,2.39c3.58,1.56,6.86,3.92,9.77,7.01l9.42-8.86c-3.72-4.35-8.32-7.69-13.68-9.92-5.43-2.26-11.52-3.4-18.1-3.4Z"/>
  <path class="cls-1" d="m238.47,98.46h-14.91v-62.27h14.21v8.57c1.75-2.48,4.04-4.5,6.8-6,3.99-2.17,9.03-3.27,14.98-3.27h.22v14.27l-.27-.07c-.6-.15-1.17-.24-1.7-.28-.54-.04-1.08-.06-1.61-.06-5.4,0-9.75,1.6-12.93,4.74-3.18,3.15-4.8,7.91-4.8,14.15v30.21Zm-14.48-.43h14.04v-29.78c0-6.36,1.66-11.22,4.93-14.46,3.27-3.23,7.72-4.87,13.24-4.87.54,0,1.09.02,1.64.06.47.04.98.11,1.51.23v-13.29c-5.78.03-10.68,1.11-14.56,3.22-2.92,1.58-5.29,3.75-7.04,6.44l-.4.61v-9.57h-13.35v61.41Z"/>
  <path class="cls-1" d="m296.74,99.27c-6.34,0-12.06-1.39-17.01-4.14-4.95-2.75-8.92-6.57-11.78-11.37-2.86-4.8-4.32-10.33-4.32-16.44s1.45-11.74,4.32-16.5c2.86-4.76,6.82-8.54,11.78-11.25,4.95-2.71,10.67-4.08,17.01-4.08s12.2,1.37,17.18,4.08h0c4.99,2.71,8.95,6.48,11.78,11.2,2.83,4.72,4.26,10.29,4.26,16.56s-1.43,11.64-4.26,16.44c-2.83,4.8-6.79,8.63-11.78,11.37-4.99,2.75-10.77,4.14-17.19,4.14Zm0-63.35c-6.26,0-11.92,1.35-16.8,4.03-4.89,2.67-8.79,6.41-11.61,11.1-2.82,4.69-4.25,10.17-4.25,16.27s1.43,11.49,4.25,16.22c2.82,4.73,6.73,8.5,11.62,11.21,4.88,2.71,10.54,4.08,16.8,4.08s12.05-1.37,16.98-4.08c4.92-2.71,8.83-6.48,11.61-11.21,2.79-4.73,4.2-10.19,4.2-16.22s-1.41-11.68-4.2-16.33c-2.79-4.65-6.69-8.37-11.61-11.04h0c-4.93-2.67-10.64-4.03-16.98-4.03Zm0,50.95c-3.5,0-6.67-.79-9.43-2.34-2.76-1.56-4.99-3.84-6.63-6.8-1.63-2.95-2.46-6.46-2.46-10.41s.83-7.56,2.46-10.47c1.63-2.92,3.86-5.18,6.63-6.74,2.76-1.56,5.97-2.34,9.54-2.34s6.69.79,9.48,2.34c2.8,1.56,5.03,3.83,6.63,6.74,1.59,2.92,2.4,6.44,2.4,10.47s-.81,7.46-2.4,10.41h0c-1.6,2.96-3.83,5.25-6.63,6.8-2.8,1.55-6.03,2.34-9.6,2.34Zm.12-38.68c-3.5,0-6.64.77-9.33,2.29-2.69,1.52-4.87,3.73-6.46,6.58-1.6,2.85-2.4,6.3-2.4,10.26s.81,7.31,2.4,10.2c1.59,2.88,3.77,5.12,6.46,6.63,2.69,1.52,5.79,2.29,9.22,2.29s6.66-.77,9.39-2.29c2.73-1.52,4.9-3.75,6.46-6.63,1.56-2.89,2.35-6.32,2.35-10.2s-.79-7.41-2.35-10.26c-1.55-2.84-3.73-5.06-6.46-6.57-2.73-1.52-5.86-2.29-9.27-2.29Z"/>
  <path class="cls-1" d="m359.27,99.27c-5.16,0-10.19-.68-14.94-2.03-4.75-1.35-8.57-3.02-11.36-4.95l-.15-.11,5.75-11.38.2.13c2.75,1.76,6.08,3.23,9.91,4.38,3.82,1.15,7.7,1.73,11.52,1.73,4.49,0,7.79-.61,9.79-1.82,1.97-1.19,2.96-2.8,2.96-4.79,0-1.63-.65-2.84-1.98-3.7-1.36-.87-3.17-1.54-5.37-2-2.21-.46-4.71-.88-7.46-1.27-2.73-.38-5.51-.91-8.24-1.57-2.74-.66-5.27-1.64-7.53-2.92-2.26-1.28-4.12-3.04-5.52-5.22-1.41-2.19-2.12-5.11-2.12-8.69,0-3.97,1.15-7.46,3.4-10.38,2.25-2.91,5.46-5.2,9.53-6.79,4.06-1.58,8.94-2.39,14.5-2.39,4.17,0,8.43.47,12.67,1.39,4.25.93,7.82,2.26,10.61,3.96l.17.1-5.75,11.39-.2-.12c-2.9-1.75-5.86-2.97-8.79-3.62-2.95-.65-5.91-.98-8.81-.98-4.34,0-7.59.65-9.67,1.94-2.05,1.26-3.08,2.88-3.08,4.8,0,1.79.65,3.1,1.99,3.99,1.36.91,3.17,1.64,5.37,2.17,2.21.54,4.72.98,7.45,1.33,2.74.35,5.5.88,8.19,1.57,2.7.69,5.23,1.65,7.52,2.85h0c2.3,1.21,4.18,2.93,5.58,5.11,1.41,2.19,2.12,5.07,2.12,8.57,0,3.89-1.17,7.33-3.46,10.21-2.29,2.88-5.58,5.14-9.76,6.73-4.18,1.58-9.23,2.39-15.02,2.39Zm-25.89-7.23c2.73,1.86,6.46,3.47,11.07,4.78,4.71,1.34,9.7,2.02,14.82,2.02,5.73,0,10.73-.79,14.86-2.36,4.11-1.56,7.33-3.78,9.58-6.59,2.24-2.8,3.37-6.15,3.37-9.94,0-3.42-.69-6.22-2.05-8.34-1.36-2.12-3.18-3.79-5.42-4.96h0c-2.26-1.19-4.75-2.13-7.42-2.82-2.68-.69-5.42-1.21-8.14-1.56-2.74-.35-5.26-.8-7.49-1.34-2.25-.54-4.1-1.29-5.51-2.23-1.45-.96-2.18-2.43-2.18-4.35,0-2.08,1.11-3.81,3.29-5.16,2.15-1.33,5.48-2,9.9-2,2.93,0,5.93.33,8.91.99,2.91.64,5.85,1.84,8.72,3.55l5.36-10.62c-2.72-1.63-6.19-2.91-10.3-3.81-4.21-.92-8.44-1.38-12.58-1.38-5.5,0-10.33.79-14.34,2.36-4,1.56-7.14,3.8-9.35,6.65-2.2,2.84-3.31,6.24-3.31,10.12,0,3.49.69,6.34,2.05,8.45,1.36,2.12,3.17,3.83,5.37,5.08,2.22,1.26,4.71,2.23,7.41,2.87,2.72.65,5.48,1.18,8.2,1.56,2.75.39,5.27.82,7.48,1.28,2.25.47,4.11,1.16,5.52,2.06,1.45.93,2.18,2.29,2.18,4.06,0,2.16-1.07,3.89-3.17,5.16-2.07,1.25-5.44,1.88-10.01,1.88-3.86,0-7.78-.59-11.64-1.75-3.77-1.13-7.07-2.58-9.81-4.3l-5.37,10.62Z"/>
  <path class="cls-1" d="m415.44,99.27c-5.16,0-10.19-.68-14.94-2.03-4.75-1.35-8.57-3.02-11.36-4.95l-.15-.11,5.75-11.38.2.13c2.75,1.76,6.08,3.23,9.9,4.38,3.82,1.15,7.7,1.73,11.52,1.73,4.49,0,7.79-.61,9.79-1.82,1.97-1.19,2.96-2.8,2.96-4.79,0-1.63-.65-2.84-1.98-3.7-1.36-.87-3.17-1.54-5.37-2-2.21-.46-4.71-.88-7.46-1.27-2.73-.38-5.51-.91-8.24-1.57-2.74-.65-5.28-1.64-7.53-2.92-2.26-1.29-4.12-3.04-5.52-5.22-1.41-2.19-2.12-5.11-2.12-8.69,0-3.97,1.15-7.46,3.4-10.38,2.25-2.91,5.46-5.19,9.53-6.79,4.06-1.58,8.94-2.39,14.5-2.39,4.17,0,8.43.47,12.67,1.39,4.25.93,7.81,2.26,10.6,3.96l.17.1-5.75,11.39-.2-.12c-2.9-1.75-5.86-2.97-8.79-3.62-2.95-.65-5.91-.98-8.81-.98-4.34,0-7.59.65-9.67,1.94-2.05,1.26-3.08,2.88-3.08,4.8,0,1.79.65,3.1,1.99,3.99,1.36.91,3.17,1.64,5.37,2.17,2.21.54,4.72.98,7.45,1.33,2.74.35,5.5.88,8.19,1.57,2.7.69,5.23,1.65,7.52,2.85h0c2.3,1.21,4.18,2.93,5.58,5.11,1.41,2.19,2.12,5.07,2.12,8.57,0,3.89-1.17,7.33-3.46,10.21-2.29,2.88-5.58,5.14-9.76,6.73-4.18,1.58-9.23,2.39-15.02,2.39Zm-25.89-7.23c2.73,1.86,6.46,3.47,11.07,4.78,4.71,1.34,9.7,2.02,14.82,2.02,5.73,0,10.73-.79,14.86-2.36,4.11-1.56,7.33-3.78,9.58-6.59,2.24-2.8,3.37-6.15,3.37-9.94,0-3.42-.69-6.22-2.05-8.34-1.36-2.12-3.18-3.79-5.42-4.96-2.26-1.18-4.75-2.13-7.42-2.82-2.68-.69-5.41-1.21-8.14-1.56-2.74-.35-5.26-.8-7.49-1.34-2.25-.54-4.1-1.29-5.51-2.23-1.45-.96-2.18-2.43-2.18-4.35,0-2.08,1.11-3.81,3.29-5.16,2.15-1.33,5.48-2,9.9-2,2.93,0,5.93.33,8.91.99,2.91.64,5.85,1.84,8.72,3.55l5.36-10.62c-2.72-1.63-6.19-2.91-10.3-3.81-4.21-.92-8.44-1.38-12.58-1.38-5.5,0-10.33.79-14.34,2.36-4,1.56-7.14,3.8-9.35,6.65-2.2,2.84-3.31,6.24-3.31,10.12,0,3.49.69,6.34,2.05,8.45,1.36,2.12,3.17,3.83,5.37,5.08,2.22,1.26,4.71,2.23,7.41,2.87,2.72.65,5.48,1.18,8.2,1.56,2.75.39,5.27.82,7.48,1.28,2.25.47,4.11,1.16,5.52,2.06,1.45.93,2.18,2.29,2.18,4.06,0,2.16-1.07,3.89-3.17,5.16-2.07,1.25-5.44,1.88-10.01,1.88-3.86,0-7.78-.59-11.64-1.75-3.77-1.13-7.07-2.58-9.81-4.3l-5.37,10.62Z"/>
  <path class="cls-1" d="m514.08,98.46h-15.49V30.13h-26.87v-13.17h69.22v13.17h-26.87v68.33Zm-15.05-.43h14.62V29.7h26.87v-12.31h-68.36v12.31h26.87v68.33Z"/>
  <path class="cls-1" d="m565.86,99.27c-4.64,0-8.76-.81-12.25-2.39-3.5-1.59-6.23-3.84-8.14-6.68-1.91-2.84-2.87-6.09-2.87-9.67s.85-6.69,2.52-9.49c1.68-2.81,4.46-5.06,8.26-6.69,3.79-1.63,8.88-2.45,15.14-2.45h15.76v-.71c0-4.16-1.26-7.44-3.75-9.74-2.49-2.31-6.34-3.47-11.43-3.47-3.43,0-6.86.54-10.18,1.61-3.32,1.07-6.16,2.58-8.44,4.48l-.2.17-5.89-10.93.15-.11c3.32-2.55,7.34-4.49,11.94-5.77,4.59-1.27,9.42-1.92,14.36-1.92,8.97,0,16.01,2.18,20.93,6.48h0c4.93,4.31,7.43,11.05,7.43,20.02v36.46h-14.1v-7.05c-1.41,1.94-3.27,3.56-5.53,4.82-3.6,2.02-8.22,3.04-13.71,3.04Zm2.66-36.94c-6.2,0-11.23.81-14.97,2.42-3.72,1.6-6.44,3.79-8.06,6.51-1.63,2.73-2.46,5.85-2.46,9.27s.94,6.67,2.8,9.43c1.86,2.77,4.54,4.97,7.96,6.52,3.43,1.56,7.49,2.35,12.07,2.35,5.42,0,9.96-1,13.5-2.98,2.42-1.35,4.36-3.12,5.77-5.25l.4-.6v8.03h13.23v-36.03c0-8.85-2.45-15.48-7.28-19.7-4.84-4.23-11.79-6.37-20.64-6.37-4.9,0-9.69.64-14.24,1.9-4.48,1.24-8.4,3.12-11.65,5.58l5.46,10.15c2.29-1.86,5.11-3.33,8.38-4.39,3.37-1.08,6.84-1.63,10.31-1.63,5.2,0,9.15,1.21,11.73,3.59,2.58,2.39,3.89,5.77,3.89,10.06v1.14h-16.2Zm.35,26.4c-3.74,0-6.7-.79-8.81-2.36-2.13-1.58-3.21-3.74-3.21-6.43,0-2.37.88-4.39,2.62-6.01,1.73-1.61,5.13-2.43,10.11-2.43h15.15v7.47c-1.26,3.2-3.34,5.65-6.19,7.29h0c-2.84,1.63-6.09,2.46-9.66,2.46Zm.69-16.79c-4.86,0-8.16.78-9.81,2.32-1.65,1.53-2.48,3.45-2.48,5.69,0,2.54,1.02,4.59,3.04,6.08,2.04,1.51,4.91,2.27,8.56,2.27s6.67-.81,9.45-2.4c2.75-1.58,4.76-3.95,5.97-7.03v-6.92h-14.72Z"/>
  <path class="cls-1" d="m628.73,98.46h-14.91V12.1h14.91v86.36Zm-14.48-.43h14.04V12.53h-14.04v85.5Z"/>
  <path class="cls-1" d="m708.75,98.46h-18.15l-21.35-26.38-10.53,9.96v16.42h-14.91V12.1h14.91v51.55l29.69-27.46h17.98l-26.04,26.15,28.39,36.13Zm-17.94-.43h17.05l-28.08-35.73.13-.14,25.44-25.54h-16.77l-30.29,28.01V12.53h-14.04v85.5h14.04v-16.18l.07-.06,10.94-10.34,21.51,26.58Z"/>
  <path class="cls-1" d="m744.45,85.01v-12.51l.14-.05,39.36-14.74-39.5-14.79v-12.51l53.82,20.9v12.8l-.14.05-53.68,20.84Zm.43-12.21v11.58l52.95-20.56v-12.21l-52.95-20.56v11.58l40.3,15.09-40.3,15.09Z"/>
</svg>