<?xml version="1.0" encoding="UTF-8"?>
<svg id="_レイヤー_1" data-name="レイヤー 1" xmlns="http://www.w3.org/2000/svg" viewBox="0 0 481.89 110.55">
  <defs>
    <style>
      .cls-1 {
        fill: #eae547;
      }
    </style>
  </defs>
  <path class="cls-1" d="m54.08,85.01L.26,64.11v-12.8l53.82-20.9v12.51l-39.5,14.79,39.5,14.79v12.51ZM.69,63.81l52.95,20.56v-11.58l-40.3-15.09,40.3-15.09v-11.58L.69,51.6v12.21Z"/>
  <path class="cls-1" d="m67.45,110.04h-13.43L92.39.52h13.43l-38.37,109.52Zm-12.82-.43h12.51L105.21.95h-12.51l-38.06,108.66Z"/>
  <path class="cls-1" d="m168.39,99.27c-5.95,0-11.39-1.35-16.14-4.02-4.76-2.67-8.55-6.42-11.26-11.14-2.71-4.72-4.08-10.36-4.08-16.78s1.37-12.06,4.08-16.78c2.71-4.72,6.5-8.45,11.26-11.08,4.76-2.63,10.19-3.96,16.14-3.96,5.18,0,9.89,1.16,14,3.44,2.1,1.17,4.01,2.69,5.7,4.52V12.1h14.79v86.36h-14.21v-7.7c-1.75,2.04-3.78,3.72-6.05,5.01-4.11,2.32-8.9,3.5-14.23,3.5Zm0-63.35c-5.88,0-11.24,1.32-15.93,3.91-4.69,2.59-8.42,6.27-11.09,10.92-2.67,4.65-4.02,10.23-4.02,16.57s1.35,11.92,4.02,16.57c2.67,4.65,6.4,8.35,11.09,10.98,4.69,2.63,10.05,3.97,15.93,3.97,5.26,0,9.98-1.16,14.02-3.45,2.39-1.35,4.51-3.16,6.31-5.36l.38-.47v8.47h13.35V12.53h-13.93v32.06l-.38-.43c-1.75-1.99-3.75-3.62-5.96-4.85-4.04-2.25-8.68-3.39-13.79-3.39Zm1.74,50.95c-3.5,0-6.67-.79-9.43-2.34-2.76-1.56-5.01-3.84-6.68-6.8-1.67-2.95-2.52-6.45-2.52-10.41s.85-7.56,2.52-10.47c1.67-2.91,3.92-5.18,6.68-6.74,2.76-1.56,5.93-2.34,9.43-2.34s6.67.79,9.43,2.34c2.76,1.56,5.01,3.83,6.68,6.74,1.67,2.92,2.52,6.44,2.52,10.47s-.85,7.46-2.52,10.41h0c-1.67,2.96-3.92,5.24-6.68,6.8-2.76,1.56-5.93,2.34-9.43,2.34Zm0-38.68c-3.42,0-6.52.77-9.22,2.29-2.7,1.52-4.89,3.73-6.52,6.58-1.63,2.85-2.46,6.3-2.46,10.26s.83,7.32,2.46,10.2c1.63,2.89,3.82,5.12,6.52,6.63,2.69,1.52,5.79,2.29,9.22,2.29s6.52-.77,9.22-2.29c2.69-1.52,4.89-3.75,6.52-6.63h0c1.63-2.89,2.46-6.32,2.46-10.2s-.83-7.41-2.46-10.26c-1.63-2.85-3.83-5.06-6.52-6.58-2.7-1.52-5.8-2.29-9.22-2.29Z"/>
  <path class="cls-1" d="m236.95,99.27c-4.64,0-8.76-.81-12.25-2.39-3.5-1.59-6.23-3.84-8.14-6.68-1.91-2.84-2.87-6.09-2.87-9.67s.85-6.69,2.52-9.49c1.68-2.81,4.46-5.06,8.26-6.69,3.79-1.63,8.88-2.45,15.14-2.45h15.77v-.71c0-4.16-1.26-7.44-3.75-9.74-2.5-2.31-6.34-3.47-11.43-3.47-3.43,0-6.86.54-10.18,1.61-3.32,1.07-6.16,2.57-8.44,4.48l-.2.17-5.89-10.93.15-.11c3.32-2.55,7.34-4.49,11.94-5.77,4.59-1.27,9.42-1.92,14.36-1.92,8.97,0,16.01,2.18,20.93,6.48h0c4.93,4.31,7.43,11.05,7.43,20.02v36.46h-14.1v-7.05c-1.41,1.94-3.27,3.56-5.53,4.82-3.6,2.02-8.22,3.04-13.71,3.04Zm2.66-36.94c-6.2,0-11.23.81-14.97,2.41-3.72,1.6-6.44,3.79-8.06,6.51-1.63,2.73-2.46,5.85-2.46,9.27s.94,6.67,2.8,9.43c1.86,2.77,4.54,4.97,7.96,6.52,3.43,1.56,7.49,2.35,12.07,2.35,5.42,0,9.96-1,13.5-2.98,2.42-1.35,4.36-3.12,5.77-5.25l.4-.6v8.02h13.23v-36.03c0-8.85-2.45-15.48-7.28-19.7h0c-4.84-4.23-11.79-6.37-20.64-6.37-4.9,0-9.69.64-14.24,1.9-4.48,1.24-8.4,3.12-11.65,5.58l5.46,10.14c2.29-1.86,5.11-3.33,8.38-4.39,3.37-1.08,6.84-1.63,10.32-1.63,5.2,0,9.15,1.21,11.73,3.59,2.58,2.39,3.89,5.77,3.89,10.06v1.14h-16.2Zm.35,26.4c-3.74,0-6.7-.79-8.81-2.36-2.13-1.58-3.21-3.74-3.21-6.43,0-2.37.88-4.39,2.62-6.01,1.73-1.61,5.13-2.43,10.11-2.43h15.16v7.47c-1.26,3.2-3.34,5.65-6.19,7.29h0c-2.84,1.63-6.09,2.46-9.66,2.46Zm.69-16.79c-4.86,0-8.16.78-9.81,2.32-1.65,1.53-2.48,3.45-2.48,5.69,0,2.54,1.02,4.59,3.04,6.08,2.04,1.51,4.91,2.27,8.56,2.27s6.67-.81,9.45-2.4h0c2.75-1.58,4.76-3.95,5.97-7.03v-6.92h-14.72Z"/>
  <path class="cls-1" d="m308.4,99.27c-6.82,0-12.17-1.79-15.9-5.33-3.73-3.54-5.63-8.83-5.63-15.73v-29.55h-10.19v-12.01h10.19v-14.13h14.91v14.13h16.56v12.01h-16.56v29.2c0,2.86.74,5.11,2.2,6.69,1.46,1.57,3.53,2.36,6.15,2.36,3.18,0,5.86-.84,7.97-2.5l.23-.18,4.22,10.72-.12.1c-1.71,1.4-3.84,2.47-6.33,3.17-2.48.7-5.07,1.05-7.7,1.05Zm-31.28-51.04h10.19v29.98c0,6.78,1.85,11.97,5.49,15.42,3.65,3.46,8.9,5.21,15.6,5.21,2.59,0,5.14-.35,7.58-1.03,2.37-.67,4.41-1.67,6.05-2.99l-3.89-9.89c-2.15,1.6-4.85,2.42-8.01,2.42-2.75,0-4.93-.84-6.47-2.5-1.54-1.65-2.32-4-2.32-6.98v-29.63h16.56v-11.15h-16.56v-14.13h-14.04v14.13h-10.19v11.15Z"/>
  <path class="cls-1" d="m349.39,99.27c-4.64,0-8.76-.81-12.25-2.39-3.5-1.59-6.23-3.84-8.14-6.68-1.91-2.84-2.87-6.09-2.87-9.67s.85-6.69,2.52-9.49c1.68-2.81,4.46-5.06,8.26-6.69,3.79-1.63,8.88-2.45,15.14-2.45h15.76v-.71c0-4.16-1.26-7.44-3.75-9.74-2.5-2.31-6.34-3.47-11.43-3.47-3.43,0-6.86.54-10.18,1.61-3.32,1.07-6.16,2.57-8.44,4.48l-.2.17-5.89-10.93.15-.11c3.32-2.55,7.34-4.49,11.94-5.77,4.59-1.27,9.42-1.92,14.36-1.92,8.97,0,16.01,2.18,20.93,6.48h0c4.93,4.31,7.43,11.05,7.43,20.02v36.46h-14.1v-7.05c-1.41,1.94-3.27,3.56-5.53,4.82-3.6,2.02-8.22,3.04-13.71,3.04Zm2.66-36.94c-6.2,0-11.23.81-14.97,2.41-3.72,1.6-6.44,3.79-8.06,6.51-1.63,2.73-2.46,5.85-2.46,9.27s.94,6.67,2.8,9.43c1.86,2.77,4.54,4.97,7.96,6.52,3.43,1.56,7.49,2.35,12.07,2.35,5.42,0,9.96-1,13.5-2.98,2.42-1.35,4.36-3.12,5.77-5.25l.4-.6v8.02h13.23v-36.03c0-8.85-2.45-15.48-7.28-19.7h0c-4.84-4.23-11.79-6.37-20.64-6.37-4.9,0-9.69.64-14.24,1.9-4.48,1.24-8.4,3.12-11.65,5.58l5.46,10.15c2.29-1.86,5.11-3.33,8.38-4.39,3.37-1.08,6.84-1.63,10.32-1.63,5.2,0,9.15,1.21,11.73,3.59,2.58,2.39,3.89,5.77,3.89,10.06v1.14h-16.2Zm.35,26.4c-3.74,0-6.7-.79-8.81-2.36-2.13-1.58-3.21-3.74-3.21-6.43,0-2.37.88-4.39,2.62-6.01,1.73-1.61,5.13-2.43,10.11-2.43h15.15v7.47c-1.26,3.2-3.34,5.65-6.19,7.29h0c-2.84,1.63-6.09,2.46-9.66,2.46Zm.69-16.79c-4.86,0-8.16.78-9.81,2.32-1.65,1.53-2.48,3.45-2.48,5.69,0,2.54,1.02,4.59,3.04,6.08,2.04,1.51,4.91,2.27,8.56,2.27s6.67-.81,9.45-2.4h0c2.75-1.58,4.76-3.95,5.97-7.03v-6.92h-14.72Z"/>
  <path class="cls-1" d="m427.81,85.01v-12.51l39.5-14.79-39.5-14.79v-12.51l53.82,20.9v12.8l-53.82,20.9Zm.43-12.21v11.58l52.95-20.56v-12.21l-52.95-20.56v11.58l40.3,15.09-40.3,15.09Z"/>
</svg>