<?xml version="1.0" encoding="UTF-8"?>
<svg id="_レイヤー_1" data-name="レイヤー 1" xmlns="http://www.w3.org/2000/svg" viewBox="0 0 523 400">
  <defs>
    <style>
      .cls-1 {
        fill: #fff;
      }
    </style>
  </defs>
  <g>
    <rect class="cls-1" x="353.41" y="270.42" width="108.44" height="1" transform="translate(-79.9 227.7) rotate(-28.54)"/>
    <polygon class="cls-1" points="395.64 288.92 395.16 288.04 472.33 246.06 482.12 191.16 483.1 191.33 473.23 246.71 473.02 246.82 395.64 288.92"/>
    <polygon class="cls-1" points="375.96 276.44 343.26 266.78 343.54 265.83 375.84 275.36 458.28 230.51 458.76 231.39 375.96 276.44"/>
    <g>
      <path class="cls-1" d="m464.34,227.78c.9,1.65.29,3.71-1.36,4.61-1.65.9-3.71.29-4.61-1.36-.9-1.65-.29-3.71,1.36-4.61,1.65-.9,3.71-.29,4.61,1.36Z"/>
      <path class="cls-1" d="m461.36,233.3c-.37,0-.74-.05-1.11-.16-1-.29-1.82-.96-2.32-1.88-1.03-1.89-.33-4.26,1.56-5.29.92-.5,1.97-.61,2.97-.31,1,.3,1.82.96,2.32,1.88.5.91.61,1.97.31,2.97-.29,1-.96,1.82-1.88,2.32-.58.31-1.21.48-1.86.48Zm0-6.8c-.48,0-.95.12-1.38.35-1.4.76-1.92,2.53-1.16,3.93.37.68.98,1.17,1.72,1.39.74.22,1.52.14,2.2-.23.68-.37,1.17-.98,1.39-1.72.22-.74.14-1.52-.23-2.2h0c-.37-.68-.98-1.17-1.72-1.39-.27-.08-.55-.12-.82-.12Z"/>
    </g>
    <path class="cls-1" d="m340.46,269.49c-.37,0-.74-.05-1.11-.16-1-.3-1.82-.96-2.32-1.88-.5-.91-.61-1.97-.31-2.96.29-1,.96-1.82,1.88-2.32.91-.5,1.97-.61,2.97-.31,1,.29,1.82.96,2.32,1.88h0c1.03,1.89.33,4.26-1.56,5.29-.58.31-1.21.48-1.86.48Zm0-6.8c-.48,0-.95.12-1.38.35-.68.37-1.17.98-1.39,1.72s-.14,1.52.23,2.2c.37.68.98,1.17,1.72,1.39.74.22,1.52.14,2.2-.23,1.4-.76,1.92-2.53,1.16-3.93-.37-.68-.98-1.17-1.72-1.39-.27-.08-.55-.12-.82-.12Z"/>
    <polygon class="cls-1" points="250.66 399.42 217.96 389.77 218.24 388.81 250.55 398.34 332.99 353.49 333.47 354.37 250.66 399.42"/>
    <g>
      <path class="cls-1" d="m339.05,350.76c.9,1.65.29,3.71-1.36,4.61-1.65.9-3.71.29-4.61-1.36-.9-1.65-.29-3.71,1.36-4.61,1.65-.9,3.71-.29,4.61,1.36Z"/>
      <path class="cls-1" d="m336.07,356.29c-.37,0-.74-.05-1.11-.16-1-.29-1.82-.96-2.32-1.88-.5-.91-.61-1.97-.31-2.97.29-1,.96-1.82,1.88-2.32,1.89-1.03,4.26-.33,5.28,1.56.5.91.61,1.97.31,2.97-.29,1-.96,1.82-1.88,2.32-.58.31-1.22.48-1.86.48Zm0-6.79c-.47,0-.94.11-1.38.35-.68.37-1.17.98-1.39,1.72-.22.74-.14,1.52.23,2.2.37.68.98,1.17,1.72,1.39.74.22,1.53.14,2.21-.23.68-.37,1.17-.98,1.39-1.72.22-.74.14-1.52-.23-2.2h0c-.52-.96-1.52-1.51-2.55-1.51Z"/>
    </g>
    <path class="cls-1" d="m215.16,392.47c-1.38,0-2.72-.74-3.43-2.03-1.03-1.89-.33-4.26,1.56-5.28,1.89-1.03,4.26-.33,5.28,1.56h0c1.03,1.89.33,4.26-1.56,5.29-.59.32-1.23.47-1.86.47Zm-.01-6.79c-.47,0-.94.11-1.38.35-1.4.76-1.92,2.52-1.16,3.93.76,1.4,2.53,1.92,3.93,1.16,1.4-.76,1.92-2.53,1.16-3.93-.52-.96-1.52-1.51-2.55-1.51Z"/>
    <g>
      <polygon class="cls-1" points="198.82 390.99 197.86 390.7 207.52 358 349.18 280.93 349.65 281.81 208.36 358.68 198.82 390.99"/>
      <g>
        <path class="cls-1" d="m355.24,278.21c-.9-1.65-2.96-2.26-4.61-1.36-1.65.9-2.26,2.96-1.36,4.61.9,1.65,2.96,2.26,4.61,1.36,1.65-.9,2.26-2.96,1.36-4.61Z"/>
        <path class="cls-1" d="m352.26,283.72c-1.38,0-2.72-.74-3.43-2.03-1.03-1.89-.33-4.26,1.56-5.29.91-.5,1.97-.61,2.97-.31,1,.29,1.82.96,2.32,1.88h0c.5.91.61,1.97.31,2.96-.29,1-.96,1.82-1.88,2.32-.59.32-1.23.47-1.86.47Zm-.01-6.79c-.48,0-.95.12-1.38.35-1.4.76-1.92,2.53-1.16,3.93.76,1.4,2.52,1.92,3.93,1.16.68-.37,1.17-.98,1.39-1.72s.14-1.52-.23-2.2h0c-.37-.68-.98-1.18-1.72-1.39-.27-.08-.55-.12-.82-.12Z"/>
      </g>
      <path class="cls-1" d="m197.35,397.61c-.37,0-.74-.05-1.11-.16-1-.29-1.82-.96-2.32-1.88-1.03-1.89-.33-4.26,1.56-5.29,1.89-1.03,4.26-.33,5.28,1.56h0c.5.91.61,1.97.31,2.97-.29,1-.96,1.82-1.88,2.32-.58.32-1.22.48-1.86.48Zm0-6.79c-.47,0-.94.11-1.38.35-1.4.76-1.92,2.53-1.16,3.93.37.68.98,1.17,1.72,1.39.74.22,1.53.14,2.2-.23.68-.37,1.17-.98,1.39-1.72.22-.74.14-1.52-.23-2.21h0c-.52-.96-1.52-1.51-2.55-1.51Z"/>
    </g>
    <path class="cls-1" d="m483.39,192.48c-.37,0-.74-.05-1.11-.16-1-.3-1.82-.96-2.32-1.88-.5-.91-.61-1.97-.31-2.97.29-1,.96-1.82,1.88-2.32.91-.5,1.97-.61,2.97-.31,1,.29,1.82.96,2.32,1.88,1.03,1.89.33,4.26-1.56,5.29-.58.31-1.21.48-1.86.48Zm-.01-6.79c-.47,0-.94.11-1.38.35-.68.37-1.17.98-1.39,1.72-.22.74-.14,1.52.23,2.2.37.68.98,1.17,1.72,1.39.74.22,1.52.14,2.2-.23,1.4-.76,1.92-2.53,1.16-3.93-.52-.96-1.52-1.51-2.55-1.51Z"/>
    <path class="cls-1" d="m457.73,247.52c-.37,0-.74-.05-1.11-.16-1-.29-1.82-.96-2.32-1.88-1.03-1.89-.33-4.26,1.56-5.29s4.26-.33,5.29,1.56c.5.91.61,1.97.31,2.96-.29,1-.96,1.82-1.88,2.32-.58.32-1.22.48-1.86.48Zm0-6.79c-.47,0-.94.11-1.38.35-1.4.76-1.92,2.53-1.16,3.93.37.68.98,1.17,1.72,1.39.74.22,1.53.14,2.21-.23.68-.37,1.17-.98,1.39-1.72.22-.74.14-1.52-.23-2.2h0c-.52-.96-1.52-1.51-2.55-1.51Z"/>
    <g>
      <path class="cls-1" d="m360.79,296.36c.9,1.65.29,3.71-1.36,4.61-1.65.9-3.71.29-4.61-1.36-.9-1.65-.29-3.71,1.36-4.61,1.65-.9,3.71-.29,4.61,1.36Z"/>
      <path class="cls-1" d="m357.82,301.88c-1.38,0-2.72-.74-3.43-2.03-1.03-1.89-.33-4.26,1.56-5.29,1.89-1.03,4.26-.33,5.28,1.56.5.91.61,1.97.31,2.97-.29,1-.96,1.82-1.88,2.32-.59.32-1.23.47-1.86.47Zm-.01-6.79c-.47,0-.94.11-1.38.35-1.4.76-1.92,2.53-1.16,3.93.76,1.4,2.52,1.92,3.93,1.16.68-.37,1.17-.98,1.39-1.72.22-.74.14-1.52-.23-2.2-.52-.96-1.52-1.51-2.55-1.51Z"/>
    </g>
    <rect class="cls-1" x="371.89" y="239.42" width="98.25" height="1" transform="translate(-63.47 230.33) rotate(-28.54)"/>
    <path class="cls-1" d="m466.65,218.95c-1.38,0-2.72-.74-3.43-2.03-.5-.91-.61-1.97-.31-2.97.29-1,.96-1.82,1.87-2.32,1.89-1.03,4.26-.33,5.29,1.56h0c1.03,1.89.33,4.26-1.56,5.29-.59.32-1.23.47-1.85.47Zm-.01-6.79c-.47,0-.94.11-1.38.35-.68.37-1.17.98-1.39,1.72-.22.74-.14,1.52.23,2.2.76,1.4,2.53,1.92,3.93,1.16,1.4-.76,1.92-2.53,1.16-3.93-.52-.96-1.52-1.51-2.55-1.51Z"/>
    <path class="cls-1" d="m375.09,268.76c-1.38,0-2.72-.74-3.43-2.03-1.03-1.89-.33-4.26,1.56-5.29,1.89-1.03,4.26-.33,5.28,1.56h0c.5.91.61,1.97.31,2.97-.29,1-.96,1.82-1.88,2.32-.59.32-1.23.47-1.86.47Zm-.01-6.79c-.47,0-.94.11-1.38.35-1.4.76-1.92,2.53-1.16,3.93.76,1.4,2.53,1.92,3.93,1.16.68-.37,1.17-.98,1.39-1.72.22-.74.14-1.52-.23-2.2h0c-.52-.96-1.52-1.51-2.55-1.51Z"/>
    <path class="cls-1" d="m392.62,293.83c-1.38,0-2.72-.74-3.43-2.03-1.03-1.89-.33-4.26,1.56-5.29,1.89-1.03,4.26-.33,5.28,1.56.5.91.61,1.97.31,2.97-.29,1-.96,1.82-1.88,2.32-.59.32-1.23.47-1.86.47Zm-.01-6.79c-.47,0-.94.11-1.38.35-1.4.76-1.92,2.53-1.16,3.93.76,1.4,2.52,1.92,3.93,1.16.68-.37,1.17-.98,1.39-1.72.22-.74.14-1.52-.23-2.2-.52-.96-1.52-1.51-2.55-1.51Z"/>
    <g>
      <rect class="cls-1" x="380.98" y="276.36" width="108.44" height="1" transform="translate(-79.39 241.6) rotate(-28.54)"/>
      <path class="cls-1" d="m485.3,253.46c-.37,0-.74-.05-1.11-.16-1-.29-1.82-.96-2.32-1.87-1.03-1.89-.33-4.26,1.56-5.29.91-.5,1.97-.61,2.97-.31,1,.29,1.82.96,2.32,1.88.5.91.61,1.97.31,2.97-.29,1-.96,1.82-1.88,2.32-.58.32-1.21.48-1.86.48Zm0-6.8c-.48,0-.95.12-1.38.35-1.4.76-1.92,2.53-1.16,3.93.37.68.98,1.17,1.72,1.39.74.22,1.52.14,2.2-.23.68-.37,1.17-.98,1.39-1.72.22-.74.14-1.52-.23-2.2-.37-.68-.98-1.17-1.72-1.39-.27-.08-.55-.12-.82-.12Z"/>
      <g>
        <path class="cls-1" d="m388.36,302.3c.9,1.65.29,3.71-1.36,4.61-1.65.9-3.71.29-4.61-1.36-.9-1.65-.29-3.71,1.36-4.61,1.65-.9,3.71-.29,4.61,1.36Z"/>
        <path class="cls-1" d="m385.39,307.82c-1.38,0-2.72-.74-3.43-2.03-1.03-1.89-.33-4.26,1.56-5.29,1.89-1.02,4.26-.33,5.28,1.56h0c.5.91.61,1.97.31,2.97-.29,1-.96,1.82-1.88,2.32-.59.32-1.23.47-1.86.47Zm-.01-6.79c-.47,0-.94.11-1.38.35-1.4.76-1.92,2.53-1.16,3.93.76,1.4,2.53,1.92,3.93,1.16.68-.37,1.17-.98,1.39-1.72.22-.74.14-1.52-.23-2.2-.53-.96-1.52-1.51-2.55-1.51Z"/>
      </g>
    </g>
    <g>
      <rect class="cls-1" x="243.51" y="350.58" width="108.44" height="1" transform="translate(-131.57 184.93) rotate(-28.54)"/>
      <path class="cls-1" d="m247.6,382.22c-1.38,0-2.72-.74-3.43-2.03h0c-1.03-1.89-.33-4.26,1.56-5.29,1.89-1.03,4.26-.33,5.29,1.56,1.03,1.89.33,4.26-1.56,5.29-.59.32-1.23.47-1.86.47Zm-2.55-2.51c.76,1.4,2.53,1.92,3.93,1.16,1.4-.76,1.92-2.53,1.16-3.93-.76-1.4-2.53-1.92-3.93-1.16-1.4.76-1.92,2.53-1.16,3.93h0Z"/>
      <g>
        <path class="cls-1" d="m344.53,325.58c.9,1.65,2.96,2.26,4.61,1.36,1.65-.9,2.26-2.96,1.36-4.61-.9-1.65-2.96-2.26-4.61-1.36-1.65.9-2.26,2.96-1.36,4.61Z"/>
        <path class="cls-1" d="m347.52,327.86c-.37,0-.74-.05-1.11-.16-1-.29-1.82-.96-2.32-1.88-1.03-1.89-.33-4.26,1.56-5.29.91-.5,1.97-.61,2.97-.31,1,.3,1.82.96,2.32,1.88.5.91.61,1.97.31,2.97-.29,1-.96,1.82-1.88,2.32-.58.31-1.22.48-1.86.48Zm0-6.8c-.48,0-.95.12-1.38.35-1.4.76-1.92,2.53-1.16,3.93h0c.37.68.98,1.17,1.72,1.39.74.22,1.52.14,2.2-.23.68-.37,1.17-.98,1.39-1.72.22-.74.14-1.52-.23-2.2-.37-.68-.98-1.17-1.72-1.39-.27-.08-.55-.12-.82-.12Z"/>
      </g>
    </g>
    <g>
      <rect class="cls-1" x="340.01" y="299.13" width="188.29" height="1" transform="translate(-90.4 243.87) rotate(-28.54)"/>
      <path class="cls-1" d="m348.95,349.84c-.37,0-.74-.05-1.11-.16-1-.29-1.82-.96-2.32-1.88h0c-1.03-1.89-.33-4.26,1.56-5.28,1.89-1.03,4.26-.33,5.29,1.56,1.03,1.89.33,4.26-1.56,5.29-.58.31-1.21.48-1.86.48Zm-.01-6.79c-.47,0-.94.11-1.38.35-1.4.76-1.92,2.53-1.16,3.93h0c.37.68.98,1.18,1.72,1.39.74.22,1.52.14,2.2-.23,1.4-.76,1.92-2.53,1.16-3.93-.52-.96-1.52-1.51-2.55-1.51Z"/>
      <g>
        <path class="cls-1" d="m516.03,255.04c.9,1.65,2.96,2.26,4.61,1.36,1.65-.9,2.26-2.96,1.36-4.61-.9-1.65-2.96-2.26-4.61-1.36-1.65.9-2.26,2.96-1.36,4.61Z"/>
        <path class="cls-1" d="m519.02,257.32c-.37,0-.74-.05-1.11-.16-1-.29-1.82-.96-2.32-1.87h0c-1.03-1.89-.33-4.26,1.56-5.29.91-.5,1.97-.61,2.97-.31,1,.29,1.82.96,2.32,1.88.5.91.61,1.97.31,2.97-.29,1-.96,1.82-1.88,2.32-.58.31-1.21.48-1.86.48Zm-2.55-2.51c.37.68.98,1.17,1.72,1.39.74.22,1.52.14,2.2-.23.68-.37,1.17-.98,1.39-1.72.22-.74.14-1.52-.23-2.2-.37-.68-.98-1.17-1.72-1.39-.74-.22-1.52-.14-2.2.23-1.4.76-1.92,2.53-1.16,3.93h0Z"/>
      </g>
    </g>
    <g>
      <rect class="cls-1" x="354.79" y="230.68" width="121.58" height="1" transform="translate(-59.95 226.67) rotate(-28.54)"/>
      <path class="cls-1" d="m471.46,204.64c-.37,0-.74-.05-1.11-.16-1-.3-1.82-.96-2.32-1.88-1.03-1.89-.33-4.26,1.56-5.28.91-.5,1.97-.61,2.97-.31,1,.29,1.82.96,2.32,1.88,1.03,1.89.33,4.26-1.56,5.29-.58.32-1.21.48-1.86.48Zm0-6.8c-.48,0-.95.12-1.38.35-1.4.76-1.92,2.53-1.16,3.93.37.68.98,1.17,1.72,1.39.74.22,1.52.14,2.2-.23,1.4-.76,1.92-2.53,1.16-3.93-.37-.68-.98-1.17-1.72-1.39-.27-.08-.55-.12-.82-.12Z"/>
      <g>
        <path class="cls-1" d="m362.97,259.77c.9,1.65.29,3.71-1.36,4.61-1.65.9-3.71.29-4.61-1.36-.9-1.65-.29-3.71,1.36-4.61,1.65-.9,3.71-.29,4.61,1.36Z"/>
        <path class="cls-1" d="m359.99,265.29c-.37,0-.74-.05-1.11-.16-1-.29-1.82-.96-2.32-1.88-1.03-1.89-.33-4.26,1.56-5.29.91-.5,1.97-.61,2.97-.31,1,.3,1.82.96,2.32,1.88.5.91.61,1.97.31,2.97-.29,1-.96,1.82-1.88,2.32-.58.31-1.22.48-1.86.48Zm0-6.8c-.48,0-.95.12-1.38.35-1.4.76-1.92,2.53-1.16,3.93.37.68.98,1.17,1.72,1.39.74.22,1.53.14,2.21-.23.68-.37,1.17-.98,1.39-1.72.22-.74.14-1.52-.23-2.2h0c-.37-.68-.98-1.18-1.72-1.39-.27-.08-.55-.12-.82-.12Z"/>
      </g>
    </g>
    <g>
      <rect class="cls-1" x="170.55" y="320.59" width="174.19" height="1" transform="translate(-122.11 162.14) rotate(-28.54)"/>
      <path class="cls-1" d="m336.63,281.98c-1.38,0-2.72-.74-3.43-2.03-1.03-1.89-.33-4.26,1.56-5.29.91-.5,1.97-.61,2.97-.31s1.82.96,2.32,1.88h0c.5.91.61,1.97.31,2.96-.29,1-.96,1.82-1.88,2.32-.59.32-1.23.47-1.86.47Zm-.01-6.79c-.48,0-.95.12-1.38.35-1.4.76-1.92,2.53-1.16,3.93.76,1.4,2.53,1.92,3.93,1.16.68-.37,1.17-.98,1.39-1.72.22-.74.14-1.52-.23-2.2h0c-.37-.68-.98-1.18-1.72-1.39-.27-.08-.55-.12-.82-.12Z"/>
      <g>
        <path class="cls-1" d="m181.93,362.25c.9,1.65.29,3.71-1.36,4.61-1.65.9-3.71.29-4.61-1.36-.9-1.65-.29-3.71,1.36-4.61,1.65-.9,3.71-.29,4.61,1.36Z"/>
        <path class="cls-1" d="m178.95,367.77c-1.38,0-2.72-.74-3.43-2.03-1.03-1.89-.33-4.26,1.56-5.29,1.89-1.03,4.26-.33,5.28,1.56h0c1.03,1.89.33,4.26-1.56,5.29-.59.32-1.23.47-1.86.47Zm-.01-6.79c-.47,0-.94.11-1.38.35-1.4.76-1.92,2.53-1.16,3.93.76,1.4,2.53,1.92,3.93,1.16,1.4-.76,1.92-2.53,1.16-3.93-.52-.96-1.52-1.51-2.55-1.51Z"/>
      </g>
    </g>
    <rect class="cls-1" x="211.59" y="323.18" width="163.94" height="1" transform="translate(-118.95 179.52) rotate(-28.53)"/>
    <path class="cls-1" d="m368.04,287.02c-.37,0-.74-.05-1.11-.16-1-.29-1.82-.96-2.32-1.87-1.03-1.89-.33-4.26,1.56-5.29.91-.5,1.97-.61,2.97-.31,1,.29,1.82.96,2.32,1.88.5.91.61,1.97.31,2.97-.29,1-.96,1.82-1.88,2.32-.58.31-1.21.48-1.86.48Zm0-6.8c-.48,0-.95.12-1.38.35-1.4.76-1.92,2.53-1.16,3.93.37.68.98,1.17,1.72,1.39.74.22,1.52.14,2.2-.23.68-.37,1.17-.98,1.39-1.72.22-.74.14-1.52-.23-2.2-.37-.68-.98-1.17-1.72-1.39-.27-.08-.55-.12-.82-.12Z"/>
    <g>
      <path class="cls-1" d="m222.35,362.39c.9,1.65.29,3.71-1.36,4.61-1.65.9-3.71.29-4.61-1.36-.9-1.65-.29-3.71,1.36-4.61,1.65-.9,3.71-.29,4.61,1.36Z"/>
      <path class="cls-1" d="m219.37,367.91c-.37,0-.74-.05-1.11-.16-1-.29-1.82-.96-2.32-1.88-.5-.91-.61-1.97-.31-2.97.29-1,.96-1.82,1.88-2.32.91-.5,1.97-.61,2.97-.31,1,.29,1.82.96,2.32,1.88.5.91.61,1.97.31,2.97-.29,1-.96,1.82-1.88,2.32-.58.31-1.22.48-1.86.48Zm0-6.8c-.48,0-.95.12-1.38.35-.68.37-1.17.98-1.39,1.72-.22.74-.14,1.52.23,2.2.37.68.98,1.18,1.72,1.39.74.22,1.52.14,2.2-.23.68-.37,1.17-.98,1.39-1.72.22-.74.14-1.52-.23-2.2h0c-.37-.68-.98-1.17-1.72-1.39-.27-.08-.55-.12-.82-.12Z"/>
    </g>
    <rect class="cls-1" x="267.7" y="328.31" width="108.44" height="1" transform="translate(-117.99 193.79) rotate(-28.54)"/>
    <path class="cls-1" d="m372.03,305.41c-1.38,0-2.72-.74-3.43-2.03-1.03-1.89-.33-4.26,1.56-5.29,1.89-1.02,4.26-.33,5.28,1.56h0c.5.91.61,1.97.31,2.97-.29,1-.96,1.82-1.88,2.32-.59.32-1.23.47-1.86.47Zm-.01-6.79c-.47,0-.94.11-1.38.35-1.4.76-1.92,2.53-1.16,3.93.76,1.4,2.53,1.92,3.93,1.16.68-.37,1.17-.98,1.39-1.72.22-.74.14-1.52-.23-2.2-.53-.96-1.52-1.51-2.55-1.51Z"/>
    <path class="cls-1" d="m272.11,359.78c-.37,0-.74-.05-1.11-.16-1-.29-1.82-.96-2.32-1.88-.5-.91-.61-1.97-.31-2.97.29-1,.96-1.82,1.88-2.32.91-.5,1.97-.61,2.97-.31,1,.29,1.82.96,2.32,1.88h0c.5.91.61,1.97.31,2.97-.29,1-.96,1.82-1.88,2.32-.58.32-1.22.48-1.86.48Zm0-6.8c-.48,0-.95.12-1.38.35-.68.37-1.17.98-1.39,1.72-.22.74-.14,1.52.23,2.2.37.68.98,1.17,1.72,1.39.74.22,1.52.14,2.21-.23.68-.37,1.17-.98,1.39-1.72.22-.74.14-1.52-.23-2.2h0c-.37-.68-.98-1.18-1.72-1.39-.27-.08-.55-.12-.82-.12Z"/>
    <g>
      <rect class="cls-1" x="226.37" y="336.01" width="125.14" height="1" transform="translate(-125.67 178.96) rotate(-28.54)"/>
      <path class="cls-1" d="m346.39,309.12c-.37,0-.74-.05-1.11-.16-1-.3-1.82-.96-2.32-1.88-.5-.91-.61-1.97-.31-2.96.29-1,.96-1.82,1.88-2.32,1.89-1.03,4.26-.33,5.28,1.56h0c1.03,1.89.33,4.26-1.56,5.29-.58.32-1.21.48-1.86.48Zm-.01-6.79c-.47,0-.94.11-1.38.35-.68.37-1.17.98-1.39,1.72s-.14,1.52.23,2.2c.37.68.98,1.17,1.72,1.39.74.22,1.52.14,2.2-.23,1.4-.76,1.92-2.53,1.16-3.93-.52-.96-1.52-1.51-2.55-1.51Z"/>
      <path class="cls-1" d="m231.79,371.47c-1.38,0-2.72-.74-3.43-2.03-1.03-1.89-.33-4.26,1.56-5.29,1.89-1.02,4.26-.33,5.28,1.56h0c1.03,1.89.33,4.26-1.56,5.29-.59.32-1.23.47-1.86.47Zm-.01-6.79c-.47,0-.94.11-1.38.35-1.4.76-1.92,2.53-1.16,3.93.76,1.4,2.53,1.92,3.93,1.16,1.4-.76,1.92-2.53,1.16-3.93-.52-.96-1.52-1.51-2.55-1.51Z"/>
    </g>
    <g>
      <polygon class="cls-1" points="325.38 346.78 324.9 345.9 504.28 248.31 489.85 221.78 490.72 221.3 505.63 248.71 505.2 248.95 325.38 346.78"/>
      <path class="cls-1" d="m488.72,222.74c-1.38,0-2.72-.74-3.43-2.03-.5-.91-.61-1.97-.31-2.97.29-1,.96-1.82,1.88-2.32.91-.5,1.97-.61,2.97-.31,1,.29,1.82.96,2.32,1.87h0c1.03,1.89.33,4.26-1.56,5.29-.59.32-1.23.47-1.85.47Zm-.01-6.79c-.48,0-.95.12-1.38.35-.68.37-1.17.98-1.39,1.72-.22.74-.14,1.52.23,2.2.76,1.4,2.53,1.92,3.93,1.16,1.4-.76,1.92-2.53,1.16-3.93-.37-.68-.98-1.17-1.72-1.39-.27-.08-.55-.12-.82-.12Z"/>
      <g>
        <path class="cls-1" d="m325.93,345.88c.9,1.65.29,3.71-1.36,4.61-1.65.9-3.71.29-4.61-1.36-.9-1.65-.29-3.71,1.36-4.61,1.65-.9,3.71-.29,4.61,1.36Z"/>
        <path class="cls-1" d="m322.95,351.4c-.37,0-.74-.05-1.11-.16-1-.29-1.82-.96-2.32-1.88-.5-.91-.61-1.97-.31-2.97.29-1,.96-1.82,1.88-2.32.91-.5,1.97-.61,2.97-.31,1,.29,1.82.96,2.32,1.88,1.03,1.89.33,4.26-1.56,5.28-.58.31-1.22.48-1.86.48Zm0-6.8c-.48,0-.95.12-1.38.35-.68.37-1.17.98-1.39,1.72-.22.74-.14,1.52.23,2.2.37.68.98,1.18,1.72,1.39.74.22,1.52.14,2.2-.23,1.4-.76,1.92-2.52,1.16-3.93-.37-.68-.98-1.17-1.72-1.39-.27-.08-.55-.12-.82-.12Z"/>
      </g>
      <rect class="cls-1" x="250.24" y="312.82" width="271.21" height="1" transform="translate(-102.79 222.33) rotate(-28.53)"/>
      <g>
        <path class="cls-1" d="m267.52,377.66c.9,1.65.29,3.71-1.36,4.61-1.65.9-3.71.29-4.61-1.36-.9-1.65-.29-3.71,1.36-4.61,1.65-.9,3.71-.29,4.61,1.36Z"/>
        <path class="cls-1" d="m264.54,383.18c-.37,0-.74-.05-1.11-.16-1-.29-1.82-.96-2.32-1.88-1.03-1.89-.33-4.26,1.56-5.29,1.89-1.03,4.26-.33,5.28,1.56h0c1.03,1.89.33,4.26-1.56,5.28-.58.32-1.22.48-1.86.48Zm0-6.79c-.47,0-.94.11-1.38.35-1.4.76-1.92,2.53-1.16,3.93.37.68.98,1.17,1.72,1.39.74.22,1.53.14,2.2-.23,1.4-.76,1.92-2.53,1.16-3.93h0c-.52-.96-1.52-1.51-2.55-1.51Z"/>
      </g>
    </g>
  </g>
  <g>
    <rect class="cls-1" x="233.83" y="226.6" width="136.63" height="1.26" transform="translate(-71.88 172.17) rotate(-28.57)"/>
    <polygon class="cls-1" points="287.04 249.91 286.44 248.8 383.66 195.91 396 126.73 397.24 126.95 384.8 196.73 287.04 249.91"/>
    <polygon class="cls-1" points="262.24 234.19 261.99 234.12 221.03 222.02 221.39 220.81 262.09 232.83 365.97 176.32 366.57 177.42 262.24 234.19"/>
    <g>
      <path class="cls-1" d="m373.6,172.88c1.13,2.08.36,4.67-1.71,5.8-2.08,1.13-4.67.36-5.8-1.71-1.13-2.08-.36-4.67,1.71-5.81,2.08-1.13,4.67-.36,5.8,1.72Z"/>
      <path class="cls-1" d="m369.85,179.84c-.47,0-.94-.07-1.4-.2-1.26-.37-2.3-1.21-2.92-2.36-1.29-2.38-.41-5.37,1.97-6.66,1.15-.63,2.48-.77,3.74-.4,1.26.37,2.3,1.21,2.92,2.36h0c.63,1.15.77,2.48.4,3.74-.37,1.26-1.21,2.3-2.36,2.92-.73.4-1.53.6-2.34.6Zm-.01-8.56c-.6,0-1.2.15-1.74.45-1.77.96-2.42,3.18-1.46,4.95.47.86,1.24,1.48,2.17,1.76.93.27,1.92.17,2.78-.29.86-.47,1.48-1.24,1.76-2.17.28-.93.17-1.92-.29-2.78h0c-.47-.86-1.24-1.48-2.17-1.76-.34-.1-.69-.15-1.04-.15Z"/>
    </g>
    <path class="cls-1" d="m217.51,225.43c-1.74,0-3.43-.93-4.32-2.56-1.29-2.38-.41-5.36,1.97-6.66,1.15-.63,2.48-.77,3.74-.4,1.26.37,2.3,1.21,2.92,2.36h0c1.29,2.38.41,5.37-1.97,6.66-.74.4-1.55.6-2.34.6Zm-.01-8.56c-.6,0-1.2.15-1.74.45-1.77.96-2.42,3.18-1.46,4.95.96,1.77,3.18,2.42,4.95,1.46,1.77-.96,2.42-3.18,1.46-4.95-.47-.86-1.24-1.48-2.17-1.76-.34-.1-.69-.15-1.04-.15Z"/>
    <polygon class="cls-1" points="104.36 389.15 104.11 389.07 63.16 376.98 63.52 375.77 104.22 387.79 208.09 331.28 208.7 332.38 104.36 389.15"/>
    <g>
      <path class="cls-1" d="m215.73,327.84c1.13,2.08.36,4.67-1.71,5.8-2.08,1.13-4.68.36-5.8-1.71-1.13-2.08-.36-4.67,1.71-5.8,2.08-1.13,4.67-.36,5.81,1.71Z"/>
      <path class="cls-1" d="m211.98,334.8c-.47,0-.94-.07-1.4-.2-1.26-.37-2.3-1.21-2.92-2.36-.63-1.15-.77-2.48-.4-3.74.37-1.26,1.21-2.3,2.36-2.92,2.38-1.3,5.37-.41,6.66,1.97h0c1.29,2.38.41,5.37-1.97,6.66-.73.4-1.53.6-2.34.6Zm-.01-8.56c-.59,0-1.19.14-1.74.44-.86.47-1.48,1.24-1.76,2.17-.28.94-.17,1.92.29,2.78.47.86,1.24,1.48,2.17,1.76s1.92.17,2.78-.29c1.77-.96,2.42-3.18,1.46-4.95-.66-1.22-1.92-1.9-3.21-1.9Z"/>
    </g>
    <path class="cls-1" d="m59.63,380.38c-1.74,0-3.43-.93-4.32-2.56-1.29-2.38-.41-5.37,1.97-6.66,2.38-1.29,5.37-.41,6.66,1.96h0c1.29,2.38.41,5.37-1.97,6.66-.74.4-1.55.6-2.34.6Zm-.01-8.56c-.59,0-1.19.14-1.74.44-1.77.96-2.42,3.18-1.46,4.95.96,1.77,3.18,2.42,4.95,1.46,1.77-.96,2.42-3.18,1.46-4.95-.66-1.21-1.92-1.9-3.21-1.9Z"/>
    <g>
      <polygon class="cls-1" points="39.04 378.52 37.84 378.16 50 336.96 50.23 336.84 228.49 239.85 229.09 240.96 51.06 337.82 39.04 378.52"/>
      <g>
        <path class="cls-1" d="m236.13,236.41c-1.13-2.08-3.73-2.84-5.81-1.72-2.08,1.13-2.84,3.73-1.71,5.81,1.13,2.08,3.73,2.84,5.8,1.71,2.08-1.13,2.84-3.73,1.71-5.8Z"/>
        <path class="cls-1" d="m232.38,243.37c-1.74,0-3.43-.93-4.32-2.56-1.29-2.38-.41-5.37,1.97-6.66,2.38-1.29,5.37-.41,6.66,1.97.63,1.15.77,2.48.4,3.74-.37,1.26-1.21,2.3-2.36,2.92-.74.4-1.55.6-2.34.6Zm-.02-8.56c-.59,0-1.19.14-1.74.44-1.77.96-2.42,3.18-1.46,4.95.96,1.77,3.18,2.42,4.95,1.46.86-.47,1.48-1.24,1.76-2.17.28-.93.17-1.92-.29-2.78h0c-.66-1.22-1.92-1.91-3.21-1.91Z"/>
      </g>
      <path class="cls-1" d="m37.18,386.86c-.47,0-.94-.07-1.4-.2-1.26-.37-2.3-1.21-2.92-2.36-1.29-2.38-.41-5.37,1.97-6.66,2.38-1.29,5.36-.41,6.66,1.97h0c1.29,2.38.41,5.37-1.97,6.66-.73.4-1.53.6-2.34.6Zm-.01-8.56c-.59,0-1.19.14-1.74.44-1.77.96-2.42,3.18-1.46,4.95.47.86,1.24,1.48,2.17,1.76.93.27,1.92.17,2.78-.3,1.77-.96,2.42-3.18,1.46-4.95-.66-1.22-1.92-1.9-3.21-1.9Z"/>
    </g>
    <path class="cls-1" d="m397.6,128.4c-.47,0-.94-.07-1.4-.2-1.26-.37-2.3-1.21-2.92-2.36-1.29-2.38-.41-5.36,1.97-6.66,2.38-1.29,5.37-.41,6.66,1.97h0c.63,1.15.77,2.48.4,3.74-.37,1.26-1.21,2.3-2.36,2.92-.73.4-1.53.6-2.34.6Zm-.01-8.56c-.59,0-1.19.14-1.74.44-1.77.96-2.42,3.18-1.46,4.95.47.86,1.24,1.48,2.17,1.76s1.92.17,2.78-.29c.86-.47,1.48-1.24,1.76-2.17.28-.94.17-1.92-.29-2.78h0c-.66-1.22-1.92-1.91-3.21-1.91Z"/>
    <path class="cls-1" d="m365.28,197.75c-.47,0-.94-.07-1.4-.2-1.26-.37-2.3-1.21-2.92-2.36-1.29-2.38-.41-5.37,1.97-6.66,1.15-.63,2.48-.77,3.74-.4,1.26.37,2.3,1.21,2.92,2.36.63,1.15.77,2.48.4,3.74s-1.21,2.29-2.36,2.92c-.73.4-1.53.6-2.34.6Zm-.01-8.56c-.6,0-1.2.15-1.74.45-1.77.96-2.42,3.18-1.46,4.95.47.86,1.24,1.48,2.17,1.76.94.27,1.92.17,2.78-.3.86-.47,1.48-1.24,1.76-2.17s.17-1.92-.29-2.78h0c-.47-.86-1.24-1.48-2.17-1.76-.34-.1-.69-.15-1.04-.15Z"/>
    <g>
      <path class="cls-1" d="m243.13,259.29c1.13,2.08.36,4.67-1.71,5.8-2.08,1.13-4.67.36-5.8-1.71-1.13-2.08-.36-4.68,1.71-5.81,2.08-1.13,4.68-.36,5.8,1.71Z"/>
      <path class="cls-1" d="m239.38,266.24c-1.74,0-3.43-.93-4.32-2.56-1.29-2.38-.41-5.37,1.97-6.66,2.38-1.29,5.37-.41,6.66,1.97h0c1.29,2.38.41,5.37-1.97,6.66-.74.4-1.55.6-2.34.6Zm-.01-8.56c-.59,0-1.19.14-1.74.44-1.77.96-2.42,3.18-1.46,4.95.96,1.77,3.18,2.42,4.95,1.46,1.77-.96,2.42-3.18,1.46-4.95-.66-1.22-1.92-1.91-3.21-1.91Z"/>
    </g>
    <rect class="cls-1" x="257.11" y="187.54" width="123.8" height="1.26" transform="translate(-51.14 175.48) rotate(-28.57)"/>
    <path class="cls-1" d="m376.51,161.75c-1.74,0-3.43-.93-4.32-2.56-1.29-2.38-.41-5.37,1.96-6.66,2.38-1.3,5.37-.41,6.66,1.96h0c1.29,2.38.41,5.37-1.97,6.66-.74.4-1.55.6-2.34.6Zm-.01-8.56c-.59,0-1.19.14-1.74.44-1.77.96-2.42,3.18-1.46,4.95.96,1.77,3.18,2.42,4.95,1.46,1.77-.96,2.42-3.18,1.46-4.95h0c-.66-1.21-1.92-1.9-3.21-1.9Z"/>
    <path class="cls-1" d="m261.15,224.51c-1.74,0-3.43-.93-4.32-2.56-1.29-2.38-.41-5.37,1.97-6.66,1.15-.63,2.48-.77,3.74-.4,1.26.37,2.29,1.21,2.92,2.36h0c.63,1.15.77,2.48.4,3.74-.37,1.26-1.21,2.3-2.36,2.92-.74.4-1.55.6-2.34.6Zm-.01-8.56c-.6,0-1.2.15-1.74.45-1.77.96-2.42,3.18-1.46,4.95.96,1.77,3.18,2.42,4.95,1.46.86-.47,1.48-1.24,1.76-2.17.28-.93.17-1.92-.29-2.78h0c-.47-.86-1.24-1.48-2.17-1.76-.34-.1-.69-.15-1.04-.15Z"/>
    <path class="cls-1" d="m283.23,256.1c-1.74,0-3.43-.93-4.32-2.56-.63-1.15-.77-2.48-.4-3.74.37-1.26,1.21-2.3,2.36-2.92,2.38-1.29,5.36-.41,6.66,1.97.63,1.15.77,2.48.4,3.74s-1.21,2.3-2.36,2.92c-.74.4-1.55.6-2.34.6Zm-.01-8.56c-.59,0-1.19.14-1.74.44-.86.47-1.48,1.24-1.76,2.17-.28.94-.17,1.92.29,2.78.96,1.77,3.18,2.42,4.95,1.46.86-.47,1.48-1.24,1.76-2.17s.17-1.92-.29-2.78h0c-.66-1.22-1.92-1.91-3.21-1.91Z"/>
    <g>
      <rect class="cls-1" x="268.57" y="234.09" width="136.63" height="1.26" transform="translate(-71.23 189.7) rotate(-28.57)"/>
      <path class="cls-1" d="m400.02,205.23c-1.74,0-3.43-.93-4.32-2.56-1.29-2.38-.41-5.37,1.97-6.66,2.38-1.29,5.36-.41,6.66,1.97h0c1.29,2.38.41,5.36-1.97,6.66-.74.4-1.55.6-2.34.6Zm-.01-8.56c-.59,0-1.19.14-1.74.44-.86.47-1.48,1.24-1.76,2.17-.28.94-.17,1.92.29,2.78.96,1.77,3.18,2.42,4.95,1.46,1.77-.96,2.42-3.18,1.46-4.95-.66-1.22-1.92-1.9-3.21-1.9Z"/>
      <g>
        <path class="cls-1" d="m277.87,266.78c1.13,2.08.36,4.67-1.71,5.8-2.08,1.13-4.68.36-5.8-1.71-1.13-2.08-.36-4.68,1.71-5.8,2.08-1.13,4.67-.36,5.8,1.71Z"/>
        <path class="cls-1" d="m274.12,273.73c-.47,0-.94-.07-1.4-.2-1.26-.37-2.3-1.21-2.92-2.36-.63-1.15-.77-2.48-.4-3.74.37-1.26,1.21-2.3,2.36-2.92,2.38-1.29,5.36-.41,6.66,1.97.63,1.15.77,2.48.4,3.74-.37,1.26-1.21,2.3-2.36,2.92-.73.4-1.53.6-2.34.6Zm-.01-8.56c-.59,0-1.19.14-1.74.44-.86.47-1.48,1.24-1.76,2.17-.28.94-.17,1.92.29,2.78s1.24,1.48,2.17,1.76c.94.28,1.92.17,2.78-.29.86-.47,1.48-1.24,1.76-2.17.28-.94.17-1.92-.29-2.78h0c-.66-1.22-1.92-1.9-3.21-1.9Z"/>
      </g>
    </g>
    <g>
      <rect class="cls-1" x="95.35" y="327.61" width="136.63" height="1.26" transform="translate(-137.05 118.25) rotate(-28.57)"/>
      <path class="cls-1" d="m100.51,367.47c-1.74,0-3.43-.93-4.32-2.56h0c-1.29-2.38-.41-5.37,1.97-6.66,1.15-.63,2.48-.77,3.74-.4,1.26.37,2.3,1.21,2.92,2.36,1.29,2.38.41,5.37-1.97,6.66-.74.4-1.55.6-2.34.6Zm-3.21-3.16c.96,1.77,3.19,2.42,4.95,1.46,1.77-.96,2.42-3.18,1.46-4.95-.47-.86-1.24-1.48-2.17-1.76-.94-.28-1.92-.17-2.78.29-1.77.96-2.42,3.18-1.46,4.95h0Z"/>
      <g>
        <path class="cls-1" d="m222.64,296.11c1.13,2.08,3.73,2.84,5.8,1.71,2.08-1.13,2.84-3.73,1.71-5.8-1.13-2.08-3.73-2.84-5.81-1.71-2.08,1.13-2.84,3.73-1.71,5.81Z"/>
        <path class="cls-1" d="m226.41,298.97c-.47,0-.94-.07-1.4-.2-1.26-.37-2.3-1.21-2.92-2.36-1.29-2.38-.41-5.37,1.97-6.66,2.38-1.29,5.37-.41,6.66,1.97,1.29,2.38.41,5.37-1.97,6.66-.73.4-1.53.6-2.34.6Zm-.01-8.56c-.59,0-1.19.14-1.74.44-1.77.96-2.42,3.18-1.46,4.95.47.86,1.24,1.48,2.17,1.76.94.27,1.92.17,2.78-.29,1.77-.96,2.42-3.18,1.46-4.95-.66-1.22-1.92-1.91-3.21-1.91Z"/>
      </g>
    </g>
    <g>
      <rect class="cls-1" x="216.94" y="262.77" width="237.25" height="1.26" transform="translate(-85.11 192.56) rotate(-28.57)"/>
      <path class="cls-1" d="m228.21,326.68c-.47,0-.94-.07-1.4-.2-1.26-.37-2.29-1.21-2.92-2.36h0c-.63-1.15-.77-2.48-.4-3.74.37-1.26,1.21-2.29,2.36-2.92,1.15-.63,2.48-.77,3.74-.4,1.26.37,2.3,1.21,2.92,2.36,1.29,2.38.41,5.37-1.97,6.66-.73.4-1.53.6-2.34.6Zm-.01-8.56c-.6,0-1.2.15-1.74.45-.86.47-1.48,1.24-1.76,2.17-.28.93-.17,1.92.29,2.78h0c.47.86,1.24,1.48,2.17,1.76.93.28,1.92.17,2.78-.29,1.77-.96,2.42-3.18,1.46-4.95-.47-.86-1.24-1.48-2.17-1.76-.34-.1-.69-.15-1.04-.15Z"/>
      <g>
        <path class="cls-1" d="m438.73,207.23c1.13,2.08,3.73,2.84,5.8,1.71,2.08-1.13,2.84-3.73,1.71-5.8-1.13-2.08-3.73-2.84-5.8-1.71-2.08,1.13-2.84,3.73-1.71,5.81Z"/>
        <path class="cls-1" d="m442.49,210.09c-1.74,0-3.43-.93-4.32-2.56h0c-1.29-2.38-.41-5.37,1.97-6.66,1.15-.63,2.48-.77,3.74-.4s2.29,1.21,2.92,2.36c.63,1.15.77,2.48.4,3.74-.37,1.26-1.21,2.3-2.36,2.92-.74.4-1.55.6-2.34.6Zm-3.21-3.16c.96,1.77,3.18,2.42,4.95,1.46.86-.47,1.48-1.24,1.76-2.17.28-.93.17-1.92-.29-2.78-.96-1.77-3.18-2.42-4.95-1.46-1.77.96-2.42,3.18-1.46,4.95h0Z"/>
      </g>
    </g>
    <g>
      <rect class="cls-1" x="235.56" y="176.53" width="153.19" height="1.26" transform="translate(-46.71 170.87) rotate(-28.57)"/>
      <path class="cls-1" d="m382.57,143.72c-.47,0-.94-.07-1.4-.2-1.26-.37-2.3-1.21-2.92-2.36-1.29-2.38-.41-5.36,1.97-6.66,1.15-.63,2.48-.77,3.74-.4,1.26.37,2.3,1.21,2.92,2.36h0c1.29,2.38.41,5.37-1.97,6.66-.73.4-1.53.6-2.34.6Zm-.01-8.56c-.6,0-1.2.15-1.74.45-1.77.96-2.42,3.18-1.46,4.95.47.86,1.24,1.48,2.17,1.76.94.28,1.92.17,2.78-.29,1.77-.96,2.42-3.18,1.46-4.95h0c-.47-.86-1.24-1.48-2.17-1.76-.34-.1-.69-.15-1.04-.15Z"/>
      <g>
        <path class="cls-1" d="m245.87,213.18c1.13,2.08.36,4.67-1.71,5.8-2.08,1.13-4.68.36-5.8-1.71-1.13-2.08-.36-4.67,1.71-5.81,2.08-1.13,4.67-.36,5.8,1.72Z"/>
        <path class="cls-1" d="m242.12,220.14c-.47,0-.94-.07-1.4-.2-1.26-.37-2.3-1.21-2.92-2.36-1.29-2.38-.41-5.37,1.97-6.66,2.38-1.29,5.37-.41,6.66,1.97h0c.63,1.15.77,2.48.4,3.74-.37,1.26-1.21,2.3-2.36,2.92-.73.4-1.53.6-2.34.6Zm-.01-8.56c-.59,0-1.19.14-1.74.44-1.77.96-2.42,3.18-1.46,4.95.47.86,1.24,1.48,2.17,1.76.94.28,1.92.17,2.78-.29.86-.47,1.48-1.24,1.76-2.17.28-.93.17-1.92-.29-2.78h0c-.66-1.22-1.92-1.91-3.21-1.91Z"/>
      </g>
    </g>
    <g>
      <rect class="cls-1" x="3.42" y="289.82" width="219.48" height="1.26" transform="translate(-125.13 89.49) rotate(-28.57)"/>
      <path class="cls-1" d="m212.68,241.17c-.47,0-.94-.07-1.4-.2-1.26-.37-2.3-1.21-2.92-2.36-.63-1.15-.77-2.48-.4-3.74.37-1.26,1.21-2.3,2.36-2.92s2.48-.77,3.74-.4c1.26.37,2.3,1.21,2.92,2.36.63,1.15.77,2.48.4,3.74-.37,1.26-1.21,2.3-2.36,2.92-.73.4-1.53.6-2.34.6Zm-.01-8.56c-.6,0-1.2.15-1.74.45-.86.47-1.48,1.24-1.76,2.17-.28.94-.17,1.92.29,2.78.96,1.77,3.18,2.42,4.95,1.46.86-.47,1.48-1.24,1.76-2.17.28-.94.17-1.92-.29-2.78h0c-.47-.86-1.24-1.48-2.17-1.76-.34-.1-.69-.15-1.04-.15Z"/>
      <g>
        <path class="cls-1" d="m17.76,342.31c1.13,2.08.36,4.67-1.71,5.81-2.08,1.13-4.68.36-5.8-1.71-1.13-2.08-.36-4.68,1.71-5.8,2.08-1.13,4.68-.36,5.81,1.71Z"/>
        <path class="cls-1" d="m14.01,349.26c-1.74,0-3.43-.93-4.32-2.56-.63-1.15-.77-2.48-.4-3.74.37-1.26,1.21-2.3,2.36-2.92,2.38-1.29,5.37-.41,6.66,1.97h0c1.29,2.38.41,5.37-1.97,6.66-.74.4-1.55.6-2.34.6Zm-.01-8.56c-.59,0-1.19.14-1.74.44-.86.47-1.48,1.24-1.76,2.17-.28.94-.17,1.92.29,2.78.96,1.77,3.18,2.43,4.95,1.46,1.77-.96,2.42-3.18,1.46-4.95h0c-.66-1.22-1.92-1.9-3.21-1.9Z"/>
      </g>
    </g>
    <rect class="cls-1" x="55.13" y="293.08" width="206.56" height="1.26" transform="translate(-121.18 111.53) rotate(-28.57)"/>
    <path class="cls-1" d="m252.26,247.52c-.47,0-.94-.07-1.4-.2-1.26-.37-2.3-1.21-2.92-2.36-.63-1.15-.77-2.48-.4-3.74s1.21-2.3,2.36-2.92c1.15-.63,2.48-.77,3.74-.4,1.26.37,2.3,1.21,2.92,2.36h0c.63,1.15.77,2.48.4,3.74s-1.21,2.3-2.36,2.92c-.73.4-1.53.6-2.34.6Zm-.01-8.56c-.6,0-1.2.15-1.74.45-.86.47-1.48,1.24-1.76,2.17-.28.94-.17,1.92.29,2.78.47.86,1.24,1.48,2.17,1.76.94.27,1.92.17,2.78-.29.86-.47,1.48-1.24,1.76-2.17.28-.93.17-1.92-.29-2.78-.47-.86-1.24-1.48-2.17-1.76-.34-.1-.69-.15-1.04-.15Z"/>
    <g>
      <path class="cls-1" d="m68.69,342.48c1.13,2.08.36,4.67-1.71,5.8-2.08,1.13-4.67.36-5.8-1.71-1.13-2.08-.36-4.67,1.71-5.8,2.08-1.13,4.68-.36,5.8,1.71Z"/>
      <path class="cls-1" d="m64.93,349.44c-.47,0-.94-.07-1.4-.2-1.26-.37-2.3-1.21-2.92-2.36-.63-1.15-.77-2.48-.4-3.74s1.21-2.3,2.36-2.92c1.15-.63,2.48-.77,3.74-.4,1.26.37,2.3,1.21,2.92,2.36.63,1.15.77,2.48.4,3.74-.37,1.26-1.21,2.3-2.36,2.92-.73.4-1.53.6-2.34.6Zm-.01-8.56c-.6,0-1.2.15-1.74.45-.86.47-1.48,1.24-1.76,2.17-.28.93-.17,1.92.29,2.78.47.86,1.24,1.48,2.17,1.76.94.27,1.92.17,2.78-.29.86-.47,1.48-1.24,1.76-2.17.28-.93.17-1.92-.29-2.78h0c-.47-.86-1.24-1.48-2.17-1.76-.34-.1-.69-.15-1.04-.15Z"/>
    </g>
    <rect class="cls-1" x="125.83" y="299.55" width="136.63" height="1.26" transform="translate(-119.92 129.41) rotate(-28.57)"/>
    <path class="cls-1" d="m257.28,270.7c-1.74,0-3.43-.93-4.32-2.56-1.29-2.38-.41-5.37,1.97-6.66,2.38-1.29,5.36-.41,6.66,1.97h0c.63,1.15.77,2.48.4,3.74-.37,1.26-1.21,2.3-2.36,2.92-.74.4-1.55.6-2.34.6Zm-.02-8.56c-.59,0-1.18.14-1.74.44-1.77.96-2.42,3.18-1.46,4.95.96,1.77,3.18,2.42,4.95,1.46.86-.47,1.48-1.24,1.76-2.17.28-.94.17-1.92-.29-2.78h0c-.66-1.22-1.92-1.91-3.21-1.91Z"/>
    <path class="cls-1" d="m131.39,339.19c-1.74,0-3.43-.93-4.32-2.56-.63-1.15-.77-2.48-.4-3.74.37-1.26,1.21-2.3,2.36-2.92,1.15-.63,2.48-.77,3.74-.4,1.26.37,2.3,1.21,2.92,2.36h0c.63,1.15.77,2.48.4,3.74-.37,1.26-1.21,2.3-2.36,2.92-.74.4-1.55.6-2.34.6Zm-.01-8.56c-.6,0-1.2.15-1.74.45-.86.47-1.48,1.24-1.76,2.17-.28.94-.17,1.92.29,2.78.96,1.77,3.18,2.42,4.95,1.46.86-.47,1.48-1.24,1.76-2.17.28-.93.17-1.92-.29-2.78h0c-.47-.86-1.24-1.48-2.17-1.76-.34-.1-.69-.15-1.04-.15Z"/>
    <g>
      <rect class="cls-1" x="73.76" y="309.25" width="157.68" height="1.26" transform="translate(-129.62 110.72) rotate(-28.57)"/>
      <path class="cls-1" d="m224.98,275.37c-.47,0-.94-.07-1.4-.2-1.26-.37-2.3-1.21-2.92-2.36-1.29-2.38-.41-5.36,1.97-6.66,1.15-.63,2.48-.77,3.74-.4,1.26.37,2.3,1.21,2.92,2.36h0c1.29,2.38.41,5.37-1.97,6.66-.73.4-1.53.6-2.34.6Zm-.01-8.56c-.6,0-1.2.15-1.74.45-1.77.96-2.42,3.18-1.46,4.95.47.86,1.24,1.48,2.17,1.76.94.28,1.92.17,2.78-.29,1.77-.96,2.42-3.18,1.46-4.95h0c-.47-.86-1.24-1.48-2.17-1.76-.34-.1-.69-.15-1.04-.15Z"/>
      <path class="cls-1" d="m80.59,353.92c-1.74,0-3.43-.93-4.32-2.56-1.29-2.38-.41-5.37,1.97-6.66,2.38-1.29,5.36-.41,6.66,1.97h0c1.29,2.38.41,5.37-1.97,6.66-.74.4-1.55.6-2.34.6Zm-.02-8.56c-.59,0-1.19.14-1.74.44-1.77.96-2.42,3.18-1.46,4.95.96,1.77,3.18,2.42,4.95,1.46,1.77-.96,2.42-3.18,1.46-4.95-.66-1.21-1.92-1.9-3.21-1.9Z"/>
    </g>
    <g>
      <polygon class="cls-1" points="198.51 322.82 197.9 321.71 423.92 198.74 405.74 165.32 406.84 164.72 425.63 199.25 425.08 199.55 198.51 322.82"/>
      <path class="cls-1" d="m404.32,166.53c-1.74,0-3.43-.93-4.32-2.56-.63-1.15-.77-2.48-.4-3.74.37-1.26,1.21-2.3,2.36-2.92,1.15-.63,2.48-.77,3.74-.4,1.26.37,2.3,1.21,2.92,2.36,1.29,2.38.41,5.37-1.97,6.66-.74.4-1.55.6-2.34.6Zm-.01-8.56c-.6,0-1.2.15-1.74.45-.86.47-1.48,1.24-1.76,2.17-.28.94-.17,1.92.29,2.78.96,1.77,3.18,2.42,4.95,1.46,1.77-.96,2.42-3.18,1.46-4.95h0c-.47-.86-1.24-1.48-2.17-1.76-.34-.1-.69-.15-1.04-.15Z"/>
      <g>
        <path class="cls-1" d="m199.2,321.68c1.13,2.08.36,4.67-1.71,5.8-2.08,1.13-4.67.36-5.8-1.71-1.13-2.08-.36-4.67,1.71-5.8,2.08-1.13,4.68-.36,5.8,1.71Z"/>
        <path class="cls-1" d="m195.45,328.64c-.47,0-.94-.07-1.4-.2-1.26-.37-2.3-1.21-2.92-2.36-.63-1.15-.77-2.48-.4-3.74.37-1.26,1.21-2.3,2.36-2.92,1.15-.63,2.48-.77,3.74-.4,1.26.37,2.3,1.21,2.92,2.36h0c1.29,2.38.41,5.37-1.97,6.66-.73.4-1.53.6-2.34.6Zm-.01-8.56c-.6,0-1.2.15-1.74.45-.86.47-1.48,1.24-1.76,2.17-.28.93-.17,1.92.29,2.78.47.86,1.24,1.48,2.17,1.76.94.28,1.92.17,2.78-.29,1.77-.96,2.42-3.18,1.46-4.95-.47-.86-1.24-1.48-2.17-1.76-.34-.1-.69-.15-1.04-.15Z"/>
      </g>
      <rect class="cls-1" x="103.83" y="280.02" width="341.73" height="1.26" transform="translate(-100.77 165.55) rotate(-28.57)"/>
      <g>
        <path class="cls-1" d="m125.6,361.72c1.13,2.08.36,4.67-1.71,5.8-2.08,1.13-4.68.36-5.81-1.71-1.13-2.08-.36-4.68,1.71-5.81,2.08-1.13,4.67-.36,5.8,1.71Z"/>
        <path class="cls-1" d="m121.84,368.68c-.47,0-.94-.07-1.4-.2-1.26-.37-2.3-1.21-2.92-2.36-1.29-2.38-.41-5.37,1.97-6.66,2.38-1.29,5.36-.41,6.66,1.97h0c1.29,2.38.41,5.37-1.97,6.66-.73.4-1.53.6-2.34.6Zm-.01-8.56c-.59,0-1.19.14-1.74.44-1.77.96-2.42,3.18-1.46,4.95.47.86,1.24,1.48,2.17,1.76.93.27,1.92.17,2.78-.3,1.77-.96,2.42-3.18,1.46-4.95-.66-1.22-1.92-1.9-3.21-1.9Z"/>
      </g>
    </g>
  </g>
  <g>
    <rect class="cls-1" x="224.83" y="108.6" width="136.63" height="1.26" transform="translate(-16.54 153.5) rotate(-28.57)"/>
    <polygon class="cls-1" points="278.04 131.91 277.44 130.8 374.66 77.91 387 8.73 388.24 8.95 375.8 78.73 278.04 131.91"/>
    <polygon class="cls-1" points="253.24 116.19 252.99 116.12 212.03 104.02 212.39 102.81 253.09 114.83 356.97 58.32 357.57 59.42 253.24 116.19"/>
    <g>
      <path class="cls-1" d="m364.6,54.88c1.13,2.08.36,4.67-1.71,5.8-2.08,1.13-4.67.36-5.8-1.71-1.13-2.08-.36-4.67,1.71-5.81,2.08-1.13,4.67-.36,5.8,1.72Z"/>
      <path class="cls-1" d="m360.85,61.84c-.47,0-.94-.07-1.4-.2-1.26-.37-2.3-1.21-2.92-2.36-1.29-2.38-.41-5.37,1.97-6.66,1.15-.63,2.48-.77,3.74-.4,1.26.37,2.3,1.21,2.92,2.36h0c.63,1.15.77,2.48.4,3.74-.37,1.26-1.21,2.3-2.36,2.92-.73.4-1.53.6-2.34.6Zm-.01-8.56c-.6,0-1.2.15-1.74.45-1.77.96-2.42,3.18-1.46,4.95.47.86,1.24,1.48,2.17,1.76.93.27,1.92.17,2.78-.29.86-.47,1.48-1.24,1.76-2.17.28-.93.17-1.92-.29-2.78h0c-.47-.86-1.24-1.48-2.17-1.76-.34-.1-.69-.15-1.04-.15Z"/>
    </g>
    <path class="cls-1" d="m208.51,107.43c-1.74,0-3.43-.93-4.32-2.56-1.29-2.38-.41-5.36,1.97-6.66,1.15-.63,2.48-.77,3.74-.4,1.26.37,2.3,1.21,2.92,2.36h0c1.29,2.38.41,5.37-1.97,6.66-.74.4-1.55.6-2.34.6Zm-.01-8.56c-.6,0-1.2.15-1.74.45-1.77.96-2.42,3.18-1.46,4.95.96,1.77,3.18,2.42,4.95,1.46,1.77-.96,2.42-3.18,1.46-4.95-.47-.86-1.24-1.48-2.17-1.76-.34-.1-.69-.15-1.04-.15Z"/>
    <polygon class="cls-1" points="95.36 271.15 95.11 271.07 54.16 258.98 54.52 257.77 95.22 269.79 199.09 213.28 199.7 214.38 95.36 271.15"/>
    <g>
      <path class="cls-1" d="m206.73,209.84c1.13,2.08.36,4.67-1.71,5.8-2.08,1.13-4.68.36-5.8-1.71-1.13-2.08-.36-4.67,1.71-5.8,2.08-1.13,4.67-.36,5.81,1.71Z"/>
      <path class="cls-1" d="m202.98,216.8c-.47,0-.94-.07-1.4-.2-1.26-.37-2.3-1.21-2.92-2.36-.63-1.15-.77-2.48-.4-3.74.37-1.26,1.21-2.3,2.36-2.92,2.38-1.29,5.37-.41,6.66,1.97h0c1.29,2.38.41,5.37-1.97,6.66-.73.4-1.53.6-2.34.6Zm-.01-8.56c-.59,0-1.19.14-1.74.44-.86.47-1.48,1.24-1.76,2.17-.28.94-.17,1.92.29,2.78.47.86,1.24,1.48,2.17,1.76.94.28,1.92.17,2.78-.29,1.77-.96,2.42-3.18,1.46-4.95-.66-1.22-1.92-1.9-3.21-1.9Z"/>
    </g>
    <path class="cls-1" d="m50.63,262.38c-1.74,0-3.43-.93-4.32-2.56-1.29-2.38-.41-5.37,1.97-6.66,2.38-1.29,5.37-.41,6.66,1.96h0c1.29,2.38.41,5.37-1.97,6.66-.74.4-1.55.6-2.34.6Zm-.01-8.56c-.59,0-1.19.14-1.74.44-1.77.96-2.42,3.18-1.46,4.95.96,1.77,3.18,2.42,4.95,1.46,1.77-.96,2.42-3.18,1.46-4.95-.66-1.21-1.92-1.9-3.21-1.9Z"/>
    <g>
      <polygon class="cls-1" points="30.04 260.52 28.84 260.16 41 218.96 41.23 218.84 219.49 121.85 220.09 122.96 42.06 219.82 30.04 260.52"/>
      <g>
        <path class="cls-1" d="m227.13,118.41c-1.13-2.08-3.73-2.84-5.81-1.72-2.08,1.13-2.84,3.73-1.71,5.81,1.13,2.08,3.73,2.84,5.8,1.71,2.08-1.13,2.84-3.73,1.71-5.8Z"/>
        <path class="cls-1" d="m223.38,125.37c-1.74,0-3.43-.93-4.32-2.56-1.29-2.38-.41-5.37,1.97-6.66,2.38-1.29,5.37-.41,6.66,1.97.63,1.15.77,2.48.4,3.74-.37,1.26-1.21,2.3-2.36,2.92-.74.4-1.55.6-2.34.6Zm-.02-8.56c-.59,0-1.19.14-1.74.44-1.77.96-2.42,3.18-1.46,4.95.96,1.77,3.18,2.42,4.95,1.46.86-.47,1.48-1.24,1.76-2.17.28-.93.17-1.92-.29-2.78h0c-.66-1.22-1.92-1.91-3.21-1.91Z"/>
      </g>
      <path class="cls-1" d="m28.18,268.86c-.47,0-.94-.07-1.4-.2-1.26-.37-2.3-1.21-2.92-2.36-1.29-2.38-.41-5.37,1.97-6.66,2.38-1.29,5.37-.41,6.66,1.97h0c1.29,2.38.41,5.37-1.97,6.66-.73.4-1.53.6-2.34.6Zm-.01-8.56c-.59,0-1.19.14-1.74.44-1.77.96-2.42,3.18-1.46,4.95.47.86,1.24,1.48,2.17,1.76.93.27,1.92.17,2.78-.3,1.77-.96,2.42-3.18,1.46-4.95-.66-1.22-1.92-1.9-3.21-1.9Z"/>
    </g>
    <path class="cls-1" d="m388.6,10.4c-.47,0-.94-.07-1.4-.2-1.26-.37-2.3-1.21-2.92-2.36-1.29-2.38-.41-5.36,1.97-6.66,2.38-1.29,5.37-.41,6.66,1.97h0c.63,1.15.77,2.48.4,3.74-.37,1.26-1.21,2.3-2.36,2.92-.73.4-1.53.6-2.34.6Zm-.01-8.56c-.59,0-1.19.14-1.74.44-1.77.96-2.42,3.18-1.46,4.95.47.86,1.24,1.48,2.17,1.76.94.28,1.92.17,2.78-.29.86-.47,1.48-1.24,1.76-2.17.28-.94.17-1.92-.29-2.78h0c-.66-1.22-1.92-1.91-3.21-1.91Z"/>
    <path class="cls-1" d="m356.28,79.75c-.47,0-.94-.07-1.4-.2-1.26-.37-2.3-1.21-2.92-2.36-1.29-2.38-.41-5.37,1.97-6.66,1.15-.63,2.48-.77,3.74-.4,1.26.37,2.3,1.21,2.92,2.36.63,1.15.77,2.48.4,3.74s-1.21,2.29-2.36,2.92c-.73.4-1.53.6-2.34.6Zm-.01-8.56c-.6,0-1.2.15-1.74.45-1.77.96-2.42,3.18-1.46,4.95.47.86,1.24,1.48,2.17,1.76.94.27,1.92.17,2.78-.3.86-.47,1.48-1.24,1.76-2.17s.17-1.92-.29-2.78h0c-.47-.86-1.24-1.48-2.17-1.76-.34-.1-.69-.15-1.04-.15Z"/>
    <g>
      <path class="cls-1" d="m234.13,141.29c1.13,2.08.36,4.67-1.71,5.8-2.08,1.13-4.67.36-5.8-1.71-1.13-2.08-.36-4.68,1.71-5.81,2.08-1.13,4.68-.36,5.8,1.71Z"/>
      <path class="cls-1" d="m230.38,148.24c-1.74,0-3.43-.93-4.32-2.56-1.29-2.38-.41-5.37,1.97-6.66,2.38-1.29,5.37-.41,6.66,1.97h0c1.29,2.38.41,5.37-1.97,6.66-.74.4-1.55.6-2.34.6Zm-.01-8.56c-.59,0-1.19.14-1.74.44-1.77.96-2.42,3.18-1.46,4.95.96,1.77,3.18,2.42,4.95,1.46,1.77-.96,2.42-3.18,1.46-4.95-.66-1.22-1.92-1.91-3.21-1.91Z"/>
    </g>
    <rect class="cls-1" x="248.11" y="69.54" width="123.8" height="1.26" transform="translate(4.19 156.81) rotate(-28.57)"/>
    <path class="cls-1" d="m367.51,43.75c-1.74,0-3.43-.93-4.32-2.56-1.29-2.38-.41-5.37,1.96-6.66,2.38-1.29,5.37-.41,6.66,1.96h0c1.29,2.38.41,5.37-1.97,6.66-.74.4-1.55.6-2.34.6Zm-.01-8.56c-.59,0-1.19.14-1.74.44-1.77.96-2.42,3.18-1.46,4.95.96,1.77,3.18,2.42,4.95,1.46,1.77-.96,2.42-3.18,1.46-4.95h0c-.66-1.21-1.92-1.9-3.21-1.9Z"/>
    <path class="cls-1" d="m252.15,106.51c-1.74,0-3.43-.93-4.32-2.56-1.29-2.38-.41-5.37,1.97-6.66,1.15-.63,2.48-.77,3.74-.4,1.26.37,2.29,1.21,2.92,2.36h0c.63,1.15.77,2.48.4,3.74-.37,1.26-1.21,2.3-2.36,2.92-.74.4-1.55.6-2.34.6Zm-.01-8.56c-.6,0-1.2.15-1.74.45-1.77.96-2.42,3.18-1.46,4.95.96,1.77,3.18,2.42,4.95,1.46.86-.47,1.48-1.24,1.76-2.17.28-.93.17-1.92-.29-2.78h0c-.47-.86-1.24-1.48-2.17-1.76-.34-.1-.69-.15-1.04-.15Z"/>
    <path class="cls-1" d="m274.23,138.1c-1.74,0-3.43-.93-4.32-2.56-.63-1.15-.77-2.48-.4-3.74.37-1.26,1.21-2.3,2.36-2.92,2.38-1.29,5.37-.41,6.66,1.97.63,1.15.77,2.48.4,3.74s-1.21,2.3-2.36,2.92c-.74.4-1.55.6-2.34.6Zm-.01-8.56c-.59,0-1.19.14-1.74.44-.86.47-1.48,1.24-1.76,2.17-.28.94-.17,1.92.29,2.78.96,1.77,3.18,2.42,4.95,1.46.86-.47,1.48-1.24,1.76-2.17s.17-1.92-.29-2.78h0c-.66-1.22-1.92-1.91-3.21-1.91Z"/>
    <g>
      <rect class="cls-1" x="259.57" y="116.09" width="136.63" height="1.26" transform="translate(-15.89 171.02) rotate(-28.57)"/>
      <path class="cls-1" d="m391.02,87.23c-1.74,0-3.43-.93-4.32-2.56-1.29-2.38-.41-5.37,1.97-6.66,2.38-1.3,5.36-.41,6.66,1.97h0c1.29,2.38.41,5.36-1.97,6.66-.74.4-1.55.6-2.34.6Zm-.01-8.56c-.59,0-1.19.14-1.74.44-.86.47-1.48,1.24-1.76,2.17-.28.94-.17,1.92.29,2.78.96,1.77,3.18,2.42,4.95,1.46,1.77-.96,2.42-3.18,1.46-4.95-.66-1.22-1.92-1.9-3.21-1.9Z"/>
      <g>
        <path class="cls-1" d="m268.87,148.78c1.13,2.08.36,4.67-1.71,5.8-2.08,1.13-4.68.36-5.8-1.71-1.13-2.08-.36-4.68,1.71-5.8,2.08-1.13,4.67-.36,5.8,1.71Z"/>
        <path class="cls-1" d="m265.12,155.73c-.47,0-.94-.07-1.4-.2-1.26-.37-2.3-1.21-2.92-2.36-.63-1.15-.77-2.48-.4-3.74.37-1.26,1.21-2.3,2.36-2.92,2.38-1.29,5.36-.41,6.66,1.97.63,1.15.77,2.48.4,3.74-.37,1.26-1.21,2.3-2.36,2.92-.73.4-1.53.6-2.34.6Zm-.01-8.56c-.59,0-1.19.14-1.74.44-.86.47-1.48,1.24-1.76,2.17-.28.94-.17,1.92.29,2.78s1.24,1.48,2.17,1.76c.94.28,1.92.17,2.78-.29.86-.47,1.48-1.24,1.76-2.17.28-.94.17-1.92-.29-2.78h0c-.66-1.22-1.92-1.9-3.21-1.9Z"/>
      </g>
    </g>
    <g>
      <rect class="cls-1" x="86.35" y="209.61" width="136.63" height="1.26" transform="translate(-81.71 99.57) rotate(-28.57)"/>
      <path class="cls-1" d="m91.51,249.47c-1.74,0-3.43-.93-4.32-2.56h0c-1.29-2.38-.41-5.37,1.97-6.66,1.15-.63,2.48-.77,3.74-.4,1.26.37,2.3,1.21,2.92,2.36,1.29,2.38.41,5.37-1.97,6.66-.74.4-1.55.6-2.34.6Zm-3.21-3.16c.96,1.77,3.19,2.42,4.95,1.46,1.77-.96,2.42-3.18,1.46-4.95-.47-.86-1.24-1.48-2.17-1.76-.94-.28-1.92-.17-2.78.29-1.77.96-2.42,3.18-1.46,4.95h0Z"/>
      <g>
        <path class="cls-1" d="m213.64,178.11c1.13,2.08,3.73,2.84,5.8,1.71,2.08-1.13,2.84-3.73,1.71-5.8-1.13-2.08-3.73-2.84-5.81-1.71-2.08,1.13-2.84,3.73-1.71,5.81Z"/>
        <path class="cls-1" d="m217.41,180.97c-.47,0-.94-.07-1.4-.2-1.26-.37-2.3-1.21-2.92-2.36-1.29-2.38-.41-5.37,1.97-6.66,2.38-1.29,5.37-.41,6.66,1.97,1.29,2.38.41,5.37-1.97,6.66-.73.4-1.53.6-2.34.6Zm-.01-8.56c-.59,0-1.19.14-1.74.44-1.77.96-2.42,3.18-1.46,4.95.47.86,1.24,1.48,2.17,1.76.94.28,1.92.17,2.78-.29,1.77-.96,2.42-3.18,1.46-4.95-.66-1.22-1.92-1.91-3.21-1.91Z"/>
      </g>
    </g>
    <g>
      <rect class="cls-1" x="207.94" y="144.77" width="237.25" height="1.26" transform="translate(-29.77 173.89) rotate(-28.57)"/>
      <path class="cls-1" d="m219.21,208.68c-.47,0-.94-.07-1.4-.2-1.26-.37-2.29-1.21-2.92-2.36h0c-.63-1.15-.77-2.48-.4-3.74.37-1.26,1.21-2.29,2.36-2.92,1.15-.63,2.48-.77,3.74-.4,1.26.37,2.3,1.21,2.92,2.36,1.29,2.38.41,5.37-1.97,6.66-.73.4-1.53.6-2.34.6Zm-.01-8.56c-.6,0-1.2.15-1.74.45-.86.47-1.48,1.24-1.76,2.17-.28.93-.17,1.92.29,2.78h0c.47.86,1.24,1.48,2.17,1.76.93.28,1.92.17,2.78-.29,1.77-.96,2.42-3.18,1.46-4.95-.47-.86-1.24-1.48-2.17-1.76-.34-.1-.69-.15-1.04-.15Z"/>
      <g>
        <path class="cls-1" d="m429.73,89.23c1.13,2.08,3.73,2.84,5.8,1.71,2.08-1.13,2.84-3.73,1.71-5.8-1.13-2.08-3.73-2.84-5.8-1.71-2.08,1.13-2.84,3.73-1.71,5.81Z"/>
        <path class="cls-1" d="m433.49,92.09c-1.74,0-3.43-.93-4.32-2.56h0c-1.29-2.38-.41-5.37,1.97-6.66,1.15-.63,2.48-.77,3.74-.4,1.26.37,2.29,1.21,2.92,2.36.63,1.15.77,2.48.4,3.74-.37,1.26-1.21,2.3-2.36,2.92-.74.4-1.55.6-2.34.6Zm-3.21-3.16c.96,1.77,3.18,2.42,4.95,1.46.86-.47,1.48-1.24,1.76-2.17.28-.93.17-1.92-.29-2.78-.96-1.77-3.18-2.42-4.95-1.46-1.77.96-2.42,3.18-1.46,4.95h0Z"/>
      </g>
    </g>
    <g>
      <rect class="cls-1" x="226.56" y="58.53" width="153.19" height="1.26" transform="translate(8.62 152.19) rotate(-28.57)"/>
      <path class="cls-1" d="m373.57,25.72c-.47,0-.94-.07-1.4-.2-1.26-.37-2.3-1.21-2.92-2.36-1.29-2.38-.41-5.36,1.97-6.66,1.15-.63,2.48-.77,3.74-.4,1.26.37,2.3,1.21,2.92,2.36h0c1.29,2.38.41,5.37-1.97,6.66-.73.4-1.53.6-2.34.6Zm-.01-8.56c-.6,0-1.2.15-1.74.45-1.77.96-2.42,3.18-1.46,4.95.47.86,1.24,1.48,2.17,1.76.94.28,1.92.17,2.78-.29,1.77-.96,2.42-3.18,1.46-4.95h0c-.47-.86-1.24-1.48-2.17-1.76-.34-.1-.69-.15-1.04-.15Z"/>
      <g>
        <path class="cls-1" d="m236.87,95.18c1.13,2.08.36,4.67-1.71,5.8-2.08,1.13-4.68.36-5.8-1.71-1.13-2.08-.36-4.67,1.71-5.81,2.08-1.13,4.67-.36,5.8,1.72Z"/>
        <path class="cls-1" d="m233.12,102.14c-.47,0-.94-.07-1.4-.2-1.26-.37-2.3-1.21-2.92-2.36-1.29-2.38-.41-5.37,1.97-6.66,2.38-1.29,5.37-.41,6.66,1.97h0c.63,1.15.77,2.48.4,3.74-.37,1.26-1.21,2.3-2.36,2.92-.73.4-1.53.6-2.34.6Zm-.01-8.56c-.59,0-1.19.14-1.74.44-1.77.96-2.42,3.18-1.46,4.95.47.86,1.24,1.48,2.17,1.76.94.28,1.92.17,2.78-.29.86-.47,1.48-1.24,1.76-2.17.28-.93.17-1.92-.29-2.78h0c-.66-1.22-1.92-1.91-3.21-1.91Z"/>
      </g>
    </g>
    <g>
      <rect class="cls-1" x="-5.58" y="171.82" width="219.48" height="1.26" transform="translate(-69.79 70.82) rotate(-28.57)"/>
      <path class="cls-1" d="m203.68,123.17c-.47,0-.94-.07-1.4-.2-1.26-.37-2.3-1.21-2.92-2.36-.63-1.15-.77-2.48-.4-3.74.37-1.26,1.21-2.3,2.36-2.92,1.15-.63,2.48-.77,3.74-.4,1.26.37,2.3,1.21,2.92,2.36.63,1.15.77,2.48.4,3.74-.37,1.26-1.21,2.3-2.36,2.92-.73.4-1.53.6-2.34.6Zm-.01-8.56c-.6,0-1.2.15-1.74.45-.86.47-1.48,1.24-1.76,2.17-.28.94-.17,1.92.29,2.78.96,1.77,3.18,2.42,4.95,1.46.86-.47,1.48-1.24,1.76-2.17.28-.94.17-1.92-.29-2.78h0c-.47-.86-1.24-1.48-2.17-1.76-.34-.1-.69-.15-1.04-.15Z"/>
      <g>
        <path class="cls-1" d="m8.76,224.31c1.13,2.08.36,4.67-1.71,5.81-2.08,1.13-4.68.36-5.8-1.71-1.13-2.08-.36-4.68,1.71-5.8,2.08-1.13,4.68-.36,5.81,1.71Z"/>
        <path class="cls-1" d="m5.01,231.26c-1.74,0-3.43-.93-4.32-2.56-.63-1.15-.77-2.48-.4-3.74.37-1.26,1.21-2.3,2.36-2.92,2.38-1.29,5.37-.41,6.66,1.97h0c1.29,2.38.41,5.37-1.97,6.66-.74.4-1.55.6-2.34.6Zm-.01-8.56c-.59,0-1.19.14-1.74.44-.86.47-1.48,1.24-1.76,2.17-.28.94-.17,1.92.29,2.78.96,1.77,3.18,2.43,4.95,1.46,1.77-.96,2.42-3.18,1.46-4.95h0c-.66-1.22-1.92-1.9-3.21-1.9Z"/>
      </g>
    </g>
    <rect class="cls-1" x="46.13" y="175.08" width="206.56" height="1.26" transform="translate(-65.84 92.86) rotate(-28.57)"/>
    <path class="cls-1" d="m243.26,129.52c-.47,0-.94-.07-1.4-.2-1.26-.37-2.3-1.21-2.92-2.36-.63-1.15-.77-2.48-.4-3.74s1.21-2.3,2.36-2.92,2.48-.77,3.74-.4c1.26.37,2.3,1.21,2.92,2.36h0c.63,1.15.77,2.48.4,3.74s-1.21,2.3-2.36,2.92c-.73.4-1.53.6-2.34.6Zm-.01-8.56c-.6,0-1.2.15-1.74.45-.86.47-1.48,1.24-1.76,2.17-.28.94-.17,1.92.29,2.78.47.86,1.24,1.48,2.17,1.76.94.27,1.92.17,2.78-.29.86-.47,1.48-1.24,1.76-2.17.28-.93.17-1.92-.29-2.78-.47-.86-1.24-1.48-2.17-1.76-.34-.1-.69-.15-1.04-.15Z"/>
    <g>
      <path class="cls-1" d="m59.69,224.48c1.13,2.08.36,4.67-1.71,5.8-2.08,1.13-4.67.36-5.8-1.71-1.13-2.08-.36-4.67,1.71-5.8,2.08-1.13,4.68-.36,5.8,1.71Z"/>
      <path class="cls-1" d="m55.93,231.44c-.47,0-.94-.07-1.4-.2-1.26-.37-2.3-1.21-2.92-2.36-.63-1.15-.77-2.48-.4-3.74s1.21-2.3,2.36-2.92c1.15-.63,2.48-.77,3.74-.4,1.26.37,2.3,1.21,2.92,2.36.63,1.15.77,2.48.4,3.74-.37,1.26-1.21,2.3-2.36,2.92-.73.4-1.53.6-2.34.6Zm-.01-8.56c-.6,0-1.2.15-1.74.45-.86.47-1.48,1.24-1.76,2.17-.28.93-.17,1.92.29,2.78.47.86,1.24,1.48,2.17,1.76.94.27,1.92.17,2.78-.29s1.48-1.24,1.76-2.17c.28-.93.17-1.92-.29-2.78h0c-.47-.86-1.24-1.48-2.17-1.76-.34-.1-.69-.15-1.04-.15Z"/>
    </g>
    <rect class="cls-1" x="116.83" y="181.55" width="136.63" height="1.26" transform="translate(-64.58 110.73) rotate(-28.57)"/>
    <path class="cls-1" d="m248.28,152.7c-1.74,0-3.43-.93-4.32-2.56-1.29-2.38-.41-5.37,1.97-6.66,2.38-1.29,5.36-.41,6.66,1.97h0c.63,1.15.77,2.48.4,3.74-.37,1.26-1.21,2.3-2.36,2.92-.74.4-1.55.6-2.34.6Zm-.02-8.56c-.59,0-1.18.14-1.74.44-1.77.96-2.42,3.18-1.46,4.95.96,1.77,3.18,2.42,4.95,1.46.86-.47,1.48-1.24,1.76-2.17.28-.94.17-1.92-.29-2.78h0c-.66-1.22-1.92-1.91-3.21-1.91Z"/>
    <path class="cls-1" d="m122.39,221.19c-1.74,0-3.43-.93-4.32-2.56-.63-1.15-.77-2.48-.4-3.74.37-1.26,1.21-2.3,2.36-2.92,1.15-.63,2.48-.77,3.74-.4,1.26.37,2.3,1.21,2.92,2.36h0c.63,1.15.77,2.48.4,3.74-.37,1.26-1.21,2.3-2.36,2.92-.74.4-1.55.6-2.34.6Zm-.01-8.56c-.6,0-1.2.15-1.74.45-.86.47-1.48,1.24-1.76,2.17-.28.94-.17,1.92.29,2.78.96,1.77,3.18,2.42,4.95,1.46.86-.47,1.48-1.24,1.76-2.17.28-.93.17-1.92-.29-2.78h0c-.47-.86-1.24-1.48-2.17-1.76-.34-.1-.69-.15-1.04-.15Z"/>
    <g>
      <rect class="cls-1" x="64.76" y="191.25" width="157.68" height="1.26" transform="translate(-74.28 92.04) rotate(-28.57)"/>
      <path class="cls-1" d="m215.98,157.37c-.47,0-.94-.07-1.4-.2-1.26-.37-2.3-1.21-2.92-2.36-1.29-2.38-.41-5.36,1.97-6.66,1.15-.63,2.48-.77,3.74-.4,1.26.37,2.3,1.21,2.92,2.36h0c1.29,2.38.41,5.37-1.97,6.66-.73.4-1.53.6-2.34.6Zm-.01-8.56c-.6,0-1.2.15-1.74.45-1.77.96-2.42,3.18-1.46,4.95.47.86,1.24,1.48,2.17,1.76.94.28,1.92.17,2.78-.29,1.77-.96,2.42-3.18,1.46-4.95h0c-.47-.86-1.24-1.48-2.17-1.76-.34-.1-.69-.15-1.04-.15Z"/>
      <path class="cls-1" d="m71.59,235.92c-1.74,0-3.43-.93-4.32-2.56-1.29-2.38-.41-5.37,1.97-6.66,2.38-1.29,5.37-.41,6.66,1.97h0c1.29,2.38.41,5.37-1.97,6.66-.74.4-1.55.6-2.34.6Zm-.02-8.56c-.59,0-1.19.14-1.74.44-1.77.96-2.42,3.18-1.46,4.95.96,1.77,3.18,2.42,4.95,1.46,1.77-.96,2.42-3.18,1.46-4.95-.66-1.21-1.92-1.9-3.21-1.9Z"/>
    </g>
    <g>
      <polygon class="cls-1" points="189.51 204.82 188.9 203.71 414.92 80.74 396.74 47.32 397.84 46.72 416.63 81.25 416.08 81.55 189.51 204.82"/>
      <path class="cls-1" d="m395.32,48.53c-1.74,0-3.43-.93-4.32-2.56-.63-1.15-.77-2.48-.4-3.74.37-1.26,1.21-2.3,2.36-2.92,1.15-.63,2.48-.77,3.74-.4,1.26.37,2.3,1.21,2.92,2.36,1.29,2.38.41,5.37-1.97,6.66-.74.4-1.55.6-2.34.6Zm-.01-8.56c-.6,0-1.2.15-1.74.45-.86.47-1.48,1.24-1.76,2.17-.28.94-.17,1.92.29,2.78.96,1.77,3.18,2.42,4.95,1.46,1.77-.96,2.42-3.18,1.46-4.95h0c-.47-.86-1.24-1.48-2.17-1.76-.34-.1-.69-.15-1.04-.15Z"/>
      <g>
        <path class="cls-1" d="m190.2,203.68c1.13,2.08.36,4.67-1.71,5.8-2.08,1.13-4.67.36-5.8-1.71-1.13-2.08-.36-4.67,1.71-5.8,2.08-1.13,4.68-.36,5.8,1.71Z"/>
        <path class="cls-1" d="m186.45,210.64c-.47,0-.94-.07-1.4-.2-1.26-.37-2.3-1.21-2.92-2.36-.63-1.15-.77-2.48-.4-3.74.37-1.26,1.21-2.3,2.36-2.92,1.15-.63,2.48-.77,3.74-.4,1.26.37,2.3,1.21,2.92,2.36h0c1.29,2.38.41,5.37-1.97,6.66-.73.4-1.53.6-2.34.6Zm-.01-8.56c-.6,0-1.2.15-1.74.45-.86.47-1.48,1.24-1.76,2.17-.28.93-.17,1.92.29,2.78.47.86,1.24,1.48,2.17,1.76.94.27,1.92.17,2.78-.29,1.77-.96,2.42-3.18,1.46-4.95-.47-.86-1.24-1.48-2.17-1.76-.34-.1-.69-.15-1.04-.15Z"/>
      </g>
      <rect class="cls-1" x="94.83" y="162.02" width="341.73" height="1.26" transform="translate(-45.43 146.88) rotate(-28.57)"/>
      <g>
        <path class="cls-1" d="m116.6,243.72c1.13,2.08.36,4.67-1.71,5.8-2.08,1.13-4.68.36-5.81-1.71-1.13-2.08-.36-4.68,1.71-5.81,2.08-1.13,4.67-.36,5.8,1.71Z"/>
        <path class="cls-1" d="m112.84,250.68c-.47,0-.94-.07-1.4-.2-1.26-.37-2.3-1.21-2.92-2.36-1.29-2.38-.41-5.37,1.97-6.66,2.38-1.29,5.37-.41,6.66,1.97h0c1.29,2.38.41,5.37-1.97,6.66-.73.4-1.53.6-2.34.6Zm-.01-8.56c-.59,0-1.19.14-1.74.44-1.77.96-2.42,3.18-1.46,4.95.47.86,1.24,1.48,2.17,1.76.93.27,1.92.17,2.78-.3,1.77-.96,2.42-3.18,1.46-4.95-.66-1.22-1.92-1.9-3.21-1.9Z"/>
      </g>
    </g>
  </g>
</svg>