<?xml version="1.0" encoding="UTF-8"?>
<svg id="_レイヤー_1" data-name="レイヤー 1" xmlns="http://www.w3.org/2000/svg" viewBox="0 0 728.5 121.89">
  <defs>
    <style>
      .cls-1 {
        fill: #fff;
      }
    </style>
  </defs>
  <path class="cls-1" d="m54.63,84.83L.82,63.93v-12.8l.14-.05,53.68-20.84v12.51l-39.5,14.79,39.5,14.79v12.51ZM1.25,63.63l52.95,20.56v-11.58l-40.3-15.09,40.3-15.09v-11.58L1.25,51.42v12.21Z"/>
  <path class="cls-1" d="m68,109.86h-13.43l.1-.29L92.94.34h13.43l-.1.29-38.27,109.23Zm-12.82-.43h12.51L105.76.77h-12.51l-38.06,108.66Z"/>
  <path class="cls-1" d="m153.2,99.43c-6.17,0-11.98-1.04-17.27-3.08-5.29-2.05-9.95-4.98-13.85-8.73-3.9-3.75-6.98-8.23-9.14-13.33-2.16-5.1-3.26-10.74-3.26-16.76s1.1-11.66,3.26-16.76c2.16-5.09,5.25-9.58,9.2-13.33,3.94-3.75,8.6-6.68,13.85-8.73,5.25-2.05,11.08-3.08,17.33-3.08,6.63,0,12.78,1.16,18.26,3.43,5.49,2.28,10.19,5.71,13.98,10.19l.13.16-10.04,9.44-.15-.16c-2.9-3.13-6.19-5.51-9.77-7.07-3.59-1.56-7.53-2.36-11.73-2.36s-8.09.7-11.56,2.07c-3.47,1.37-6.52,3.34-9.08,5.86h0c-2.55,2.51-4.56,5.53-5.97,8.96-1.41,3.43-2.13,7.26-2.13,11.38s.72,7.95,2.13,11.38c1.41,3.43,3.42,6.45,5.97,8.96,2.55,2.52,5.61,4.49,9.08,5.86,3.47,1.37,7.36,2.07,11.56,2.07s8.14-.79,11.73-2.36c3.58-1.56,6.87-3.98,9.77-7.19l.15-.16,10.04,9.56-.13.16c-3.79,4.41-8.49,7.81-13.98,10.13-5.48,2.32-11.67,3.49-18.38,3.49Zm.12-83.38c-6.19,0-11.97,1.03-17.18,3.05-5.2,2.03-9.81,4.93-13.71,8.64-3.9,3.71-6.96,8.15-9.1,13.19-2.14,5.04-3.23,10.63-3.23,16.59s1.09,11.55,3.23,16.59c2.14,5.04,5.18,9.48,9.04,13.19,3.86,3.71,8.47,6.61,13.71,8.64,5.24,2.03,11,3.05,17.12,3.05,6.66,0,12.78-1.16,18.21-3.46,5.36-2.27,9.96-5.58,13.68-9.86l-9.42-8.97c-2.91,3.17-6.19,5.57-9.77,7.13-3.64,1.59-7.64,2.39-11.9,2.39s-8.2-.71-11.72-2.1c-3.52-1.39-6.63-3.4-9.22-5.95-2.6-2.55-4.64-5.62-6.07-9.1-1.43-3.48-2.16-7.37-2.16-11.55s.73-8.07,2.16-11.55c1.43-3.49,3.47-6.55,6.07-9.1h0c2.59-2.56,5.7-4.56,9.22-5.95,3.52-1.39,7.46-2.1,11.72-2.1s8.26.8,11.9,2.39c3.58,1.56,6.86,3.92,9.77,7.01l9.42-8.86c-3.72-4.35-8.32-7.69-13.68-9.92-5.43-2.26-11.52-3.4-18.1-3.4Z"/>
  <path class="cls-1" d="m222.8,99.09c-6.34,0-12.06-1.39-17.01-4.14-4.95-2.75-8.92-6.57-11.78-11.37-2.86-4.8-4.32-10.33-4.32-16.44s1.45-11.74,4.32-16.5c2.86-4.76,6.82-8.54,11.78-11.25,4.95-2.71,10.67-4.08,17.01-4.08s12.19,1.37,17.18,4.08h0c4.99,2.71,8.95,6.48,11.78,11.2,2.82,4.72,4.26,10.29,4.26,16.56s-1.43,11.64-4.26,16.44c-2.83,4.8-6.79,8.63-11.78,11.37-4.99,2.75-10.77,4.14-17.19,4.14Zm0-63.35c-6.26,0-11.92,1.35-16.8,4.03-4.89,2.67-8.79,6.41-11.61,11.1-2.82,4.69-4.25,10.17-4.25,16.28s1.43,11.49,4.25,16.22c2.82,4.73,6.73,8.5,11.62,11.21,4.88,2.71,10.54,4.08,16.8,4.08s12.05-1.37,16.98-4.08c4.92-2.71,8.83-6.48,11.61-11.21,2.78-4.73,4.2-10.19,4.2-16.22s-1.41-11.68-4.2-16.33c-2.79-4.65-6.69-8.37-11.61-11.04h0c-4.93-2.67-10.64-4.03-16.98-4.03Zm0,50.95c-3.5,0-6.67-.79-9.43-2.34-2.76-1.56-4.99-3.84-6.63-6.8-1.63-2.95-2.46-6.45-2.46-10.41s.83-7.56,2.46-10.47c1.63-2.92,3.86-5.18,6.63-6.74,2.76-1.56,5.97-2.34,9.54-2.34s6.69.79,9.49,2.34c2.8,1.56,5.03,3.83,6.63,6.74,1.59,2.92,2.4,6.44,2.4,10.47s-.81,7.46-2.4,10.41h0c-1.6,2.96-3.83,5.25-6.63,6.8-2.8,1.55-6.03,2.34-9.6,2.34Zm.12-38.68c-3.5,0-6.64.77-9.33,2.29-2.69,1.52-4.87,3.73-6.46,6.58-1.6,2.85-2.4,6.3-2.4,10.26s.81,7.32,2.41,10.2c1.59,2.89,3.77,5.12,6.46,6.63,2.69,1.52,5.79,2.29,9.22,2.29s6.66-.77,9.39-2.29c2.73-1.52,4.9-3.75,6.46-6.63,1.56-2.89,2.35-6.32,2.35-10.2s-.79-7.41-2.35-10.26c-1.56-2.84-3.73-5.06-6.46-6.57-2.73-1.52-5.86-2.29-9.28-2.29Z"/>
  <path class="cls-1" d="m369.85,98.28h-14.91v-33.8c0-5.4-1.19-9.48-3.54-12.13-2.34-2.64-5.75-3.98-10.14-3.98-3.11,0-5.9.69-8.29,2.06-2.38,1.36-4.26,3.4-5.59,6.05-1.33,2.66-2,6.09-2,10.21v31.6h-14.91v-33.8c0-5.4-1.19-9.48-3.54-12.13-2.34-2.64-5.75-3.98-10.14-3.98-3.11,0-5.9.69-8.29,2.06-2.38,1.36-4.26,3.4-5.59,6.05-1.33,2.66-2,6.1-2,10.21v31.6h-14.91v-62.27h14.21v7.49c1.76-2.06,3.89-3.75,6.34-5.03,3.99-2.09,8.6-3.15,13.71-3.15,5.8,0,10.93,1.45,15.23,4.32,2.26,1.51,4.16,3.48,5.64,5.87,1.84-2.32,4.17-4.34,6.92-5.99,4.65-2.79,10.1-4.2,16.21-4.2,4.95,0,9.4.98,13.24,2.92h0c3.84,1.94,6.89,4.95,9.07,8.95,2.17,3.99,3.27,9.19,3.27,15.45v35.65Zm-14.48-.43h14.04v-35.22c0-6.18-1.08-11.31-3.22-15.24-2.13-3.92-5.12-6.87-8.88-8.77-3.78-1.91-8.16-2.87-13.05-2.87-6.03,0-11.41,1.39-15.99,4.14-2.8,1.68-5.16,3.74-6.99,6.13l-.19.25-.16-.27c-1.48-2.45-3.39-4.47-5.68-6-4.23-2.82-9.27-4.25-14.99-4.25-5.04,0-9.58,1.04-13.51,3.1-2.58,1.35-4.8,3.16-6.59,5.38l-.38.48v-8.26h-13.35v61.41h14.04v-31.17c0-4.18.69-7.68,2.05-10.4,1.36-2.73,3.3-4.82,5.76-6.23,2.45-1.4,5.31-2.11,8.5-2.11,4.52,0,8.04,1.39,10.47,4.13,2.42,2.73,3.64,6.91,3.64,12.42v33.37h14.04v-31.17c0-4.18.69-7.68,2.05-10.4,1.36-2.73,3.3-4.82,5.76-6.23,2.45-1.4,5.31-2.11,8.5-2.11,4.52,0,8.04,1.39,10.47,4.13,2.42,2.73,3.64,6.91,3.64,12.42v33.37Z"/>
  <path class="cls-1" d="m399.38,120.74h-14.91V36h14.21v7.8c1.78-2.06,3.85-3.76,6.16-5.05,4.11-2.29,8.86-3.44,14.12-3.44,6.1,0,11.58,1.33,16.26,3.97h0c4.68,2.63,8.45,6.36,11.2,11.08,2.75,4.72,4.14,10.37,4.14,16.78s-1.39,12.08-4.14,16.84c-2.75,4.76-6.52,8.51-11.2,11.14-4.68,2.63-10.15,3.97-16.26,3.97-5.03,0-9.69-1.18-13.83-3.5-2.12-1.19-4.05-2.73-5.76-4.58v29.74Zm-14.48-.43h14.04v-30.44l.38.43c1.77,2.01,3.79,3.66,6.02,4.91,4.08,2.29,8.66,3.45,13.62,3.45,6.03,0,11.43-1.32,16.05-3.91,4.61-2.59,8.33-6.29,11.04-10.98,2.71-4.69,4.08-10.29,4.08-16.63s-1.37-11.91-4.08-16.57c-2.71-4.65-6.42-8.33-11.04-10.92-4.62-2.59-10.02-3.91-16.05-3.91-5.19,0-9.87,1.14-13.91,3.39-2.44,1.36-4.6,3.17-6.42,5.4l-.38.47v-8.56h-13.35v83.87Zm32.44-33.61c-3.5,0-6.69-.79-9.49-2.34-2.8-1.56-5.05-3.84-6.68-6.8-1.63-2.95-2.46-6.45-2.46-10.41s.83-7.56,2.46-10.47c1.63-2.92,3.88-5.18,6.68-6.74,2.8-1.55,5.99-2.34,9.49-2.34s6.67.79,9.43,2.34c2.76,1.56,4.99,3.83,6.63,6.74,1.63,2.91,2.46,6.44,2.46,10.47s-.83,7.46-2.46,10.41c-1.63,2.95-3.86,5.24-6.63,6.8-2.76,1.56-5.93,2.34-9.43,2.34Zm0-38.68c-3.42,0-6.54.77-9.28,2.29-2.73,1.52-4.92,3.73-6.52,6.58-1.6,2.85-2.4,6.3-2.4,10.26s.81,7.32,2.41,10.2c1.59,2.88,3.79,5.12,6.52,6.63,2.73,1.52,5.85,2.29,9.28,2.29s6.52-.77,9.22-2.29c2.69-1.52,4.87-3.75,6.46-6.63h0c1.6-2.89,2.41-6.32,2.41-10.2s-.81-7.41-2.4-10.26c-1.59-2.84-3.77-5.06-6.46-6.58-2.7-1.52-5.8-2.29-9.22-2.29Z"/>
  <path class="cls-1" d="m479.3,99.09c-4.64,0-8.76-.81-12.25-2.39-3.5-1.59-6.23-3.84-8.14-6.68-1.91-2.84-2.87-6.09-2.87-9.67s.85-6.69,2.52-9.49c1.67-2.81,4.46-5.06,8.26-6.69,3.79-1.63,8.88-2.45,15.14-2.45h15.77v-.71c0-4.16-1.26-7.44-3.75-9.74-2.49-2.31-6.34-3.47-11.43-3.47-3.43,0-6.86.54-10.18,1.61-3.32,1.07-6.16,2.57-8.44,4.48l-.2.17-5.89-10.93.15-.11c3.32-2.55,7.34-4.49,11.94-5.77,4.59-1.27,9.42-1.92,14.36-1.92,8.97,0,16.01,2.18,20.93,6.48h0c4.93,4.31,7.43,11.04,7.43,20.02v36.46h-14.1v-7.05c-1.41,1.94-3.27,3.56-5.53,4.82-3.6,2.02-8.22,3.04-13.71,3.04Zm2.66-36.94c-6.2,0-11.23.81-14.97,2.41-3.72,1.6-6.44,3.79-8.06,6.51-1.63,2.73-2.46,5.85-2.46,9.27s.94,6.67,2.8,9.43c1.86,2.77,4.54,4.97,7.96,6.52,3.43,1.56,7.49,2.35,12.07,2.35,5.42,0,9.96-1,13.5-2.98,2.42-1.35,4.36-3.12,5.77-5.25l.4-.6v8.03h13.23v-36.03c0-8.85-2.45-15.48-7.28-19.7-4.84-4.23-11.79-6.37-20.65-6.37-4.9,0-9.69.64-14.24,1.9-4.48,1.24-8.4,3.12-11.65,5.58l5.46,10.14c2.29-1.86,5.11-3.33,8.38-4.39,3.37-1.08,6.84-1.63,10.31-1.63,5.2,0,9.15,1.21,11.73,3.59,2.58,2.39,3.89,5.77,3.89,10.06v1.14h-16.2Zm.35,26.4c-3.74,0-6.7-.79-8.81-2.36-2.13-1.58-3.21-3.74-3.21-6.43,0-2.37.88-4.39,2.62-6.01,1.73-1.61,5.13-2.43,10.11-2.43h15.16v7.47c-1.26,3.2-3.34,5.65-6.19,7.29h0c-2.84,1.63-6.09,2.46-9.66,2.46Zm.69-16.79c-4.86,0-8.16.78-9.81,2.32-1.64,1.53-2.48,3.45-2.48,5.69,0,2.54,1.02,4.59,3.04,6.08,2.04,1.51,4.91,2.27,8.56,2.27s6.67-.81,9.45-2.4h0c2.75-1.58,4.76-3.95,5.97-7.03v-6.92h-14.72Z"/>
  <path class="cls-1" d="m588.61,98.28h-14.91v-33.8c0-5.4-1.28-9.48-3.82-12.13-2.53-2.65-6.12-3.99-10.67-3.99-3.35,0-6.35.69-8.93,2.06-2.57,1.36-4.59,3.42-5.99,6.1-1.41,2.69-2.12,6.15-2.12,10.26v31.48h-14.91v-62.27h14.21v7.67c1.85-2.09,4.09-3.82,6.69-5.16,4.14-2.13,8.99-3.21,14.4-3.21,4.95,0,9.44.98,13.36,2.92h0c3.92,1.94,7.05,4.95,9.3,8.95,2.25,3.99,3.39,9.19,3.39,15.45v35.65Zm-14.48-.43h14.04v-35.22c0-6.18-1.12-11.31-3.33-15.24-2.21-3.92-5.27-6.87-9.11-8.77-3.85-1.91-8.28-2.87-13.16-2.87-5.34,0-10.12,1.06-14.2,3.16-2.73,1.4-5.06,3.25-6.94,5.49l-.38.46v-8.42h-13.35v61.41h14.04v-31.05c0-4.19.73-7.71,2.17-10.46,1.44-2.77,3.52-4.88,6.17-6.29,2.64-1.4,5.72-2.11,9.13-2.11,4.67,0,8.37,1.39,10.98,4.12,2.61,2.73,3.94,6.91,3.94,12.42v33.37Z"/>
  <path class="cls-1" d="m608.43,121.55c-3.02,0-6.08-.51-9.1-1.52-3.03-1.01-5.58-2.43-7.6-4.21l-.13-.11,6-11.05.2.18c1.44,1.29,3.09,2.33,4.92,3.09,1.82.76,3.7,1.14,5.59,1.14,2.56,0,4.66-.65,6.23-1.92,1.59-1.29,3.09-3.48,4.46-6.52l1.06-2.38-27.13-62.25h15.53l19.31,45.41,19.43-45.41h14.37l-29.08,67.12c-1.93,4.63-4.1,8.35-6.46,11.06-2.37,2.72-5.05,4.65-7.96,5.74-2.91,1.08-6.15,1.63-9.63,1.63Zm-16.29-5.94c1.96,1.69,4.42,3.04,7.32,4.01,2.98.99,5.99,1.49,8.96,1.49,3.43,0,6.62-.54,9.48-1.61,2.85-1.06,5.47-2.95,7.79-5.61,2.33-2.67,4.48-6.36,6.39-10.94l28.82-66.52h-13.42l-19.72,46.08-19.59-46.08h-14.58l26.94,61.82-1.13,2.56c-1.4,3.1-2.94,5.35-4.58,6.68-1.65,1.34-3.84,2.02-6.51,2.02-1.95,0-3.88-.4-5.76-1.17-1.78-.74-3.41-1.75-4.84-2.99l-5.58,10.26Z"/>
  <path class="cls-1" d="m673.87,84.83v-12.51l39.5-14.79-39.5-14.79v-12.51l53.82,20.9v12.8l-.14.05-53.68,20.84Zm.43-12.21v11.58l52.95-20.56v-12.21l-52.95-20.56v11.58l40.3,15.09-40.3,15.09Z"/>
</svg>