<?xml version="1.0" encoding="UTF-8"?>
<svg id="_レイヤー_1" data-name="レイヤー 1" xmlns="http://www.w3.org/2000/svg" viewBox="0 0 606.61 110.55">
  <defs>
    <style>
      .cls-1 {
        fill: #2b75ae;
      }
    </style>
  </defs>
  <path class="cls-1" d="m53.91,85.01L.09,64.11v-12.8l.14-.05,53.68-20.84v12.51l-39.5,14.79,39.5,14.79v12.51ZM.52,63.81l52.95,20.56v-11.58l-40.3-15.09,40.3-15.09v-11.58L.52,51.6v12.21Z"/>
  <path class="cls-1" d="m67.28,110.04h-13.43l.1-.29L92.22.52h13.43l-.1.29-38.27,109.23Zm-12.82-.43h12.51L105.04.95h-12.51l-38.06,108.66Z"/>
  <path class="cls-1" d="m158.71,98.46h-15.49V16.96h59.61v13.05h-44.12v24.23h39.14v13.17h-39.14v31.04Zm-15.05-.43h14.62v-31.04h39.14v-12.31h-39.14v-25.1h44.12v-12.19h-58.74v80.63Z"/>
  <path class="cls-1" d="m238.51,99.27c-5.26,0-9.97-1-13.99-2.98-4.04-1.98-7.22-5.05-9.47-9.12-2.25-4.06-3.38-9.26-3.38-15.45v-35.54h14.91v33.57c0,5.48,1.25,9.62,3.71,12.3,2.45,2.68,6,4.04,10.55,4.04,3.34,0,6.29-.69,8.75-2.06,2.46-1.36,4.42-3.44,5.82-6.16,1.41-2.74,2.12-6.17,2.12-10.21v-31.48h14.91v62.27h-14.21v-7.49c-1.77,2.07-3.92,3.78-6.4,5.09-4.03,2.13-8.5,3.21-13.3,3.21Zm-26.42-62.65v35.1c0,6.11,1.12,11.24,3.33,15.24,2.21,3.99,5.33,7,9.29,8.94,3.97,1.94,8.61,2.93,13.8,2.93,4.73,0,9.14-1.06,13.1-3.16,2.61-1.38,4.85-3.21,6.65-5.44l.38-.48v8.27h13.35v-61.41h-14.04v31.05c0,4.11-.73,7.61-2.17,10.41-1.44,2.81-3.46,4.94-5.99,6.34-2.53,1.4-5.55,2.11-8.96,2.11-4.68,0-8.33-1.41-10.87-4.18-2.53-2.77-3.82-7-3.82-12.59v-33.14h-14.04Z"/>
  <path class="cls-1" d="m311.01,99.27c-6.82,0-12.17-1.79-15.9-5.33-3.73-3.54-5.63-8.83-5.63-15.73v-29.55h-10.19v-12.01h10.19v-14.13h14.91v14.13h16.56v12.01h-16.56v29.2c0,2.86.74,5.11,2.2,6.69,1.46,1.57,3.53,2.36,6.15,2.36,3.18,0,5.86-.84,7.97-2.5l.23-.18,4.22,10.72-.12.1c-1.71,1.4-3.84,2.47-6.33,3.17-2.48.7-5.07,1.05-7.7,1.05Zm-31.28-51.04h10.19v29.98c0,6.78,1.85,11.97,5.49,15.42,3.65,3.46,8.89,5.21,15.6,5.21,2.59,0,5.14-.35,7.59-1.03,2.37-.67,4.41-1.67,6.05-2.99l-3.89-9.89c-2.15,1.6-4.85,2.42-8.01,2.42-2.75,0-4.93-.84-6.47-2.5-1.54-1.66-2.32-4-2.32-6.98v-29.63h16.56v-11.15h-16.56v-14.13h-14.04v14.13h-10.19v11.15Z"/>
  <path class="cls-1" d="m359.53,99.27c-5.26,0-9.97-1-13.99-2.98-4.04-1.98-7.22-5.05-9.47-9.12-2.25-4.06-3.38-9.26-3.38-15.45v-35.54h14.91v33.57c0,5.48,1.25,9.62,3.71,12.3,2.45,2.68,6,4.04,10.55,4.04,3.34,0,6.29-.69,8.75-2.06,2.46-1.36,4.42-3.44,5.82-6.16,1.41-2.74,2.12-6.17,2.12-10.21v-31.48h14.91v62.27h-14.21v-7.49c-1.77,2.07-3.92,3.78-6.4,5.09-4.03,2.13-8.5,3.21-13.3,3.21Zm-26.42-62.65v35.1c0,6.11,1.12,11.24,3.33,15.24,2.21,3.99,5.33,7,9.29,8.94,3.97,1.94,8.61,2.93,13.8,2.93,4.73,0,9.14-1.06,13.1-3.16,2.61-1.38,4.85-3.21,6.65-5.44l.38-.48v8.27h13.35v-61.41h-14.04v31.05c0,4.11-.73,7.61-2.17,10.41-1.44,2.81-3.46,4.94-5.99,6.34-2.53,1.4-5.55,2.11-8.96,2.11-4.68,0-8.33-1.41-10.87-4.18-2.53-2.77-3.82-7-3.82-12.59v-33.14h-14.04Z"/>
  <path class="cls-1" d="m423.44,98.46h-14.91v-62.27h14.21v8.57c1.75-2.48,4.04-4.5,6.8-6,3.99-2.17,9.03-3.27,14.98-3.27h.22v14.27l-.27-.07c-.6-.15-1.17-.24-1.7-.28-.54-.04-1.08-.06-1.61-.06-5.4,0-9.75,1.6-12.93,4.74-3.18,3.15-4.8,7.91-4.8,14.15v30.21Zm-14.48-.43h14.04v-29.78c0-6.36,1.66-11.22,4.93-14.46,3.27-3.23,7.72-4.87,13.24-4.87.54,0,1.09.02,1.64.06.47.03.98.11,1.51.23v-13.29c-5.78.03-10.68,1.11-14.56,3.22-2.92,1.59-5.29,3.75-7.04,6.44l-.4.61v-9.57h-13.35v61.41Z"/>
  <path class="cls-1" d="m482.98,99.27c-6.88,0-12.97-1.39-18.11-4.14-5.15-2.74-9.19-6.57-12.01-11.37-2.82-4.79-4.26-10.33-4.26-16.44s1.39-11.74,4.14-16.49c2.74-4.76,6.59-8.54,11.43-11.26,4.84-2.71,10.42-4.08,16.61-4.08s11.48,1.33,16.2,3.96h0c4.72,2.63,8.49,6.4,11.2,11.2,2.71,4.8,4.08,10.52,4.08,17.01,0,.61-.02,1.3-.06,2.1-.04.77-.1,1.51-.17,2.21l-.02.19h-48.45c.4,2.01,1.11,3.89,2.12,5.58,1.67,2.81,4.05,5,7.09,6.52,3.04,1.52,6.59,2.29,10.56,2.29,3.43,0,6.56-.54,9.3-1.61,2.73-1.06,5.2-2.76,7.33-5.04l.16-.18,8.04,9.24-.12.14c-2.79,3.25-6.34,5.79-10.56,7.53-4.22,1.74-9.09,2.62-14.5,2.62Zm-2.2-63.35c-6.11,0-11.63,1.35-16.4,4.03-4.77,2.67-8.56,6.41-11.27,11.09-2.71,4.69-4.08,10.17-4.08,16.28s1.41,11.49,4.2,16.22c2.78,4.73,6.77,8.5,11.84,11.21,5.08,2.71,11.1,4.09,17.91,4.09,5.35,0,10.17-.87,14.34-2.59,4.09-1.69,7.55-4.14,10.28-7.27l-7.48-8.6c-2.14,2.24-4.6,3.92-7.33,4.98-2.79,1.09-5.97,1.64-9.46,1.64-4.03,0-7.65-.79-10.75-2.34-3.11-1.56-5.56-3.8-7.27-6.68-1.08-1.81-1.83-3.82-2.22-5.98l-.05-.26h48.59c.07-.64.12-1.31.15-2,.04-.79.06-1.47.06-2.07,0-6.42-1.35-12.07-4.03-16.8-2.67-4.73-6.38-8.44-11.03-11.03-4.66-2.59-10.04-3.91-15.99-3.91Zm17.81,26.64h-35.66l.03-.25c.33-2.36,1.02-4.51,2.05-6.39h0c1.52-2.76,3.65-4.95,6.33-6.51,2.69-1.56,5.86-2.35,9.43-2.35s6.63.79,9.31,2.35c2.68,1.56,4.83,3.73,6.39,6.45,1.09,1.91,1.79,4.08,2.08,6.45l.03.24Zm-35.16-.43h34.67c-.3-2.22-.97-4.25-1.99-6.05-1.52-2.66-3.62-4.77-6.23-6.29-2.62-1.52-5.68-2.29-9.1-2.29s-6.59.77-9.21,2.29c-2.62,1.52-4.69,3.65-6.17,6.34h0c-.97,1.76-1.63,3.78-1.96,5.99Z"/>
  <path class="cls-1" d="m552.71,85.01v-12.51l39.5-14.79-39.5-14.79v-12.51l53.82,20.9v12.8l-.14.05-53.68,20.84Zm.43-12.21v11.58l52.95-20.56v-12.21l-52.95-20.56v11.58l40.3,15.09-40.3,15.09Z"/>
</svg>