<?xml version="1.0" encoding="UTF-8"?>
<svg id="_レイヤー_1" data-name="レイヤー 1" xmlns="http://www.w3.org/2000/svg" viewBox="0 0 858.9 121.89">
  <defs>
    <style>
      .cls-1 {
        fill: #2b75ae;
      }
    </style>
  </defs>
  <path class="cls-1" d="m55.1,84.83L1.28,63.93v-12.8l.14-.05,53.68-20.84v12.51l-39.5,14.79,39.5,14.79v12.51ZM1.71,63.63l52.95,20.56v-11.58l-40.3-15.09,40.3-15.09v-11.58L1.71,51.42v12.21Z"/>
  <path class="cls-1" d="m68.47,109.86h-13.43l.1-.29L93.41.34h13.43l-.1.29-38.27,109.23Zm-12.82-.43h12.51L106.23.77h-12.51l-38.06,108.66Z"/>
  <path class="cls-1" d="m159.9,98.28h-15.49V16.78h33.57c7.18,0,13.42,1.18,18.56,3.49h0c5.15,2.32,9.17,5.7,11.96,10.04,2.79,4.34,4.2,9.56,4.2,15.52s-1.41,11.18-4.2,15.52c-2.79,4.34-6.81,7.72-11.96,10.04-5.14,2.32-11.38,3.49-18.56,3.49h-18.08v23.39Zm-15.05-.43h14.62v-23.39h18.51c7.11,0,13.3-1.16,18.38-3.46,5.07-2.29,9.04-5.61,11.78-9.88,2.74-4.27,4.13-9.41,4.13-15.29s-1.39-11.02-4.13-15.29c-2.74-4.27-6.71-7.59-11.78-9.88-5.08-2.29-11.27-3.46-18.38-3.46h-33.14v80.63Zm32.44-35.7h-17.82V29.52h17.82c6.66,0,11.75,1.42,15.13,4.22,3.39,2.81,5.12,6.88,5.12,12.09s-1.72,9.19-5.11,12.04h0c-3.38,2.84-8.47,4.28-15.14,4.28Zm-17.39-.43h17.39c6.56,0,11.56-1.41,14.86-4.18h0c3.29-2.76,4.96-6.7,4.96-11.7s-1.67-9.04-4.96-11.76c-3.3-2.73-8.3-4.12-14.86-4.12h-17.39v31.76Z"/>
  <path class="cls-1" d="m284.97,98.28h-14.91v-33.8c0-5.4-1.28-9.48-3.82-12.13-2.53-2.65-6.12-3.99-10.67-3.99-3.35,0-6.35.69-8.93,2.06-2.57,1.36-4.59,3.42-5.99,6.1-1.41,2.69-2.12,6.15-2.12,10.26v31.48h-14.91V11.92h14.91v31c1.71-1.75,3.72-3.23,6-4.4,4.14-2.13,8.99-3.21,14.4-3.21,4.95,0,9.44.98,13.36,2.92h0c3.92,1.94,7.05,4.95,9.3,8.95,2.25,3.99,3.39,9.19,3.39,15.45v35.65Zm-14.48-.43h14.04v-35.22c0-6.18-1.12-11.31-3.33-15.24-2.21-3.92-5.27-6.87-9.11-8.77h0c-3.85-1.91-8.28-2.87-13.16-2.87-5.34,0-10.12,1.06-14.2,3.16-2.4,1.23-4.5,2.82-6.25,4.71l-.37.4V12.35h-14.04v85.5h14.04v-31.05c0-4.19.73-7.71,2.17-10.46,1.44-2.77,3.52-4.88,6.17-6.29,2.64-1.4,5.72-2.11,9.13-2.11,4.67,0,8.37,1.39,10.98,4.12,2.61,2.73,3.94,6.91,3.94,12.42v33.37Z"/>
  <path class="cls-1" d="m314.38,98.28h-14.91v-62.27h14.91v62.27Zm-14.48-.43h14.04v-61.41h-14.04v61.41Z"/>
  <path class="cls-1" d="m306.99,26.25c-2.75,0-5.04-.88-6.81-2.61-1.77-1.73-2.67-3.85-2.67-6.29s.9-4.66,2.67-6.35c1.77-1.69,4.06-2.55,6.81-2.55s5.03.82,6.8,2.43c1.78,1.62,2.68,3.68,2.68,6.12,0,2.59-.88,4.81-2.61,6.58-1.73,1.77-4.05,2.67-6.87,2.67Zm0-17.37c-2.63,0-4.82.82-6.51,2.43-1.68,1.61-2.54,3.64-2.54,6.04s.85,4.34,2.54,5.98c1.69,1.65,3.88,2.49,6.51,2.49s4.91-.85,6.56-2.54c1.65-1.69,2.49-3.8,2.49-6.28,0-2.32-.85-4.27-2.53-5.8-1.69-1.54-3.88-2.32-6.51-2.32Z"/>
  <path class="cls-1" d="m344.37,98.28h-14.91V11.92h14.91v86.36Zm-14.48-.43h14.04V12.35h-14.04v85.5Z"/>
  <path class="cls-1" d="m387.47,99.09c-6.34,0-12.06-1.39-17.01-4.14-4.95-2.75-8.92-6.57-11.78-11.37-2.86-4.8-4.32-10.33-4.32-16.44s1.45-11.74,4.32-16.5c2.86-4.76,6.82-8.54,11.78-11.25,4.95-2.71,10.67-4.08,17.01-4.08s12.19,1.37,17.18,4.08h0c4.99,2.71,8.95,6.48,11.78,11.2,2.82,4.72,4.26,10.29,4.26,16.56s-1.43,11.64-4.26,16.44c-2.83,4.8-6.79,8.63-11.78,11.37-4.99,2.75-10.77,4.14-17.19,4.14Zm0-63.35c-6.26,0-11.92,1.35-16.8,4.03-4.89,2.67-8.79,6.41-11.61,11.1-2.82,4.69-4.25,10.17-4.25,16.28s1.43,11.49,4.25,16.22c2.82,4.73,6.73,8.5,11.62,11.21,4.88,2.71,10.54,4.08,16.8,4.08s12.05-1.37,16.98-4.08c4.92-2.71,8.83-6.48,11.61-11.21,2.78-4.73,4.2-10.19,4.2-16.22s-1.41-11.68-4.2-16.33c-2.79-4.65-6.69-8.37-11.61-11.04h0c-4.93-2.67-10.64-4.03-16.98-4.03Zm0,50.95c-3.5,0-6.67-.79-9.43-2.34-2.76-1.56-4.99-3.84-6.63-6.8-1.63-2.95-2.46-6.45-2.46-10.41s.83-7.56,2.46-10.47c1.63-2.92,3.86-5.18,6.63-6.74,2.76-1.56,5.97-2.34,9.54-2.34s6.69.79,9.49,2.34c2.8,1.56,5.03,3.83,6.63,6.74,1.59,2.92,2.4,6.44,2.4,10.47s-.81,7.46-2.4,10.41h0c-1.6,2.96-3.83,5.25-6.63,6.8-2.8,1.55-6.03,2.34-9.6,2.34Zm.12-38.68c-3.5,0-6.64.77-9.33,2.29-2.69,1.52-4.87,3.73-6.46,6.58-1.6,2.85-2.4,6.3-2.4,10.26s.81,7.32,2.41,10.2c1.59,2.89,3.77,5.12,6.46,6.63,2.69,1.52,5.79,2.29,9.22,2.29s6.66-.77,9.39-2.29c2.73-1.52,4.9-3.75,6.46-6.63,1.56-2.89,2.35-6.32,2.35-10.2s-.79-7.41-2.35-10.26c-1.56-2.84-3.73-5.06-6.46-6.57-2.73-1.52-5.86-2.29-9.28-2.29Z"/>
  <path class="cls-1" d="m450,99.09c-5.16,0-10.19-.68-14.94-2.03-4.75-1.35-8.57-3.02-11.36-4.95l-.15-.11,5.75-11.38.2.13c2.75,1.76,6.08,3.23,9.91,4.38,3.82,1.15,7.7,1.73,11.52,1.73,4.49,0,7.79-.61,9.79-1.82,1.97-1.19,2.96-2.8,2.96-4.79,0-1.63-.65-2.84-1.98-3.7-1.36-.87-3.17-1.54-5.37-2-2.21-.46-4.72-.88-7.46-1.27-2.74-.38-5.51-.91-8.24-1.57-2.74-.66-5.28-1.64-7.53-2.92-2.26-1.28-4.12-3.04-5.52-5.22-1.41-2.19-2.12-5.11-2.12-8.69,0-3.97,1.15-7.46,3.4-10.38,2.25-2.91,5.46-5.19,9.53-6.79,4.06-1.59,8.94-2.39,14.5-2.39,4.16,0,8.43.47,12.67,1.4,4.25.93,7.81,2.26,10.6,3.96l.17.1-5.75,11.39-.2-.12c-2.9-1.75-5.86-2.97-8.79-3.62-2.95-.65-5.91-.98-8.81-.98-4.34,0-7.59.65-9.67,1.94-2.05,1.26-3.08,2.88-3.08,4.8,0,1.79.65,3.1,1.99,3.99,1.36.91,3.17,1.64,5.37,2.17,2.22.54,4.72.98,7.45,1.33,2.74.35,5.49.87,8.19,1.57,2.7.7,5.23,1.66,7.52,2.86h0c2.3,1.21,4.18,2.93,5.58,5.11,1.41,2.19,2.12,5.07,2.12,8.57,0,3.89-1.17,7.33-3.46,10.21-2.29,2.88-5.58,5.14-9.76,6.73-4.18,1.58-9.23,2.39-15.02,2.39Zm-25.89-7.24c2.73,1.86,6.46,3.47,11.07,4.78,4.71,1.34,9.7,2.02,14.82,2.02,5.73,0,10.73-.79,14.86-2.36,4.11-1.56,7.33-3.78,9.58-6.59,2.24-2.8,3.37-6.15,3.37-9.94,0-3.42-.69-6.22-2.05-8.34-1.36-2.12-3.19-3.79-5.42-4.96-2.26-1.18-4.75-2.13-7.42-2.82-2.68-.69-5.42-1.21-8.14-1.56-2.74-.35-5.26-.8-7.49-1.34-2.25-.54-4.1-1.29-5.51-2.23-1.45-.96-2.18-2.43-2.18-4.35,0-2.08,1.11-3.81,3.29-5.16,2.15-1.33,5.48-2,9.9-2,2.93,0,5.93.33,8.91.99,2.91.64,5.85,1.84,8.72,3.55l5.36-10.62c-2.72-1.63-6.19-2.91-10.3-3.81-4.21-.92-8.44-1.38-12.58-1.38-5.5,0-10.33.79-14.34,2.36-4,1.56-7.14,3.8-9.35,6.65-2.2,2.84-3.31,6.25-3.31,10.12,0,3.49.69,6.34,2.05,8.45,1.36,2.12,3.17,3.83,5.37,5.08,2.21,1.26,4.71,2.23,7.41,2.87,2.72.65,5.48,1.18,8.2,1.56,2.75.39,5.27.82,7.48,1.28,2.25.47,4.11,1.16,5.52,2.06,1.45.93,2.18,2.29,2.18,4.06,0,2.16-1.07,3.89-3.17,5.16-2.07,1.25-5.44,1.88-10.01,1.88-3.86,0-7.78-.59-11.64-1.75-3.77-1.13-7.07-2.58-9.81-4.3l-5.37,10.62Z"/>
  <path class="cls-1" d="m514.85,99.09c-6.34,0-12.06-1.39-17.01-4.14-4.95-2.75-8.92-6.57-11.78-11.37-2.86-4.8-4.32-10.33-4.32-16.44s1.45-11.74,4.32-16.5c2.86-4.76,6.82-8.54,11.78-11.25,4.95-2.71,10.67-4.08,17.01-4.08s12.2,1.37,17.18,4.08h0c4.99,2.71,8.95,6.48,11.78,11.2,2.83,4.72,4.26,10.29,4.26,16.56s-1.43,11.64-4.26,16.44c-2.83,4.8-6.79,8.63-11.78,11.37-4.99,2.75-10.77,4.14-17.19,4.14Zm0-63.35c-6.26,0-11.92,1.35-16.8,4.03-4.89,2.67-8.79,6.41-11.62,11.1-2.82,4.69-4.25,10.17-4.25,16.28s1.43,11.49,4.25,16.22c2.82,4.73,6.73,8.5,11.62,11.21,4.88,2.71,10.54,4.08,16.8,4.08s12.05-1.37,16.98-4.08c4.92-2.71,8.83-6.48,11.61-11.21,2.78-4.73,4.2-10.19,4.2-16.22s-1.41-11.68-4.2-16.33c-2.79-4.65-6.69-8.37-11.61-11.04-4.93-2.67-10.64-4.03-16.98-4.03Zm0,50.95c-3.5,0-6.67-.79-9.43-2.34-2.76-1.56-4.99-3.84-6.63-6.8-1.63-2.95-2.46-6.45-2.46-10.41s.83-7.56,2.46-10.47c1.63-2.92,3.86-5.18,6.63-6.74,2.76-1.56,5.97-2.34,9.54-2.34s6.68.79,9.48,2.34c2.8,1.56,5.03,3.83,6.63,6.74,1.59,2.92,2.4,6.44,2.4,10.47s-.81,7.46-2.4,10.41h0c-1.6,2.96-3.83,5.25-6.63,6.8-2.8,1.55-6.03,2.34-9.6,2.34Zm.12-38.68c-3.5,0-6.64.77-9.33,2.29-2.69,1.52-4.87,3.73-6.46,6.58-1.6,2.85-2.4,6.3-2.4,10.26s.81,7.32,2.4,10.2c1.59,2.89,3.77,5.12,6.46,6.63,2.69,1.52,5.79,2.29,9.22,2.29s6.66-.77,9.39-2.29c2.73-1.52,4.9-3.75,6.46-6.63h0c1.56-2.89,2.35-6.32,2.35-10.2s-.79-7.41-2.35-10.26c-1.56-2.84-3.73-5.06-6.46-6.57-2.73-1.52-5.86-2.29-9.27-2.29Z"/>
  <path class="cls-1" d="m572.97,120.74h-14.91V36h14.21v7.8c1.78-2.06,3.85-3.76,6.16-5.05,4.11-2.29,8.86-3.44,14.12-3.44,6.1,0,11.58,1.33,16.26,3.97h0c4.68,2.63,8.45,6.36,11.2,11.08,2.75,4.72,4.14,10.37,4.14,16.78s-1.39,12.08-4.14,16.84c-2.75,4.76-6.52,8.51-11.2,11.14-4.68,2.63-10.15,3.97-16.26,3.97-5.03,0-9.69-1.18-13.83-3.5-2.12-1.19-4.05-2.73-5.76-4.58v29.74Zm-14.48-.43h14.04v-30.44l.38.43c1.77,2.01,3.79,3.66,6.02,4.91,4.08,2.29,8.66,3.45,13.62,3.45,6.03,0,11.43-1.32,16.05-3.91,4.61-2.59,8.33-6.29,11.04-10.98,2.71-4.69,4.08-10.29,4.08-16.63s-1.37-11.91-4.08-16.57c-2.71-4.65-6.42-8.33-11.04-10.92-4.62-2.59-10.02-3.91-16.05-3.91-5.19,0-9.87,1.14-13.91,3.39-2.44,1.36-4.6,3.17-6.42,5.4l-.38.47v-8.56h-13.35v83.87Zm32.44-33.61c-3.5,0-6.69-.79-9.49-2.34-2.8-1.56-5.05-3.84-6.68-6.8-1.63-2.95-2.46-6.45-2.46-10.41s.83-7.56,2.46-10.47c1.63-2.92,3.88-5.18,6.68-6.74,2.8-1.55,5.99-2.34,9.49-2.34s6.67.79,9.43,2.34c2.76,1.56,4.99,3.83,6.63,6.74,1.63,2.91,2.46,6.44,2.46,10.47s-.83,7.46-2.46,10.41c-1.63,2.95-3.86,5.24-6.63,6.8-2.76,1.56-5.93,2.34-9.43,2.34Zm0-38.68c-3.42,0-6.54.77-9.28,2.29-2.73,1.52-4.92,3.73-6.52,6.58-1.6,2.85-2.4,6.3-2.4,10.26s.81,7.32,2.41,10.2c1.59,2.88,3.79,5.12,6.52,6.63,2.73,1.52,5.85,2.29,9.28,2.29s6.52-.77,9.22-2.29c2.69-1.52,4.87-3.75,6.46-6.63h0c1.6-2.89,2.41-6.32,2.41-10.2s-.81-7.41-2.4-10.26c-1.59-2.84-3.77-5.06-6.46-6.58-2.7-1.52-5.8-2.29-9.22-2.29Z"/>
  <path class="cls-1" d="m695.38,98.28h-14.91v-33.8c0-5.4-1.28-9.48-3.82-12.13-2.53-2.65-6.12-3.99-10.67-3.99-3.35,0-6.35.69-8.93,2.06-2.57,1.36-4.59,3.42-5.99,6.1-1.41,2.69-2.12,6.15-2.12,10.26v31.48h-14.91V11.92h14.91v31.01c1.71-1.75,3.72-3.23,6-4.4,4.14-2.13,8.99-3.21,14.4-3.21,4.95,0,9.44.98,13.36,2.92h0c3.92,1.94,7.05,4.95,9.3,8.95,2.25,3.99,3.39,9.19,3.39,15.45v35.65Zm-14.48-.43h14.04v-35.22c0-6.18-1.12-11.31-3.33-15.24-2.21-3.92-5.27-6.87-9.11-8.77h0c-3.85-1.91-8.28-2.87-13.16-2.87-5.34,0-10.12,1.06-14.2,3.16-2.4,1.23-4.5,2.82-6.25,4.71l-.37.4V12.35h-14.04v85.5h14.04v-31.05c0-4.19.73-7.71,2.17-10.46,1.44-2.77,3.52-4.88,6.17-6.29,2.64-1.4,5.72-2.11,9.13-2.11,4.67,0,8.37,1.39,10.98,4.12,2.61,2.73,3.94,6.91,3.94,12.42v33.37Z"/>
  <path class="cls-1" d="m715.19,121.55c-3.02,0-6.08-.51-9.1-1.52-3.03-1.01-5.58-2.43-7.6-4.21l-.13-.11,6-11.05.2.18c1.44,1.29,3.09,2.33,4.92,3.09,1.82.76,3.7,1.14,5.59,1.14,2.56,0,4.66-.65,6.23-1.92,1.59-1.29,3.09-3.48,4.46-6.52l1.06-2.38-27.13-62.25h15.53l19.31,45.41,19.43-45.41h14.37l-29.08,67.12c-1.93,4.63-4.1,8.35-6.46,11.06-2.37,2.72-5.05,4.65-7.96,5.74-2.91,1.08-6.15,1.63-9.63,1.63Zm-16.29-5.94c1.96,1.69,4.42,3.04,7.32,4.01,2.98.99,5.99,1.49,8.96,1.49,3.43,0,6.62-.54,9.48-1.61,2.85-1.06,5.47-2.95,7.79-5.61,2.33-2.67,4.48-6.36,6.39-10.94l28.82-66.52h-13.42l-19.72,46.08-19.59-46.08h-14.58l26.94,61.82-1.13,2.56c-1.4,3.1-2.94,5.35-4.58,6.68-1.65,1.34-3.84,2.02-6.51,2.02-1.95,0-3.88-.4-5.76-1.17-1.78-.74-3.41-1.75-4.84-2.99l-5.58,10.26Z"/>
  <path class="cls-1" d="m803.8,84.83v-12.51l39.5-14.79-39.5-14.79v-12.51l53.82,20.9v12.8l-.14.05-53.68,20.84Zm.43-12.21v11.58l52.95-20.56v-12.21l-52.95-20.56v11.58l40.3,15.09-40.3,15.09Z"/>
</svg>