<?xml version="1.0" encoding="UTF-8"?>
<svg id="_レイヤー_1" data-name="レイヤー 1" xmlns="http://www.w3.org/2000/svg" viewBox="0 0 634.96 110.55">
  <defs>
    <style>
      .cls-1 {
        fill: #eae547;
      }
    </style>
  </defs>
  <path class="cls-1" d="m53.84,85.01L.02,64.11v-12.8l53.82-20.9v12.51l-39.5,14.79,39.5,14.79v12.51ZM.45,63.81l52.95,20.56v-11.58l-40.3-15.09,40.3-15.09v-11.58L.45,51.6v12.21Z"/>
  <path class="cls-1" d="m67.21,110.04h-13.43l.1-.29L92.15.52h13.43l-.1.29-38.27,109.23Zm-12.82-.43h12.51L104.97.95h-12.51l-38.06,108.66Z"/>
  <path class="cls-1" d="m168.5,99.61c-6.32,0-12.46-.92-18.25-2.73-5.79-1.81-10.45-4.18-13.86-7.05l-.12-.1,5.39-12.1.22.17c3.21,2.52,7.24,4.66,11.98,6.34,4.74,1.68,9.66,2.54,14.64,2.54,4.2,0,7.64-.46,10.23-1.38,2.57-.91,4.49-2.15,5.69-3.69,1.2-1.54,1.81-3.3,1.81-5.25,0-2.39-.87-4.34-2.59-5.8-1.75-1.48-4.04-2.67-6.82-3.55-2.81-.88-5.96-1.72-9.36-2.49-3.41-.76-6.88-1.68-10.32-2.73-3.44-1.04-6.61-2.41-9.43-4.07-2.83-1.67-5.18-3.93-6.96-6.73-1.79-2.8-2.7-6.42-2.7-10.77s1.2-8.53,3.57-12.22c2.37-3.69,6.02-6.67,10.86-8.88,4.83-2.2,11.04-3.32,18.44-3.32,4.85,0,9.74.63,14.53,1.86,4.79,1.24,9.02,3.04,12.57,5.36l.15.1-4.91,12.09-.22-.13c-3.6-2.14-7.36-3.75-11.18-4.78-3.83-1.03-7.55-1.56-11.06-1.56-4.12,0-7.5.5-10.05,1.49-2.54.98-4.41,2.28-5.58,3.86-1.16,1.57-1.75,3.4-1.75,5.43,0,2.39.85,4.34,2.53,5.8,1.71,1.48,3.98,2.65,6.75,3.49,2.78.84,5.95,1.68,9.42,2.49,3.44.8,6.93,1.72,10.38,2.72,3.44,1,6.61,2.34,9.43,3.96h0c2.84,1.63,5.16,3.88,6.91,6.67,1.75,2.8,2.64,6.39,2.64,10.65s-1.2,8.42-3.57,12.1c-2.37,3.69-6.04,6.67-10.92,8.88-4.87,2.2-11.09,3.32-18.5,3.32Zm-31.7-10c3.35,2.78,7.92,5.09,13.58,6.86,5.75,1.8,11.84,2.71,18.12,2.71,7.35,0,13.51-1.1,18.32-3.28,4.8-2.17,8.41-5.11,10.74-8.72,2.32-3.61,3.5-7.61,3.5-11.87s-.87-7.69-2.57-10.42c-1.71-2.74-3.98-4.93-6.76-6.53h0c-2.79-1.6-5.93-2.92-9.33-3.92-3.44-1-6.93-1.92-10.35-2.72-3.48-.81-6.66-1.65-9.45-2.49-2.83-.85-5.16-2.06-6.91-3.58-1.78-1.54-2.68-3.6-2.68-6.13,0-2.12.62-4.04,1.84-5.69,1.22-1.65,3.16-3,5.77-4.01,2.6-1.01,6.04-1.52,10.21-1.52,3.55,0,7.31.53,11.17,1.57,3.78,1.02,7.5,2.6,11.07,4.7l4.59-11.3c-3.48-2.25-7.62-3.99-12.29-5.2-4.75-1.22-9.6-1.85-14.42-1.85-7.35,0-13.49,1.1-18.27,3.28-4.76,2.17-8.36,5.11-10.68,8.72-2.32,3.61-3.5,7.65-3.5,11.99s.88,7.81,2.63,10.54c1.75,2.74,4.04,4.96,6.82,6.59,2.79,1.64,5.93,3,9.33,4.03,3.43,1.04,6.89,1.95,10.29,2.72,3.42.77,6.58,1.61,9.4,2.49,2.83.89,5.18,2.11,6.97,3.63,1.82,1.54,2.74,3.6,2.74,6.13,0,2.05-.64,3.9-1.9,5.52-1.25,1.61-3.24,2.9-5.89,3.83-2.64.93-6.13,1.4-10.38,1.4-5.02,0-9.99-.86-14.78-2.56-4.68-1.66-8.67-3.75-11.89-6.23l-5.03,11.3Z"/>
  <path class="cls-1" d="m240.41,99.27c-6.88,0-12.97-1.39-18.11-4.14-5.15-2.75-9.19-6.57-12.01-11.37-2.82-4.8-4.26-10.33-4.26-16.44s1.39-11.74,4.14-16.49c2.75-4.76,6.59-8.54,11.43-11.26,4.83-2.71,10.42-4.08,16.61-4.08s11.48,1.33,16.2,3.96h0c4.72,2.63,8.49,6.4,11.2,11.2,2.71,4.8,4.08,10.52,4.08,17.01,0,.61-.02,1.32-.06,2.1-.04.78-.1,1.52-.17,2.21l-.02.19h-48.45c.4,2.01,1.11,3.89,2.12,5.58,1.67,2.81,4.05,5,7.09,6.52,3.04,1.52,6.59,2.29,10.56,2.29,3.43,0,6.56-.54,9.3-1.61,2.73-1.06,5.2-2.76,7.33-5.04l.16-.18,8.04,9.24-.12.14c-2.79,3.25-6.34,5.79-10.56,7.53-4.22,1.74-9.09,2.62-14.5,2.62Zm-2.2-63.35c-6.11,0-11.63,1.35-16.4,4.03-4.77,2.67-8.56,6.41-11.27,11.09-2.71,4.69-4.08,10.17-4.08,16.28s1.41,11.49,4.2,16.22c2.78,4.73,6.77,8.5,11.84,11.21,5.08,2.71,11.1,4.09,17.91,4.09,5.35,0,10.17-.87,14.33-2.59,4.09-1.69,7.55-4.14,10.28-7.27l-7.48-8.6c-2.14,2.24-4.6,3.92-7.33,4.98-2.79,1.09-5.97,1.64-9.46,1.64-4.03,0-7.65-.79-10.75-2.34-3.11-1.56-5.56-3.8-7.27-6.68-1.08-1.81-1.83-3.82-2.22-5.98l-.05-.26h48.59c.07-.63.12-1.3.15-2,.04-.77.06-1.47.06-2.07,0-6.41-1.35-12.07-4.02-16.8-2.67-4.73-6.38-8.44-11.03-11.03h0c-4.66-2.59-10.04-3.91-15.99-3.91Zm17.81,26.64h-35.66l.03-.25c.33-2.36,1.02-4.51,2.05-6.39h0c1.52-2.76,3.65-4.95,6.33-6.51,2.69-1.56,5.86-2.35,9.43-2.35s6.63.79,9.31,2.35c2.68,1.56,4.83,3.73,6.39,6.45,1.09,1.91,1.79,4.08,2.08,6.45l.03.24Zm-35.16-.43h34.67c-.3-2.22-.97-4.25-1.99-6.05-1.52-2.66-3.62-4.77-6.23-6.29-2.62-1.52-5.68-2.29-9.1-2.29s-6.6.77-9.21,2.29c-2.62,1.52-4.69,3.65-6.17,6.34h0c-.97,1.76-1.63,3.78-1.96,5.99Z"/>
  <path class="cls-1" d="m356.59,98.46h-15.22l-25.47-59.38v10.69l-.27-.07c-.6-.15-1.17-.24-1.7-.28-.54-.04-1.08-.06-1.61-.06-5.4,0-9.75,1.6-12.93,4.74-3.19,3.15-4.8,7.91-4.8,14.15v30.21h-14.91v-62.27h14.21v8.57c1.75-2.48,4.04-4.5,6.8-6,3.99-2.17,9.03-3.27,14.98-3.27h.22v.7h14.29l.06.13,18.98,45.37,19.71-45.5h14.37l-26.7,62.27Zm-14.94-.43h14.65l26.33-61.41h-13.43l-20,46.17-19.31-46.17h-14.43v-.69c-5.78.03-10.68,1.11-14.56,3.22-2.92,1.59-5.29,3.75-7.04,6.44l-.4.61v-9.57h-13.35v61.41h14.04v-29.78c0-6.36,1.66-11.22,4.93-14.46,3.27-3.23,7.72-4.87,13.24-4.87.54,0,1.09.02,1.64.06.47.03.98.11,1.51.23v-11.19l.41-.09,25.77,60.09Z"/>
  <path class="cls-1" d="m395.82,26.42c-2.75,0-5.04-.88-6.81-2.61-1.77-1.73-2.67-3.85-2.67-6.29s.9-4.66,2.67-6.35c1.77-1.69,4.06-2.55,6.81-2.55s5.03.82,6.8,2.43c1.78,1.62,2.68,3.68,2.68,6.12,0,2.59-.88,4.81-2.61,6.58-1.73,1.77-4.04,2.67-6.87,2.67Zm0-17.37c-2.63,0-4.82.82-6.51,2.43-1.68,1.61-2.54,3.64-2.54,6.04s.85,4.34,2.54,5.98c1.69,1.65,3.88,2.49,6.51,2.49s4.91-.85,6.56-2.54c1.65-1.69,2.49-3.8,2.49-6.28,0-2.32-.85-4.27-2.53-5.8-1.69-1.54-3.88-2.32-6.51-2.32Z"/>
  <path class="cls-1" d="m403.22,98.46h-14.91v-62.27h14.91v62.27Zm-14.48-.43h14.04v-61.41h-14.04v61.41Z"/>
  <path class="cls-1" d="m446.89,99.27c-6.49,0-12.35-1.39-17.42-4.14-5.07-2.75-9.09-6.57-11.95-11.37-2.86-4.8-4.32-10.33-4.32-16.44s1.45-11.74,4.32-16.5c2.86-4.76,6.88-8.54,11.95-11.25,5.06-2.71,10.92-4.08,17.41-4.08,6.03,0,11.42,1.24,16.02,3.67,4.61,2.44,8.17,6.08,10.57,10.81l.09.18-11.47,6.69-.11-.18c-1.82-2.89-4.08-5.04-6.69-6.41-2.62-1.37-5.49-2.06-8.53-2.06-3.5,0-6.7.77-9.51,2.29h0c-2.81,1.52-5.04,3.73-6.63,6.57-1.6,2.85-2.4,6.3-2.4,10.26s.81,7.41,2.4,10.26c1.59,2.85,3.83,5.06,6.63,6.57,2.81,1.52,6.01,2.29,9.51,2.29,3.04,0,5.91-.69,8.53-2.06,2.62-1.37,4.87-3.52,6.69-6.41l.11-.18,11.47,6.69-.09.18c-2.4,4.65-5.96,8.29-10.57,10.8-4.6,2.51-10,3.79-16.03,3.79Zm0-63.35c-6.42,0-12.21,1.35-17.21,4.03-5,2.67-8.97,6.41-11.79,11.1-2.82,4.69-4.25,10.17-4.25,16.28s1.43,11.49,4.25,16.22c2.82,4.73,6.79,8.5,11.79,11.21,5,2.71,10.79,4.08,17.21,4.08,5.96,0,11.28-1.26,15.82-3.74,4.47-2.44,7.94-5.95,10.3-10.44l-10.76-6.28c-1.84,2.86-4.11,5.01-6.75,6.39-2.68,1.4-5.62,2.11-8.73,2.11-3.57,0-6.84-.79-9.71-2.34-2.88-1.56-5.17-3.82-6.8-6.74-1.63-2.91-2.46-6.44-2.46-10.47s.83-7.56,2.46-10.47c1.63-2.92,3.92-5.19,6.8-6.74h0c2.88-1.55,6.14-2.34,9.71-2.34,3.11,0,6.04.71,8.73,2.11,2.63,1.37,4.9,3.52,6.75,6.39l10.76-6.28c-2.36-4.56-5.82-8.07-10.3-10.44-4.54-2.4-9.86-3.62-15.82-3.62Z"/>
  <path class="cls-1" d="m511.39,99.27c-6.88,0-12.97-1.39-18.11-4.14-5.15-2.74-9.19-6.57-12.01-11.37-2.82-4.79-4.26-10.33-4.26-16.44s1.39-11.74,4.14-16.49c2.74-4.76,6.59-8.54,11.43-11.26,4.84-2.71,10.42-4.08,16.61-4.08s11.48,1.33,16.2,3.96h0c4.72,2.63,8.49,6.4,11.2,11.2,2.71,4.8,4.08,10.52,4.08,17.01,0,.61-.02,1.3-.06,2.1-.04.77-.1,1.51-.17,2.21l-.02.19h-48.45c.4,2.01,1.11,3.89,2.12,5.58,1.67,2.81,4.05,5,7.09,6.52,3.04,1.52,6.59,2.29,10.56,2.29,3.43,0,6.56-.54,9.3-1.61,2.73-1.06,5.2-2.76,7.33-5.04l.16-.18,8.04,9.24-.12.14c-2.79,3.25-6.34,5.79-10.56,7.53-4.22,1.74-9.09,2.62-14.5,2.62Zm-2.2-63.35c-6.11,0-11.63,1.35-16.4,4.03-4.77,2.67-8.56,6.41-11.27,11.09-2.71,4.69-4.08,10.17-4.08,16.28s1.41,11.49,4.2,16.22c2.78,4.73,6.77,8.5,11.84,11.21,5.08,2.71,11.1,4.09,17.91,4.09,5.35,0,10.17-.87,14.34-2.59,4.09-1.69,7.55-4.14,10.28-7.27l-7.48-8.6c-2.14,2.24-4.6,3.92-7.33,4.98-2.79,1.09-5.97,1.64-9.46,1.64-4.03,0-7.65-.79-10.75-2.34-3.11-1.56-5.56-3.8-7.27-6.68-1.08-1.81-1.83-3.82-2.22-5.98l-.05-.26h48.59c.07-.64.12-1.31.15-2,.04-.79.06-1.47.06-2.07,0-6.42-1.35-12.07-4.03-16.8-2.67-4.73-6.38-8.44-11.03-11.03-4.66-2.59-10.04-3.91-15.99-3.91Zm17.81,26.64h-35.66l.03-.25c.33-2.36,1.02-4.51,2.05-6.39h0c1.52-2.76,3.65-4.95,6.33-6.51,2.69-1.56,5.86-2.35,9.43-2.35s6.63.79,9.31,2.35c2.68,1.56,4.83,3.73,6.39,6.45,1.09,1.91,1.79,4.08,2.08,6.45l.03.24Zm-35.16-.43h34.67c-.3-2.22-.97-4.25-1.99-6.05-1.52-2.66-3.62-4.77-6.23-6.29-2.62-1.52-5.68-2.29-9.1-2.29s-6.59.77-9.21,2.29c-2.62,1.52-4.69,3.65-6.17,6.34h0c-.97,1.76-1.63,3.78-1.96,5.99Z"/>
  <path class="cls-1" d="m581.12,85.01v-12.51l39.5-14.79-39.5-14.79v-12.51l53.82,20.9v12.8l-.14.05-53.68,20.84Zm.43-12.21v11.58l52.95-20.56v-12.21l-52.95-20.56v11.58l40.3,15.09-40.3,15.09Z"/>
</svg>