<?xml version="1.0" encoding="UTF-8"?>
<svg xmlns="http://www.w3.org/2000/svg" xmlns:xlink="http://www.w3.org/1999/xlink" viewBox="0 0 161 155.55">
  <defs>
    <style>
      .cls-1 {
        fill: url(#linear-gradient);
      }

      .cls-2 {
        fill: #eac0a3;
      }

      .cls-3 {
        fill: #e86d64;
      }

      .cls-4 {
        fill: #ddb094;
      }

      .cls-5 {
        fill: #0f1430;
      }

      .cls-6 {
        fill: #356bfa;
      }

      .cls-7 {
        fill: #2e2f5e;
      }

      .cls-8 {
        fill: #4e3507;
      }

      .cls-9 {
        fill: #d6d7d8;
      }

      .cls-9, .cls-10 {
        mix-blend-mode: multiply;
      }

      .cls-10 {
        fill: #c3c4c6;
      }

      .cls-11 {
        fill: url(#linear-gradient-8);
      }

      .cls-12 {
        fill: url(#linear-gradient-9);
      }

      .cls-13 {
        fill: url(#linear-gradient-3);
      }

      .cls-14 {
        fill: url(#linear-gradient-4);
      }

      .cls-15 {
        fill: url(#linear-gradient-2);
      }

      .cls-16 {
        fill: url(#linear-gradient-6);
      }

      .cls-17 {
        fill: url(#linear-gradient-7);
      }

      .cls-18 {
        fill: url(#linear-gradient-5);
      }

      .cls-19 {
        fill: url(#linear-gradient-12);
      }

      .cls-20 {
        fill: url(#linear-gradient-10);
      }

      .cls-21 {
        fill: url(#linear-gradient-11);
      }

      .cls-22 {
        isolation: isolate;
      }
    </style>
    <linearGradient id="linear-gradient" x1="1032.78" y1="149.29" x2="1043.55" y2="149.29" gradientTransform="translate(1104.26) rotate(-180) scale(1 -1)" gradientUnits="userSpaceOnUse">
      <stop offset="0" stop-color="#46518b"/>
      <stop offset="1" stop-color="#2e2f5e"/>
    </linearGradient>
    <linearGradient id="linear-gradient-2" x1="1034.32" y1="150.62" x2="1035.14" y2="150.62" gradientTransform="translate(1104.26) rotate(-180) scale(1 -1)" gradientUnits="userSpaceOnUse">
      <stop offset="0" stop-color="#2e2f5e"/>
      <stop offset="1" stop-color="#21234f"/>
    </linearGradient>
    <linearGradient id="linear-gradient-3" x1="1015.76" y1="150.26" x2="1024.28" y2="150.26" xlink:href="#linear-gradient"/>
    <linearGradient id="linear-gradient-4" x1="61.87" y1="86.25" x2="70.9" y2="86.25" gradientUnits="userSpaceOnUse">
      <stop offset="0" stop-color="#f4d960"/>
      <stop offset="1" stop-color="#e0c441"/>
    </linearGradient>
    <linearGradient id="linear-gradient-5" x1="951.96" y1="99.41" x2="970.76" y2="99.41" gradientTransform="translate(1034.76) rotate(-180) scale(1 -1)" xlink:href="#linear-gradient-4"/>
    <linearGradient id="linear-gradient-6" x1="1016.16" y1="150.31" x2="1017" y2="150.31" xlink:href="#linear-gradient-2"/>
    <linearGradient id="linear-gradient-7" x1="2294.63" y1="835.8" x2="2303.38" y2="835.8" gradientTransform="translate(2520.25 -71.38) rotate(-163.85) scale(1 -1)" xlink:href="#linear-gradient-4"/>
    <linearGradient id="linear-gradient-8" x1="9.46" y1="117.07" x2="20.04" y2="117.07" gradientUnits="userSpaceOnUse">
      <stop offset="0" stop-color="#dbeae8"/>
      <stop offset="1" stop-color="#b8d6d5"/>
    </linearGradient>
    <linearGradient id="linear-gradient-9" x1="1.03" y1="121.43" x2="14.56" y2="121.43" xlink:href="#linear-gradient-8"/>
    <linearGradient id="linear-gradient-10" x1="13.7" y1="73.31" x2="41.5" y2="73.31" gradientTransform="matrix(1, 0, 0, 1, 0, 0)" xlink:href="#linear-gradient"/>
    <linearGradient id="linear-gradient-11" x1="1.73" y1="82.94" x2="20.59" y2="82.94" gradientTransform="matrix(1, 0, 0, 1, 0, 0)" xlink:href="#linear-gradient"/>
    <linearGradient id="linear-gradient-12" x1=".15" y1="85.73" x2="18.06" y2="85.73" gradientTransform="matrix(1, 0, 0, 1, 0, 0)" xlink:href="#linear-gradient"/>
  </defs>
  <g class="cls-22">
    <g id="_レイヤー_1" data-name="レイヤー 1">
      <g>
        <g>
          <path class="cls-6" d="m98.77,62.08l36.49,50.22c-27.74,20.15-66.56,14-86.71-13.73-20.15-27.74-14-66.56,13.73-86.71C73.38,3.8,85.06,0,98.77,0v62.08Z"/>
          <path class="cls-3" d="m98.77,62.08V0c34.29,0,62.08,27.79,62.08,62.08,0,20.57-8.95,38.13-25.59,50.22l-36.49-50.22Z"/>
        </g>
        <g>
          <path class="cls-2" d="m61.98,98.66s-1.15.37-1.59,1.08c-.44.71-1.92,1.88-1.26,2.26.66.38,1.55-.88,1.54-.53-.01.35-1.56,4.35-1.09,4.57.47.22.81-.3.81-.3,0,0-.23,1.12.16,1.3.4.18.73-.13.93-.62,0,0,.42.83,1.04-.46,0,0,.26.33.76-.53.5-.87,1.77-3.58.98-6.06,0,0-1.79-.95-2.28-.71Z"/>
          <path class="cls-1" d="m65.76,152.96c.8-.23,3.45-3.1,3.45-3.1l-.09,1.22.41.39h0l.52-.3,1.13-3.18c.95-2.71-.7-2.71-.7-2.71,0,0-2.5-.88-4.69,2.81-1,1.68-3.4,2.46-4.66,3.43-1.25.96.18,2.73,4.62,1.45Z"/>
          <path class="cls-2" d="m66.13,124.32s2.67,17.47,1.74,20.62c-1.39,4.7-5.08,5.66-4.82,6.01,1.29,1.76,7.98-4.25,7.9-5.06-.12-1.21-.06-.48-.1-1-.03-.52,4.69-17.05-.63-21.31l-4.1.73Z"/>
          <polygon class="cls-15" points="69.21 149.86 69.12 151.08 69.53 151.47 69.93 149.78 69.21 149.86"/>
          <path class="cls-13" d="m85.05,154.55c.75-.37,2.21-4.8,2.21-4.8l.32,1.18.52.23h0l.39-.45v-3.37c.01-2.88-1.55-2.33-1.55-2.33,0,0-2.65,0-3.49,4.21-.38,1.91-2.39,3.45-3.25,4.78-.86,1.32.99,2.45,4.86.56Z"/>
          <path class="cls-2" d="m75.88,126.68s8.31,15.6,8.48,18.87c.25,4.9-2.91,7.02-2.55,7.27,1.81,1.24,6.01-6.56,5.67-7.29-.51-1.1-.49-1.57-.62-2.07-.2-.85-.94-16.57-7.36-18.83l-3.63,2.05Z"/>
          <path class="cls-14" d="m70.64,79.45v.02c-.04.22-.07.42-.1.62-.17,1-.51,3.07-.89,5.1-.38,1.99-.8,3.94-1.12,4.83-.15.43-.4,1.08-.69,1.85-1.18,3.14-3.17,8.27-3.17,8.27,0,0-.15.04-.38.05-.12,0-.24,0-.38,0-.04,0-.08,0-.12,0-.67-.05-1.56-.34-1.93-1.42,0,0,2.73-8.54,3.19-10.28.46-1.74.15-8.06.15-8.12-.14-1.53-.27-5.11,1.24-6.94.27-.33.58-.6.96-.79l.03-.02c.12-.05.24-.11.38-.15.1-.03.2-.05.3-.08,0,0,.02,0,.04,0,.14-.04.29-.05.46-.06.05,0,.1-.02.16-.02h.09c.13,0,.38.04.68.21.46.25.99.82,1.23,2.13.06.32.1.67.12,1.04.06,1.25-.09,2.67-.25,3.77Z"/>
          <path class="cls-9" d="m70.64,79.45v.02c-.04.22-.07.42-.1.62-.17,1-.51,3.07-.89,5.1-.38,1.99-.8,3.94-1.12,4.83-.15.43-.4,1.08-.69,1.85-1.18,3.14-3.17,8.27-3.17,8.27,0,0-.15.04-.38.05-.12,0-.24,0-.38,0,.16-1.59.4-2.85.74-3.6,2-4.37,3.28-11.12,2.83-12.22,0,0-2.91-2.74-1.55-6.38.9-2.41,1.25-4.44,1.99-5.52.1-.03.2-.05.3-.08,0,0,.02,0,.04,0,.14-.04.3-.05.46-.06.04,0,.08-.02.13-.02.13,0,.38.04.68.21.46.25.99.82,1.23,2.13.06.32.1.67.12,1.04.06,1.25-.09,2.67-.25,3.77Z"/>
          <path class="cls-18" d="m64.51,122.85c2.23,2.25,4.4,3.52,6.39,4.14,5.91,1.86,10.29-1.86,10.29-1.86,2.37-16.6-1.46-30.82-1.96-34.56-.19-1.47.28-3.51.94-5.56.23-.73.49-1.46.75-2.16.73-1.96,1.47-3.71,1.75-4.7.05-.2.09-.37.11-.5.2-1.66-5.61-5.13-5.61-5.13-.87-.53-5.2-1.09-7.3-1.21-2.09-.12-2.18,2.68-3.55,6.32-1.37,3.65,1.55,6.38,1.55,6.38.45,1.09-.82,7.84-2.83,12.22-2,4.38-.54,26.62-.54,26.62Z"/>
          <path class="cls-8" d="m68.63,66s-.34,8.16.71,8.43c1.05.27,4.43-.17,5.01-1.6.59-1.43,1.21-4.74.31-5.83-.9-1.1-7.38-3.64-7.2-3.27.18.37,1.18,1.76,1.16,2.26Z"/>
          <path class="cls-4" d="m72.69,72.75s.36,2.34.65,2.67c.71.84,4.13.49,4.84-1.29l-.54-4.96-4.95,3.58Z"/>
          <path class="cls-2" d="m72.8,58.08c-2.26.6-4.73,4.5-4.07,8.94.83,5.58,3.14,8.5,6.42,6.24,2.35-1.63,4.82-3.54,3.9-10.78-.46-3.59-4.36-4.9-6.25-4.4Z"/>
          <path class="cls-8" d="m69.86,58.71c-.82.91-2.16,2.46-2.46,4.24-.2,1.18.89,2.51,3.62,2.19.95-.11,1.81-.51,3.64-1.28.76-.32.76,3.38.76,4.33,0,2.05-2.07,7.61.66,8.5,2.73.88,5.06-.21,5.61-5.27.54-5.06.61-12.61-4.31-13.45,0,0-3.54-3.69-7.52.73Z"/>
          <path class="cls-9" d="m77.66,100.63c-1.64-6.56.47-11.97.95-13.34.48-1.37.62-5.01.62-5.01h0c-.36-2.05-.13-4.13,1.83-4.97,0,0,.76-.15,1.72.61-.42,1.43-1.73,4.4-2.68,7.37,0-.01,0-.01,0-.02-.62,1.96-1.05,3.91-.86,5.31.5,3.74,4.33,17.96,1.96,34.56,0,0-4.38,3.72-10.29,1.86,11.41.43,8.4-19.8,6.76-26.36Z"/>
          <polygon class="cls-16" points="87.26 149.75 87.58 150.93 88.1 151.16 87.92 149.45 87.26 149.75"/>
          <path class="cls-2" d="m75.84,105.42s-1.15.04-1.73.59c-.58.55-2.24,1.25-1.73,1.77.51.52,1.65-.42,1.55-.1-.1.32-2.53,3.62-2.16,3.93.37.32.82-.07.82-.07,0,0-.5.97-.18,1.23.32.27.71.06,1.01-.34,0,0,.18.87,1.08-.16,0,0,.15.37.83-.3.68-.67,2.53-2.85,2.43-5.33,0,0-1.41-1.33-1.92-1.23Z"/>
          <path class="cls-17" d="m79.1,94.62c.31-1.87-.65-8.49-.66-8.55-.4-2.17-1.08-8.79,3.02-9.29,0,0,1.51.13,2.26,2.71.43,1.48.43,3.56.35,5.07h0s0,.01,0,.03c-.01.23-.03.45-.04.65-.14,2.14-.61,8.69-1.11,10.65-.6,2.35-4.91,10.96-4.91,10.96,0,0-1.72.21-2.58-1.7,0,0,3.37-8.64,3.68-10.52Z"/>
        </g>
        <g>
          <path class="cls-2" d="m41.33,77.21s1.11.82,2.07.73c.95-.08,3.03.49,2.93-.37-.09-.87-1.86-.83-1.53-1.06.33-.22,5.05-1.51,4.94-2.08-.11-.57-.82-.54-.82-.54,0,0,1.19-.54,1.08-1.03-.1-.49-.62-.58-1.2-.43,0,0-.17-.53-1.16-.28,0,0-.32-.35-1.09-.18-1.11.25-4.37.27-6.11,2.66,0,0,.33,2.29.88,2.57Z"/>
          <path class="cls-5" d="m19.07,139.67l.06,1.52c.01.29.23.65.49.79,1.3.72,4.95,2.76,5.74,3.36.97.73,1.11,2.41.67,2.82-.54.5-.9,1.04-2.83.85-1.31-.12-3.51-1.1-5.45-1.95-1.12-.49-2.19-1-3.41-2-.23-.19-.43-.58-.46-.87-.15-1.43-.53-5.37-.33-6.53.2-1.16,3.74.56,5.04,1.23.26.13.48.48.49.78Z"/>
          <path class="cls-11" d="m9.47,103.58c.09,3.4.49,6.57.49,6.57,0,0,2.96,30.37,3.42,30.76.86.7,1.87.8,2.81.64h0c1.73-.3,3.23-1.48,3.23-1.48l.6-47.56s-6.53,1.45-9.12,3.21c-1.3.87-1.54,4.47-1.45,7.86Z"/>
          <path class="cls-10" d="m9.47,103.58c.09,3.4.49,6.57.49,6.57,0,0,2.96,30.37,3.42,30.76.86.7,1.87.8,2.81.64-.37-1.43-1.07-5.38-1.38-7.88-.52-4.22-.76-23.03-1.12-24.36-.36-1.33-2.39-4.82-2.39-4.82,0,0-.93-1.03-1.84-.92Z"/>
          <path class="cls-5" d="m7.27,146.05v.63c0,.29.17.7.38.9,1.08,1.05,4.13,4.01,4.94,4.61.73.55,1.02,1.4.93,1.95-.05.29-.37.67-.59.86-.36.3-1.03.63-2.18.52-1.92-.18-5.23-1.33-9.42-4.95-.22-.19-.39-.59-.38-.88.06-1.3.21-4.63.41-5.79.2-1.2,4.09.67,5.46,1.36.26.13.47.48.47.78Z"/>
          <path class="cls-12" d="m1.16,145.76c.15.38.81.84,1.71,1.13,1.34.43,3.21.44,4.64-.83l7.06-47.74-7.52-1.78-3.45-.81s-1.86,4.7-.95,12.33c.47,3.94-2.2,35.85-1.49,37.7Z"/>
          <path class="cls-10" d="m1.16,145.76c.15.38.81.84,1.71,1.13,2.86-6.13,2.55-21.13,2.82-25.39.35-5.42,3.77-23.16,3.77-23.16l-2.41-1.8-3.45-.81s-1.86,4.7-.95,12.33c.47,3.94-2.2,35.85-1.49,37.7Z"/>
          <path class="cls-20" d="m41.3,77.17c-.06.17-.11.26-.11.26,0,0-8.8,2.71-14.4,2.45-.47-.02-.92-.06-1.34-.13-1.3-.21-2.79-.91-4.25-1.88-2.67-1.77-5.27-4.45-6.59-6.71-.56-.96-.89-1.83-.91-2.54,0-.52.16-.94.53-1.24,2.73-2.15,5.64,1.59,6.97,2.93,1.17,1.18,4.99,4.18,5.19,4.09.19-.08,12.82-1.54,14.44-.23h0s.06.06.08.09c.87,1.11.57,2.38.38,2.91Z"/>
          <path class="cls-10" d="m21.2,77.87c-2.67-1.77-5.27-4.45-6.59-6.71-.13-1.56,0-2.89.43-3.72.27-.02.53-.02.77,0,3.43.16,4.89,4.84,5.4,10.44Z"/>
          <path class="cls-21" d="m20.05,92.52c-.18,1.85-.34,3.01-.34,3.01,0,0-.38.57-1.16,1.28-.6.59-1.44,1.27-2.51,1.84h0c-.39.23-.82.43-1.28.61-1.43.56-3.16.89-5.19.69-.19-.02-.38-.04-.57-.07-1.35-.2-2.82-.64-4.41-1.39-.02,0-.04-.02-.06-.04-1.1-.62-.99-3.35-1.05-6.71,0-.78-.03-1.58-.08-2.41,0-.26-.03-.51-.05-.76-.31-4.06-1.01-8.45-1.38-11.74v-.02c-.29-2.53-.37-4.41.06-5.01h0c2.25-3.11,9.11-6.1,12.93-5.93,6.93.32,5.81,19.16,5.09,26.65Z"/>
          <path class="cls-4" d="m13.71,66.2s-.63,2.6-1.33,3.04c-.91.57-3.31.03-4-1.69l.52-4.82,4.81,3.48Z"/>
          <path class="cls-2" d="m13.6,51.94c2.2.58,4.59,4.38,3.95,8.69-.8,5.42-3.05,8.26-6.24,6.06-2.29-1.58-4.68-3.44-3.78-10.48.44-3.49,4.24-4.76,6.07-4.27Z"/>
          <path class="cls-7" d="m13.7,49.79c2.23.46,4.17,2.87,4.93,4.96.2.4.31,1.14,2.27.65,0,0-.96,4.9-6.15,4.67-2.09-.09-2.98-.64-3.29-1.26-.27-.17-.4-.29-.4-.29-1.1,1.37-.51,3.85-.51,3.85l-.59.3c-.47-.17-.86-1.48-.86-1.48l-1.41.49c-1.95-3.03-1.59-7.66-1.59-7.66-.41-2.67,3.31-5.11,7.6-4.22Z"/>
          <path class="cls-2" d="m9.1,61.19s.11-3.31-1.55-3.04c-1.66.27-.36,4.58,1.31,3.81l.24-.77Z"/>
          <path class="cls-10" d="m9.57,99.95h0c-.19,0-.38-.04-.57-.07-1.33-.24-2.75-.8-4.41-1.4-.02,0-.04,0-.06-.03-1.1-.62-.99-3.35-1.05-6.71,0-.78-.03-1.58-.08-2.41,0-.26-.03-.51-.05-.76l6.25,4.32s.84,4.56-.03,7.05Z"/>
          <path class="cls-10" d="m1.97,76.81v.02c.37,3.3,1.07,7.69,1.38,11.75.02.26.04.51.05.76.05.83.07,1.63.08,2.41.73.67,2.27,1.43,3.1,2.06l5.95-2.92c-1.15-1.22-2.23-3.02-2.97-3.53-2.25-1.6-2.51-4.9-2.5-8.96,0-4.74-2.54-5.98-2.54-5.98-.63-.31-1.15-.54-1.59-.7-.55.52-.78,2.48-.96,5.1Z"/>
          <path class="cls-2" d="m18.03,97.39s1.41-.42,2.34,0c.93.42,3.22.58,2.82,1.42-.4.84-2.17.18-1.91.52.25.34,4.55,3.31,4.23,3.85-.32.54-1.02.25-1.02.25,0,0,1,.97.73,1.42-.28.45-.83.36-1.36.01,0,0,.14,1.12-1.36.25,0,0-.03.51-1.13-.03-1.09-.53-4.24-2.39-5.14-5.42,0,0,1.15-2.18,1.8-2.27Z"/>
          <path class="cls-19" d="m6.34,79.29c.02-2.02.7-7.03-2.98-7.5-3.68-.47-4.42,13.04-1.04,17.79,3.38,4.75,11.96,9.11,12.96,9.93.66.54,2.5-.3,2.78-2.26.27-1.96-10.76-10.87-10.96-10.95-.21-.09-.77-5.25-.75-7.01Z"/>
        </g>
      </g>
    </g>
  </g>
</svg>