<?xml version="1.0" encoding="UTF-8"?>
<svg xmlns="http://www.w3.org/2000/svg" xmlns:xlink="http://www.w3.org/1999/xlink" viewBox="0 0 110 91.9">
  <defs>
    <style>
      .cls-1 {
        fill: url(#linear-gradient);
      }

      .cls-2 {
        fill: #f5d163;
      }

      .cls-3 {
        fill: #eac0a3;
      }

      .cls-4 {
        fill: #e8b79b;
      }

      .cls-5 {
        fill: #ddb094;
      }

      .cls-6 {
        fill: #dbeae8;
      }

      .cls-7 {
        fill: #d5e6e4;
      }

      .cls-8 {
        fill: #101429;
      }

      .cls-9 {
        fill: #6bc2c4;
      }

      .cls-10 {
        fill: #646899;
      }

      .cls-11 {
        fill: #2e2f5e;
      }

      .cls-12 {
        fill: #282a53;
      }

      .cls-13 {
        fill: #d5e7e7;
      }

      .cls-13, .cls-14, .cls-15 {
        mix-blend-mode: multiply;
      }

      .cls-14 {
        fill: #d6d7d8;
      }

      .cls-15 {
        fill: #e4e5e6;
      }

      .cls-16 {
        fill: url(#linear-gradient-8);
      }

      .cls-17 {
        fill: url(#linear-gradient-9);
      }

      .cls-18 {
        fill: url(#linear-gradient-3);
      }

      .cls-19 {
        fill: url(#linear-gradient-4);
      }

      .cls-20 {
        fill: url(#linear-gradient-2);
      }

      .cls-21 {
        fill: url(#linear-gradient-6);
      }

      .cls-22 {
        fill: url(#linear-gradient-7);
      }

      .cls-23 {
        fill: url(#linear-gradient-5);
      }

      .cls-24 {
        fill: url(#linear-gradient-14);
      }

      .cls-25 {
        fill: url(#linear-gradient-18);
      }

      .cls-26 {
        fill: url(#linear-gradient-22);
      }

      .cls-27 {
        fill: url(#linear-gradient-20);
      }

      .cls-28 {
        fill: url(#linear-gradient-21);
      }

      .cls-29 {
        fill: url(#linear-gradient-23);
      }

      .cls-30 {
        fill: url(#linear-gradient-15);
      }

      .cls-31 {
        fill: url(#linear-gradient-19);
      }

      .cls-32 {
        fill: url(#linear-gradient-16);
      }

      .cls-33 {
        fill: url(#linear-gradient-17);
      }

      .cls-34 {
        fill: url(#linear-gradient-13);
      }

      .cls-35 {
        fill: url(#linear-gradient-12);
      }

      .cls-36 {
        fill: url(#linear-gradient-10);
      }

      .cls-37 {
        fill: url(#linear-gradient-11);
      }

      .cls-38 {
        fill: url(#linear-gradient-27);
      }

      .cls-39 {
        fill: url(#linear-gradient-24);
      }

      .cls-40 {
        fill: url(#linear-gradient-26);
      }

      .cls-41 {
        fill: url(#linear-gradient-25);
      }

      .cls-42 {
        isolation: isolate;
      }
    </style>
    <linearGradient id="linear-gradient" x1="2205.86" y1="54.2" x2="2232.36" y2="54.2" gradientTransform="translate(2299 -64.15) rotate(178.46) scale(1 -1)" gradientUnits="userSpaceOnUse">
      <stop offset="0" stop-color="#5da098"/>
      <stop offset=".45" stop-color="#5a9c94"/>
      <stop offset=".87" stop-color="#549389"/>
      <stop offset="1" stop-color="#518f84"/>
    </linearGradient>
    <linearGradient id="linear-gradient-2" x1="1640.76" y1="57.33" x2="1647.91" y2="57.52" gradientTransform="translate(1688.13 -240.71) rotate(171.48) scale(1 -1)" gradientUnits="userSpaceOnUse">
      <stop offset="0" stop-color="#3d497f"/>
      <stop offset="1" stop-color="#282a53"/>
    </linearGradient>
    <linearGradient id="linear-gradient-3" x1="6881.47" y1="58.76" x2="6904.63" y2="58.76" gradientTransform="translate(6971.71) rotate(-180) scale(1 -1)" gradientUnits="userSpaceOnUse">
      <stop offset="0" stop-color="#d5e6e4"/>
      <stop offset="1" stop-color="#adcfcf"/>
    </linearGradient>
    <linearGradient id="linear-gradient-4" x1="1486.77" y1="56.84" x2="1509.58" y2="56.84" gradientTransform="translate(-1414.86)" xlink:href="#linear-gradient-2"/>
    <linearGradient id="linear-gradient-5" x1="2098.82" y1="29.21" x2="2138.51" y2="29.21" gradientTransform="translate(2186.48) rotate(-180) scale(1 -1)" gradientUnits="userSpaceOnUse">
      <stop offset="0" stop-color="#357181"/>
      <stop offset="1" stop-color="#3c7e87"/>
    </linearGradient>
    <linearGradient id="linear-gradient-6" x1="1462.84" y1="28.97" x2="1502.52" y2="28.97" gradientTransform="translate(-1414.86)" gradientUnits="userSpaceOnUse">
      <stop offset="0" stop-color="#529e9d"/>
      <stop offset="1" stop-color="#41868a"/>
    </linearGradient>
    <linearGradient id="linear-gradient-7" x1="2106.33" y1="27.67" x2="2133.75" y2="27.67" gradientTransform="translate(2186.48) rotate(-180) scale(1 -1)" gradientUnits="userSpaceOnUse">
      <stop offset="0" stop-color="#282a53"/>
      <stop offset=".45" stop-color="#151839"/>
      <stop offset="1" stop-color="#282a53"/>
    </linearGradient>
    <linearGradient id="linear-gradient-8" x1="2108.15" y1="31.87" x2="2116.23" y2="31.87" xlink:href="#linear-gradient-7"/>
    <linearGradient id="linear-gradient-9" x1="1459.16" y1="-200.32" x2="1485.11" y2="-200.32" gradientTransform="translate(-1414.86 1065.51) rotate(-30) scale(1.15 .87) skewX(-23.41)" xlink:href="#linear-gradient-6"/>
    <linearGradient id="linear-gradient-10" x1="3525.6" y1="281.47" x2="3548.73" y2="281.47" gradientTransform="translate(3581.52 637.36) rotate(-165.52) scale(1 -1)" xlink:href="#linear-gradient-6"/>
    <linearGradient id="linear-gradient-11" x1="2508.28" y1="32.81" x2="2527.51" y2="32.81" gradientTransform="translate(2608.44 96.95) rotate(-177.87) scale(1 -1)" xlink:href="#linear-gradient-6"/>
    <linearGradient id="linear-gradient-12" x1="3536.03" y1="289.5" x2="3558.2" y2="289.5" gradientTransform="translate(3581.52 637.36) rotate(-165.52) scale(1 -1)" xlink:href="#linear-gradient-6"/>
    <linearGradient id="linear-gradient-13" x1="6861.96" y1="49.68" x2="6889.29" y2="49.68" xlink:href="#linear-gradient-3"/>
    <linearGradient id="linear-gradient-14" x1="6862.23" y1="49.25" x2="6905.34" y2="49.25" gradientTransform="translate(6971.71) rotate(-180) scale(1 -1)" gradientUnits="userSpaceOnUse">
      <stop offset="0" stop-color="#91bbb2"/>
      <stop offset="1" stop-color="#77aca6"/>
    </linearGradient>
    <linearGradient id="linear-gradient-15" x1="885.44" y1="68.98" x2="913.84" y2="68.98" gradientTransform="translate(931.24) rotate(-180) scale(1 -1)" gradientUnits="userSpaceOnUse">
      <stop offset="0" stop-color="#46518b"/>
      <stop offset="1" stop-color="#2e2f5e"/>
    </linearGradient>
    <linearGradient id="linear-gradient-16" x1="898.61" y1="85.51" x2="911" y2="85.51" gradientTransform="translate(931.24) rotate(-180) scale(1 -1)" gradientUnits="userSpaceOnUse">
      <stop offset=".45" stop-color="#151943"/>
      <stop offset="1" stop-color="#2e2f5e"/>
    </linearGradient>
    <linearGradient id="linear-gradient-17" x1="882.02" y1="81.22" x2="897.63" y2="81.22" gradientTransform="translate(931.24) rotate(-180) scale(1 -1)" gradientUnits="userSpaceOnUse">
      <stop offset="0" stop-color="#2e2f5e"/>
      <stop offset=".45" stop-color="#151943"/>
      <stop offset="1" stop-color="#2e2f5e"/>
    </linearGradient>
    <linearGradient id="linear-gradient-18" x1="899.45" y1="86.02" x2="911" y2="86.02" gradientTransform="translate(931.24) rotate(-180) scale(1 -1)" gradientUnits="userSpaceOnUse">
      <stop offset="0" stop-color="#2e2f5e"/>
      <stop offset=".55" stop-color="#151943"/>
    </linearGradient>
    <linearGradient id="linear-gradient-19" x1="1155.73" y1="55.75" x2="1179.3" y2="55.75" gradientTransform="translate(1181) rotate(-180) scale(1 -1)" gradientUnits="userSpaceOnUse">
      <stop offset="0" stop-color="#f4d960"/>
      <stop offset="1" stop-color="#e0c441"/>
    </linearGradient>
    <linearGradient id="linear-gradient-20" x1="893.39" y1="75.8" x2="929.75" y2="75.8" xlink:href="#linear-gradient-15"/>
    <linearGradient id="linear-gradient-21" x1="3324.69" y1="67.74" x2="3358.82" y2="67.74" gradientTransform="translate(3367) rotate(-180) scale(1 -1)" gradientUnits="userSpaceOnUse">
      <stop offset="0" stop-color="#3d7c8d"/>
      <stop offset="1" stop-color="#458793"/>
    </linearGradient>
    <linearGradient id="linear-gradient-22" x1="3324.77" y1="67.13" x2="3358.73" y2="67.13" gradientTransform="translate(3367) rotate(-180) scale(1 -1)" gradientUnits="userSpaceOnUse">
      <stop offset="0" stop-color="#5da8a8"/>
      <stop offset="1" stop-color="#4a9097"/>
    </linearGradient>
    <linearGradient id="linear-gradient-23" x1="3327.99" y1="67.97" x2="3351.57" y2="67.97" gradientTransform="translate(3367) rotate(-180) scale(1 -1)" xlink:href="#linear-gradient-17"/>
    <linearGradient id="linear-gradient-24" x1="3342.77" y1="63.79" x2="3349.71" y2="63.79" gradientTransform="translate(3367) rotate(-180) scale(1 -1)" xlink:href="#linear-gradient-17"/>
    <linearGradient id="linear-gradient-25" x1="1162.22" y1="54.75" x2="1180.75" y2="54.75" xlink:href="#linear-gradient-19"/>
    <linearGradient id="linear-gradient-26" x1="1149.2" y1="53.7" x2="1158.17" y2="53.7" xlink:href="#linear-gradient-19"/>
    <linearGradient id="linear-gradient-27" x1="3322.16" y1="-1990.89" x2="3344.04" y2="-1990.89" gradientTransform="translate(3367 130.66) rotate(150) scale(1.15 -.87) skewX(23.41)" gradientUnits="userSpaceOnUse">
      <stop offset="0" stop-color="#4a9097"/>
      <stop offset="1" stop-color="#40827a"/>
    </linearGradient>
  </defs>
  <g class="cls-42">
    <g id="_レイヤー_1" data-name="レイヤー 1">
      <g>
        <g>
          <path class="cls-1" d="m95.45,48.54s-.71,10.6-6.75,9.1c-6.04-1.5-21.34-9.7-19.74-13.54.68-1.64,1.34-2.89,6.69-2.18,5.35.7,19.81,6.63,19.81,6.63Z"/>
          <path class="cls-8" d="m87.73,66.02l.8,2.47-1.05,5.71-1.1-.04-.42-2.96-1.47,2.69s-3.7.56-4.47-1.07c-.77-1.63.87-2.04,1.84-2l1.46-5.03s2.89-.47,4.42.24Z"/>
          <path class="cls-8" d="m73.57,71.24s.34-.04.41,2.14c.04,1.04.05.91-.47,3.88,0,0-.5.2-.71-.03l-.57-2.52s-2.02,2.67-3.31,2.81c-1.3.14-6.01.02-6.01-.83,0-.85,3.05-1.7,4.01-2.42.96-.72,3.06-3.44,3.06-3.44,0,0,3.03-.07,3.59.4Z"/>
          <path class="cls-20" d="m66.7,47.89c-1.45,3.43.95,18.61,2.43,24.03,0,0,1.75,2,4.4-.41,0,0,.48-16.85-1.33-20.71-1.81-3.86-4.91-4.31-5.51-2.91Z"/>
          <path class="cls-12" d="m85.4,88.94c1.08,0,2.15-.24,2.99-.72l16.28-9.4c.97-.56,1.52-1.39,1.52-2.29,0-.89-.56-1.73-1.53-2.28l-10.72-6.17c-1.08-.62-2.03-2.26-2.03-3.5v-13.3s-1.94,0-1.94,0v13.3c.01,1.94,1.33,4.21,3.01,5.18l10.73,6.17c.41.24.56.48.56.61,0,.13-.14.37-.55.61l-16.28,9.4c-1.08.62-2.97.62-4.05,0l-11.43-6.62c-1.08-.62-2.03-2.27-2.03-3.51v-17.69h-1.93s0,17.69,0,17.69c0,1.94,1.31,4.21,2.99,5.19l11.42,6.62c.84.49,1.92.73,3,.73Z"/>
          <path class="cls-18" d="m67.59,59.59l14.05,8.11c.35.2.7.37,1.04.52,4.13,1.79,7.33-.43,7.34-5.35l.23-11.51-4.12-2.38c-.69-.4-1.81-.4-2.51,0l-.61.35-15.4,8.82c-.69.4-.69,1.04,0,1.44Z"/>
          <path class="cls-19" d="m94.71,54.56s-.71,10.6-6.76,9.1c-3.87-.96-11.48-4.48-16.05-7.9l10.22-5.9c5.95,1.97,12.59,4.7,12.59,4.7Z"/>
          <g>
            <path class="cls-23" d="m47.97,30.6h0c.02.33.17.65.47.82l15.58,8.95c.47.27,1.24.27,1.71,0l21.47-12.39c.3-.18.44-.49.45-.8.01-.34-.14-.69-.39-.86l-15.65-8.28c-.47-.28-1.24-.28-1.71,0l-21.58,11.75c-.25.19-.36.5-.34.8Z"/>
            <path class="cls-21" d="m47.97,30.6h0c.08.12.2.23.35.32l15.58,8.94c.26.15.61.24.97.24s.71-.09.98-.24l21.47-12.38c.14-.08.26-.18.33-.29.01-.34-.14-.69-.39-.86l-15.65-8.28c-.47-.28-1.24-.28-1.71,0l-21.58,11.75c-.25.19-.36.5-.34.8Z"/>
            <path class="cls-22" d="m62.79,35.42l17.07-9.85c.38-.22.38-.57,0-.79l-8.42-4.87c-.37-.22-.98-.22-1.36,0l-17.07,9.85c-.38.22-.38.57,0,.79l8.42,4.87c.37.22.99.22,1.36,0Z"/>
            <path class="cls-16" d="m73.22,34.15l5.03-2.9c.11-.06.11-.17,0-.23l-2.48-1.43c-.11-.06-.29-.06-.4,0l-5.03,2.9c-.11.06-.11.17,0,.23l2.48,1.43c.11.06.29.06.4,0Z"/>
            <path class="cls-17" d="m69.48,18.48l-20.34,11.74c-.54.31-1.1.07-1.23-.54l-3.58-16.12c-.14-.61.19-1.37.74-1.68L65.4.14c.54-.31,1.1-.07,1.23.54l3.58,16.12c.14.61-.19,1.37-.74,1.68Z"/>
            <path class="cls-7" d="m45.44,13.32c-.03-.13.08-.38.2-.45L65.62,1.33l3.49,15.71c.03.13-.08.38-.2.45l-19.98,11.54-3.49-15.71Z"/>
          </g>
          <g>
            <path class="cls-4" d="m71.65,21.51c-.82-.3-.8.07-.8.07-1.14-.5-.95.28-.95.28-.41-.21-.8-.23-.96.11-.16.34.62.95.62.95,0,0-.52-.15-.7.26-.18.41,3.09,2.19,3.3,2.42.21.22-1.1-.11-1.32.51-.22.63,1.42.57,2.11.79.43.14.95.04,1.3-.06v.03s1.12,1.41,1.12,1.41c0,0,.59.42.98-.81.39-1.23.09-2.17.09-2.17-.87-2.09-3.96-3.51-4.78-3.81Z"/>
            <path class="cls-4" d="m64.94,31.49s.07-1.24-.46-1.92c-.53-.68-1.12-2.53-1.73-2.03-.61.5.29,1.82-.04,1.68-.33-.14-3.64-3.07-4.02-2.7-.38.37,0,.89,0,.89,0,0-1-.63-1.31-.31-.32.32-.13.75.26,1.12,0,0-.95.11.07,1.17,0,0-.41.12.25.92.66.79,2.82,3,5.49,3.13,0,0,1.56-1.38,1.5-1.94Z"/>
            <path class="cls-36" d="m95.94,16.25s2.64-.38,3.42,2.49c.78,2.87-1.46,6.41-3.04,8.93-1.58,2.52-6.36,11.23-9.56,9.22-3.2-2-12.58-9.15-12.58-9.15,0,0-.63-2.27,1.85-3.44,0,0,10.84,6.04,11.09,5.48.25-.56,5.49-12.95,8.82-13.53Z"/>
            <path class="cls-37" d="m84.53,36.77s-.79,11.96-2.13,15.61c0,0,2.38,2.48,6.1,2.51.97,0,2.18.02,3.47-.06h0c3.66-.22,7.85-1.11,8.2-4.7,0,0-1.6-8.5-1.45-12.64.15-4.13,4.47-12.81,1.15-18.92-1.55-2.85-9.3.17-9.3.17,0,0-5.37,1.21-6.92,2.98-.35.4-.69,1.16-.99,2.13-1.01,3.27-1.52,8.9-.27,11.03,1.19,2,2.13,1.88,2.13,1.88Z"/>
            <path class="cls-13" d="m84.53,36.77s-.79,11.96-2.13,15.61c0,0,2.38,2.48,6.1,2.51.97,0,2.18.02,3.47-.06-.14-.13-.37-.19-.71-.19-2.8.01-5.2-7.81-4.42-12.81.68-4.3,1.29-10.48,1.4-13.46.12-2.98-2.69-4.62-2.69-4.62l-2.89.11c-1.01,3.27-1.52,8.9-.27,11.03,1.19,2,2.13,1.88,2.13,1.88Z"/>
            <path class="cls-2" d="m89.97,35.26c-.3-.07-.55-.24-.76-.47-.82-.89-1.13-2.82-1.24-4.83-.09-.68-.1-1.5-.05-2.38,0-1.63.08-3.06.05-3.72-.1-2-1.47-2.79-.73-6.04.5-2.23-.38-3.98-.99-4.88-.26-.36-.55-.71-.9-1.08-2.76-2.92-3.12-6.81-.68-9.25,0,0,0,0,.01,0,.43-.44.97-.83,1.59-1.16,4.1-2.15,7.02-.22,7.02-.22,3.91.29,5.58,5.89,5.24,10.33-.36,4.68-.65,6.54-.15,10.05.07.37.14.76.2,1.15.06.26.13.53.2.8.42,1.53.94,4.49.95,4.52,1.71,9.56-7.02,7.87-9.78,7.2Z"/>
            <path class="cls-35" d="m83.83,21.41s2.64-.38,3.42,2.49c.79,2.87-1.46,6.42-3.04,8.93-1.58,2.52-6.36,11.23-9.56,9.22-3.2-2.01-11.77-8.46-11.77-8.46,0,0-.63-2.27,1.85-3.44,0,0,10.03,5.35,10.27,4.79.25-.56,5.49-12.95,8.82-13.53Z"/>
            <path class="cls-15" d="m89.97,35.26c-.3-.07-.55-.24-.76-.47.71-.26,1.62-.37,2.77-.24,6.71.76,3.71-5.16,3.99-15.63.28-10.48-3.64-12.79-3.64-12.79,0,0,.17-1.08-2.11-3.12-1.61-1.43-5.25-.53-5.53-.42.43-.44.97-.83,1.59-1.16,4.1-2.15,7.02-.22,7.02-.22,3.91.29,5.58,5.89,5.24,10.33-.36,4.68-.65,6.54-.15,10.05.07.37.14.76.2,1.15.06.26.13.53.2.8.42,1.53.94,4.49.95,4.52,1.71,9.56-7.02,7.87-9.78,7.2Z"/>
          </g>
          <path class="cls-34" d="m82.42,68.22l.68,1.11s.64.26,1.66.46h0c1.76.36,4.64.56,7.27-.95,4.16-2.4,17.02-8.83,17.5-11.37.12-.61.17-2.52.2-5.07.07-6.54-.11-17.28-.17-21.02-.02-.06-.05-.12-.08-.17-.31-.63-.8-1.09-1.42-1.4,0,0-.02-.01-.02-.01-1.93-.96-5.04-.44-7.62,1.04l-1.77,1.01c-4.63,2.65-8.46,9.12-8.56,14.45l-.1,5.06-.23,11.51c0,4.92-3.21,7.15-7.33,5.35Z"/>
          <path class="cls-24" d="m66.85,60.42l14.05,8.11c.38.22.76.41,1.14.57.93.41,1.85.63,2.72.69h0c.12,0,.24,0,.36,0,1.06,0,2.05-.28,2.9-.83,1.74-1.14,2.69-3.31,2.7-6.1l.33-16.55c.1-5.02,3.72-11.13,8.08-13.63l1.77-1.02c1.03-.59,2.92-1.2,4.05-1.27,1.63-.1,3.02-.1,4.54.8-.61-1.04-1.41-1.54-1.41-1.54-.72-.56-2.63-1.18-4.41-.9-1.17.18-2.44.5-3.72,1.24l-1.77,1.02c-4.89,2.8-8.95,9.65-9.05,15.27l-.33,16.57c0,2.15-.65,3.74-1.83,4.51-1.06.7-2.53.69-4.16-.02-.31-.13-.63-.3-.94-.48l-14.05-8.11c-.46-.27-1.05-.11-1.32.35-.27.46-.11,1.05.35,1.32Z"/>
        </g>
        <g>
          <path class="cls-30" d="m20.88,62.06s15.43-5.95,17.94-5.95,9.02,1.77,6.32,6.6c-2.7,4.84-16.74,19.15-16.74,19.15,0,0-4.36-1.39-4.6-2.88-.24-1.49,4.44-9.04,4.44-9.04,0,0-8.95,3.24-10.53,1.82-1.58-1.42,3.16-9.7,3.16-9.7Z"/>
          <path class="cls-32" d="m24.49,87.88c2.76,2.55,5.2,4.45,6.8,3.94t.02-.02c.2-.07.38-.16.56-.29v-.02c.2-.15.38-.36.54-.64,1.42-2.45-4.76-10.96-4.76-10.96,0,0,.62-1.77-4.64,0-.07.02-.13.05-.18.07-.18.06-.33.11-.47.18-4.32,1.77-1.21,4.63,2.14,7.74Z"/>
          <path class="cls-33" d="m34.63,82.5s3.87,1.2,4.95,1.86c1.07.66,3.88,1.68,6.65,1.25,2.76-.43,3.99-3.55,2.04-5.29-1.94-1.74-12.42-4.5-13.29-3.32-.87,1.17-2.42,4.81-.35,5.5Z"/>
          <path class="cls-10" d="m24.49,87.88c2.76,2.55,5.2,4.45,6.8,3.94t.02-.02c.2-.07.38-.16.56-.29v-.02c.18-.36.26-.87-.05-1.55-.97-2.19-5.51-9.24-9-9.98-.18.06-.33.11-.47.18-4.32,1.77-1.21,4.63,2.14,7.74Z"/>
          <path class="cls-25" d="m24.49,87.88c2.76,2.55,5.2,4.45,6.8,3.94t.02-.02c.44-.36.65-.93.28-1.77-.96-2.19-5.82-9.75-9.24-9.9-4.32,1.77-1.21,4.63,2.14,7.74Z"/>
          <g>
            <path class="cls-31" d="m1.82,71.25c.09.26.19.45.34.59.01,0,.15-.75.2-.94,0-.02,0-.03.01-.04,0,.01.01.02.03.03,1.56,1.2,3.05,2.02,4.5,2.56.11.04.21.09.31.12.11.03.2.06.3.11,2.18.7,4.16.74,5.86.46.54-.09,1.05-.2,1.55-.34v-.02c1.31-.38,2.4-.91,3.21-1.42,1.01-.61,1.56-1.14,1.56-1.14,0,0,.45-1.24,1.09-3.23.61-1.95,1.42-4.64,2.18-7.61.18-.72.37-1.46.54-2.2.03-.14.06-.28.1-.42.32-1.42.62-2.87.87-4.31,1.1-6.23,1.32-12.31-1.14-14.83-.01-.02-.03-.04-.05-.05-.27-.29-.58-.52-.94-.7h-.01c-.26-.14-.53-.25-.83-.32-.53-.14-1.12-.24-1.76-.29h-.01c-.85-.08-1.75-.08-2.72,0-1,.06-2.03.2-3.06.41h-.01c-3.17.6-6.3,1.8-8.01,3.31h-.01c-.2.19-.38.55-.53,1.06-.24.73-.42,1.8-.57,3.09,0,.02,0,.04-.01.07-.05.41-.1.83-.14,1.27t-.01.02c-.37,3.71-.63,8.7-1.26,13.22-.04.29-.08.56-.13.85-.13.92-.3,1.82-.49,2.66-.06.31-.12.62-.18.94-.57,2.87-1.17,5.76-.77,7.1Z"/>
            <path class="cls-5" d="m20.05,37.6s-1.31,2.7-2.18,3.02c-1.13.41-3.64-.75-3.99-2.81l1.71-5.17,4.46,4.96Z"/>
            <path class="cls-3" d="m23.31,21.92c2.27,1.16,4.01,5.89,2.28,10.47-2.17,5.76-5.3,8.35-8.28,5.18-2.14-2.28-4.33-4.88-1.68-12.39,1.32-3.73,5.78-4.22,7.68-3.26Z"/>
            <path class="cls-11" d="m23.93,19.59c2.34,1.03,3.9,4.14,4.24,6.61.13.49.07,1.32,2.33,1.25,0,0-2.22,5.14-7.86,3.67-2.28-.59-3.12-1.41-3.31-2.17-.25-.25-.38-.41-.38-.41-1.53,1.24-1.47,4.1-1.47,4.1l-.72.19c-.48-.3-.6-1.83-.6-1.83l-1.67.2c-1.43-3.79.07-8.79.07-8.79.18-3.03,4.85-4.82,9.35-2.83Z"/>
            <path class="cls-3" d="m16.18,31.01s.91-3.61-.98-3.71c-1.88-.1-1.47,4.94.53,4.49l.44-.78Z"/>
            <path class="cls-14" d="m7.53,73.68h0c-.2-.06-.4-.14-.61-.22-1.41-.57-2.83-1.54-4.5-2.58-.01-.01-.02-.02-.03-.02-.01,0-.14,1.31-.15,1.29-1.05-.94-.17-5.23.55-8.93.18-.85.35-1.74.48-2.66.05-.29.08-.57.13-.85.62-4.52.88-9.51,1.25-13.22t0-.02c.19-1.89.37-3.01,1.31-3.43,1.71-.77,5.04.25,5.17,1.73.45,5.7-2.08,26.38-3.61,28.92Z"/>
          </g>
          <path class="cls-27" d="m37.08,77.16s1.02.82.72,3.27c-.31,2.45-4.19,2.04-5.01,2.15-.82.1-20.04.84-21.57.42-1.53-.42-9.73-5.1-9.73-10.3,0-3.52,1.48-4.23,5.74-4.23,4.5,0,9.61,5.72,11.96,5.62,2.35-.1,17.89,3.07,17.89,3.07Z"/>
          <g>
            <path class="cls-28" d="m8.18,68.94h0c.02.29.15.56.4.71l13.4,7.7c.41.24,1.07.24,1.47,0l18.47-10.65c.26-.15.38-.42.39-.69,0-.29-.12-.59-.33-.74l-13.46-7.12c-.4-.24-1.07-.24-1.47,0l-18.57,10.11c-.21.16-.31.43-.29.69Z"/>
            <path class="cls-9" d="m8.18,68.94h0c.07.11.17.2.3.27l13.4,7.69c.23.13.52.2.84.2s.61-.08.84-.2l18.47-10.65c.12-.07.22-.16.29-.25,0-.29-.12-.59-.33-.74l-13.46-7.12c-.4-.24-1.07-.24-1.47,0l-18.57,10.11c-.21.16-.31.43-.29.69Z"/>
            <path class="cls-26" d="m23.46,76.73l18.46-10.65c.41-.24.41-.62,0-.85l-13.41-7.69c-.41-.23-1.07-.23-1.47,0l-18.46,10.65c-.41.23-.41.62,0,.85l13.41,7.69c.41.24,1.07.24,1.47,0Z"/>
            <path class="cls-29" d="m24.09,74.64l14.68-8.47c.32-.19.32-.49,0-.68l-7.24-4.19c-.32-.19-.85-.19-1.17,0l-14.68,8.47c-.33.19-.33.49,0,.68l7.24,4.19c.32.19.85.19,1.17,0Z"/>
            <path class="cls-39" d="m19.84,65.76l4.32-2.49c.09-.06.09-.14,0-.2l-2.13-1.23c-.1-.05-.25-.05-.35,0l-4.32,2.5c-.1.06-.1.14,0,.2l2.13,1.24c.1.05.25.05.35,0Z"/>
          </g>
          <path class="cls-3" d="m17.09,65.99s1.15-.84,2.14-.75c.99.08,3.13-.5,3.03.4-.1.89-1.93.85-1.59,1.09.34.23,5.22,1.57,5.11,2.17-.12.6-.85.56-.85.56,0,0,1.22.56,1.12,1.06-.11.5-.64.6-1.24.44,0,0,.49.98-1.16.66,0,0,.13.48-1.04.34-1.17-.14-4.64-.83-6.44-3.32,0,0,.35-2.36.92-2.66Z"/>
          <path class="cls-41" d="m8.36,58.63s4.86-15.11,1.74-16.91c-3.11-1.8-5.06-1.42-6.41,5.52-1.35,6.96-4.93,16.37-2.78,16.92,2.15.56,14.05,5.22,16.37,4.44.78-.26,2.09-1.97,1.16-2.96-1.49-1.58-8.14-5.25-10.35-6.01l.26-1.01Z"/>
          <path class="cls-40" d="m22.83,59.97c2.89,1.85,6.83,3.42,6.83,3.42.25-.1.46-.22.65-.33,1.61-1.01,1.48-2.58,1.48-2.58l-6.57-6.3h-.01c.1-1.09.6-6.96-.02-10.14,0,0,.16,5.11-.71,9.42-.24,1.39-.53,2.77-.84,4.14-.01.08-.02.13-.03.17-.03.14-.06.28-.1.42-.17.74-.2,1.4-.68,1.79Z"/>
          <path class="cls-14" d="m22.83,59.97c2.89,1.85,6.83,3.42,6.83,3.42.25-.1.46-.22.65-.33-1.63-1.42-4.33-3.56-5.06-3.93-.33-.17-.25-2.44-.03-4.96h-.01c.1-1.09.6-6.96-.02-10.14,0,0,.16,5.11-.71,9.42-.24,1.39-.53,2.77-.84,4.14-.01.08-.02.13-.03.17-.03.14-.06.28-.1.42-.17.74-.2,1.4-.68,1.79Z"/>
          <g>
            <path class="cls-38" d="m23.67,76.66l17.77-10.26c.48-.28.95-.94,1.05-1.49l2.33-12.49c.1-.54-.21-.76-.68-.48l-17.78,10.25c-.48.28-.95.94-1.05,1.49l-2.33,12.49c-.1.55.21.76.69.48Z"/>
            <path class="cls-6" d="m33.48,64.61c0,.77.63,1.04,1.4.59.77-.45,1.4-1.44,1.4-2.21s-.63-1.04-1.4-.59c-.77.44-1.4,1.43-1.4,2.21Z"/>
          </g>
        </g>
      </g>
    </g>
  </g>
</svg>