<?xml version="1.0" encoding="UTF-8"?>
<svg id="_レイヤー_1" data-name="レイヤー 1" xmlns="http://www.w3.org/2000/svg" viewBox="0 0 448 448">
  <defs>
    <style>
      .cls-1 {
        fill: #fff;
      }
    </style>
  </defs>
  <path class="cls-1" d="m0,442.4c0,3.09,2.51,5.6,5.6,5.6h436.8c3.09,0,5.6-2.5,5.6-5.6V45.72c0-3.09-2.51-5.6-5.61-5.6h-50.38V5.6c0-3.09-2.51-5.6-5.6-5.6s-5.6,2.5-5.6,5.6v34.51h-97.07V5.6c0-3.09-2.51-5.6-5.6-5.6s-5.6,2.5-5.6,5.6v34.51h-97.07V5.6c0-3.09-2.51-5.6-5.6-5.6s-5.6,2.5-5.6,5.6v34.51h-97.07V5.6c0-3.09-2.51-5.6-5.6-5.6s-5.6,2.5-5.6,5.6v34.51H5.6c-3.09,0-5.6,2.5-5.6,5.6v396.68Zm11.2-5.6V126.58h425.6v310.22H11.2ZM55.98,51.31v29.78c0,3.09,2.51,5.6,5.6,5.6s5.6-2.5,5.6-5.6v-29.78h97.08v29.78c0,3.09,2.51,5.6,5.6,5.6s5.6-2.5,5.6-5.6v-29.78h97.07v29.78c0,3.09,2.51,5.6,5.6,5.6s5.6-2.5,5.6-5.6v-29.78h97.08v29.78c0,3.09,2.51,5.6,5.6,5.6s5.6-2.5,5.6-5.6v-29.78h44.77v64.07H11.2V51.31h44.78Z"/>
  <path class="cls-1" d="m332.75,224.79h-52.16v-52.16c0-3.09-2.51-5.6-5.6-5.6h-101.98c-3.09,0-5.6,2.51-5.6,5.61v52.16h-52.16c-3.09,0-5.6,2.5-5.6,5.6v101.98c0,3.09,2.51,5.6,5.6,5.6h52.16v52.16c0,3.09,2.51,5.6,5.6,5.6h101.98c3.09,0,5.6-2.5,5.6-5.6v-52.16h52.16c3.09,0,5.6-2.5,5.6-5.6v-101.98c0-3.1-2.51-5.6-5.6-5.6h0Zm-5.6,101.98h-52.16c-3.09,0-5.6,2.5-5.6,5.6v52.16h-90.77v-52.16c0-3.09-2.51-5.6-5.6-5.6h-52.16v-90.78h52.16c3.09,0,5.6-2.5,5.6-5.6v-52.15h90.78v52.16c0,3.09,2.51,5.6,5.6,5.6h52.16v90.78Z"/>
  <path class="cls-1" d="m261.02,237.37c-13.38-5.45-27.23-1.86-37.02,9.07-9.79-10.91-23.64-14.52-37.02-9.07-13.93,5.66-26.57,22.12-21.38,44.88,8.48,37.15,54.34,56.25,56.28,57.04.68.28,1.4.42,2.12.42s1.44-.14,2.12-.41c1.95-.79,47.81-19.89,56.28-57.04,5.19-22.76-7.45-39.21-21.38-44.88h0Zm10.46,42.38c-6.23,27.34-38.81,44.18-47.48,48.22-8.67-4.02-41.21-20.8-47.47-48.22-3.73-16.38,4.99-28.07,14.68-32.01,2.47-1,5.24-1.61,8.13-1.61,6.79,0,14.23,3.32,19.89,12.59,1.02,1.67,2.83,2.68,4.78,2.68s3.76-1.02,4.78-2.68c8.07-13.22,19.76-14.34,28.02-10.99,9.68,3.94,18.41,15.64,14.67,32.01h0Z"/>
</svg>